<?xml version="1.0" standalone="no"?>
<!DOCTYPE svg PUBLIC "-//W3C//DTD SVG 20010904//EN"
 "http://www.w3.org/TR/2001/REC-SVG-20010904/DTD/svg10.dtd">
<svg version="1.0" xmlns="http://www.w3.org/2000/svg"
 width="600.000000pt" height="797.000000pt" viewBox="0 0 600.000000 797.000000"
 preserveAspectRatio="xMidYMid meet">
<g transform="translate(0.000000,797.000000) scale(0.100000,-0.100000)"
fill="#000000" stroke="none">
<path d="M2895 7773 c-165 -11 -292 -70 -407 -191 -41 -42 -67 -61 -92 -66
-18 -4 -45 -15 -59 -26 -17 -14 -41 -20 -75 -20 -157 0 -354 -59 -430 -127 -7
-7 -19 -16 -25 -20 -53 -33 -161 -213 -128 -213 6 0 10 3 9 8 -2 4 7 24 20 44
26 42 139 117 215 142 57 19 180 39 204 33 21 -5 26 -2 -97 -42 -102 -33 -193
-82 -270 -146 -67 -56 -105 -116 -123 -195 l-13 -57 -21 26 c-17 22 -79 73
-193 156 -110 82 -218 165 -291 225 -47 39 -125 103 -173 141 -48 39 -99 80
-113 92 -81 67 -130 67 -126 -1 3 -38 33 -87 268 -431 141 -207 234 -337 254
-352 8 -7 11 -13 7 -13 -5 0 3 -15 17 -33 l25 -33 -30 -13 c-54 -24 -136 -119
-180 -208 -46 -94 -59 -107 -108 -121 -42 -11 -76 -7 -107 13 -94 62 -59 205
51 205 49 0 87 -75 54 -108 -9 -9 -8 -12 5 -12 9 0 17 3 18 8 0 4 2 18 4 32 5
33 -24 87 -49 94 -51 14 -78 6 -117 -33 -35 -35 -39 -44 -39 -89 0 -43 5 -57
30 -86 50 -56 110 -67 180 -32 36 18 42 0 9 -30 -48 -43 -109 -230 -81 -248 5
-3 12 18 15 47 5 47 55 193 63 184 2 -1 0 -36 -5 -77 -4 -42 -4 -113 1 -160
14 -128 14 -138 -13 -166 -27 -29 -67 -51 -89 -49 -8 1 -21 3 -27 3 -11 2 -43
52 -43 67 0 11 33 69 49 85 9 10 27 23 41 30 l25 13 -27 9 c-58 20 -150 -59
-188 -160 -60 -159 -22 -358 88 -459 71 -66 122 -85 222 -86 68 0 98 5 150 25
170 66 305 184 363 318 l15 35 0 -45 c0 -155 -52 -269 -148 -327 -34 -20 -141
-53 -174 -53 -32 0 -15 16 29 28 51 14 131 61 160 94 26 29 95 143 95 154 -1
14 -40 -40 -40 -54 0 -7 -5 -10 -12 -6 -6 4 -8 3 -4 -4 10 -16 -84 -107 -142
-136 -150 -76 -402 -72 -521 7 -20 13 -48 37 -64 52 -15 15 -30 25 -34 21 -9
-8 53 -71 95 -98 18 -11 54 -26 80 -33 l47 -12 -45 -8 c-103 -18 -212 -78
-294 -163 -107 -111 -150 -204 -152 -333 -2 -99 -23 -156 -52 -140 -9 5 -30
11 -47 12 -32 4 -33 2 -21 -61 7 -32 5 -37 -19 -50 -24 -13 -26 -19 -22 -55 2
-22 8 -50 12 -62 6 -18 2 -24 -17 -32 -13 -5 -30 -16 -37 -24 -18 -22 -19
-103 -2 -119 11 -11 13 -9 8 13 -4 14 -2 42 4 63 8 29 18 41 45 52 39 17 39
14 19 61 -23 54 -19 76 15 96 34 20 36 30 16 69 -18 35 -11 40 32 22 35 -14
36 -14 64 18 26 30 28 38 22 88 -21 201 146 430 368 504 70 24 91 26 247 26
l171 0 6 -27 c3 -16 13 -54 21 -87 8 -32 12 -61 9 -64 -10 -9 -90 19 -113 41
-13 11 -26 17 -30 13 -22 -22 118 -99 147 -81 6 4 10 -9 10 -30 0 -32 -4 -38
-35 -51 -58 -24 -135 -15 -157 20 -4 6 -10 7 -14 3 -11 -11 18 -39 61 -58 44
-21 100 -24 139 -9 25 9 26 8 26 -33 0 -35 -6 -47 -34 -73 -19 -18 -40 -34
-48 -36 -7 -3 -10 -9 -6 -13 11 -11 45 4 79 36 17 16 33 29 36 29 3 0 2 -21
-1 -47 -6 -44 -5 -46 8 -29 17 21 15 24 35 -50 6 -23 27 -77 46 -119 37 -80
36 -97 -3 -110 -10 -3 -27 -20 -39 -38 -31 -46 -31 -119 2 -199 20 -49 25 -79
25 -148 0 -116 -20 -179 -74 -235 -40 -42 -46 -45 -95 -45 -29 0 -62 5 -74 11
-27 15 -56 50 -57 69 0 8 -4 21 -9 29 -14 22 -39 -45 -45 -117 -4 -70 12 -156
37 -193 10 -14 17 -43 17 -72 0 -57 19 -107 54 -142 24 -24 25 -28 11 -48 -31
-49 -46 -112 -46 -202 1 -194 81 -327 237 -389 86 -35 206 -36 309 -3 19 6 21
2 22 -37 3 -80 68 -171 151 -211 24 -11 42 -27 42 -36 0 -10 -16 -73 -34 -140
-90 -320 -210 -883 -236 -1104 -16 -132 -17 -135 -38 -108 -36 46 -140 58
-197 23 l-32 -20 -6 40 c-9 70 -53 111 -179 168 -5 2 -8 -3 -8 -10 0 -8 25
-25 55 -37 77 -32 108 -75 120 -166 2 -16 4 -32 4 -33 1 -2 15 8 31 22 57 48
154 47 200 -1 l27 -28 -14 -145 c-7 -80 -14 -212 -15 -293 -2 -146 -3 -148
-26 -154 -31 -7 -245 5 -297 18 -54 13 -115 40 -115 51 0 12 -20 10 -35 -5 -7
-8 -51 -22 -97 -32 -102 -23 -349 -26 -450 -6 -81 16 -157 60 -160 93 -4 68
13 91 89 115 43 14 53 21 53 39 0 12 11 32 25 43 22 16 31 18 56 9 20 -7 28
-15 25 -25 -3 -8 -1 -11 4 -8 20 12 9 32 -31 54 -78 44 -101 152 -54 248 14
28 38 59 53 69 43 29 152 27 152 -2 0 -23 9 -17 74 49 84 84 140 111 233 112
l72 0 -15 23 c-8 12 -15 37 -16 56 -1 33 -2 34 -53 39 -102 10 -219 97 -272
201 -36 69 -44 198 -18 257 10 21 22 39 27 39 4 0 8 4 8 8 0 5 -27 14 -61 20
-106 19 -199 96 -245 202 -29 68 -26 197 8 270 28 61 90 128 128 137 31 8 42
23 28 40 -15 18 -5 111 17 157 48 100 157 167 285 174 69 4 80 1 134 -27 32
-17 62 -31 68 -31 19 0 -22 31 -74 55 -142 66 -342 -3 -422 -145 -27 -48 -31
-65 -31 -128 0 -66 -2 -73 -21 -78 -12 -3 -38 -23 -59 -45 -31 -33 -43 -39
-64 -34 -37 9 -88 46 -100 73 -16 35 -14 99 4 106 27 10 16 22 -35 35 -128 33
-223 177 -187 284 10 31 50 62 91 73 22 5 26 11 21 28 -3 11 -9 51 -12 88 -5
60 -3 72 21 112 32 55 77 88 130 96 36 4 41 9 50 40 24 83 151 160 264 160
137 0 296 -140 349 -306 9 -29 20 -51 24 -49 10 7 -16 88 -48 147 -72 132
-208 228 -324 228 -113 0 -234 -70 -274 -159 -14 -33 -23 -41 -44 -41 -40 0
-141 -73 -141 -101 0 -23 -42 -5 -74 32 -58 69 -59 186 -1 272 31 45 31 47 -2
47 -29 0 -95 28 -124 52 -9 7 -28 31 -43 52 -21 32 -26 50 -26 103 0 35 6 79
14 97 28 66 103 120 198 140 20 5 25 10 21 26 -14 53 42 126 130 169 39 19 59
22 124 19 43 -2 85 -7 93 -11 11 -5 20 5 34 40 25 60 133 169 200 202 73 36
174 40 253 11 68 -24 107 -56 149 -119 32 -49 46 -38 15 11 -85 138 -270 187
-424 114 -69 -33 -174 -133 -200 -191 l-18 -40 -107 0 c-106 0 -107 0 -163
-36 -64 -42 -100 -87 -108 -136 -5 -31 -12 -37 -57 -53 -61 -21 -103 -50 -135
-94 -22 -28 -24 -41 -24 -141 0 -105 1 -112 27 -146 28 -36 112 -89 142 -89
15 0 15 -3 0 -32 -56 -107 -46 -229 24 -295 19 -18 40 -33 46 -33 7 0 11 -32
11 -94 l0 -93 -38 -22 c-76 -44 -94 -114 -56 -215 24 -65 97 -137 161 -158
l42 -14 -3 -50 c-3 -70 25 -117 89 -146 30 -14 46 -26 41 -33 -23 -29 -41
-115 -41 -194 0 -74 4 -95 29 -147 16 -34 44 -77 63 -97 39 -40 116 -81 170
-91 40 -7 46 -14 26 -34 -18 -18 -16 -197 3 -242 58 -139 181 -236 323 -254
12 -2 21 -12 23 -27 3 -23 -2 -26 -68 -41 -80 -19 -151 -61 -204 -119 -31 -35
-38 -38 -57 -28 -32 17 -133 6 -166 -18 -43 -32 -82 -116 -82 -178 0 -56 23
-125 46 -138 18 -10 18 -27 1 -27 -18 0 -47 -32 -47 -52 0 -10 -17 -21 -45
-29 -69 -20 -105 -58 -105 -110 0 -36 6 -48 38 -78 64 -61 165 -80 402 -77
114 2 164 7 236 25 l90 23 42 -21 c52 -27 148 -41 284 -41 84 0 110 3 122 16
9 8 16 11 16 5 0 -20 108 -43 193 -40 57 1 95 -3 127 -15 68 -25 237 -39 405
-33 221 9 357 42 379 93 9 20 16 21 67 17 41 -4 66 -1 89 11 40 19 40 19 40 3
0 -14 52 -39 115 -56 61 -16 321 -33 400 -26 39 3 108 11 154 17 73 10 88 16
114 42 50 52 167 302 152 326 -3 5 0 7 7 5 12 -5 12 -18 0 -83 -13 -74 -19
-95 -65 -226 -19 -53 -19 -61 -6 -85 16 -29 75 -52 199 -78 90 -19 303 -13
420 12 76 16 190 59 200 75 10 16 220 12 295 -4 83 -19 243 -21 330 -4 50 9
70 8 94 -2 17 -7 31 -16 31 -20 0 -14 -92 -39 -165 -45 -38 -3 -90 -8 -115
-10 -25 -2 -80 -4 -122 -4 -63 -1 -76 -4 -72 -15 4 -11 -6 -16 -38 -20 -142
-17 -389 -28 -723 -32 -209 -3 -391 -10 -405 -15 -58 -21 -1858 -9 -1872 14
-5 8 -52 11 -170 8 -90 -1 -217 2 -283 8 -66 6 -187 16 -270 22 -178 12 -417
44 -488 65 -37 11 -3 36 67 49 20 4 36 11 36 16 0 12 -8 11 -68 -6 -57 -17
-84 -38 -76 -60 3 -8 9 -14 12 -13 4 1 25 -4 47 -10 135 -40 604 -81 970 -84
132 -1 200 -6 222 -15 25 -10 157 -14 565 -19 293 -3 601 -8 683 -11 83 -2
263 1 400 7 138 6 399 15 580 20 313 8 635 23 773 36 39 4 62 11 62 19 0 8 40
14 143 19 174 9 273 25 315 52 30 20 28 30 -10 44 l-33 11 58 19 c32 10 74 26
94 35 21 10 78 26 128 36 109 21 167 52 250 133 78 77 125 169 135 264 4 37
12 80 18 95 7 16 12 50 12 76 0 103 -54 188 -152 237 -62 32 -148 32 -205 0
-48 -27 -51 -47 -10 -66 28 -13 32 -21 35 -57 3 -34 -2 -47 -26 -74 -26 -29
-36 -33 -91 -37 -77 -6 -134 15 -186 65 -106 103 -113 269 -16 364 15 14 63
40 107 58 185 76 234 109 281 189 52 88 42 235 -24 367 -58 115 -169 247 -283
338 -49 38 -186 105 -248 119 -40 10 -51 16 -46 28 15 37 15 139 0 204 -30
125 -97 225 -202 297 -70 48 -118 61 -229 62 -89 0 -108 -3 -159 -26 -32 -15
-76 -41 -98 -59 -33 -26 -43 -29 -57 -20 -9 7 -31 22 -48 33 -18 12 -33 24
-33 27 0 4 17 18 38 32 30 20 50 25 107 26 102 1 181 46 221 127 9 18 28 43
43 57 48 43 64 86 58 154 -3 34 -8 69 -12 78 -5 13 3 22 32 37 51 25 122 103
130 141 5 28 17 39 25 22 5 -12 151 -81 160 -76 4 3 8 33 8 66 l0 61 65 59
c65 60 77 81 51 91 -12 5 -179 34 -226 40 -8 1 -27 18 -42 39 -15 20 -32 39
-39 44 -14 8 -49 -29 -49 -52 0 -21 17 -17 23 6 8 30 22 25 57 -20 23 -29 39
-40 58 -40 28 0 204 -29 210 -35 2 -1 -27 -31 -63 -65 -64 -62 -65 -64 -65
-117 0 -29 -3 -53 -7 -53 -5 0 -42 16 -84 37 l-77 38 -4 71 c-6 85 -29 137
-81 178 -35 28 -47 31 -120 34 -73 3 -86 1 -117 -20 -27 -19 -37 -34 -46 -73
-16 -73 -33 -95 -71 -95 -31 0 -73 28 -73 48 0 19 32 128 47 161 27 58 101
142 168 194 68 50 79 54 120 35 24 -11 29 -9 56 20 76 81 176 127 279 127 78
0 150 -25 192 -67 10 -10 18 -15 18 -11 0 11 50 -59 72 -101 24 -46 29 -175 8
-201 -12 -14 -7 -20 14 -16 5 1 27 -1 48 -4 76 -13 135 -105 126 -197 -3 -30
0 -38 12 -38 32 0 99 -40 132 -79 50 -59 71 -128 66 -214 -7 -101 -40 -160
-117 -205 l-33 -20 31 -28 c17 -15 45 -57 62 -93 29 -62 31 -71 27 -156 -4
-74 -10 -98 -31 -135 -55 -94 -142 -159 -213 -160 -31 0 -32 0 -27 -44 5 -41
3 -46 -23 -63 -16 -10 -30 -26 -32 -36 -3 -17 -2 -17 25 -1 42 26 53 44 53 86
0 33 3 38 23 38 80 1 200 113 235 220 39 116 11 260 -65 342 l-25 26 34 23
c72 47 103 131 96 258 -4 64 -10 87 -37 135 -35 61 -93 110 -141 121 -22 5
-28 11 -25 27 3 11 0 42 -6 68 -18 83 -83 150 -147 150 -30 0 -32 2 -25 28 21
77 -10 189 -72 259 -78 88 -199 131 -316 112 -34 -5 -67 -13 -73 -16 -45 -26
-125 -82 -148 -105 -27 -26 -78 -39 -78 -20 0 5 31 29 68 55 118 81 198 177
241 291 45 122 60 413 27 536 -52 192 -150 359 -253 431 l-23 16 34 64 c45 84
57 133 57 228 0 114 -38 222 -114 323 -32 43 -78 92 -102 108 -24 16 -50 36
-58 45 -40 40 -254 129 -351 147 -15 2 -20 13 -23 48 -8 113 -49 212 -120 285
-27 28 -52 51 -56 53 -4 1 -27 14 -51 29 -34 21 -46 35 -51 60 -11 62 -62 171
-101 218 -50 61 -127 119 -188 139 -53 18 -183 21 -236 6 -29 -9 -37 -7 -47 7
-45 66 -112 134 -174 176 -76 51 -207 86 -304 80z m220 -66 c49 -20 101 -49
115 -62 l25 -26 -50 24 c-99 48 -192 54 -330 22 -33 -8 -85 -15 -115 -16 -50
-2 -87 -12 -100 -28 -3 -4 -18 -14 -33 -24 -15 -10 -25 -23 -21 -29 4 -5 9 -6
13 -2 3 5 23 22 45 38 34 25 48 29 120 31 44 2 95 8 111 15 45 17 203 14 256
-5 24 -9 50 -17 57 -19 45 -9 171 -136 172 -173 0 -7 3 -13 8 -13 23 0 76
-169 69 -222 -3 -24 -2 -37 4 -31 27 27 3 176 -42 252 -16 26 -17 36 -8 42 31
19 172 25 209 9 122 -53 173 -92 230 -178 37 -56 38 -78 2 -36 -32 38 -128 98
-141 90 -5 -4 -13 -1 -16 5 -4 5 -13 8 -20 5 -7 -2 -16 1 -18 8 -7 16 -164 21
-187 6 -18 -12 -16 -12 77 -10 64 1 71 -1 69 -17 -2 -12 -16 -21 -44 -27 -23
-5 -42 -13 -42 -17 0 -5 4 -9 8 -9 5 0 18 -8 30 -18 19 -17 20 -23 11 -56 -13
-49 -7 -54 28 -22 32 30 46 32 67 11 27 -27 38 -18 31 24 -5 29 -2 42 10 55
26 26 56 19 117 -27 57 -42 77 -73 92 -144 l7 -32 -33 17 c-47 24 -196 24
-260 -1 -77 -30 -78 -49 -1 -21 75 26 191 32 240 13 88 -36 114 -52 164 -101
64 -62 108 -125 133 -187 20 -51 30 -148 16 -156 -6 -3 -38 1 -72 9 -99 23
-133 27 -177 20 -23 -4 -40 -8 -38 -11 3 -2 40 -6 83 -8 44 -2 100 -11 126
-19 25 -8 56 -12 67 -9 12 3 42 0 69 -7 26 -6 56 -14 66 -16 124 -24 272 -108
375 -212 109 -110 158 -239 148 -392 -5 -92 -14 -120 -61 -192 -94 -142 -312
-182 -443 -82 -38 29 -78 101 -87 160 l-7 40 60 -4 c51 -4 70 0 115 22 55 27
113 93 103 118 -3 8 -8 4 -15 -12 -26 -64 -109 -110 -199 -110 -47 0 -66 5
-98 27 l-40 27 46 7 c55 8 115 38 148 73 15 15 31 55 43 103 23 94 17 176 -18
244 -30 61 -107 144 -161 176 -48 28 -70 26 -26 -2 70 -46 138 -119 170 -183
20 -41 27 -72 29 -130 l4 -77 -19 55 c-35 109 -93 183 -189 244 -48 30 -135
64 -172 66 -90 7 -90 -15 0 -23 111 -10 266 -120 320 -226 24 -49 41 -134 34
-173 -14 -71 -115 -136 -195 -125 -21 3 -39 4 -39 3 0 -16 35 -65 54 -75 17
-10 25 -25 30 -58 16 -119 104 -218 211 -238 92 -17 231 10 265 50 54 65 228
-123 303 -325 63 -172 61 -370 -7 -509 -60 -124 -145 -192 -297 -240 -217 -67
-269 -85 -325 -111 -81 -39 -172 -107 -217 -162 -124 -151 -124 -401 -1 -547
41 -49 137 -119 212 -154 66 -31 70 -32 214 -32 l146 0 11 -36 c15 -50 14 -85
-5 -125 -20 -43 -49 -64 -87 -64 -57 0 -112 46 -134 114 -5 17 -14 31 -20 33
-15 5 16 -76 42 -108 27 -34 66 -58 97 -61 26 -2 26 -2 10 -34 -10 -17 -32
-45 -51 -60 -31 -26 -44 -29 -114 -33 l-80 -3 22 36 c28 44 30 119 5 171 -22
46 -120 125 -157 125 -40 0 -95 -39 -108 -77 -19 -59 13 -113 66 -113 18 0 39
7 46 17 12 15 12 16 -6 9 -38 -15 -55 -15 -68 0 -6 8 -17 20 -23 27 -16 17 5
75 35 96 43 30 58 31 92 8 83 -56 74 -215 -14 -264 -35 -19 -116 -16 -164 8
-24 11 -63 44 -88 72 -27 32 -45 45 -45 35 0 -23 80 -103 128 -127 92 -47 203
-16 243 67 21 43 22 76 3 152 -6 24 -5 24 19 -5 85 -101 32 -240 -117 -308
-50 -23 -203 -25 -263 -3 -62 22 -132 65 -178 108 -22 21 -45 38 -51 38 -7 0
-14 6 -17 14 -5 12 0 12 26 5 40 -11 120 -12 113 0 -3 4 -36 11 -73 14 -130
13 -235 91 -300 226 -36 74 -37 79 -38 191 0 106 2 119 27 170 41 82 91 130
136 131 44 0 104 20 109 35 3 8 -13 7 -49 -3 -126 -34 -265 19 -295 112 -7 22
-22 36 -55 52 -25 12 -55 34 -68 50 -20 25 -22 37 -18 108 8 147 90 268 276
407 160 119 347 274 391 325 72 81 121 211 121 316 0 55 -26 149 -44 162 -12
10 -12 20 5 80 10 38 19 80 19 92 0 31 12 29 31 -6 9 -15 50 -54 90 -87 189
-150 308 -317 354 -499 56 -222 -51 -508 -223 -592 -47 -23 -72 -28 -153 -31
-82 -4 -110 0 -185 22 -49 14 -136 33 -193 42 -87 13 -114 14 -170 4 -125 -24
-256 -84 -281 -130 -9 -16 -8 -18 5 -14 8 4 15 9 15 13 0 12 88 61 146 81 131
46 241 46 409 3 93 -23 94 -25 32 -39 -73 -17 -109 -36 -163 -86 -73 -67 -103
-183 -69 -265 18 -44 32 -37 16 8 -16 47 -14 102 7 157 39 101 110 148 290
189 35 8 26 -12 -13 -26 -103 -37 -183 -239 -126 -319 11 -16 18 -31 16 -34
-6 -5 -1 -6 80 -13 33 -3 67 -1 75 4 24 16 7 21 -38 9 -35 -9 -47 -7 -78 9
-86 44 -78 169 17 277 56 65 91 79 210 87 91 6 116 11 160 36 146 78 238 251
245 460 3 88 0 113 -22 185 -58 183 -156 320 -324 455 -36 28 -83 70 -105 92
l-39 41 -3 150 c-2 174 -25 308 -80 470 -34 103 -116 273 -143 300 -3 3 -17
21 -32 41 -15 20 -50 61 -78 92 l-52 57 38 0 c141 0 269 -55 375 -160 36 -36
74 -76 83 -90 25 -39 19 -4 -8 38 -20 32 -92 103 -138 137 -71 53 -183 88
-283 89 l-80 1 -90 74 c-131 108 -243 175 -329 197 -19 4 -33 17 -42 41 -41
97 -176 237 -274 285 -49 24 -154 42 -175 31 -13 -7 -6 -10 28 -11 83 -4 188
-50 245 -109 12 -13 22 -21 22 -18 0 10 81 -93 118 -149 37 -56 39 -68 15 -87
-28 -24 -81 -114 -124 -210 -88 -202 -113 -406 -69 -574 28 -107 28 -155 1
-199 -44 -70 -112 -106 -202 -106 -40 0 -63 5 -74 16 -21 21 -27 14 -16 -22
12 -45 -5 -87 -52 -131 -61 -57 -129 -77 -227 -70 -100 8 -152 29 -196 80 -91
107 -80 297 22 401 34 34 119 76 154 76 48 0 99 -21 125 -51 24 -29 25 -36 20
-108 -8 -111 -47 -154 -142 -154 -63 0 -101 41 -82 90 6 18 5 21 -7 16 -11 -4
-14 -17 -12 -42 6 -76 91 -106 180 -63 55 27 73 60 83 153 5 51 3 73 -9 97
-19 36 -61 69 -96 73 -23 4 -25 9 -30 64 -14 165 -170 323 -359 364 -111 24
-242 2 -325 -54 -43 -29 -50 -30 -69 -11 -19 20 -12 87 16 146 31 66 120 149
213 197 80 41 247 103 279 103 29 0 10 24 -26 32 -42 9 -126 1 -199 -19 -60
-17 -145 -57 -155 -73 -7 -12 -25 -14 -25 -2 1 17 131 104 197 131 98 40 157
51 278 51 86 0 105 3 105 15 0 21 39 38 82 37 56 -3 193 -58 271 -110 146 -97
259 -254 282 -392 6 -34 9 -40 15 -25 14 39 -22 138 -86 236 -35 53 -119 141
-179 188 -51 39 -187 99 -252 110 l-32 6 44 47 c63 66 122 111 185 143 86 44
136 54 245 52 90 -2 109 -6 190 -40z m-2353 -148 c18 -9 267 -207 348 -276
113 -96 140 -118 177 -142 55 -37 205 -156 254 -202 21 -20 41 -34 44 -31 3 4
16 -5 29 -18 13 -14 32 -32 42 -40 138 -112 211 -175 223 -191 7 -10 18 -19
23 -19 19 0 209 -172 219 -197 8 -23 10 -95 7 -255 -2 -56 -2 -57 -21 -40 -13
12 -36 17 -76 17 -68 0 -108 -23 -159 -91 -18 -24 -36 -44 -40 -43 -14 1 -225
269 -218 277 2 2 23 -2 46 -8 123 -33 250 61 266 196 7 53 -10 134 -27 134 -7
0 -8 -7 -4 -17 4 -10 9 -41 12 -69 14 -128 -100 -249 -216 -231 -69 11 -111
25 -111 36 0 4 -8 16 -18 27 -9 10 -58 71 -107 134 -49 63 -93 118 -98 121
-15 11 8 19 23 8 8 -5 31 -9 50 -9 105 0 161 55 168 165 2 35 -1 71 -6 81 -8
15 -11 6 -10 -41 1 -86 -29 -150 -79 -172 -37 -15 -137 -14 -162 1 -11 7 -160
203 -218 288 -20 29 -40 57 -45 63 -16 19 -171 240 -256 363 -79 117 -108 173
-94 186 7 8 10 8 34 -5z m2913 -199 c18 -8 17 -9 -7 -9 -15 -1 -30 4 -33 9 -7
12 12 12 40 0z m-29 -20 c7 -7 19 -8 37 -1 36 14 45 -4 17 -34 -15 -16 -20
-30 -15 -44 7 -24 2 -26 -25 -9 -15 10 -23 9 -40 -7 -25 -23 -36 -14 -18 15
11 19 10 23 -9 40 -26 21 -30 32 -9 24 8 -3 20 2 27 10 17 18 22 19 35 6z
m-321 -154 c96 -47 99 -49 209 -141 250 -210 370 -394 440 -672 40 -161 49
-243 43 -376 -9 -169 -28 -266 -72 -362 -12 -27 -25 -60 -29 -72 -4 -13 -12
-23 -17 -23 -5 0 -9 -6 -9 -12 0 -19 -108 -136 -141 -153 -41 -22 -47 -19 -55
20 -3 19 -11 35 -16 35 -6 0 -7 -11 -3 -27 19 -75 25 -141 28 -263 l2 -134
-45 -33 c-49 -37 -162 -124 -170 -133 -3 -3 -25 -23 -49 -45 -44 -40 -44 -40
-25 -8 44 72 123 144 215 196 74 42 57 50 -23 10 -63 -31 -187 -153 -208 -203
-8 -19 -38 -70 -67 -113 -28 -43 -60 -102 -70 -130 -25 -73 -24 -172 3 -217
18 -31 65 -71 97 -83 7 -3 -6 -23 -32 -51 -45 -45 -53 -77 -10 -37 12 11 24
19 26 18 2 -2 -33 -87 -76 -188 -102 -239 -141 -357 -155 -479 -17 -143 -18
-164 -10 -157 5 5 14 33 19 63 l10 54 40 -38 c22 -21 58 -50 80 -65 41 -27
225 -97 254 -97 9 0 43 -15 76 -33 59 -31 63 -32 190 -32 111 -1 139 -4 185
-23 63 -25 164 -41 229 -36 65 5 133 -30 208 -107 57 -58 79 -86 133 -169 70
-109 128 -299 137 -450 9 -150 -11 -287 -68 -478 -12 -40 -12 -47 10 -87 13
-24 48 -71 78 -104 l54 -60 0 -161 c-1 -89 -3 -165 -5 -169 -3 -4 -10 -75 -16
-157 -17 -240 -75 -546 -120 -632 -48 -92 -123 -139 -270 -166 -149 -29 -316
-19 -468 26 l-74 22 5 37 c3 21 42 113 88 206 112 228 133 286 178 474 16 69
32 147 35 175 13 115 18 150 23 168 5 18 6 18 19 -5 22 -39 16 2 -6 46 -11 22
-20 44 -20 51 0 6 -24 27 -52 47 -29 20 -64 45 -78 54 -87 61 -189 184 -235
284 -70 153 -88 388 -46 584 31 142 35 172 24 160 -15 -15 -52 -184 -64 -293
-14 -124 0 -287 35 -395 22 -71 23 -77 6 -77 -10 0 -36 -7 -59 -15 -71 -25
-201 -38 -374 -37 -92 1 -172 4 -177 7 -10 6 6 44 23 56 5 3 8 8 6 10 -1 2 3
28 10 57 15 72 16 203 1 295 -12 71 -11 79 11 131 18 44 20 59 11 68 -9 9 -12
7 -12 -9 0 -11 -13 -44 -28 -74 -28 -52 -28 -56 -16 -104 19 -70 18 -229 -2
-295 -9 -30 -34 -85 -55 -123 -21 -38 -39 -70 -39 -72 0 -2 -18 -32 -39 -67
-21 -35 -42 -81 -45 -103 -4 -22 -29 -141 -56 -265 -27 -124 -65 -306 -86
-405 -49 -242 -103 -463 -120 -496 -52 -102 -664 -113 -811 -15 -24 15 -33 29
-33 48 0 38 41 197 95 373 26 83 66 215 90 295 47 157 159 492 175 525 21 44
100 270 150 430 56 179 58 195 41 335 -6 46 -11 116 -11 154 0 38 -2 67 -4 65
-9 -9 -10 -129 -2 -256 8 -132 8 -133 -23 -225 -43 -126 -42 -125 -82 -100
-67 41 -206 203 -263 304 -110 199 -134 501 -55 718 31 85 143 292 168 310 22
16 149 223 157 256 3 13 20 34 38 48 38 29 162 86 186 86 9 0 57 18 106 41
114 52 122 55 167 73 21 9 36 20 33 25 -4 5 -29 0 -58 -11 -29 -11 -107 -32
-173 -46 -111 -24 -139 -26 -375 -26 -237 -1 -261 1 -340 22 -130 36 -243 96
-315 167 -78 77 -125 167 -125 240 0 64 19 91 95 137 75 45 91 90 75 215 -20
142 -72 274 -157 389 -26 35 -56 67 -67 70 -28 9 -36 22 -36 67 0 25 4 37 14
37 8 0 21 3 30 6 10 4 16 1 16 -8 0 -20 27 -54 36 -46 4 5 -1 17 -10 27 -19
21 -14 41 9 41 7 0 35 20 63 45 27 25 55 45 62 45 32 0 85 38 111 79 41 64 40
126 -6 237 -27 65 -35 97 -34 142 l1 57 14 -62 c17 -80 34 -112 80 -152 46
-41 77 -52 141 -52 116 0 243 99 243 190 0 22 11 42 36 68 47 50 67 99 55 132
l-9 26 -1 -31 c-1 -29 -47 -114 -70 -128 -6 -4 -14 1 -18 11 -3 10 -15 28 -26
41 -27 29 -94 31 -124 2 l-21 -19 -24 37 c-31 50 -32 52 -16 52 7 0 25 20 40
45 28 47 88 85 132 85 58 0 104 -30 145 -93 69 -110 112 -130 271 -130 106 0
147 13 205 64 43 38 65 78 65 116 l0 29 63 -4 c83 -5 140 20 211 93 l55 57 25
-50 c61 -120 244 -361 340 -448 77 -69 71 -47 -10 37 -37 37 -84 92 -106 121
-22 29 -47 62 -56 73 -62 73 -171 273 -206 377 -35 106 -47 285 -25 390 31
148 119 347 194 435 16 20 35 15 130 -31z m-1217 -302 c87 -60 188 -160 211
-210 12 -25 24 -65 28 -89 3 -25 10 -45 16 -45 10 0 5 49 -13 112 -19 66 -109
160 -230 241 -45 31 2 18 64 -17 125 -70 200 -179 219 -318 6 -37 5 -38 -24
-38 -35 0 -116 -39 -143 -69 -11 -12 -24 -21 -29 -21 -10 0 -107 78 -137 110
-8 9 -42 38 -75 64 -33 27 -80 66 -105 86 -25 21 -76 63 -114 94 -38 31 -65
56 -60 56 5 0 22 11 38 25 17 14 55 32 85 41 31 8 61 17 66 20 6 2 41 2 78 0
60 -3 75 -8 125 -42z m-770 -286 c27 -40 31 -52 20 -59 -7 -5 -17 -9 -21 -9
-16 0 -95 -59 -130 -97 -98 -104 -138 -208 -162 -420 -10 -93 10 -57 23 41 31
232 102 352 269 458 25 16 46 28 48 26 1 -2 35 -48 76 -103 40 -55 77 -103 83
-107 13 -9 1 -21 -25 -25 -30 -4 -52 -18 -103 -63 -25 -21 -42 -41 -37 -44 4
-3 24 10 42 29 27 27 114 75 135 75 2 0 31 -36 64 -81 58 -78 65 -99 35 -99
-22 0 -59 -55 -113 -170 -61 -126 -137 -214 -159 -184 -19 26 -16 57 7 82 27
29 25 42 -6 42 -19 0 -28 8 -40 35 -8 20 -12 40 -9 45 4 6 2 10 -4 10 -13 0
-21 -14 -27 -47 -8 -44 -24 -63 -55 -70 -33 -6 -38 -27 -10 -42 19 -11 26 -57
10 -67 -11 -6 -12 -34 -1 -34 4 0 16 7 27 16 16 12 17 16 6 23 -8 5 -11 16 -8
24 3 8 -1 23 -8 34 -20 26 -19 31 14 38 24 5 30 12 36 48 5 28 9 35 12 22 6
-26 33 -56 44 -49 15 9 9 -10 -10 -35 -14 -18 -17 -31 -11 -47 5 -12 6 -24 3
-27 -3 -4 1 -13 9 -21 13 -13 19 -12 44 3 62 38 104 93 158 204 52 106 107
179 123 163 4 -4 2 -15 -5 -24 -36 -50 -54 -81 -68 -122 -22 -62 -23 -63 -33
-80 -5 -8 -16 -51 -24 -96 -33 -182 -138 -308 -334 -402 -72 -34 -85 -37 -168
-37 -78 0 -97 4 -147 28 -65 32 -131 100 -161 167 -16 36 -20 68 -21 160 -1
111 0 118 32 182 30 61 89 128 112 128 17 0 11 -18 -7 -24 -10 -3 -28 -21 -40
-39 -38 -56 -26 -119 28 -151 25 -15 35 -16 67 -5 44 14 78 42 100 84 13 25
19 58 12 68 -4 6 -10 47 -16 112 -14 155 41 350 133 470 37 48 123 115 147
115 6 0 26 -23 44 -52z m828 -176 c21 -17 21 -17 4 -57 l-19 -40 0 46 c-1 25
-6 50 -13 57 -18 18 4 14 28 -6z m-406 -360 c0 -5 18 -25 40 -45 22 -19 40
-38 40 -42 0 -4 9 -19 20 -35 11 -15 17 -30 13 -34 -3 -3 -1 -6 5 -6 6 0 24
14 40 30 46 45 99 35 127 -24 46 -97 -56 -230 -192 -249 -83 -12 -163 32 -209
116 -23 44 -26 57 -22 121 6 81 31 140 78 180 27 22 33 24 46 12 8 -8 14 -19
14 -24z m-151 -362 c13 -30 25 -84 28 -120 4 -57 2 -69 -19 -100 -23 -33 -87
-85 -95 -76 -3 2 5 22 15 43 30 57 41 136 36 238 -5 97 0 100 35 15z m2412
-97 c30 -107 9 -255 -49 -348 -24 -39 -160 -185 -171 -185 -3 0 -6 37 -6 83 0
59 -6 92 -19 119 l-18 37 51 51 c68 67 146 181 166 241 9 27 20 49 25 49 4 0
13 -21 21 -47z m-281 -289 c0 -8 -4 -14 -8 -14 -4 0 -8 9 -8 19 0 11 4 17 8
15 4 -3 8 -12 8 -20z m30 -114 c14 -59 6 -116 -21 -150 l-20 -25 7 25 c13 45
12 154 -2 188 -12 30 -12 32 5 22 11 -5 24 -30 31 -60z m-2411 -64 c11 -13 8
-14 -16 -7 -15 4 -30 15 -31 25 -3 15 0 16 15 7 11 -5 25 -17 32 -25z m-26
-41 c12 -11 16 -12 20 -2 3 9 10 7 25 -6 12 -11 18 -25 15 -34 -4 -9 2 -22 12
-29 16 -12 18 -26 16 -108 -2 -80 2 -110 29 -201 16 -59 37 -120 46 -137 11
-21 12 -34 6 -40 -7 -7 -16 2 -27 28 -51 118 -73 216 -82 357 -3 53 -8 97 -10
97 -3 0 -11 -7 -19 -15 -9 -8 -12 -15 -7 -15 5 0 9 -12 9 -26 0 -24 -1 -24
-13 -8 -12 16 -13 14 -8 -16 5 -34 5 -34 -6 -7 -6 15 -15 27 -20 27 -5 0 -9 9
-9 20 0 11 6 20 13 20 8 0 7 4 -3 10 -8 5 -10 10 -4 10 7 0 11 11 10 24 0 13
-5 22 -10 18 -5 -3 -7 4 -4 16 3 12 1 23 -6 26 -8 3 -8 5 1 5 6 1 18 -6 26
-14z m137 -166 c0 -21 -16 -26 -23 -6 -6 17 3 38 14 31 5 -3 9 -14 9 -25z
m-104 -44 c1 -15 -3 -25 -12 -25 -17 0 -18 22 -2 38 7 7 12 12 13 12 0 0 1
-11 1 -25z m3661 -17 c-9 -61 -48 -151 -93 -214 -38 -53 -141 -144 -163 -144
-6 0 -11 -4 -11 -9 0 -11 -33 -21 -83 -26 -59 -6 -227 -65 -282 -100 -103 -67
-158 -161 -157 -272 0 -35 4 -78 7 -96 11 -50 62 -144 103 -189 36 -40 107
-79 140 -77 9 0 -2 7 -26 16 -108 38 -217 222 -211 355 8 156 118 258 362 332
96 29 97 30 97 16 0 -5 -5 -10 -10 -10 -31 0 -197 -142 -240 -205 -70 -103
-95 -265 -55 -363 37 -90 150 -152 278 -152 63 0 79 4 119 29 25 16 58 45 74
65 36 44 48 46 27 5 -24 -47 -85 -105 -145 -135 -70 -36 -232 -46 -324 -20
-122 35 -262 144 -313 243 -50 100 -50 266 2 375 63 133 232 241 487 312 223
63 318 122 379 238 20 37 38 68 40 68 2 0 1 -19 -2 -42z m-3528 -9 c6 -18 11
-42 11 -55 0 -22 -23 -54 -39 -54 -11 0 -27 79 -23 113 5 39 37 36 51 -4z m34
-120 c5 -17 3 -18 -10 -7 -17 14 -17 -2 2 -137 l5 -40 -14 30 c-17 37 -30 128
-21 155 8 26 31 26 38 -1z m1894 -568 c15 -23 99 -71 130 -73 13 -1 23 -4 23
-6 0 -2 -16 -22 -35 -45 -19 -22 -45 -66 -56 -96 -28 -71 -33 -203 -13 -281
31 -117 116 -227 214 -280 25 -13 64 -44 86 -70 23 -25 53 -52 68 -59 48 -26
29 -34 -73 -29 -125 6 -177 29 -240 108 -24 30 -48 57 -54 59 -16 6 27 -60 46
-70 18 -10 23 -29 7 -29 -33 0 -128 48 -161 81 -86 86 -118 153 -133 277 -8
61 9 72 19 13 9 -56 57 -151 96 -190 19 -19 52 -42 74 -51 47 -21 180 -36 170
-20 -3 5 -13 10 -22 10 -9 0 -32 12 -52 27 -117 89 -152 169 -152 348 1 140
28 233 83 285 12 11 18 23 14 27 -13 14 -66 -53 -88 -112 -20 -53 -23 -79 -23
-210 0 -149 0 -150 32 -211 18 -35 54 -81 85 -109 l53 -48 -35 8 c-114 24
-201 136 -230 293 -12 71 -8 120 21 210 21 66 116 262 128 262 3 0 11 -8 18
-19z m-1852 -138 c42 -29 142 -79 195 -97 77 -25 283 -56 380 -56 l93 0 -5
-42 c-5 -45 -59 -164 -106 -234 -15 -23 -49 -75 -77 -115 -105 -157 -177 -320
-204 -459 -14 -78 -23 -142 -22 -165 2 -77 56 -314 74 -326 5 -4 4 -9 -2 -13
-6 -4 -11 -3 -11 3 0 5 -9 12 -20 16 -27 9 -94 74 -113 111 -17 33 -24 98 -13
131 4 11 23 33 42 48 52 40 35 41 -37 2 -91 -49 -144 -61 -248 -55 -112 7
-181 38 -250 113 -70 78 -96 152 -96 283 0 66 4 105 11 110 7 4 17 26 23 50 7
23 14 42 17 42 2 0 21 -7 41 -15 43 -18 43 -18 43 -1 0 7 -13 16 -29 19 -35 7
-87 50 -106 88 -8 15 -15 54 -15 85 0 34 -6 64 -13 73 -8 9 -21 35 -30 57 -15
39 -16 66 -8 209 1 13 8 6 21 -23 10 -23 26 -45 35 -48 8 -3 13 -9 11 -13 -3
-4 24 -8 59 -9 49 -2 71 2 99 19 76 45 133 176 124 286 l-5 53 56 -53 c31 -29
70 -62 86 -74z m3223 71 c39 -19 58 -37 73 -65 28 -55 34 -116 15 -160 -20
-49 -86 -106 -138 -119 -90 -25 -213 6 -275 68 -28 28 -62 97 -63 126 0 18 1
18 23 -2 35 -33 79 -29 111 9 14 17 26 38 26 47 0 9 5 33 10 54 19 68 125 88
218 42z m-2446 -211 c16 -14 18 -15 13 -1 -5 13 2 16 34 16 23 0 41 -3 41 -9
0 -5 -3 -8 -7 -7 -14 5 -93 -25 -93 -34 0 -5 -4 -6 -10 -3 -5 3 -10 2 -10 -3
0 -6 -7 -12 -14 -15 -10 -4 -13 -1 -9 9 3 10 0 12 -10 9 -10 -4 -16 2 -19 19
-4 20 -1 26 13 26 9 0 19 -6 22 -12 3 -9 7 -7 12 5 9 21 14 21 37 0z m-77 -63
c3 -5 1 -10 -4 -10 -6 0 -11 5 -11 10 0 6 2 10 4 10 3 0 8 -4 11 -10z m938
-85 c-5 -8 -5 -53 -1 -99 8 -93 42 -175 99 -241 18 -20 29 -38 27 -41 -9 -8
-87 67 -121 115 -32 47 -37 84 -27 196 3 41 23 110 28 97 2 -6 0 -18 -5 -27z
m-33 -245 c0 -5 -7 -10 -16 -10 -8 0 -12 5 -9 10 3 6 10 10 16 10 5 0 9 -4 9
-10z m1680 -353 c31 -15 70 -40 87 -56 18 -16 33 -27 35 -26 2 2 23 -26 47
-62 53 -79 81 -164 81 -243 0 -69 -13 -109 -43 -132 -22 -18 -22 -18 13 -18
166 -2 411 -172 552 -386 79 -119 92 -156 93 -264 0 -86 -3 -99 -27 -142 -31
-51 -79 -92 -148 -125 -52 -25 -230 -93 -245 -93 -22 -1 -59 -105 -63 -177 -7
-134 46 -236 157 -301 38 -22 58 -27 116 -27 52 0 78 5 99 18 38 25 42 16 13
-30 -36 -57 -111 -119 -171 -142 -106 -40 -269 -47 -426 -20 -30 5 -66 11 -79
14 -48 8 -4 -13 59 -29 92 -22 269 -27 353 -9 178 37 259 107 311 268 27 82
19 117 -32 144 -27 14 -20 31 13 31 13 0 27 4 30 10 8 14 69 13 119 -2 54 -16
131 -93 145 -144 40 -146 -42 -315 -186 -381 -51 -24 -75 -43 -53 -43 6 0 28
9 49 20 21 10 41 17 43 14 3 -2 31 21 62 52 l56 56 -6 -33 c-12 -59 -52 -127
-112 -187 -62 -63 -114 -91 -213 -117 -92 -24 -340 -22 -446 4 -91 23 -196 57
-235 77 -16 8 -28 11 -28 7 0 -5 -4 -3 -8 4 -5 8 -13 9 -22 3 -13 -9 -13 -10
0 -10 8 0 37 -12 65 -25 27 -13 71 -30 97 -37 66 -16 60 -31 -9 -26 -106 8
-178 54 -261 167 -45 63 -40 28 6 -39 74 -106 200 -165 302 -142 41 10 61 9
108 -4 34 -9 101 -15 165 -15 59 0 107 -2 107 -5 0 -10 -86 -38 -190 -61 -96
-21 -131 -24 -215 -19 -178 9 -270 49 -329 141 -27 44 -27 48 8 242 11 60 34
279 46 433 7 92 17 159 24 165 7 6 23 28 36 50 32 53 116 142 162 171 53 33
142 68 228 88 41 10 84 21 95 26 11 5 43 13 70 19 55 12 143 49 163 68 7 7 17
13 22 13 18 0 80 88 91 131 12 46 6 119 -11 119 -5 0 -6 -24 -3 -53 7 -64 -17
-117 -73 -167 -54 -47 -119 -74 -279 -116 -160 -41 -245 -71 -310 -109 -54
-32 -144 -129 -171 -185 -20 -43 -40 -54 -30 -17 3 12 6 65 6 117 0 94 1 96
33 130 68 72 200 246 217 285 47 109 57 272 24 373 -17 51 -57 116 -89 145
-67 61 -185 62 -235 2 -21 -25 -2 -31 24 -6 51 48 145 40 204 -18 53 -53 80
-113 91 -202 18 -141 -5 -245 -80 -366 -26 -42 -37 -37 -14 7 10 19 19 68 22
121 11 165 -41 290 -151 361 -57 36 -96 48 -96 29 0 -5 17 -15 38 -22 62 -20
118 -73 154 -147 32 -65 33 -70 33 -192 0 -114 -2 -130 -26 -180 -27 -58 -111
-170 -142 -189 -15 -10 -24 -5 -57 31 -49 53 -55 70 -37 105 30 59 37 137 22
228 -5 33 -7 89 -4 125 12 128 -5 311 -37 394 -5 13 1 16 27 16 80 0 146 77
155 181 5 58 3 68 -20 102 -27 40 -19 39 31 -4 51 -43 91 -108 103 -165 13
-61 32 -74 23 -16 -15 106 -94 201 -219 262 l-79 39 100 1 c85 0 108 -4 152
-25 29 -13 72 -43 94 -67 40 -41 41 -42 23 -10 -19 34 -68 78 -113 102 -37 19
-192 25 -274 10 -75 -14 -157 -46 -157 -61 0 -12 2 -12 55 11 62 27 105 25
165 -5 91 -46 131 -159 73 -205 -38 -29 -89 -50 -125 -50 -18 0 -27 -4 -23
-11 13 -20 133 13 150 42 14 22 24 6 11 -18 -29 -56 -99 -103 -152 -103 -7 0
-17 21 -23 48 -16 62 -123 265 -172 323 l-38 46 27 24 c45 41 59 50 119 75 82
35 204 31 283 -9z m-2915 -679 c40 -80 140 -209 263 -338 35 -37 42 -50 39
-75 -3 -16 -33 -106 -69 -200 -87 -228 -130 -355 -184 -543 -25 -86 -74 -242
-109 -347 -68 -204 -115 -376 -115 -423 0 -20 7 -33 23 -41 34 -18 -102 -6
-147 13 l-36 15 0 163 c0 89 7 221 15 293 46 392 58 478 80 593 42 223 113
518 188 782 13 47 24 102 23 123 -1 20 0 37 1 37 1 0 14 -24 28 -52z m2736
-489 c-14 -85 -29 -125 -41 -113 -6 6 -2 41 10 92 11 46 20 93 20 105 1 21 1
21 12 3 7 -14 7 -37 -1 -87z m-945 -61 c11 -37 69 -119 128 -181 49 -51 54
-60 46 -82 -11 -29 -3 -52 49 -138 26 -43 34 -68 33 -98 -4 -86 -202 -625
-305 -828 -42 -83 -79 -96 -287 -107 -148 -7 -325 12 -413 46 -68 25 -68 28
-18 136 24 51 172 287 191 304 21 19 245 367 266 413 16 35 16 38 -1 57 -10
11 -22 17 -28 13 -6 -3 -7 -1 -3 6 5 7 -12 33 -42 65 -87 96 -142 199 -142
268 0 25 82 62 175 78 39 7 129 25 200 40 72 16 133 28 137 29 4 1 10 -9 14
-21z m-551 -132 c1 -71 5 -89 32 -141 28 -56 93 -150 126 -185 39 -42 48 -67
35 -96 -7 -16 -16 -33 -20 -39 -4 -5 -72 -107 -151 -225 -79 -118 -169 -252
-200 -297 -32 -44 -57 -86 -57 -91 0 -6 -4 -12 -8 -14 -9 -3 -52 -93 -52 -108
0 -17 -71 -40 -126 -40 -30 0 -54 3 -54 6 0 3 13 65 30 138 27 120 50 233 160
766 50 245 56 265 98 330 63 97 64 98 130 87 l57 -9 0 -82z m92 89 c0 -7 -7
-12 -16 -10 -9 1 -22 -5 -30 -13 -12 -12 -16 -12 -20 -1 -2 7 1 15 8 17 6 2 9
8 6 12 -3 5 7 8 23 8 16 -1 29 -7 29 -13z m721 -239 c74 -47 76 -52 68 -183
-10 -163 -29 -255 -65 -311 -17 -26 -45 -74 -62 -107 -17 -33 -39 -71 -49 -85
-10 -14 -18 -27 -18 -30 -1 -3 -8 -21 -16 -40 -26 -60 -17 -13 10 53 53 131
122 325 143 402 23 90 23 105 -5 153 -65 115 -71 129 -63 150 10 27 11 27 57
-2z m7 -567 c-8 -24 -20 -53 -25 -64 -5 -11 -36 -80 -69 -153 -61 -138 -71
-156 -71 -130 0 38 46 162 98 263 74 142 97 172 67 84z m675 -473 c0 -8 18
-30 40 -50 22 -20 40 -37 40 -38 0 -2 -36 -3 -79 -3 -76 0 -79 1 -61 18 11 9
25 35 31 57 11 36 29 46 29 16z"/>
<path d="M3216 7592 c-3 -5 1 -9 9 -9 8 0 12 4 9 9 -3 4 -7 8 -9 8 -2 0 -6 -4
-9 -8z"/>
<path d="M2410 7432 c0 -5 17 -14 39 -20 47 -15 135 -81 176 -134 17 -21 42
-53 58 -71 38 -45 90 -157 112 -240 17 -64 13 -205 -8 -265 -22 -62 -65 -121
-112 -150 -22 -13 -51 -34 -64 -46 -23 -20 -24 -20 -17 -1 4 11 7 54 7 96 -1
99 -31 194 -88 281 -84 128 -172 177 -332 186 -157 8 -307 -30 -418 -107 -41
-29 -96 -91 -80 -91 2 0 23 18 48 41 93 86 247 138 409 139 132 0 226 -31 297
-99 57 -54 125 -182 138 -261 11 -64 8 -174 -5 -214 -16 -50 -6 -69 13 -24 8
20 25 39 36 43 12 3 21 11 21 16 0 5 6 9 13 9 7 0 31 13 53 30 79 58 126 188
119 328 -4 64 -40 192 -57 203 -5 3 -9 9 -9 13 5 29 -83 163 -154 237 -53 55
-195 129 -195 101z"/>
<path d="M2738 6951 c4 -109 2 -143 -14 -194 -10 -34 -21 -64 -24 -67 -3 -3
-11 -16 -17 -30 -7 -14 -22 -40 -33 -57 -12 -18 -18 -33 -13 -33 17 1 70 87
94 150 20 56 23 83 23 190 0 69 -5 136 -11 149 -7 18 -9 -12 -5 -108z"/>
<path d="M1740 7039 c0 -5 5 -7 10 -4 6 3 10 8 10 11 0 2 -4 4 -10 4 -5 0 -10
-5 -10 -11z"/>
<path d="M2476 6675 c15 -13 31 -22 34 -19 6 7 -38 44 -53 44 -5 0 3 -11 19
-25z"/>
<path d="M2446 6619 c4 -6 13 -32 20 -58 l13 -46 -2 45 c-1 25 -7 51 -14 58
-14 15 -27 16 -17 1z"/>
<path d="M2526 6573 c1 -21 -2 -45 -7 -55 -5 -9 -5 -19 -1 -22 9 -6 10 -4 18
67 3 26 2 47 -3 47 -4 0 -8 -17 -7 -37z"/>
<path d="M2745 6540 c-27 -7 -26 -8 15 -9 25 -1 63 -4 85 -6 28 -4 34 -3 20 3
-33 15 -88 20 -120 12z"/>
<path d="M4048 6533 c7 -3 16 -2 19 1 4 3 -2 6 -13 5 -11 0 -14 -3 -6 -6z"/>
<path d="M2890 6519 c0 -5 5 -7 10 -4 6 3 10 8 10 11 0 2 -4 4 -10 4 -5 0 -10
-5 -10 -11z"/>
<path d="M4080 6511 c0 -6 4 -13 10 -16 6 -3 7 1 4 9 -7 18 -14 21 -14 7z"/>
<path d="M2910 6505 c0 -3 7 -14 16 -23 15 -14 16 -14 13 3 -4 17 -29 35 -29
20z"/>
<path d="M4110 6492 c0 -12 19 -26 26 -19 2 2 -2 10 -11 17 -9 8 -15 8 -15 2z"/>
<path d="M4149 6453 c-13 -16 -12 -17 4 -4 9 7 17 15 17 17 0 8 -8 3 -21 -13z"/>
<path d="M4004 6453 c3 -4 16 -8 28 -10 36 -6 120 -56 159 -96 48 -49 81 -118
86 -182 3 -37 2 -46 -6 -35 -6 8 -11 22 -11 31 0 26 -36 92 -75 137 -40 46
-128 102 -160 102 -12 0 3 -13 38 -32 105 -57 205 -192 199 -270 0 -10 3 -18
8 -18 15 0 23 91 12 140 -20 87 -111 188 -200 223 -42 17 -91 23 -78 10z"/>
<path d="M2940 6435 c0 -8 4 -15 10 -15 5 0 7 7 4 15 -4 8 -8 15 -10 15 -2 0
-4 -7 -4 -15z"/>
<path d="M4175 6440 c3 -5 11 -10 16 -10 6 0 7 5 4 10 -3 6 -11 10 -16 10 -6
0 -7 -4 -4 -10z"/>
<path d="M2943 6390 c1 -11 5 -20 9 -20 4 0 8 9 8 20 0 11 -4 20 -9 20 -6 0
-9 -9 -8 -20z"/>
<path d="M2720 6359 c0 -5 5 -7 10 -4 6 3 10 8 10 11 0 2 -4 4 -10 4 -5 0 -10
-5 -10 -11z"/>
<path d="M4700 6368 c0 -2 9 -28 21 -58 70 -184 20 -337 -122 -375 -30 -8 -68
-15 -86 -15 -17 0 -34 -3 -36 -7 -6 -10 76 -8 92 1 6 4 15 4 21 1 5 -3 20 1
32 9 12 9 29 16 38 16 8 0 31 18 52 41 45 49 63 122 54 214 -5 55 -47 175 -61
175 -3 0 -5 -1 -5 -2z"/>
<path d="M4070 6300 c0 -5 5 -10 11 -10 5 0 7 5 4 10 -3 6 -8 10 -11 10 -2 0
-4 -4 -4 -10z"/>
<path d="M4071 6220 c0 -8 4 -22 9 -30 12 -18 12 -2 0 25 -6 13 -9 15 -9 5z"/>
<path d="M2605 6153 c17 -2 36 -12 43 -21 11 -14 12 -14 12 0 0 19 -21 29 -58
27 -26 -2 -25 -2 3 -6z"/>
<path d="M2511 6129 c-12 -12 -20 -24 -16 -27 3 -3 15 4 27 16 28 28 18 38
-11 11z"/>
<path d="M4092 6110 c0 -14 2 -19 5 -12 2 6 2 18 0 25 -3 6 -5 1 -5 -13z"/>
<path d="M2421 6074 c0 -11 3 -14 6 -6 3 7 2 16 -1 19 -3 4 -6 -2 -5 -13z"/>
<path d="M2290 6006 c0 -2 7 -7 16 -10 8 -3 12 -2 9 4 -6 10 -25 14 -25 6z"/>
<path d="M4180 5823 c0 -13 5 -23 10 -23 13 0 13 11 0 30 -8 12 -10 11 -10 -7z"/>
<path d="M4060 5784 c1 -14 41 -56 83 -88 44 -34 102 -145 117 -226 20 -105
-10 -244 -77 -349 -91 -145 -170 -186 -415 -222 -111 -15 -147 -24 -163 -40
-20 -20 -20 -20 15 -5 19 8 62 17 95 21 203 22 249 34 340 89 96 58 156 140
202 276 22 66 25 87 21 180 -4 93 -8 113 -37 172 -21 44 -51 84 -90 120 -74
69 -91 82 -91 72z"/>
<path d="M4360 5636 c0 -2 8 -10 18 -17 15 -13 16 -12 3 4 -13 16 -21 21 -21
13z"/>
<path d="M4695 5271 c-15 -34 -23 -41 -56 -46 -22 -4 -39 -9 -39 -11 0 -3 14
-18 31 -33 27 -25 30 -34 28 -72 -3 -48 8 -53 45 -21 13 12 20 13 23 5 6 -17
51 -63 62 -63 5 0 8 23 7 53 -2 42 1 55 17 70 11 9 24 17 30 17 5 0 4 7 -3 15
-7 8 -20 15 -30 15 -22 0 -44 25 -63 73 -9 20 -20 37 -25 37 -5 0 -17 -18 -27
-39z m70 -67 c7 -8 20 -14 29 -14 26 0 26 -16 1 -30 -21 -11 -23 -17 -18 -59
5 -41 4 -44 -10 -32 -9 7 -19 21 -22 31 -5 16 -10 17 -31 10 -32 -12 -47 -13
-40 -1 11 18 -6 70 -25 76 -26 9 -24 25 4 25 31 0 44 11 58 45 l11 30 15 -34
c8 -18 20 -40 28 -47z"/>
<path d="M4727 5173 c3 -7 6 -13 8 -13 2 0 5 6 8 13 3 8 -1 14 -8 14 -7 0 -11
-6 -8 -14z"/>
<path d="M4372 5120 c-7 -30 -24 -78 -38 -107 -26 -54 -118 -147 -163 -165
-97 -38 -125 -42 -366 -42 l-240 -1 -62 -29 c-34 -15 -64 -34 -67 -42 -3 -9
17 -3 55 16 79 40 196 56 304 41 147 -21 272 -7 379 42 57 26 132 93 163 147
27 44 56 143 51 172 -3 15 -8 4 -16 -32z"/>
<path d="M4968 4963 c7 -3 16 -2 19 1 4 3 -2 6 -13 5 -11 0 -14 -3 -6 -6z"/>
<path d="M4966 4933 c-6 -14 -5 -15 5 -6 7 7 10 15 7 18 -3 3 -9 -2 -12 -12z"/>
<path d="M4368 4763 c7 -3 16 -2 19 1 4 3 -2 6 -13 5 -11 0 -14 -3 -6 -6z"/>
<path d="M3845 4613 c-33 -7 -95 -36 -95 -44 0 -4 28 4 63 18 79 32 87 38 32
26z"/>
<path d="M3469 4562 c-14 -9 -49 -38 -78 -64 -42 -38 -51 -52 -51 -80 0 -56 9
-72 63 -110 51 -38 77 -47 77 -28 0 6 -6 10 -13 10 -12 0 -31 12 -84 55 -16
13 -26 34 -30 61 -4 35 -2 42 19 56 14 9 47 37 73 62 26 26 49 45 51 43 2 -2
6 -21 9 -43 16 -134 25 -175 36 -169 5 3 18 1 30 -6 l22 -11 -26 -24 c-23 -22
-67 -103 -67 -125 0 -23 17 -4 34 39 11 26 35 61 53 79 l34 32 -41 21 c-22 11
-40 26 -41 33 -4 64 -26 181 -34 183 -6 1 -22 -5 -36 -14z"/>
<path d="M3855 4489 c-4 -6 -5 -12 -2 -15 2 -3 7 2 10 11 7 17 1 20 -8 4z"/>
<path d="M3770 4370 c0 -5 5 -10 10 -10 6 0 10 5 10 10 0 6 -4 10 -10 10 -5 0
-10 -4 -10 -10z"/>
<path d="M3752 4264 c-1 -14 2 -33 7 -42 7 -13 10 -6 9 26 0 46 -12 58 -16 16z"/>
<path d="M3848 4193 c7 -3 16 -2 19 1 4 3 -2 6 -13 5 -11 0 -14 -3 -6 -6z"/>
<path d="M3780 4187 c0 -2 9 -14 20 -27 11 -13 20 -18 20 -12 0 6 -7 18 -16
26 -15 15 -24 20 -24 13z"/>
<path d="M3950 4169 c0 -5 5 -7 10 -4 6 3 10 8 10 11 0 2 -4 4 -10 4 -5 0 -10
-5 -10 -11z"/>
<path d="M3863 4152 c-7 -5 4 -8 26 -7 22 0 37 3 34 8 -6 9 -45 9 -60 -1z"/>
<path d="M3900 4018 c0 -6 8 -20 17 -31 17 -18 17 -19 -2 -33 -26 -19 -35 -18
-35 6 0 11 5 20 11 20 5 0 8 4 5 9 -7 11 -46 3 -46 -9 0 -19 36 -70 49 -70 8
0 12 3 9 6 -7 7 28 44 42 44 11 0 -31 69 -42 70 -5 0 -8 -5 -8 -12z"/>
<path d="M3623 3836 c24 -24 78 -56 94 -56 4 0 -13 14 -39 30 -25 16 -49 34
-53 39 -3 6 -11 11 -16 11 -5 0 1 -11 14 -24z"/>
<path d="M3735 3770 c3 -5 8 -10 11 -10 2 0 4 5 4 10 0 6 -5 10 -11 10 -5 0
-7 -4 -4 -10z"/>
<path d="M4185 3740 c3 -5 11 -10 16 -10 6 0 7 5 4 10 -3 6 -11 10 -16 10 -6
0 -7 -4 -4 -10z"/>
<path d="M4264 3678 c10 -6 22 -6 26 -2 5 5 -3 10 -18 11 -22 1 -24 0 -8 -9z"/>
<path d="M3868 3675 c-7 -8 24 -75 35 -75 4 0 5 10 1 23 -4 12 -7 30 -6 40 1
16 -18 24 -30 12z"/>
<path d="M3846 3635 c-3 -8 -16 -15 -30 -15 -35 0 -43 -20 -16 -40 19 -14 22
-24 17 -54 -4 -27 -2 -36 9 -36 8 0 14 4 14 10 0 5 9 14 20 20 16 9 24 7 36
-5 8 -8 20 -15 25 -15 12 0 12 17 -1 25 -19 12 -10 33 20 47 36 16 39 38 5 38
-16 0 -23 -4 -19 -14 3 -7 -2 -16 -10 -19 -9 -4 -16 -13 -16 -20 0 -9 -12 -14
-30 -15 -16 0 -30 4 -30 10 0 6 -7 20 -17 30 -14 15 -14 18 -1 18 15 0 48 30
48 43 0 13 -18 7 -24 -8z"/>
<path d="M3875 3319 c-4 -6 -5 -12 -2 -15 2 -3 7 2 10 11 7 17 1 20 -8 4z"/>
<path d="M1104 7253 c18 -36 -48 -97 -96 -88 -10 2 -16 0 -13 -6 11 -17 72
-10 99 12 15 12 25 24 22 27 -3 3 -1 10 4 17 6 8 5 18 -6 31 -8 10 -13 14 -10
7z"/>
<path d="M1304 7078 c6 -47 -8 -95 -36 -125 -16 -17 -32 -23 -65 -23 -27 0
-42 -4 -38 -10 3 -5 24 -10 45 -10 54 0 109 54 111 108 2 53 -1 76 -12 87 -6
6 -8 -4 -5 -27z"/>
<path d="M2091 6364 c0 -11 3 -14 6 -6 3 7 2 16 -1 19 -3 4 -6 -2 -5 -13z"/>
<path d="M3585 6951 c-3 -5 -2 -12 3 -15 5 -3 9 1 9 9 0 17 -3 19 -12 6z"/>
<path d="M3280 6906 c0 -8 17 -36 39 -63 l39 -50 -23 -49 c-19 -41 -23 -68
-24 -161 -1 -76 2 -114 10 -119 9 -5 10 9 5 57 -8 77 6 177 33 232 l20 40 -44
57 c-24 32 -41 60 -38 64 4 3 1 6 -5 6 -7 0 -12 -6 -12 -14z"/>
<path d="M3660 6871 c0 -6 4 -13 10 -16 6 -3 7 1 4 9 -7 18 -14 21 -14 7z"/>
<path d="M3380 6774 c0 -6 36 -53 64 -84 32 -36 88 -121 108 -166 18 -39 22
-67 21 -139 0 -79 -6 -109 -47 -236 -63 -200 -62 -246 10 -393 15 -31 33 -56
40 -56 8 0 -2 30 -29 81 -35 68 -42 91 -45 153 -3 62 1 87 28 166 65 190 80
287 57 376 -21 79 -34 102 -119 211 -66 83 -88 105 -88 87z"/>
<path d="M2067 6020 c-22 -22 -37 -43 -34 -46 3 -4 12 0 19 8 7 8 26 28 42 46
43 46 21 39 -27 -8z"/>
<path d="M1934 6026 c-10 -27 2 -43 14 -19 8 14 9 24 2 28 -6 3 -13 -1 -16 -9z"/>
<path d="M3316 5957 c3 -10 9 -15 12 -12 3 3 0 11 -7 18 -10 9 -11 8 -5 -6z"/>
<path d="M1990 5676 c0 -2 8 -10 18 -17 15 -13 16 -12 3 4 -13 16 -21 21 -21
13z"/>
<path d="M2382 5549 c-69 -7 -91 -13 -81 -24 7 -6 179 18 179 26 0 7 -3 7 -98
-2z"/>
<path d="M2285 5500 c3 -5 8 -10 11 -10 2 0 4 5 4 10 0 6 -5 10 -11 10 -5 0
-7 -4 -4 -10z"/>
<path d="M3048 5484 c-5 -4 -8 -17 -8 -29 0 -17 -33 -79 -56 -104 -4 -4 -164
38 -179 47 -22 14 -44 16 -150 16 -102 0 -113 -2 -157 -27 -49 -29 -75 -54
-65 -63 3 -3 22 6 41 21 69 52 191 73 297 50 46 -10 35 -27 -13 -20 -50 8
-173 -18 -233 -47 -97 -49 -192 -132 -226 -200 -21 -41 -23 -48 -11 -48 5 0
15 15 24 33 19 40 66 97 80 97 6 0 -2 -16 -16 -35 -96 -126 -127 -310 -87
-506 25 -118 72 -262 88 -267 7 -2 -1 35 -21 95 -39 117 -51 173 -36 173 5 0
10 -7 10 -15 0 -8 12 -36 26 -62 60 -109 168 -184 269 -187 83 -2 66 -16 -20
-16 -43 0 -75 -4 -75 -10 0 -24 134 -12 230 20 126 42 214 95 300 180 99 99
154 199 155 282 0 32 1 58 2 58 1 0 23 -11 50 -24 26 -14 60 -28 76 -31 44
-11 31 11 -18 30 -68 26 -115 74 -115 119 0 36 0 36 43 36 50 0 122 20 139 39
11 11 8 12 -17 6 -37 -10 -89 -11 -137 -1 -32 6 -41 14 -62 56 l-24 48 26 12
c38 16 64 39 95 85 26 38 38 93 17 80 -5 -3 -10 -14 -10 -24 0 -25 -49 -68
-99 -86 -59 -21 -68 -19 -107 14 -18 16 -41 34 -50 39 -16 9 -16 11 -1 26 9 9
21 34 28 54 11 39 9 99 -3 86z m-236 -134 c4 13 88 -9 88 -24 0 -6 5 -4 10 4
8 12 12 12 18 2 5 -7 23 -14 41 -14 21 -1 28 -4 19 -9 -12 -8 -9 -10 8 -8 3 0
12 -8 20 -18 7 -10 14 -14 14 -10 0 4 15 -6 33 -22 17 -17 40 -31 49 -31 9 0
20 -5 24 -12 5 -7 2 -8 -7 -3 -11 6 -12 5 -1 -6 14 -16 16 -33 2 -24 -6 3 -7
-1 -4 -9 3 -9 11 -16 16 -16 6 0 8 -13 6 -30 -3 -16 -1 -30 4 -30 4 0 9 8 9
18 1 16 2 16 6 0 2 -10 9 -18 14 -18 4 0 8 -18 6 -40 -1 -22 -5 -40 -9 -40 -5
0 -8 -8 -8 -17 0 -14 -4 -12 -15 7 -8 14 -18 33 -21 43 -3 9 -11 17 -16 17 -6
0 -8 6 -5 14 3 8 -1 20 -9 26 -8 7 -14 17 -14 22 0 5 -24 32 -52 59 -29 28
-43 46 -30 40 12 -7 22 -17 22 -23 0 -6 3 -8 7 -4 4 4 -5 18 -19 31 -15 13
-28 20 -30 14 -2 -7 -25 -1 -58 13 -31 14 -74 24 -97 24 -24 -1 -43 3 -43 8 0
5 -7 3 -15 -4 -12 -10 -15 -10 -15 1 0 12 -2 12 -9 0 -5 -8 -15 -11 -23 -9 -8
3 -25 0 -39 -8 -13 -7 -22 -14 -19 -14 3 0 52 -2 110 -3 88 -2 112 -7 150 -26
65 -34 137 -113 174 -190 28 -60 31 -75 31 -166 0 -91 -3 -105 -30 -159 -28
-55 -137 -186 -156 -186 -5 0 3 16 16 36 26 38 31 54 17 54 -5 0 -31 21 -58
48 -27 26 -62 57 -78 68 -28 20 -28 21 -7 27 15 4 24 -1 32 -15 7 -13 18 -18
29 -15 19 5 54 -24 45 -36 -3 -4 -2 -5 1 -2 9 6 44 -35 44 -52 0 -31 16 -9 33
45 59 191 -48 449 -217 522 -56 25 -126 35 -126 20 0 -7 -7 -10 -16 -6 -9 3
-12 2 -8 -5 3 -6 17 -8 29 -5 13 3 26 2 30 -4 3 -5 12 -7 19 -4 7 3 16 -3 20
-13 6 -14 9 -15 15 -4 7 11 13 9 29 -7 11 -11 23 -18 26 -14 3 3 6 0 6 -6 0
-7 5 -12 11 -12 15 0 50 -40 44 -50 -3 -4 3 -7 13 -6 11 0 18 -7 20 -22 2 -12
8 -19 14 -16 7 4 8 -2 3 -17 -4 -13 -4 -21 0 -17 13 12 35 -12 35 -38 0 -12 4
-25 10 -29 5 -3 7 -12 3 -20 -3 -8 -1 -15 4 -15 6 0 10 -13 11 -29 l1 -30 -22
22 c-12 12 -21 26 -19 30 1 5 -2 6 -7 3 -5 -3 -12 1 -15 10 -3 8 -10 13 -15
10 -12 -8 -42 4 -36 14 3 5 -7 7 -22 5 -15 -1 -29 -8 -31 -14 -2 -6 -7 -9 -11
-7 -4 3 -8 0 -9 -7 -1 -7 -3 -27 -5 -44 -3 -21 -1 -30 6 -26 6 4 7 1 1 -8 -11
-18 -14 -39 -5 -39 4 0 7 -9 8 -20 1 -11 -2 -20 -7 -20 -5 0 -7 -9 -5 -19 2
-10 -5 -28 -15 -39 -10 -11 -17 -22 -14 -25 3 -3 1 -8 -5 -12 -6 -3 -11 -2
-11 3 0 5 -10 12 -21 15 l-21 6 21 -20 c22 -21 28 -35 11 -24 -5 3 -10 2 -10
-3 0 -5 -27 -10 -60 -10 -33 0 -58 3 -56 7 3 4 -4 12 -15 19 -15 10 -19 10
-19 0 -1 -7 -6 -3 -13 10 -7 12 -16 20 -19 17 -3 -4 -9 3 -13 14 -7 24 -16 26
-33 9 -13 -13 -17 2 -4 18 4 5 3 6 -2 2 -5 -3 -15 -4 -23 -1 -11 4 -10 8 4 20
16 13 15 13 -7 1 -14 -7 -28 -12 -32 -13 -15 0 -47 -44 -37 -50 5 -4 7 -16 3
-28 -4 -12 -7 -31 -8 -42 -1 -12 -9 -21 -21 -22 -11 -2 -14 0 -7 3 10 5 9 11
-5 27 -10 11 -12 17 -5 13 6 -4 12 -2 12 3 0 6 -8 11 -17 11 -17 1 -17 1 0 11
9 5 22 7 27 4 6 -3 10 -2 10 4 0 6 -10 15 -21 22 -12 6 -19 7 -15 1 3 -5 -1
-12 -9 -16 -17 -6 -50 48 -40 64 3 6 1 10 -5 10 -14 0 -10 132 5 142 6 5 5 8
-2 8 -7 0 -13 7 -13 16 0 8 4 13 8 10 4 -2 7 8 6 22 -1 39 7 63 19 55 6 -3 7
-1 3 6 -9 14 14 82 26 75 4 -3 5 1 2 9 -3 8 2 17 11 21 9 3 13 10 10 16 -3 5
-1 10 4 10 6 0 11 9 11 20 0 11 6 23 14 26 8 3 13 15 11 26 -4 18 -1 20 28 14
30 -6 30 -6 12 10 -16 12 -17 15 -3 10 12 -3 15 -1 11 10 -3 7 0 14 7 14 6 0
24 9 38 21 17 13 28 16 30 9 3 -7 9 -5 16 6 7 9 27 17 43 18 17 0 29 4 27 7
-2 4 15 9 38 13 29 5 44 3 50 -6 5 -9 8 -9 8 -1 0 15 39 22 62 11 9 -4 18 -4
20 2z m398 -417 c0 -7 -4 -13 -10 -13 -5 0 -10 -16 -10 -37 0 -52 -7 -38 -14
30 -6 56 -6 57 14 45 11 -7 20 -18 20 -25z m-251 -75 c22 -21 44 -50 47 -65 7
-28 7 -28 -22 7 -38 47 -63 69 -97 87 -41 21 -45 9 -9 -26 27 -27 28 -32 13
-43 -9 -7 -13 -8 -8 -3 8 10 -22 47 -34 40 -12 -8 10 -62 29 -69 9 -3 27 -13
40 -22 21 -16 22 -16 16 2 -4 11 -14 25 -22 31 -9 7 -13 16 -9 20 9 8 47 -26
47 -42 0 -6 16 -26 35 -45 40 -39 38 -56 -4 -32 -16 9 -27 20 -25 23 2 4 -12
13 -31 19 -61 20 -92 58 -98 117 -4 42 -2 55 11 62 21 12 65 -11 121 -61z
m218 -40 c-3 -8 -6 -5 -6 6 -1 11 2 17 5 13 3 -3 4 -12 1 -19z m-698 -102 c9
-10 8 -15 -4 -20 -10 -4 -15 1 -15 14 0 24 4 25 19 6z m-33 -11 c-5 -15 4 -19
38 -15 12 1 16 -2 11 -11 -5 -8 -4 -10 3 -5 7 4 12 1 12 -8 0 -10 -6 -13 -15
-10 -8 4 -15 10 -15 15 0 4 -7 6 -17 2 -14 -5 -13 -8 5 -14 12 -5 22 -16 22
-26 0 -11 3 -14 8 -7 12 19 54 36 63 27 5 -5 -11 -24 -39 -46 -27 -20 -54 -48
-62 -62 -15 -27 -30 -33 -30 -11 0 7 -7 19 -15 26 -12 10 -13 16 -4 27 10 11
14 11 20 1 5 -7 3 -16 -4 -21 -8 -6 -7 -7 3 -4 8 2 14 11 14 20 -1 9 2 14 7
12 11 -7 32 33 24 45 -3 6 -13 10 -21 10 -8 0 -14 6 -14 14 0 8 -5 16 -12 18
-9 3 -8 9 2 21 19 20 24 21 16 2z m94 -16 c0 -5 -7 -9 -15 -9 -15 0 -20 12 -9
23 8 8 24 -1 24 -14z m363 -37 c51 -51 72 -92 49 -92 -5 0 -16 -15 -25 -34
-22 -47 -125 -98 -209 -104 -95 -7 -215 26 -245 67 -15 21 5 60 54 101 31 25
44 30 68 25 115 -24 171 -11 203 46 10 16 21 29 25 29 5 0 5 5 2 10 -3 6 0 10
7 10 8 0 39 -26 71 -58z m-463 -29 c0 -25 -15 -12 -17 14 -1 19 1 22 8 12 5
-8 9 -20 9 -26z"/>
<path d="M2503 5070 c-13 -5 -23 -11 -23 -14 0 -2 10 -2 23 0 20 4 21 4 2 -5
-11 -5 -28 -12 -38 -15 -10 -3 -15 -10 -12 -16 3 -5 2 -10 -2 -10 -10 0 -46
-58 -49 -77 -1 -7 1 -13 5 -13 5 0 6 -12 3 -26 -4 -21 -2 -25 8 -19 10 6 12 4
6 -11 -4 -10 -4 -15 0 -11 4 4 13 -2 21 -13 8 -11 21 -20 29 -20 8 0 12 -5 9
-10 -4 -7 3 -8 21 -4 21 6 25 4 19 -7 -7 -12 -6 -12 7 -1 8 7 22 10 30 7 9 -4
18 1 22 12 5 11 9 14 14 6 4 -6 25 -14 47 -17 27 -4 33 -3 20 2 -20 9 -20 9 1
16 29 9 53 54 35 66 -8 4 -11 13 -7 19 5 7 1 9 -9 5 -11 -5 -14 -2 -9 10 3 9
10 13 15 10 5 -3 9 4 9 16 0 13 -4 19 -12 14 -6 -4 -8 -3 -4 4 11 18 -13 62
-41 75 -16 6 -34 17 -41 24 -15 14 -46 18 -38 5 2 -4 -4 -9 -15 -9 -11 -1 -17
2 -14 8 7 11 -3 11 -32 -1z m122 -46 c32 -21 43 -75 22 -108 -17 -26 -13 -38
9 -29 23 9 17 -35 -7 -47 -17 -9 -23 -8 -34 6 -10 15 -16 16 -27 6 -9 -7 -34
-13 -58 -14 -36 -1 -47 3 -67 26 -13 16 -23 40 -23 58 0 36 33 89 64 105 32
16 94 15 121 -3z"/>
<path d="M2526 4745 c4 -8 11 -15 16 -15 6 0 5 6 -2 15 -7 8 -14 15 -16 15 -2
0 -1 -7 2 -15z"/>
<path d="M2549 4580 c-20 -16 -21 -19 -6 -20 9 0 17 5 17 10 0 6 6 10 14 10 8
0 18 5 21 10 11 18 -22 11 -46 -10z"/>
<path d="M2504 4539 c-3 -6 -1 -15 5 -20 6 -5 9 -6 6 -3 -3 4 0 13 6 21 8 9 8
13 1 13 -6 0 -14 -5 -18 -11z"/>
<path d="M3011 5464 c0 -11 3 -14 6 -6 3 7 2 16 -1 19 -3 4 -6 -2 -5 -13z"/>
<path d="M3788 5463 c7 -3 16 -2 19 1 4 3 -2 6 -13 5 -11 0 -14 -3 -6 -6z"/>
<path d="M3616 5407 c3 -10 9 -15 12 -12 3 3 0 11 -7 18 -10 9 -11 8 -5 -6z"/>
<path d="M1480 5085 c0 -5 5 -17 10 -25 5 -8 10 -10 10 -5 0 6 -5 17 -10 25
-5 8 -10 11 -10 5z"/>
<path d="M3150 4620 c-9 -6 -10 -10 -3 -10 6 0 15 5 18 10 8 12 4 12 -15 0z"/>
<path d="M1676 4602 c-24 -5 -92 -47 -101 -63 -6 -8 78 31 124 59 10 5 -5 8
-23 4z"/>
<path d="M1690 4564 c-36 -18 -58 -33 -50 -33 20 -1 120 50 120 61 0 4 -1 7
-2 7 -2 -1 -32 -16 -68 -35z"/>
<path d="M1740 4550 c-13 -11 -18 -20 -12 -20 10 0 42 27 42 36 0 8 -7 4 -30
-16z"/>
<path d="M3186 4561 c-4 -7 -5 -15 -2 -18 9 -9 19 4 14 18 -4 11 -6 11 -12 0z"/>
<path d="M3143 4479 c-1 -10 2 -19 8 -19 11 0 12 27 1 34 -4 2 -9 -4 -9 -15z"/>
<path d="M3011 4461 c-13 -10 -21 -24 -18 -32 4 -10 6 -10 6 3 1 10 13 19 31
23 17 4 30 11 30 16 0 15 -23 10 -49 -10z"/>
<path d="M1510 4466 c0 -2 7 -7 16 -10 8 -3 12 -2 9 4 -6 10 -25 14 -25 6z"/>
<path d="M2956 4425 c-3 -9 0 -15 9 -15 9 0 12 6 9 15 -4 8 -7 15 -9 15 -2 0
-5 -7 -9 -15z"/>
<path d="M3041 4424 c-31 -16 -76 -64 -59 -64 14 1 94 68 87 73 -2 2 -15 -2
-28 -9z"/>
<path d="M2900 4409 c0 -5 5 -7 10 -4 6 3 10 8 10 11 0 2 -4 4 -10 4 -5 0 -10
-5 -10 -11z"/>
<path d="M1648 4385 c-12 -26 -4 -46 11 -29 5 5 12 19 16 32 9 31 -12 29 -27
-3z"/>
<path d="M1460 4392 c0 -19 12 -42 22 -42 14 0 5 43 -9 48 -7 2 -13 -1 -13 -6z"/>
<path d="M1860 4281 c-5 -11 -10 -25 -10 -31 0 -17 -50 -59 -95 -80 -47 -23
-125 -26 -163 -6 -30 16 -69 56 -96 99 -9 15 -21 25 -26 22 -12 -8 13 -48 59
-98 69 -73 178 -80 270 -19 46 31 106 107 96 122 -10 16 -23 12 -35 -9z"/>
<path d="M2435 3854 c-82 -42 -133 -75 -155 -100 l-25 -28 26 17 c160 99 201
127 187 127 -2 0 -16 -7 -33 -16z"/>
<path d="M2943 3714 c7 -7 -19 -69 -30 -70 -41 -4 -57 -38 -23 -49 15 -5 20
-15 20 -41 0 -39 11 -43 33 -11 15 22 15 22 46 4 26 -15 31 -16 31 -3 0 8 -8
17 -17 19 -17 4 -17 5 -1 6 11 1 15 6 12 16 -4 9 4 23 17 34 l24 20 -32 11
c-20 7 -37 23 -45 41 -7 16 -19 29 -27 29 -8 0 -12 -3 -8 -6z m42 -60 c19 -19
23 -29 15 -39 -6 -7 -9 -19 -8 -26 2 -9 -6 -14 -19 -14 -11 0 -25 -3 -29 -7
-14 -15 -24 -8 -24 17 0 14 -4 25 -10 25 -20 0 -9 19 13 22 14 2 23 11 25 26
4 28 5 28 37 -4z"/>
<path d="M3233 3113 c-6 -26 -15 -39 -28 -41 -37 -7 -38 -21 -2 -35 27 -12 36
-22 39 -44 4 -34 22 -37 26 -4 3 21 7 23 43 18 21 -3 39 -3 39 -1 0 3 -10 18
-22 34 -21 30 -22 30 -2 46 18 15 17 15 -13 10 -28 -5 -33 -2 -45 24 -17 39
-24 38 -35 -7z m35 -23 c7 -12 16 -18 21 -16 5 3 11 -5 13 -19 4 -19 1 -25
-13 -25 -11 0 -19 -4 -19 -10 0 -5 -4 -10 -10 -10 -5 0 -10 6 -10 14 0 8 -9
18 -21 21 l-21 7 22 15 c12 8 19 21 16 29 -8 21 8 17 22 -6z"/>
<path d="M3220 2960 c0 -5 5 -10 11 -10 5 0 7 5 4 10 -3 6 -8 10 -11 10 -2 0
-4 -4 -4 -10z"/>
<path d="M4034 2937 c-3 -9 -1 -37 4 -63 9 -43 8 -49 -11 -65 -12 -10 -27 -18
-33 -19 -6 0 -19 -9 -29 -20 -17 -19 -17 -20 29 -40 26 -11 51 -20 56 -20 11
0 28 -54 36 -117 4 -29 10 -53 15 -53 11 0 45 71 54 110 7 31 23 38 41 20 6
-6 19 -12 30 -14 10 -3 27 -8 38 -12 16 -6 17 -4 11 17 -4 13 -11 26 -14 29
-3 3 -19 25 -35 49 -24 38 -28 51 -23 90 3 25 9 54 12 64 9 22 -19 23 -66 3
-33 -14 -35 -14 -71 21 -31 30 -38 34 -44 20z m80 -77 c2 0 20 7 39 15 20 8
38 15 40 15 2 0 -1 -27 -7 -61 -7 -41 -7 -63 0 -67 13 -9 64 -84 64 -94 0 -4
-15 1 -32 12 -51 31 -62 26 -82 -35 -18 -59 -36 -72 -36 -27 0 15 -5 43 -10
62 -8 31 -18 39 -62 58 l-53 23 46 27 c40 24 44 30 38 52 -4 14 -7 39 -8 55
l-1 30 31 -32 c16 -18 31 -33 33 -33z"/>
<path d="M4370 2560 c0 -5 7 -10 15 -10 8 0 15 5 15 10 0 6 -7 10 -15 10 -8 0
-15 -4 -15 -10z"/>
<path d="M4485 2541 c-7 -12 12 -24 25 -16 11 7 4 25 -10 25 -5 0 -11 -4 -15
-9z"/>
<path d="M4305 2500 c-3 -5 1 -10 10 -10 9 0 13 5 10 10 -3 6 -8 10 -10 10 -2
0 -7 -4 -10 -10z"/>
<path d="M4410 2440 c0 -5 7 -10 16 -10 8 0 12 5 9 10 -3 6 -10 10 -16 10 -5
0 -9 -4 -9 -10z"/>
<path d="M4472 2441 c-11 -7 -11 -9 2 -14 10 -4 16 -1 16 8 0 17 -1 17 -18 6z"/>
<path d="M2045 2420 c3 -5 8 -10 11 -10 2 0 4 5 4 10 0 6 -5 10 -11 10 -5 0
-7 -4 -4 -10z"/>
<path d="M2997 1953 c3 -7 6 -13 8 -13 2 0 5 6 8 13 3 8 -1 14 -8 14 -7 0 -11
-6 -8 -14z"/>
<path d="M2211 1724 c0 -11 3 -14 6 -6 3 7 2 16 -1 19 -3 4 -6 -2 -5 -13z"/>
<path d="M4046 1712 c-3 -4 4 -9 15 -9 23 -2 25 3 4 10 -8 4 -16 3 -19 -1z"/>
<path d="M2201 1684 c0 -11 3 -14 6 -6 3 7 2 16 -1 19 -3 4 -6 -2 -5 -13z"/>
<path d="M4300 1505 c-35 -36 -60 -65 -55 -65 17 1 151 129 135 130 -9 0 -45
-29 -80 -65z"/>
<path d="M4259 1532 c-8 -9 -44 -55 -78 -100 -47 -62 -60 -87 -52 -95 6 -6 11
-7 11 -1 0 5 7 19 15 29 53 70 125 171 125 177 0 11 -3 9 -21 -10z"/>
<path d="M4225 1419 c-4 -6 -5 -12 -2 -15 2 -3 7 2 10 11 7 17 1 20 -8 4z"/>
<path d="M2751 1124 c0 -11 3 -14 6 -6 3 7 2 16 -1 19 -3 4 -6 -2 -5 -13z"/>
<path d="M4576 663 c-6 -14 -5 -15 5 -6 7 7 10 15 7 18 -3 3 -9 -2 -12 -12z"/>
<path d="M1805 6815 c17 -8 41 -14 55 -14 18 0 12 5 -20 15 -56 17 -75 17 -35
-1z"/>
<path d="M2008 6773 c7 -3 16 -2 19 1 4 3 -2 6 -13 5 -11 0 -14 -3 -6 -6z"/>
<path d="M1857 6755 c3 -8 9 -12 14 -9 12 7 11 11 -5 17 -10 4 -13 1 -9 -8z"/>
<path d="M2200 6740 c0 -5 5 -10 11 -10 5 0 7 5 4 10 -3 6 -8 10 -11 10 -2 0
-4 -4 -4 -10z"/>
<path d="M1960 6730 c0 -5 5 -10 10 -10 6 0 10 5 10 10 0 6 -4 10 -10 10 -5 0
-10 -4 -10 -10z"/>
<path d="M2240 6736 c0 -2 7 -7 16 -10 8 -3 12 -2 9 4 -6 10 -25 14 -25 6z"/>
<path d="M2185 6519 c-4 -6 -5 -12 -2 -15 2 -3 7 2 10 11 7 17 1 20 -8 4z"/>
<path d="M2218 6513 c7 -3 16 -2 19 1 4 3 -2 6 -13 5 -11 0 -14 -3 -6 -6z"/>
<path d="M1255 5988 c-23 -50 -115 -142 -165 -168 -19 -10 -55 -21 -80 -25
-68 -11 -84 -24 -30 -25 60 0 153 45 207 101 40 43 103 135 103 151 0 20 -17
4 -35 -34z"/>
<path d="M1300 5780 c-7 -4 -8 -9 -2 -11 5 -2 12 -17 16 -34 5 -26 2 -32 -21
-42 -15 -7 -35 -13 -44 -13 -10 0 -21 -5 -24 -11 -4 -6 -44 -9 -103 -8 -107 2
-139 15 -215 88 -26 25 -36 30 -31 16 11 -27 40 -55 94 -91 43 -27 51 -29 150
-29 93 0 111 3 163 27 56 27 65 39 47 68 -5 9 -5 19 1 26 12 15 -12 26 -31 14z"/>
<path d="M740 5653 c0 -53 145 -213 182 -201 6 2 -12 20 -39 40 -54 39 -93 84
-124 145 -14 27 -19 32 -19 16z"/>
<path d="M1381 5561 c-8 -5 -9 -11 -3 -15 5 -3 12 1 16 9 6 17 6 18 -13 6z"/>
<path d="M1767 5948 c-27 -25 -43 -73 -27 -83 6 -3 10 4 10 17 0 29 26 68 45
68 8 0 17 5 20 10 12 19 -24 10 -48 -12z"/>
<path d="M1950 5909 c-23 -19 -23 -19 -2 -9 12 6 27 8 32 5 6 -3 7 1 4 9 -7
19 -4 20 -34 -5z"/>
<path d="M1756 5820 c7 -29 30 -57 59 -72 31 -17 85 -27 91 -17 3 5 -11 9 -30
9 -20 0 -36 5 -36 11 0 5 -4 8 -8 5 -9 -6 -51 35 -71 69 -11 18 -11 18 -5 -5z"/>
<path d="M1900 5821 c0 -11 4 -22 9 -25 11 -7 20 14 13 32 -7 19 -22 14 -22
-7z"/>
<path d="M3973 5490 c-1 -11 3 -20 9 -20 6 0 8 3 5 7 -4 3 -2 12 4 20 9 10 8
13 -3 13 -7 0 -14 -9 -15 -20z"/>
<path d="M3950 5415 c0 -8 2 -15 4 -15 2 0 6 7 10 15 3 8 1 15 -4 15 -6 0 -10
-7 -10 -15z"/>
<path d="M3904 5338 c-10 -24 -21 -52 -25 -63 -5 -15 -8 -9 -10 20 -1 22 -3
48 -2 58 0 9 -4 17 -9 17 -9 0 -9 3 -12 -80 -2 -36 -6 -84 -10 -107 -10 -56
-3 -54 18 5 23 63 37 92 58 123 10 14 15 29 11 32 -3 4 0 13 7 22 7 8 8 15 2
15 -5 0 -18 -19 -28 -42z"/>
<path d="M1367 5050 c-3 -11 -1 -20 4 -20 5 0 9 9 9 20 0 11 -2 20 -4 20 -2 0
-6 -9 -9 -20z"/>
<path d="M4895 4679 c-4 -6 -5 -12 -2 -15 2 -3 7 2 10 11 7 17 1 20 -8 4z"/>
<path d="M4306 4368 c3 -5 10 -6 15 -3 13 9 11 12 -6 12 -8 0 -12 -4 -9 -9z"/>
<path d="M4496 4367 c3 -10 9 -15 12 -12 3 3 0 11 -7 18 -10 9 -11 8 -5 -6z"/>
<path d="M4479 4313 c-13 -16 -12 -17 4 -4 16 13 21 21 13 21 -2 0 -10 -8 -17
-17z"/>
<path d="M1720 3909 c-12 -8 -11 -9 6 -4 18 5 24 0 33 -26 6 -18 13 -30 16
-27 9 8 -16 68 -28 68 -7 0 -19 -5 -27 -11z"/>
<path d="M1797 3857 c6 -69 11 -83 24 -70 8 8 8 17 0 31 -6 11 -11 34 -11 51
0 16 -4 32 -8 35 -5 3 -7 -18 -5 -47z"/>
<path d="M1851 3864 c0 -11 3 -14 6 -6 3 7 2 16 -1 19 -3 4 -6 -2 -5 -13z"/>
<path d="M1959 3828 c14 -93 -2 -264 -30 -324 -36 -75 -130 -144 -198 -144
l-34 0 29 22 c114 87 150 179 139 356 -4 56 -11 102 -15 102 -4 0 -5 -53 -3
-117 5 -103 2 -125 -16 -174 -29 -75 -122 -174 -172 -181 -47 -7 -124 35 -158
86 -35 53 -36 137 -2 183 33 44 74 60 114 45 38 -15 46 -8 15 12 -47 31 -134
-11 -163 -78 -11 -26 -11 -79 1 -133 7 -34 64 -94 109 -114 l40 -18 -34 0
c-45 -1 -94 32 -122 84 -32 57 -33 157 -1 202 23 33 27 43 14 43 -4 0 -20 -27
-35 -60 -23 -49 -27 -67 -22 -103 l7 -45 -44 5 c-41 5 -98 30 -98 44 0 3 -9
16 -20 29 -27 32 -27 2 0 -33 28 -36 75 -57 125 -57 37 0 44 -4 54 -29 7 -15
28 -43 46 -61 37 -36 41 -37 215 -27 94 5 127 17 181 69 50 47 66 77 84 154
15 65 20 239 8 285 -10 36 -20 19 -14 -23z"/>
<path d="M1346 3812 c-3 -5 1 -9 9 -9 8 0 12 4 9 9 -3 4 -7 8 -9 8 -2 0 -6 -4
-9 -8z"/>
<path d="M1170 3790 c0 -19 79 -50 132 -52 55 -2 118 16 118 34 0 6 -8 7 -17
3 -66 -27 -120 -26 -190 5 -24 11 -43 15 -43 10z"/>
<path d="M1090 3782 c0 -7 12 -34 27 -59 28 -48 74 -83 108 -83 15 1 10 6 -17
20 -20 11 -49 38 -65 60 -53 76 -52 76 -53 62z"/>
<path d="M2157 3753 c-21 -48 -15 -55 8 -8 9 20 15 38 13 41 -2 2 -12 -13 -21
-33z"/>
<path d="M1921 3674 c0 -11 3 -14 6 -6 3 7 2 16 -1 19 -3 4 -6 -2 -5 -13z"/>
<path d="M1609 3618 c-12 -24 -25 -45 -29 -48 -15 -11 -18 -55 -5 -80 20 -38
54 -58 109 -63 59 -5 70 8 13 16 -103 14 -128 45 -99 122 9 25 20 45 24 45 4
0 8 7 8 15 0 8 5 15 10 15 6 0 10 5 10 10 0 24 -21 7 -41 -32z"/>
<path d="M1900 3646 c0 -2 7 -7 16 -10 8 -3 12 -2 9 4 -6 10 -25 14 -25 6z"/>
<path d="M2080 3640 c18 -12 30 -13 30 -2 0 4 -10 9 -22 9 -18 2 -20 0 -8 -7z"/>
<path d="M2040 3615 c-17 -21 -5 -31 15 -12 8 9 15 18 15 21 0 11 -18 6 -30
-9z"/>
<path d="M1992 3560 c-14 -23 -5 -26 21 -6 20 16 22 26 4 26 -7 0 -18 -9 -25
-20z"/>
<path d="M1170 3233 c0 -57 39 -171 73 -216 77 -102 161 -149 272 -155 57 -3
80 0 117 18 47 22 97 65 68 58 -8 -2 -17 -6 -20 -9 -3 -4 -24 -16 -47 -28 -80
-40 -215 -20 -299 44 -78 60 -142 180 -145 275 -3 65 -19 77 -19 13z"/>
<path d="M1630 3122 c0 -10 -5 -23 -12 -30 -9 -9 -8 -12 5 -12 9 0 17 7 17 15
0 22 27 18 40 -5 16 -31 -4 -64 -31 -50 -11 6 -17 16 -13 23 4 7 4 9 -1 5 -4
-4 -16 -3 -26 3 -15 7 -19 6 -19 -6 0 -9 9 -15 22 -15 12 0 18 -3 15 -7 -4 -3
-2 -12 3 -18 7 -9 19 -9 44 -2 29 10 33 15 32 43 -1 47 -76 102 -76 56z"/>
<path d="M1526 3053 c-6 -14 -5 -15 5 -6 7 7 10 15 7 18 -3 3 -9 -2 -12 -12z"/>
<path d="M1708 2863 c7 -3 16 -2 19 1 4 3 -2 6 -13 5 -11 0 -14 -3 -6 -6z"/>
<path d="M1796 2763 c9 -38 14 -42 14 -10 0 14 -5 29 -10 32 -7 4 -8 -3 -4
-22z"/>
<path d="M1799 2697 c6 -8 8 -16 6 -19 -8 -7 16 -58 27 -58 5 0 2 10 -7 23 -8
13 -13 33 -10 45 3 15 -1 22 -12 22 -12 0 -13 -3 -4 -13z"/>
<path d="M4757 2599 c7 -7 15 -10 18 -7 3 3 -2 9 -12 12 -14 6 -15 5 -6 -5z"/>
<path d="M5048 2564 c174 -88 272 -215 294 -377 14 -112 26 -139 27 -61 1 36
-8 90 -19 127 -23 74 -67 157 -83 157 -5 0 -7 3 -4 6 23 23 -202 181 -270 190
-32 4 -24 -2 55 -42z"/>
<path d="M5015 2530 c-3 -5 -1 -10 4 -10 6 0 11 5 11 10 0 6 -2 10 -4 10 -3 0
-8 -4 -11 -10z"/>
<path d="M5433 2389 c9 -6 15 -14 12 -20 -3 -5 1 -6 10 -3 14 6 14 8 -2 20
-10 7 -22 13 -28 13 -5 0 -2 -4 8 -10z"/>
<path d="M4812 2353 c18 -43 29 -50 18 -12 -6 18 -10 35 -10 36 0 2 -4 3 -10
3 -6 0 -5 -11 2 -27z"/>
<path d="M4740 2355 c0 -6 11 -49 24 -96 31 -114 32 -196 2 -287 -28 -86 -19
-95 14 -16 31 75 33 190 7 299 -11 44 -26 87 -33 95 -8 8 -14 10 -14 5z"/>
<path d="M5501 2264 c7 -9 18 -25 24 -37 5 -11 15 -22 21 -24 7 -2 3 14 -8 37
-11 22 -27 40 -35 40 -13 0 -13 -3 -2 -16z"/>
<path d="M4843 2205 c0 -8 4 -15 9 -15 4 0 8 4 8 9 0 6 -4 12 -8 15 -5 3 -9
-1 -9 -9z"/>
<path d="M5600 2161 c0 -6 5 -13 10 -16 6 -3 10 1 10 9 0 9 -4 16 -10 16 -5 0
-10 -4 -10 -9z"/>
<path d="M4852 2008 c-7 -7 -12 -18 -12 -25 0 -7 -4 -13 -8 -13 -8 0 -42 -53
-42 -65 0 -3 7 0 15 9 8 8 15 17 15 21 0 3 12 22 26 41 26 33 30 56 6 32z"/>
<path d="M4873 1965 c0 -8 4 -12 8 -9 4 2 10 -2 12 -8 4 -8 6 -9 6 -2 1 6 -5
17 -12 23 -10 8 -14 7 -14 -4z"/>
<path d="M4851 1903 c-1 -6 -4 -20 -7 -30 -5 -17 -5 -17 6 0 6 10 9 23 6 30
-3 9 -5 9 -5 0z"/>
<path d="M4761 1868 c-5 -13 -6 -27 -2 -33 3 -5 7 0 9 13 2 12 8 22 13 22 5 0
9 5 9 10 0 19 -21 10 -29 -12z"/>
<path d="M4823 1838 c-20 -26 -26 -41 -15 -34 12 7 36 46 29 46 -3 0 -9 -6
-14 -12z"/>
<path d="M4750 1810 c0 -5 5 -10 11 -10 5 0 7 5 4 10 -3 6 -8 10 -11 10 -2 0
-4 -4 -4 -10z"/>
<path d="M4829 1633 c-13 -16 -12 -17 4 -4 16 13 21 21 13 21 -2 0 -10 -8 -17
-17z"/>
<path d="M5185 1556 c-110 -45 -141 -62 -208 -113 -64 -50 -129 -126 -154
-182 -26 -57 -23 -195 4 -247 72 -136 216 -211 420 -219 97 -4 193 17 193 42
0 13 -24 8 -47 -9 -25 -19 -156 -21 -243 -3 -87 18 -189 59 -225 92 -98 89
-129 209 -83 330 16 44 38 75 92 129 74 74 129 109 259 164 42 19 77 37 77 42
0 10 8 13 -85 -26z"/>
<path d="M5690 1340 c0 -5 7 -10 16 -10 9 0 32 -16 51 -35 34 -34 35 -37 28
-90 -8 -68 11 -76 21 -9 5 34 2 56 -10 80 -21 46 -106 97 -106 64z"/>
<path d="M5878 1217 c3 -55 0 -83 -11 -106 -10 -20 -12 -33 -5 -37 24 -15 45
77 34 154 -10 76 -23 68 -18 -11z"/>
<path d="M5710 1256 c0 -2 7 -7 16 -10 8 -3 12 -2 9 4 -6 10 -25 14 -25 6z"/>
<path d="M5042 1165 c-7 -14 -20 -25 -31 -25 -26 0 -36 -17 -14 -22 10 -3 26
2 35 10 20 16 40 8 31 -14 -4 -11 -9 -12 -19 -3 -18 14 -18 0 0 -23 18 -24 23
-23 30 6 3 13 16 27 28 31 22 8 22 8 -4 12 -19 3 -28 10 -28 23 0 29 -16 32
-28 5z"/>
<path d="M4770 1021 c0 -7 7 -19 15 -27 19 -20 19 -5 0 20 -9 11 -15 14 -15 7z"/>
<path d="M4751 944 c0 -11 3 -14 6 -6 3 7 2 16 -1 19 -3 4 -6 -2 -5 -13z"/>
<path d="M5570 946 c0 -2 7 -6 15 -10 8 -3 15 -1 15 4 0 6 -7 10 -15 10 -8 0
-15 -2 -15 -4z"/>
<path d="M4881 876 c-9 -11 -9 -16 1 -22 7 -4 10 -4 6 1 -4 4 -3 14 3 22 6 7
9 13 6 13 -2 0 -10 -6 -16 -14z"/>
<path d="M5460 870 c0 -5 7 -10 15 -10 8 0 15 5 15 10 0 6 -7 10 -15 10 -8 0
-15 -4 -15 -10z"/>
<path d="M5365 860 c-7 -12 2 -12 30 0 19 8 19 9 -2 9 -12 1 -25 -3 -28 -9z"/>
<path d="M4970 790 c-9 -6 -10 -10 -3 -10 6 0 15 5 18 10 8 12 4 12 -15 0z"/>
<path d="M5511 781 c-7 -5 -23 -7 -35 -4 -20 3 -20 3 2 -6 23 -11 52 -5 52 10
0 11 -1 11 -19 0z"/>
<path d="M5208 738 c9 -9 15 -9 24 0 9 9 7 12 -12 12 -19 0 -21 -3 -12 -12z"/>
<path d="M5566 741 c-4 -7 -5 -15 -2 -18 9 -9 19 4 14 18 -4 11 -6 11 -12 0z"/>
<path d="M5415 720 c-19 -8 -19 -9 2 -9 12 -1 25 4 28 9 7 12 -2 12 -30 0z"/>
<path d="M5530 712 c0 -5 -20 -19 -45 -32 -49 -25 -59 -36 -23 -24 49 15 108
64 78 64 -5 0 -10 -4 -10 -8z"/>
<path d="M5350 690 c-18 -12 -2 -12 25 0 13 6 15 9 5 9 -8 0 -22 -4 -30 -9z"/>
<path d="M5255 670 c-3 -5 -2 -10 4 -10 5 0 13 5 16 10 3 6 2 10 -4 10 -5 0
-13 -4 -16 -10z"/>
<path d="M4710 656 c0 -2 7 -7 16 -10 8 -3 12 -2 9 4 -6 10 -25 14 -25 6z"/>
<path d="M5270 630 c0 -5 10 -10 23 -10 18 0 19 2 7 10 -19 13 -30 13 -30 0z"/>
<path d="M5330 630 c-12 -8 -11 -10 8 -10 12 0 22 5 22 10 0 13 -11 13 -30 0z"/>
<path d="M4786 621 c-8 -12 4 -41 16 -41 6 0 5 6 -2 15 -6 8 -9 19 -5 25 3 5
4 10 1 10 -3 0 -7 -4 -10 -9z"/>
<path d="M5130 620 c0 -11 14 -11 50 0 22 7 21 8 -12 9 -21 1 -38 -3 -38 -9z"/>
<path d="M4805 560 c-3 -5 -3 -10 2 -10 4 0 19 -3 33 -6 24 -6 25 -6 5 9 -24
19 -32 21 -40 7z"/>
<path d="M1770 760 c-9 -6 -10 -10 -3 -10 6 0 15 5 18 10 8 12 4 12 -15 0z"/>
<path d="M3691 1858 c-1 -18 24 -48 40 -48 5 0 4 9 -3 19 -7 11 -15 18 -19 15
-4 -2 -10 4 -12 13 -4 16 -5 16 -6 1z"/>
<path d="M3764 1738 c-4 -7 -3 -8 5 -4 6 4 20 2 29 -6 15 -12 16 -11 3 5 -16
20 -27 22 -37 5z"/>
<path d="M3939 1468 c0 -2 -2 -18 -3 -36 -3 -25 -1 -30 9 -22 7 5 10 21 7 35
-4 21 -10 32 -13 23z"/>
<path d="M3930 1375 c-2 -11 -4 -27 -5 -35 0 -8 -4 -22 -7 -30 -15 -36 -28
-84 -24 -87 10 -10 47 108 43 138 -2 20 -5 26 -7 14z"/>
<path d="M3836 1095 c-9 -26 -7 -32 5 -12 6 10 9 21 6 23 -2 3 -7 -2 -11 -11z"/>
<path d="M3666 667 c-3 -12 -14 -31 -24 -43 -16 -16 -17 -22 -5 -32 10 -10 13
-10 14 0 3 27 5 34 22 66 10 17 13 32 8 32 -5 0 -11 -10 -15 -23z"/>
<path d="M3080 1832 c-71 -26 -107 -185 -56 -244 50 -57 133 -75 175 -39 20
17 20 19 4 32 -10 7 -15 9 -11 5 14 -16 -14 -36 -50 -36 -39 0 -93 29 -115 63
-14 22 -16 74 -3 126 3 13 19 36 35 52 30 28 52 32 79 16 6 -5 12 -4 12 2 0
20 -41 34 -70 23z"/>
<path d="M3117 1759 c-9 -6 -15 -14 -12 -19 8 -13 45 0 45 16 0 16 -8 17 -33
3z"/>
<path d="M3047 1634 c6 -15 23 -19 23 -5 0 5 -7 11 -14 14 -10 4 -13 1 -9 -9z"/>
<path d="M3015 1520 c-3 -6 1 -7 9 -4 18 7 21 14 7 14 -6 0 -13 -4 -16 -10z"/>
<path d="M3033 1484 c-3 -8 -2 -19 3 -24 5 -5 9 1 9 16 0 28 -3 30 -12 8z"/>
<path d="M3248 1441 c-2 -24 1 -37 7 -34 9 3 9 73 0 73 -2 0 -5 -17 -7 -39z"/>
<path d="M3220 1435 c0 -8 -3 -15 -7 -15 -13 0 -9 -64 4 -78 7 -7 18 -10 24
-6 9 5 6 11 -7 21 -16 11 -17 18 -7 53 5 22 6 40 2 40 -5 0 -9 -7 -9 -15z"/>
<path d="M3310 1425 c-2 -11 -2 -24 -1 -28 1 -5 -8 -21 -19 -37 -14 -19 -17
-31 -10 -35 7 -4 14 2 17 14 3 12 9 21 13 21 12 0 18 44 9 66 -7 18 -8 18 -9
-1z"/>
<path d="M3097 1379 c-10 -6 -17 -22 -17 -38 0 -32 25 -46 97 -54 23 -3 52
-14 65 -26 15 -14 24 -18 27 -10 2 7 -7 20 -20 30 -22 17 -38 21 -125 35 -34
5 -42 31 -15 51 21 15 11 24 -12 12z"/>
<path d="M3240 1386 c0 -2 7 -7 16 -10 8 -3 12 -2 9 4 -6 10 -25 14 -25 6z"/>
<path d="M3010 1320 c-8 -5 -11 -12 -7 -16 4 -4 13 -2 19 4 15 15 7 24 -12 12z"/>
<path d="M3054 1273 c-4 -21 -6 -42 -5 -47 4 -19 -43 -56 -71 -56 -17 0 -27
-4 -23 -10 3 -5 16 -10 29 -10 24 0 46 -34 46 -70 0 -11 5 -20 10 -20 6 0 10
9 10 19 0 22 35 51 62 51 10 0 18 5 18 10 0 6 -9 10 -20 10 -28 0 -44 37 -43
103 1 31 0 57 -2 57 -1 0 -6 -17 -11 -37z m10 -108 c11 -44 -14 -62 -34 -24
-9 15 -8 24 1 35 17 20 26 17 33 -11z"/>
<path d="M3204 1249 c-4 -8 -3 -9 4 -5 13 8 31 -23 25 -44 -4 -13 -3 -13 6 -1
6 10 6 21 0 32 -13 25 -26 31 -35 18z"/>
<path d="M3160 1220 c0 -5 5 -10 10 -10 6 0 10 5 10 10 0 6 -4 10 -10 10 -5 0
-10 -4 -10 -10z"/>
<path d="M3155 1190 c-3 -5 1 -10 10 -10 9 0 13 5 10 10 -3 6 -8 10 -10 10 -2
0 -7 -4 -10 -10z"/>
<path d="M3150 1160 c0 -5 5 -10 10 -10 6 0 10 5 10 10 0 6 -4 10 -10 10 -5 0
-10 -4 -10 -10z"/>
<path d="M3137 1099 c7 -7 15 -10 18 -7 3 3 -2 9 -12 12 -14 6 -15 5 -6 -5z"/>
<path d="M3014 1003 c-23 -21 -61 -78 -46 -69 13 8 76 86 69 86 -2 0 -13 -8
-23 -17z"/>
<path d="M3080 999 c0 -5 5 -7 10 -4 6 3 10 8 10 11 0 2 -4 4 -10 4 -5 0 -10
-5 -10 -11z"/>
<path d="M2917 982 c-19 -21 -22 -32 -7 -32 6 0 10 6 10 14 0 8 6 16 13 19 6
2 9 7 6 11 -3 3 -13 -2 -22 -12z"/>
<path d="M3025 934 c-22 -24 -48 -44 -57 -44 -19 0 -24 -15 -9 -24 5 -4 12 0
14 6 4 10 6 10 6 0 1 -14 47 31 82 81 31 41 9 30 -36 -19z"/>
<path d="M2890 925 c0 -8 5 -15 10 -15 6 0 10 7 10 15 0 8 -4 15 -10 15 -5 0
-10 -7 -10 -15z"/>
<path d="M2826 909 c-2 -8 -7 -32 -11 -54 -3 -22 -9 -49 -11 -60 -4 -15 0 -21
15 -22 22 -2 29 13 10 19 -7 2 -7 22 -1 63 9 56 8 85 -2 54z"/>
<path d="M2938 913 c7 -3 16 -2 19 1 4 3 -2 6 -13 5 -11 0 -14 -3 -6 -6z"/>
<path d="M2900 890 c0 -5 9 -10 20 -10 11 0 20 5 20 10 0 6 -9 10 -20 10 -11
0 -20 -4 -20 -10z"/>
<path d="M2930 846 c0 -9 5 -16 10 -16 6 0 10 4 10 9 0 6 -4 13 -10 16 -5 3
-10 -1 -10 -9z"/>
<path d="M2882 805 c-18 -8 -31 -19 -28 -24 6 -9 75 19 76 32 0 10 -10 8 -48
-8z"/>
<path d="M2905 740 c3 -5 11 -10 16 -10 6 0 7 5 4 10 -3 6 -11 10 -16 10 -6 0
-7 -4 -4 -10z"/>
<path d="M1023 7442 c-1 -22 0 -24 9 -8 6 10 6 22 2 26 -5 5 -10 -3 -11 -18z"/>
<path d="M1077 7389 c7 -7 15 -10 18 -7 3 3 -2 9 -12 12 -14 6 -15 5 -6 -5z"/>
<path d="M4778 7165 c-9 -19 -9 -28 0 -37 9 -9 12 -7 12 9 0 12 5 25 10 28 13
8 13 25 0 25 -6 0 -16 -11 -22 -25z"/>
<path d="M4810 7145 c0 -9 5 -15 11 -13 6 2 11 8 11 13 0 5 -5 11 -11 13 -6 2
-11 -4 -11 -13z"/>
<path d="M1626 7103 c-6 -14 -5 -15 5 -6 7 7 10 15 7 18 -3 3 -9 -2 -12 -12z"/>
<path d="M4410 7098 c-1 -59 1 -92 5 -97 3 -2 5 12 5 32 0 20 5 39 10 42 16
10 12 45 -5 45 -9 0 -15 -9 -15 -22z"/>
<path d="M4732 7108 c5 -15 28 -23 28 -10 0 5 -7 13 -16 16 -10 4 -14 1 -12
-6z"/>
<path d="M1660 7089 c0 -5 5 -7 10 -4 6 3 10 8 10 11 0 2 -4 4 -10 4 -5 0 -10
-5 -10 -11z"/>
<path d="M4830 7090 c0 -5 4 -10 9 -10 6 0 13 5 16 10 3 6 -1 10 -9 10 -9 0
-16 -4 -16 -10z"/>
<path d="M4357 7084 c-8 -8 1 -24 14 -24 5 0 9 7 9 15 0 15 -12 20 -23 9z"/>
<path d="M4686 7082 c-3 -3 -3 -9 0 -13 7 -12 54 -12 54 0 0 10 -47 21 -54 13z"/>
<path d="M4862 7072 c-13 -10 -20 -21 -16 -24 8 -8 54 20 54 33 0 14 -12 10
-38 -9z"/>
<path d="M4775 7070 c-8 -13 4 -32 16 -25 12 8 12 35 0 35 -6 0 -13 -4 -16
-10z"/>
<path d="M4126 7045 c-9 -26 -7 -32 5 -12 6 10 9 21 6 23 -2 3 -7 -2 -11 -11z"/>
<path d="M4480 7050 c0 -5 9 -10 20 -10 11 0 20 5 20 10 0 6 -9 10 -20 10 -11
0 -20 -4 -20 -10z"/>
<path d="M4300 7040 c0 -5 7 -10 15 -10 8 0 15 5 15 10 0 6 -7 10 -15 10 -8 0
-15 -4 -15 -10z"/>
<path d="M4740 7036 c0 -8 4 -17 9 -20 10 -7 23 19 14 28 -11 11 -23 6 -23 -8z"/>
<path d="M4367 7023 c-11 -10 -8 -43 4 -43 5 0 7 5 4 10 -4 6 -1 17 5 25 12
15 0 22 -13 8z"/>
<path d="M4440 7015 c-10 -12 -10 -15 4 -15 9 0 16 7 16 15 0 8 -2 15 -4 15
-2 0 -9 -7 -16 -15z"/>
<path d="M4809 7028 c-11 -37 -2 -70 12 -47 12 19 11 49 -1 49 -5 0 -10 -1
-11 -2z"/>
<path d="M4430 6979 c0 -5 5 -7 10 -4 6 3 10 8 10 11 0 2 -4 4 -10 4 -5 0 -10
-5 -10 -11z"/>
<path d="M4450 6955 c0 -8 9 -15 20 -15 11 0 20 7 20 15 0 8 -9 15 -20 15 -11
0 -20 -7 -20 -15z"/>
<path d="M4390 6945 c-10 -12 -10 -15 3 -15 19 0 31 16 18 24 -5 3 -14 -1 -21
-9z"/>
<path d="M4762 6941 c4 -13 18 -16 19 -4 0 4 -5 9 -11 12 -7 2 -11 -2 -8 -8z"/>
<path d="M4874 6832 c-6 -4 -15 -16 -21 -26 -6 -10 -23 -20 -39 -22 -42 -4
-87 -64 -48 -64 8 0 13 4 9 9 -11 18 27 43 57 37 23 -4 28 -2 28 13 0 10 7 24
16 32 13 10 17 10 25 -2 5 -8 7 -19 4 -26 -2 -8 2 -10 13 -6 9 3 14 2 10 -2
-5 -5 0 -14 11 -21 15 -11 25 -11 50 -1 39 15 70 0 115 -56 26 -33 30 -46 30
-101 1 -53 -4 -69 -31 -112 -32 -49 -96 -96 -120 -87 -6 2 -22 -10 -34 -26
-26 -35 -50 -39 -87 -13 -33 23 -62 34 -62 24 0 -13 86 -62 108 -62 12 0 34
13 48 30 15 16 31 27 36 24 12 -8 72 31 106 70 40 46 65 123 57 177 -7 47 -54
122 -87 140 -20 11 -64 14 -100 7 -9 -2 -26 11 -40 31 -25 37 -37 45 -54 33z"/>
<path d="M4615 6753 c-57 -30 -65 -42 -65 -103 0 -35 6 -63 15 -76 14 -18 15
-17 8 11 -8 31 -8 51 -2 97 6 45 121 95 155 67 16 -13 30 -6 19 10 -9 16 -96
12 -130 -6z"/>
<path d="M4830 6703 c-57 -52 -49 -149 15 -175 16 -7 36 -18 43 -25 8 -8 37
-13 71 -13 50 0 62 4 85 27 36 35 41 66 22 117 -12 30 -27 48 -54 63 -48 27
-82 37 -82 25 0 -5 13 -12 29 -15 68 -14 122 -98 95 -149 -18 -35 -73 -60
-115 -52 -104 20 -152 84 -118 158 13 28 65 57 87 48 10 -3 13 -1 8 6 -13 21
-55 13 -86 -15z"/>
<path d="M5040 6706 c0 -2 8 -10 18 -17 15 -13 16 -12 3 4 -13 16 -21 21 -21
13z"/>
<path d="M4737 6683 c3 -7 6 -13 8 -13 2 0 5 6 8 13 3 8 -1 14 -8 14 -7 0 -11
-6 -8 -14z"/>
<path d="M4980 6658 c0 -7 4 -19 9 -27 6 -9 9 -5 9 13 0 14 -4 26 -9 26 -5 0
-9 -6 -9 -12z"/>
<path d="M4942 6611 c-11 -7 -11 -9 2 -14 10 -4 16 -1 16 8 0 17 -1 17 -18 6z"/>
<path d="M4607 6599 c7 -7 15 -10 18 -7 3 3 -2 9 -12 12 -14 6 -15 5 -6 -5z"/>
<path d="M4644 6554 c3 -9 6 -18 6 -20 0 -2 5 -4 10 -4 6 0 10 9 10 20 0 12
-7 20 -16 20 -11 0 -14 -5 -10 -16z"/>
<path d="M4880 6560 c0 -5 5 -10 11 -10 5 0 7 5 4 10 -3 6 -8 10 -11 10 -2 0
-4 -4 -4 -10z"/>
<path d="M4925 6550 c3 -5 17 -10 31 -10 13 0 24 5 24 10 0 6 -14 10 -31 10
-17 0 -28 -4 -24 -10z"/>
<path d="M4689 6517 c6 -8 7 -18 3 -22 -4 -5 -1 -5 6 -1 10 6 10 11 1 22 -6 8
-14 14 -16 14 -3 0 0 -6 6 -13z"/>
<path d="M907 6423 c-29 -8 -10 -20 24 -15 22 3 27 7 18 13 -8 5 -16 8 -19 8
-3 -1 -13 -3 -23 -6z"/>
<path d="M644 6401 c4 -5 2 -11 -4 -13 -6 -2 -11 -29 -13 -61 -2 -57 -2 -58
-39 -69 -45 -13 -49 -25 -10 -33 43 -9 55 -19 66 -52 17 -48 22 -48 41 0 10
26 27 50 42 58 23 12 53 52 36 47 -26 -7 -52 16 -63 57 -7 25 -17 45 -21 45
-5 0 -9 7 -9 15 0 8 -7 15 -16 15 -8 0 -13 -4 -10 -9z m37 -68 c7 -27 12 -52
10 -58 -1 -5 1 -7 4 -3 4 4 17 3 28 -3 19 -11 19 -11 -4 -23 -13 -6 -31 -26
-40 -43 -16 -33 -29 -34 -29 -2 0 10 -13 22 -32 29 l-33 12 28 10 c21 8 27 16
28 41 1 18 2 37 4 42 1 6 3 18 3 28 3 32 19 17 33 -30z"/>
<path d="M5660 6375 c0 -8 -14 -28 -30 -44 l-30 -28 24 -16 c14 -9 26 -26 28
-38 4 -26 28 -38 28 -15 0 9 14 29 30 44 33 32 39 52 14 52 -9 0 -21 14 -27
30 -12 31 -37 41 -37 15z m50 -72 c0 -4 -12 -16 -25 -26 -20 -14 -25 -15 -25
-4 0 8 -7 18 -16 21 -13 5 -12 10 8 34 l23 28 18 -22 c9 -12 17 -26 17 -31z"/>
<path d="M4930 6262 c0 -5 -12 -21 -27 -36 -14 -14 -24 -29 -21 -31 10 -11 36
7 49 33 13 26 13 26 17 4 3 -21 42 -52 42 -33 0 5 -6 11 -14 14 -8 3 -16 16
-18 28 -3 22 -28 40 -28 21z"/>
<path d="M757 6219 c7 -7 15 -10 18 -7 3 3 -2 9 -12 12 -14 6 -15 5 -6 -5z"/>
<path d="M4985 6177 c-11 -12 -19 -30 -17 -39 2 -10 -2 -18 -8 -18 -21 0 -50
21 -50 35 0 28 -15 15 -17 -15 -2 -23 2 -30 16 -30 10 0 33 -3 51 -7 31 -6 33
-4 27 16 -4 15 1 29 14 42 19 19 25 40 12 38 -5 0 -17 -10 -28 -22z"/>
<path d="M388 6070 c-3 -8 -13 -62 -22 -120 -19 -120 -29 -135 -96 -144 -81
-11 -110 -18 -110 -28 0 -10 102 -58 124 -58 37 0 57 -35 73 -130 9 -52 17
-105 17 -117 1 -18 7 -23 26 -23 16 0 20 3 13 8 -10 6 -9 28 3 102 22 137 27
146 90 169 29 11 65 23 79 27 14 3 25 10 25 14 0 9 -85 40 -111 40 -10 0 -29
10 -43 23 -25 21 -33 51 -59 227 -2 17 -5 20 -9 10z m35 -238 c12 -19 57 -39
105 -47 51 -8 47 -14 -29 -39 -45 -15 -59 -25 -72 -50 -14 -31 -34 -156 -28
-185 1 -7 -2 -10 -7 -7 -5 3 -12 33 -16 67 -14 134 -19 142 -141 186 l-50 18
65 11 c105 17 117 28 126 112 9 77 16 81 28 12 6 -36 15 -71 19 -78z"/>
<path d="M405 5790 c3 -5 8 -10 11 -10 2 0 4 5 4 10 0 6 -5 10 -11 10 -5 0 -7
-4 -4 -10z"/>
<path d="M390 5721 c0 -6 4 -13 10 -16 6 -3 7 1 4 9 -7 18 -14 21 -14 7z"/>
<path d="M5425 6069 c-3 -8 -14 -61 -24 -117 -10 -57 -25 -110 -32 -118 -8 -7
-56 -21 -106 -31 -51 -9 -93 -21 -93 -25 0 -4 9 -8 19 -8 11 0 22 -4 25 -9 4
-5 25 -12 49 -16 23 -3 56 -13 73 -21 30 -13 33 -20 59 -131 36 -159 36 -158
52 -73 30 163 35 180 52 190 19 10 157 50 179 52 29 3 8 16 -45 27 -93 20
-140 41 -152 67 -6 13 -16 66 -22 117 -10 90 -23 125 -34 96z m27 -177 c14
-64 55 -102 110 -102 19 0 43 -7 54 -15 18 -14 18 -14 -11 -15 -16 0 -51 -7
-76 -17 -57 -20 -79 -58 -87 -150 -5 -61 -22 -89 -22 -37 0 14 -7 57 -17 95
-19 79 -31 91 -118 110 -34 7 -51 14 -40 16 11 3 48 13 83 25 70 22 75 29 86
118 4 30 10 69 14 85 6 27 7 26 9 -15 2 -25 8 -69 15 -98z"/>
<path d="M5430 5796 c0 -8 -6 -17 -12 -19 -7 -3 -3 -6 9 -6 16 -1 20 3 16 19
-6 23 -13 26 -13 6z"/>
<path d="M5380 5760 c0 -5 5 -10 11 -10 5 0 7 5 4 10 -3 6 -8 10 -11 10 -2 0
-4 -4 -4 -10z"/>
<path d="M920 5993 c0 -12 52 -95 56 -90 7 6 -38 97 -48 97 -4 0 -8 -3 -8 -7z"/>
<path d="M895 5889 c-4 -6 -4 -13 -1 -16 3 -4 6 -1 6 6 0 7 5 9 12 5 7 -4 8
-3 4 4 -9 15 -13 15 -21 1z"/>
<path d="M473 5875 c0 -8 4 -12 9 -9 5 3 6 10 3 15 -9 13 -12 11 -12 -6z"/>
<path d="M1515 5580 c-3 -5 -1 -10 4 -10 6 0 11 5 11 10 0 6 -2 10 -4 10 -3 0
-8 -4 -11 -10z"/>
<path d="M5635 5289 c-10 -15 1 -23 20 -15 9 3 13 10 10 16 -8 13 -22 13 -30
-1z"/>
<path d="M80 5261 c0 -11 14 -33 30 -50 l31 -30 -25 -7 c-23 -5 -36 -29 -36
-66 0 -10 5 -18 10 -18 6 0 10 13 10 29 0 23 7 31 33 42 17 8 35 14 40 14 15
0 7 20 -10 23 -26 6 -63 43 -63 64 0 10 -4 18 -10 18 -5 0 -10 -9 -10 -19z"/>
<path d="M66 5215 c-3 -8 -17 -17 -31 -21 -14 -3 -25 -9 -25 -13 0 -10 62 -42
69 -36 3 4 -2 11 -12 17 -18 9 -18 11 2 29 22 21 28 39 12 39 -5 0 -11 -7 -15
-15z"/>
<path d="M780 5191 c0 -6 4 -13 10 -16 6 -3 7 1 4 9 -7 18 -14 21 -14 7z"/>
<path d="M5415 5106 c-20 -19 -24 -30 -19 -50 6 -25 18 -31 59 -26 34 3 47 21
41 54 -11 51 -41 59 -81 22z m57 -10 c15 -11 16 -15 3 -33 -11 -15 -22 -19
-37 -15 -34 8 -40 25 -15 44 26 21 27 21 49 4z"/>
<path d="M5767 5103 c-13 -12 -7 -23 13 -23 13 0 18 5 14 15 -7 16 -17 19 -27
8z"/>
<path d="M323 5083 c-7 -2 -13 -11 -13 -20 0 -20 34 -12 38 10 3 17 -3 20 -25
10z"/>
<path d="M609 5053 c-13 -16 -12 -17 4 -4 9 7 17 15 17 17 0 8 -8 3 -21 -13z"/>
<path d="M5215 4910 c-3 -5 -9 -29 -13 -52 -6 -37 -11 -43 -35 -46 -35 -4 -34
-13 6 -37 45 -28 48 -28 41 -12 -3 8 -15 19 -27 25 l-22 11 21 0 c18 1 24 10
31 49 l10 47 8 -43 c5 -26 11 -40 17 -34 5 5 4 28 -4 55 -12 46 -21 56 -33 37z"/>
<path d="M5273 4815 c3 -7 -5 -17 -19 -24 -13 -6 -24 -19 -24 -30 0 -11 -5
-21 -12 -23 -14 -5 -4 -38 12 -38 5 0 10 9 10 19 0 33 11 51 42 67 31 16 33
36 4 40 -11 1 -16 -2 -13 -11z"/>
<path d="M5480 4764 c0 -14 3 -14 15 -4 8 7 15 14 15 16 0 2 -7 4 -15 4 -8 0
-15 -7 -15 -16z"/>
<path d="M5738 4728 c-3 -38 -6 -43 -25 -41 -13 2 -23 -2 -23 -7 0 -6 -11 -10
-25 -10 -14 0 -25 -4 -25 -10 0 -5 9 -10 20 -10 11 0 20 -4 20 -10 0 -5 3 -9
8 -9 24 4 31 -6 38 -46 6 -42 24 -64 24 -30 0 8 4 15 8 15 5 0 15 12 22 26 15
26 21 27 89 8 23 -7 23 -7 6 20 -12 18 -21 23 -25 16 -4 -7 -19 -10 -34 -8
-19 2 -33 -5 -51 -27 -24 -29 -24 -29 -25 -7 0 25 -15 45 -40 54 -10 4 -5 10
18 18 30 11 37 24 32 60 -1 12 1 12 12 -1 16 -21 58 -35 58 -20 0 6 -6 11 -14
11 -7 0 -21 11 -30 25 -24 36 -34 31 -38 -17z"/>
<path d="M663 4720 c1 -11 7 -20 14 -20 15 0 15 2 7 24 -9 23 -23 20 -21 -4z"/>
<path d="M5830 4721 c0 -10 55 -9 66 2 4 4 -9 7 -29 7 -20 0 -37 -4 -37 -9z"/>
<path d="M168 4685 c-4 -31 -1 -35 19 -35 29 0 32 -35 4 -43 -13 -3 -22 3 -30
19 -10 23 -51 34 -51 14 0 -5 7 -10 15 -10 9 0 18 -12 22 -30 6 -34 15 -37 37
-15 9 9 17 11 21 5 14 -23 25 -7 25 35 0 38 -3 45 -20 45 -15 0 -20 7 -20 25
0 38 -17 30 -22 -10z"/>
<path d="M5843 4685 c-17 -19 -16 -25 2 -25 8 0 15 2 15 4 0 2 3 11 6 20 8 20
-7 20 -23 1z"/>
<path d="M620 4680 c0 -5 9 -10 20 -10 15 0 22 -9 27 -31 5 -25 8 -28 15 -15
5 9 6 21 3 27 -4 6 2 13 14 16 12 3 21 9 21 14 0 13 -14 11 -28 -3 -9 -9 -18
-9 -37 0 -32 15 -35 15 -35 2z"/>
<path d="M496 4521 c-3 -5 1 -12 10 -15 27 -11 37 -7 24 9 -14 17 -26 19 -34
6z"/>
<path d="M5214 4468 c-4 -6 -3 -8 4 -4 5 3 12 1 14 -6 3 -8 6 -9 11 -1 4 6 0
13 -8 17 -8 3 -17 0 -21 -6z"/>
<path d="M760 4456 c7 -7 13 -7 20 0 6 6 3 10 -10 10 -13 0 -16 -4 -10 -10z"/>
<path d="M1295 4460 c-3 -5 -1 -10 4 -10 6 0 11 5 11 10 0 6 -2 10 -4 10 -3 0
-8 -4 -11 -10z"/>
<path d="M5880 4420 c0 -5 5 -10 10 -10 6 0 10 5 10 10 0 6 -4 10 -10 10 -5 0
-10 -4 -10 -10z"/>
<path d="M706 4407 c3 -10 9 -15 12 -12 3 3 0 11 -7 18 -10 9 -11 8 -5 -6z"/>
<path d="M5285 4399 c-4 -6 -4 -13 -1 -16 3 -4 6 -1 6 6 0 7 5 9 12 5 7 -4 8
-3 4 4 -9 15 -13 15 -21 1z"/>
<path d="M1301 4384 c0 -11 3 -14 6 -6 3 7 2 16 -1 19 -3 4 -6 -2 -5 -13z"/>
<path d="M4820 4396 c0 -2 7 -6 15 -10 8 -3 15 -1 15 4 0 6 -7 10 -15 10 -8 0
-15 -2 -15 -4z"/>
<path d="M4675 4350 c3 -5 8 -10 11 -10 2 0 4 5 4 10 0 6 -5 10 -11 10 -5 0
-7 -4 -4 -10z"/>
<path d="M1277 4236 c-37 -18 -86 -50 -109 -70 -64 -55 -159 -128 -163 -124
-1 2 -24 28 -49 58 -26 30 -56 56 -67 56 -23 2 -33 -15 -60 -101 -19 -64 -20
-64 -84 -95 -69 -33 -73 -43 -25 -75 34 -22 35 -31 18 -122 -16 -86 -9 -92 77
-68 l65 17 48 -50 c26 -28 52 -48 57 -44 18 13 55 101 45 107 -6 3 -10 -1 -10
-9 0 -9 -4 -16 -9 -16 -5 0 -12 -13 -16 -30 -4 -16 -10 -30 -15 -30 -5 0 -27
21 -50 47 l-41 47 -42 -13 c-23 -7 -55 -15 -71 -18 l-29 -6 7 44 c20 128 21
123 -13 152 -17 14 -31 28 -31 32 0 5 36 21 53 24 4 0 20 7 35 15 22 11 32 29
50 90 13 41 28 78 34 82 10 6 29 -12 106 -100 26 -30 38 -37 55 -32 12 4 41 9
65 12 36 5 42 4 42 -12 0 -17 1 -17 17 -1 9 9 14 20 10 23 -9 9 -96 9 -129 0
-48 -14 -30 7 54 64 44 30 83 60 85 67 6 15 75 61 105 68 27 7 64 33 57 40 -3
3 -36 -10 -72 -29z"/>
<path d="M309 4237 c6 -8 7 -18 3 -22 -4 -5 -1 -5 6 -1 10 6 10 11 1 22 -6 8
-14 14 -16 14 -3 0 0 -6 6 -13z"/>
<path d="M4546 4227 c3 -10 9 -15 12 -12 3 3 0 11 -7 18 -10 9 -11 8 -5 -6z"/>
<path d="M4611 4207 c2 -1 12 -9 22 -16 14 -12 17 -11 17 3 0 10 -8 16 -22 16
-12 0 -19 -1 -17 -3z"/>
<path d="M4788 4183 c7 -3 16 -2 19 1 4 3 -2 6 -13 5 -11 0 -14 -3 -6 -6z"/>
<path d="M4838 4183 c7 -3 16 -2 19 1 4 3 -2 6 -13 5 -11 0 -14 -3 -6 -6z"/>
<path d="M4510 4102 l5 -47 3 39 c2 21 0 42 -5 47 -4 4 -6 -13 -3 -39z"/>
<path d="M530 4060 c0 -11 6 -20 13 -20 7 0 13 9 14 20 1 11 -4 20 -13 20 -8
0 -14 -9 -14 -20z"/>
<path d="M282 4034 c-15 -10 -22 -25 -22 -49 0 -31 3 -35 35 -41 19 -3 43 -3
52 2 15 6 14 8 -7 11 -57 8 -70 14 -70 32 0 9 11 24 25 31 14 7 25 17 25 22 0
12 -13 10 -38 -8z"/>
<path d="M5851 4009 c-24 -23 -24 -24 -11 -50 14 -24 35 -24 60 1 26 26 25 34
-4 53 -22 15 -25 14 -45 -4z m39 -14 c13 -16 6 -35 -15 -35 -18 0 -26 15 -19
34 8 20 18 20 34 1z"/>
<path d="M1117 3968 c-7 -27 2 -45 14 -27 11 18 11 49 0 49 -5 0 -11 -10 -14
-22z"/>
<path d="M46 3967 c3 -10 9 -15 12 -12 3 3 0 11 -7 18 -10 9 -11 8 -5 -6z"/>
<path d="M380 3970 c-9 -6 -10 -10 -3 -10 6 0 15 5 18 10 8 12 4 12 -15 0z"/>
<path d="M1190 3920 c0 -5 6 -10 14 -10 8 0 18 5 21 10 3 6 -3 10 -14 10 -12
0 -21 -4 -21 -10z"/>
<path d="M620 3905 c0 -8 4 -15 10 -15 5 0 7 7 4 15 -4 8 -8 15 -10 15 -2 0
-4 -7 -4 -15z"/>
<path d="M307 3749 c-54 -44 -48 -78 16 -94 17 -5 27 -3 27 3 0 6 -16 14 -35
18 -19 3 -35 9 -35 13 1 16 19 33 29 27 7 -5 9 -1 5 8 -3 9 -2 16 3 16 17 0
46 27 36 33 -5 3 -26 -8 -46 -24z"/>
<path d="M5686 3757 c3 -10 9 -15 12 -12 3 3 0 11 -7 18 -10 9 -11 8 -5 -6z"/>
<path d="M527 3754 c-8 -8 1 -24 14 -24 5 0 9 7 9 15 0 15 -12 20 -23 9z"/>
<path d="M953 3704 c0 -6 9 -9 19 -6 27 7 29 17 4 17 -13 0 -23 -5 -23 -11z"/>
<path d="M4868 3663 c5 -21 7 -23 10 -9 2 10 0 22 -6 28 -6 6 -7 0 -4 -19z"/>
<path d="M5395 3630 c-4 -6 6 -10 22 -10 22 0 25 2 13 10 -19 12 -27 12 -35 0z"/>
<path d="M5486 3631 c5 -5 25 -14 45 -20 20 -6 45 -20 57 -31 12 -11 25 -20
29 -20 12 0 -39 43 -74 63 -32 18 -75 24 -57 8z"/>
<path d="M325 3620 c3 -5 11 -10 16 -10 6 0 7 5 4 10 -3 6 -11 10 -16 10 -6 0
-7 -4 -4 -10z"/>
<path d="M1052 3615 c0 -11 0 -31 0 -44 -2 -20 -4 -21 -17 -11 -13 11 -14 10
-9 -4 3 -9 10 -16 14 -16 4 0 13 -20 20 -45 7 -25 17 -45 21 -45 5 0 9 -6 9
-12 1 -26 37 -90 45 -79 4 7 -1 21 -10 31 -9 10 -14 24 -10 29 3 6 2 11 -3 11
-19 0 -54 102 -49 141 3 20 1 43 -4 50 -7 11 -9 9 -7 -6z"/>
<path d="M5320 3593 c-52 -40 -100 -93 -106 -119 -4 -13 -10 -24 -15 -24 -5 0
-9 -7 -9 -15 0 -27 15 -16 38 29 23 42 62 86 112 125 14 11 23 22 20 25 -3 3
-21 -7 -40 -21z"/>
<path d="M355 3580 c4 -6 11 -8 16 -5 14 9 11 15 -7 15 -8 0 -12 -5 -9 -10z"/>
<path d="M390 3580 c0 -5 5 -10 11 -10 5 0 7 5 4 10 -3 6 -8 10 -11 10 -2 0
-4 -4 -4 -10z"/>
<path d="M973 3571 c0 -11 5 -18 9 -15 4 3 5 11 1 19 -7 21 -12 19 -10 -4z"/>
<path d="M4963 3562 c-33 -18 -91 -82 -75 -82 5 0 28 18 50 40 32 32 47 40 76
40 52 0 96 -21 133 -64 33 -37 43 -43 43 -27 0 17 -56 68 -95 88 -52 25 -93
27 -132 5z"/>
<path d="M4883 3555 c-3 -9 -3 -18 -1 -21 3 -3 8 4 11 16 6 23 -1 27 -10 5z"/>
<path d="M4865 3462 c-33 -7 -42 -22 -13 -22 15 0 30 5 33 11 9 14 4 16 -20
11z"/>
<path d="M5603 3445 c0 -7 6 -11 14 -8 7 3 13 6 13 8 0 2 -6 5 -13 8 -8 3 -14
-1 -14 -8z"/>
<path d="M5780 3435 c7 -8 17 -15 22 -15 5 0 3 7 -6 15 -8 8 -18 15 -22 15 -3
0 -1 -7 6 -15z"/>
<path d="M4988 3425 c-3 -3 -28 -9 -54 -13 -47 -7 -49 -8 -50 -42 -1 -19 -5
-45 -9 -57 -4 -13 -4 -23 -1 -23 10 0 29 53 27 76 -2 21 23 39 40 28 5 -3 17
-1 26 5 14 8 20 2 33 -37 11 -35 23 -51 45 -61 17 -8 32 -18 33 -23 5 -11 42
-10 42 2 0 5 -20 18 -44 28 -49 22 -57 31 -71 85 -6 21 -13 36 -17 32z"/>
<path d="M250 3379 c0 -5 5 -7 10 -4 6 3 10 8 10 11 0 2 -4 4 -10 4 -5 0 -10
-5 -10 -11z"/>
<path d="M4755 3360 c3 -5 11 -10 16 -10 6 0 7 5 4 10 -3 6 -11 10 -16 10 -6
0 -7 -4 -4 -10z"/>
<path d="M4940 3340 c0 -5 5 -10 10 -10 6 0 10 5 10 10 0 6 -4 10 -10 10 -5 0
-10 -4 -10 -10z"/>
<path d="M4735 3330 c4 -6 11 -8 16 -5 14 9 11 15 -7 15 -8 0 -12 -5 -9 -10z"/>
<path d="M4980 3320 c0 -5 5 -10 11 -10 5 0 7 5 4 10 -3 6 -8 10 -11 10 -2 0
-4 -4 -4 -10z"/>
<path d="M4915 3285 c-39 -11 -38 -11 36 -11 81 1 109 -11 109 -45 0 -11 5
-19 10 -19 9 0 4 47 -6 59 -2 2 -27 9 -56 16 -41 9 -62 9 -93 0z"/>
<path d="M4920 3240 c6 -11 15 -18 21 -14 6 4 6 11 -2 20 -17 21 -31 17 -19
-6z"/>
<path d="M4966 3205 c4 -8 10 -15 15 -15 4 0 6 7 3 15 -4 8 -10 15 -15 15 -4
0 -6 -7 -3 -15z"/>
<path d="M1028 3188 c-2 -13 -1 -36 3 -53 5 -24 7 -20 8 23 1 54 -4 68 -11 30z"/>
<path d="M303 3171 c0 -11 5 -18 9 -15 4 3 5 11 1 19 -7 21 -12 19 -10 -4z"/>
<path d="M4394 3164 c-2 -23 -1 -24 11 -7 7 10 11 21 9 25 -10 16 -19 7 -20
-18z"/>
<path d="M5048 3183 c7 -3 16 -2 19 1 4 3 -2 6 -13 5 -11 0 -14 -3 -6 -6z"/>
<path d="M4984 3169 c-7 -11 16 -32 25 -23 3 3 -1 9 -8 13 -11 7 -11 10 0 14
9 3 10 6 2 6 -6 1 -15 -4 -19 -10z"/>
<path d="M5067 3156 c-4 -10 -1 -13 8 -9 8 3 12 9 9 14 -7 12 -11 11 -17 -5z"/>
<path d="M5111 3131 c-6 -10 -24 -24 -41 -31 -29 -12 -41 -30 -20 -30 14 0 62
31 77 50 17 23 22 11 25 -65 3 -58 0 -70 -14 -73 -12 -2 -15 2 -11 17 4 16 1
21 -13 21 -15 0 -16 -2 -5 -9 7 -5 11 -13 8 -18 -3 -5 -2 -14 2 -21 11 -19 74
8 65 28 -4 8 -9 31 -11 50 -10 88 -14 100 -33 100 -11 0 -24 -8 -29 -19z"/>
<path d="M5360 3140 c0 -5 9 -10 20 -10 11 0 20 5 20 10 0 6 -9 10 -20 10 -11
0 -20 -4 -20 -10z"/>
<path d="M5523 3101 c0 -11 5 -17 10 -14 4 3 11 -4 14 -16 6 -22 18 -27 28
-11 3 5 -6 21 -21 35 -32 30 -33 30 -31 6z"/>
<path d="M5113 3055 c0 -8 4 -15 9 -15 4 0 8 4 8 9 0 6 -4 12 -8 15 -5 3 -9
-1 -9 -9z"/>
<path d="M5486 3061 c-3 -5 1 -11 9 -15 9 -3 15 0 15 9 0 16 -16 20 -24 6z"/>
<path d="M5520 3020 c0 -11 5 -20 10 -20 6 0 10 9 10 20 0 11 -4 20 -10 20 -5
0 -10 -9 -10 -20z"/>
<path d="M858 2993 c7 -3 16 -2 19 1 4 3 -2 6 -13 5 -11 0 -14 -3 -6 -6z"/>
<path d="M1085 2990 c-3 -6 1 -7 9 -4 18 7 21 14 7 14 -6 0 -13 -4 -16 -10z"/>
<path d="M450 2940 c0 -5 7 -7 15 -4 8 4 15 8 15 10 0 2 -7 4 -15 4 -8 0 -15
-4 -15 -10z"/>
<path d="M5187 2943 c-14 -13 -6 -29 27 -51 31 -21 39 -22 78 -13 l43 10 -40
-1 c-65 -1 -102 19 -96 55 1 9 -4 9 -12 0z"/>
<path d="M5335 2910 c-3 -5 1 -10 9 -10 9 0 16 5 16 10 0 6 -4 10 -9 10 -6 0
-13 -4 -16 -10z"/>
<path d="M5726 2893 c-6 -14 -5 -15 5 -6 7 7 10 15 7 18 -3 3 -9 -2 -12 -12z"/>
<path d="M5385 2830 c-3 -5 1 -10 9 -10 9 0 16 5 16 10 0 6 -4 10 -9 10 -6 0
-13 -4 -16 -10z"/>
<path d="M951 2634 c0 -11 3 -14 6 -6 3 7 2 16 -1 19 -3 4 -6 -2 -5 -13z"/>
<path d="M5375 2619 c-4 -17 -4 -33 -1 -36 3 -4 6 -1 6 5 0 17 27 15 33 -2 4
-11 14 -12 51 -3 56 13 67 5 37 -27 l-23 -25 23 -37 c12 -21 25 -32 27 -26 2
6 -3 21 -12 34 -14 20 -14 24 9 54 31 41 22 48 -60 49 -54 0 -60 2 -63 23 -5
32 -19 27 -27 -9z"/>
<path d="M5585 2640 c-7 -12 2 -30 16 -30 5 0 9 9 9 20 0 21 -15 27 -25 10z"/>
<path d="M1590 2595 c0 -8 2 -15 4 -15 2 0 6 7 10 15 3 8 1 15 -4 15 -6 0 -10
-7 -10 -15z"/>
<path d="M800 2534 c0 -20 4 -33 10 -29 5 3 7 12 3 20 -8 22 23 19 47 -5 16
-16 20 -17 20 -5 0 14 -54 55 -72 55 -5 0 -8 -16 -8 -36z"/>
<path d="M1590 2555 c0 -9 5 -15 11 -13 6 2 11 8 11 13 0 5 -5 11 -11 13 -6 2
-11 -4 -11 -13z"/>
<path d="M324 2534 c3 -9 9 -27 12 -40 3 -13 7 -24 9 -24 1 0 19 -7 39 -15 29
-12 36 -13 36 -2 0 7 -15 17 -32 22 -25 8 -35 18 -42 43 -5 17 -13 32 -19 32
-5 0 -6 -7 -3 -16z"/>
<path d="M305 2481 c-3 -5 -19 -12 -35 -16 -31 -7 -32 -25 -3 -25 9 0 25 -7
35 -17 17 -15 18 -15 18 1 0 9 -7 19 -15 22 -12 5 -10 10 8 25 12 10 17 18 10
19 -6 0 -14 -4 -18 -9z"/>
<path d="M790 2482 c0 -5 11 -13 25 -16 14 -4 25 -11 25 -16 0 -22 28 -8 32
15 3 14 1 25 -3 25 -5 0 -9 -5 -9 -11 0 -9 -16 -7 -57 8 -7 3 -13 1 -13 -5z"/>
<path d="M1505 2470 c28 -12 37 -12 30 0 -3 6 -16 10 -28 9 -21 0 -21 -1 -2
-9z"/>
<path d="M332 2421 c-20 -27 -20 -41 0 -41 4 0 8 5 8 12 0 6 10 22 22 35 16
17 18 23 7 23 -9 0 -25 -13 -37 -29z"/>
<path d="M1098 2443 c7 -3 16 -2 19 1 4 3 -2 6 -13 5 -11 0 -14 -3 -6 -6z"/>
<path d="M1138 2443 c7 -3 16 -2 19 1 4 3 -2 6 -13 5 -11 0 -14 -3 -6 -6z"/>
<path d="M1170 2441 c0 -5 11 -12 24 -15 28 -7 102 -87 121 -131 51 -116 57
-127 90 -146 36 -22 55 -64 55 -126 0 -38 10 -42 28 -12 12 19 20 21 63 16 42
-5 49 -4 49 12 0 41 97 111 155 111 23 0 32 10 20 22 -11 11 -90 -15 -126 -41
-20 -14 -43 -38 -52 -53 -12 -21 -24 -28 -47 -28 -17 0 -40 -5 -50 -10 -17 -9
-20 -6 -26 17 -15 71 -25 89 -62 109 -26 15 -41 34 -51 60 -28 80 -51 120 -88
155 -61 57 -103 82 -103 60z"/>
<path d="M5690 2377 c0 -13 -9 -32 -20 -42 -27 -25 -25 -37 9 -57 28 -15 30
-15 43 0 42 51 42 51 14 63 -14 7 -26 20 -26 30 0 10 -4 21 -10 24 -6 3 -10
-4 -10 -18z m40 -58 c0 -14 -28 -29 -43 -23 -13 4 -14 10 -5 29 9 20 13 22 29
12 11 -7 19 -15 19 -18z"/>
<path d="M1781 2334 c0 -11 3 -14 6 -6 3 7 2 16 -1 19 -3 4 -6 -2 -5 -13z"/>
<path d="M840 2194 c0 -8 5 -12 10 -9 6 3 10 10 10 16 0 5 -4 9 -10 9 -5 0
-10 -7 -10 -16z"/>
<path d="M1605 2170 c-3 -6 1 -7 9 -4 18 7 21 14 7 14 -6 0 -13 -4 -16 -10z"/>
<path d="M831 2133 c0 -31 2 -34 9 -18 12 28 12 55 0 55 -5 0 -10 -17 -9 -37z"/>
<path d="M1146 2109 c-6 -36 -11 -42 -52 -61 l-46 -20 26 -13 c36 -19 72 -45
62 -45 -5 0 -3 -6 3 -13 6 -8 8 -17 4 -20 -3 -4 -1 -7 5 -7 13 0 16 39 4 56
-4 6 -17 16 -29 23 -31 16 -29 24 7 38 24 9 30 17 30 42 0 36 10 40 28 11 7
-11 23 -20 37 -20 25 0 25 -1 9 -25 -15 -24 -15 -27 0 -44 22 -24 20 -30 -11
-28 -20 2 -30 -5 -44 -28 -27 -48 -33 -75 -15 -75 9 0 16 8 16 18 0 10 6 30
13 45 11 25 15 27 55 21 43 -6 43 -6 30 15 -7 11 -16 21 -19 21 -18 0 -17 35
2 58 19 25 19 27 2 33 -10 4 -26 8 -37 8 -10 1 -27 12 -38 26 -27 34 -34 32
-42 -16z"/>
<path d="M860 2061 c0 -6 4 -13 10 -16 6 -3 7 1 4 9 -7 18 -14 21 -14 7z"/>
<path d="M1443 1965 c-3 -9 -3 -19 1 -22 3 -4 6 1 6 10 0 8 6 18 13 20 9 4 9
6 -1 6 -7 1 -15 -6 -19 -14z"/>
<path d="M851 1924 c0 -11 3 -14 6 -6 3 7 2 16 -1 19 -3 4 -6 -2 -5 -13z"/>
<path d="M1438 1904 c-21 -15 -35 -31 -32 -36 3 -5 23 5 44 22 47 38 79 33
117 -16 29 -38 50 -46 32 -11 -20 37 -62 67 -94 67 -17 0 -47 -12 -67 -26z"/>
<path d="M1604 1775 c1 -30 5 -54 11 -52 13 5 13 86 0 97 -8 6 -11 -7 -11 -45z"/>
<path d="M835 1779 c16 -51 38 -81 81 -112 48 -34 130 -61 140 -46 3 5 -3 9
-13 9 -23 0 -111 43 -139 68 -21 18 -55 75 -53 89 0 4 -5 9 -11 11 -8 3 -10
-3 -5 -19z"/>
<path d="M1640 1648 c0 -7 5 -20 10 -28 8 -12 10 -11 10 7 0 12 -4 25 -10 28
-5 3 -10 0 -10 -7z"/>
<path d="M820 1640 c-9 -6 -10 -10 -3 -10 6 0 15 5 18 10 8 12 4 12 -15 0z"/>
<path d="M860 1596 c0 -2 8 -10 18 -17 15 -13 16 -12 3 4 -13 16 -21 21 -21
13z"/>
<path d="M1055 1590 c-3 -5 -2 -10 4 -10 5 0 13 5 16 10 3 6 2 10 -4 10 -5 0
-13 -4 -16 -10z"/>
<path d="M1168 1576 c-13 -9 -18 -26 -16 -57 l1 -44 6 43 c4 33 12 47 31 58
14 7 19 13 10 13 -8 0 -23 -6 -32 -13z"/>
<path d="M910 1576 c0 -2 7 -9 15 -16 9 -7 15 -8 15 -2 0 5 -7 12 -15 16 -8 3
-15 4 -15 2z"/>
<path d="M1522 1564 c-45 -31 -18 -94 34 -77 32 11 51 48 28 57 -10 4 -14 -2
-14 -20 0 -22 -4 -25 -27 -22 -33 4 -43 33 -14 43 10 3 22 12 25 20 7 19 -4
19 -32 -1z"/>
<path d="M165 1560 c-3 -5 1 -10 9 -10 9 0 16 5 16 10 0 6 -4 10 -9 10 -6 0
-13 -4 -16 -10z"/>
<path d="M1018 1563 c7 -3 16 -2 19 1 4 3 -2 6 -13 5 -11 0 -14 -3 -6 -6z"/>
<path d="M5355 1509 c-4 -5 0 -18 9 -28 9 -10 16 -24 16 -32 0 -24 -30 -59
-50 -59 -29 0 -31 -13 -10 -73 11 -31 20 -67 21 -79 1 -20 2 -20 9 5 8 28 1
67 -19 105 -9 17 -7 21 14 26 35 9 59 49 51 87 -7 36 -31 64 -41 48z"/>
<path d="M1150 1458 c0 -14 117 -128 131 -128 5 0 9 5 9 10 0 6 -5 10 -10 10
-16 0 -110 91 -110 106 0 8 -4 14 -10 14 -5 0 -10 -6 -10 -12z"/>
<path d="M548 1433 c-2 -16 -8 -27 -16 -25 -20 4 -26 -27 -9 -46 9 -9 21 -31
28 -47 l13 -30 4 33 c2 23 11 36 27 44 38 17 39 37 2 53 -17 7 -31 16 -29 19
5 13 2 26 -7 26 -5 0 -11 -12 -13 -27z m49 -40 c2 -6 -5 -14 -17 -18 -11 -3
-18 -11 -15 -16 4 -5 2 -9 -4 -9 -5 0 -14 8 -20 17 -7 12 -5 21 7 30 20 15 44
13 49 -4z"/>
<path d="M824 1423 c-5 -19 -2 -30 11 -40 22 -15 45 -17 45 -3 0 6 -6 10 -14
10 -16 0 -31 34 -21 50 3 5 2 10 -4 10 -6 0 -14 -12 -17 -27z"/>
<path d="M301 1411 c-10 -6 -10 -10 -1 -16 13 -8 24 -1 19 14 -3 6 -10 7 -18
2z"/>
<path d="M916 1375 c4 -8 8 -15 10 -15 2 0 4 7 4 15 0 8 -4 15 -10 15 -5 0 -7
-7 -4 -15z"/>
<path d="M945 1380 c3 -5 10 -10 16 -10 5 0 9 5 9 10 0 6 -7 10 -16 10 -8 0
-12 -4 -9 -10z"/>
<path d="M1450 1350 c0 -5 5 -10 10 -10 6 0 10 5 10 10 0 6 -4 10 -10 10 -5 0
-10 -4 -10 -10z"/>
<path d="M870 1340 c-8 -5 -11 -12 -8 -16 10 -9 38 3 38 16 0 12 -10 13 -30 0z"/>
<path d="M1472 1330 c-15 -25 -15 -30 2 -30 17 0 30 30 19 41 -5 5 -14 0 -21
-11z"/>
<path d="M153 1244 c-8 -22 9 -48 35 -52 29 -4 54 44 31 59 -23 14 -59 10 -66
-7z m57 -19 c0 -8 -9 -15 -20 -15 -11 0 -20 7 -20 15 0 8 9 15 20 15 11 0 20
-7 20 -15z"/>
<path d="M865 1200 c-3 -5 -1 -10 4 -10 6 0 11 5 11 10 0 6 -2 10 -4 10 -3 0
-8 -4 -11 -10z"/>
<path d="M1066 1160 c-20 -18 -36 -39 -36 -47 0 -10 16 1 41 26 50 50 46 65
-5 21z"/>
<path d="M720 1136 c0 -2 8 -10 18 -17 15 -13 16 -12 3 4 -13 16 -21 21 -21
13z"/>
<path d="M1416 1113 c-6 -14 -5 -15 5 -6 7 7 10 15 7 18 -3 3 -9 -2 -12 -12z"/>
<path d="M1297 1099 c7 -7 15 -10 18 -7 3 3 -2 9 -12 12 -14 6 -15 5 -6 -5z"/>
<path d="M1004 1034 c-14 -115 11 -183 88 -238 21 -15 55 -29 75 -32 l38 -4
-40 15 c-58 22 -110 68 -135 120 -18 38 -21 56 -16 103 4 31 9 65 12 75 3 9 1
17 -5 17 -5 0 -13 -25 -17 -56z"/>
<path d="M310 1055 c0 -9 6 -12 15 -9 8 4 15 10 15 15 0 5 -7 9 -15 9 -8 0
-15 -7 -15 -15z"/>
<path d="M760 1018 c-11 -18 -20 -36 -20 -39 0 -4 -13 -9 -30 -12 -34 -7 -40
-32 -10 -40 15 -4 20 -14 20 -42 0 -32 3 -36 18 -30 38 16 63 16 108 1 51 -17
77 -21 56 -8 -7 5 -15 25 -18 44 -6 32 -4 36 21 42 l27 7 -27 24 c-14 14 -36
25 -48 25 -14 0 -28 11 -39 30 -22 38 -34 38 -58 -2z m49 -16 c9 -22 19 -29
41 -30 40 -1 57 -12 36 -24 -10 -6 -16 -22 -16 -48 0 -38 -14 -54 -22 -28 -3
8 -25 13 -62 12 -47 0 -56 3 -54 16 2 9 -3 24 -11 33 -12 15 -11 17 9 17 16 0
26 10 37 40 19 47 27 50 42 12z"/>
<path d="M1300 873 c-41 -52 -20 -139 44 -188 29 -22 46 -27 101 -27 51 -1 70
3 83 16 16 18 16 18 -13 11 -105 -24 -152 -13 -190 43 -26 38 -36 122 -14 122
5 0 8 4 4 9 -11 18 15 22 45 6 30 -15 39 -38 20 -50 -25 -15 7 -79 35 -69 7 3
15 2 18 -3 6 -10 97 -4 97 6 0 4 -20 5 -45 1 -25 -4 -45 -3 -45 2 0 4 -8 8
-17 8 -35 0 -48 16 -36 42 26 54 21 66 -34 86 -30 10 -34 8 -53 -15z"/>
<path d="M490 881 c0 -5 7 -12 16 -15 22 -9 24 -8 18 9 -7 16 -34 21 -34 6z"/>
<path d="M1194 834 c1 -8 4 -15 7 -16 2 -2 3 -1 2 1 -2 2 2 9 7 16 7 8 5 12
-4 12 -8 0 -13 -6 -12 -13z"/>
<path d="M1232 808 c3 -7 -1 -19 -9 -26 -14 -14 -9 -32 9 -32 5 0 8 7 4 15 -3
8 -1 15 4 15 6 0 10 9 10 20 0 11 -5 20 -11 20 -6 0 -9 -6 -7 -12z"/>
<path d="M668 789 c-75 -56 -21 -189 91 -226 45 -14 161 -17 161 -3 0 6 -26
10 -57 10 -77 0 -132 16 -166 48 -49 47 -61 141 -20 156 10 3 24 9 32 12 10 5
11 2 6 -7 -7 -12 -5 -12 6 -1 12 11 12 14 -1 22 -20 13 -21 13 -52 -11z"/>
<path d="M992 779 c2 -7 10 -15 17 -17 8 -3 12 1 9 9 -2 7 -10 15 -17 17 -8 3
-12 -1 -9 -9z"/>
<path d="M747 774 c-8 -8 3 -34 14 -34 11 0 12 27 0 34 -4 3 -11 3 -14 0z"/>
<path d="M1202 708 c2 -6 10 -14 16 -16 7 -2 10 2 6 12 -7 18 -28 22 -22 4z"/>
<path d="M1206 652 c-2 -4 -19 -9 -38 -10 -35 -3 -65 -22 -34 -22 31 0 106 22
106 31 0 11 -27 12 -34 1z"/>
<path d="M1065 620 c-30 -8 -30 -8 8 -9 20 0 37 4 37 9 0 11 -2 11 -45 0z"/>
<path d="M995 580 c3 -5 8 -10 11 -10 2 0 4 5 4 10 0 6 -5 10 -11 10 -5 0 -7
-4 -4 -10z"/>
<path d="M1108 488 c-21 -6 -38 -13 -39 -16 0 -4 -2 -15 -4 -25 -2 -9 5 -22
15 -27 23 -12 200 -13 219 -1 23 15 -2 19 -64 10 -54 -8 -128 -4 -148 8 -14 8
14 43 36 44 12 0 31 4 42 9 l20 9 -20 -1 c-11 0 -37 -5 -57 -10z"/>
<path d="M1032 481 c-11 -7 -11 -9 0 -14 9 -3 15 1 15 9 0 8 -1 14 -1 14 -1 0
-7 -4 -14 -9z"/>
<path d="M3689 469 c-15 -9 -15 -9 19 -13 12 -2 22 1 22 5 0 12 -26 18 -41 8z"/>
<path d="M776 445 c4 -11 20 -15 54 -15 27 0 51 3 54 8 2 4 -13 6 -34 4 -21
-2 -47 1 -59 7 -17 10 -20 9 -15 -4z"/>
<path d="M2740 442 c0 -4 15 -6 34 -4 36 4 165 -21 199 -39 10 -6 15 -15 11
-19 -18 -16 -119 -40 -172 -40 -31 0 -52 -3 -48 -7 12 -12 148 -2 178 13 15 8
34 14 43 14 27 0 18 44 -12 57 -65 28 -233 46 -233 25z"/>
<path d="M1659 426 c-2 -2 -46 -7 -98 -10 -52 -3 -97 -9 -100 -12 -12 -12 208
1 221 14 9 9 9 12 -3 12 -9 0 -18 -2 -20 -4z"/>
<path d="M4554 418 c-4 -7 -4 -10 1 -6 4 4 17 2 29 -4 19 -10 20 -10 7 5 -16
20 -27 21 -37 5z"/>
<path d="M3361 383 c-81 -42 -31 -68 109 -58 133 9 134 22 2 17 -78 -3 -111
-1 -117 7 -13 22 5 26 108 28 56 0 104 5 107 10 3 4 -35 9 -85 11 -70 2 -98
-2 -124 -15z"/>
<path d="M2441 379 c-33 -13 -147 -16 -191 -5 -32 7 -34 7 -19 -9 11 -11 35
-17 80 -18 66 -2 179 20 179 35 0 10 -18 9 -49 -3z"/>
<path d="M2742 378 c-14 -14 -16 -48 -3 -48 8 0 23 51 17 57 -1 2 -8 -3 -14
-9z"/>
</g>
</svg>
