<?xml version="1.0" standalone="no"?>
<!DOCTYPE svg PUBLIC "-//W3C//DTD SVG 20010904//EN"
 "http://www.w3.org/TR/2001/REC-SVG-20010904/DTD/svg10.dtd">
<svg version="1.0" xmlns="http://www.w3.org/2000/svg"
 width="600.000000pt" height="1070.000000pt" viewBox="0 0 600.000000 1070.000000"
 preserveAspectRatio="xMidYMid meet">
<g transform="translate(0.000000,1070.000000) scale(0.100000,-0.100000)"
fill="#000000" stroke="none">
<path d="M3585 9612 c-11 -12 9 -22 44 -22 105 0 353 -92 462 -171 60 -44 199
-175 177 -166 -10 3 -18 2 -18 -3 0 -9 14 -14 32 -11 3 0 9 -13 13 -29 6 -27
9 -28 47 -24 22 2 45 7 52 12 16 12 71 17 161 14 103 -3 115 -4 115 -15 0 -5
12 -6 26 -3 14 4 23 3 20 -2 -3 -5 8 -8 24 -7 17 1 30 -2 30 -7 0 -5 4 -7 9
-3 5 3 12 1 15 -4 3 -5 22 -12 41 -15 50 -10 211 -104 309 -180 105 -82 228
-213 305 -326 61 -89 171 -300 171 -328 0 -11 3 -13 10 -6 12 12 -45 147 -117
276 -200 358 -550 607 -913 649 -86 10 -201 0 -241 -21 -24 -13 -39 -13 -39 2
0 22 -85 122 -155 180 -76 65 -190 125 -299 158 -75 24 -273 60 -281 52z"/>
<path d="M3245 9523 c-203 -24 -305 -46 -460 -100 -687 -240 -1171 -836 -1266
-1560 -17 -133 -6 -450 20 -571 28 -130 83 -292 135 -393 l43 -86 -13 -103
c-16 -120 -33 -180 -83 -275 -61 -119 -152 -189 -260 -202 -28 -3 -48 -10 -45
-14 8 -14 84 -10 129 6 22 8 41 15 42 15 1 0 -13 -22 -31 -48 -46 -68 -71
-153 -70 -239 0 -63 -3 -73 -18 -73 -33 0 -121 -39 -150 -67 -29 -28 -37 -67
-15 -77 9 -4 9 -7 0 -12 -43 -20 -111 -75 -170 -138 l-70 -73 -89 19 c-113 23
-402 35 -499 19 -236 -37 -255 -53 -230 -208 42 -260 225 -569 450 -760 l49
-42 -27 -10 c-36 -14 -37 -53 -2 -69 16 -8 25 -20 25 -35 0 -30 18 -47 48 -47
23 0 24 -2 17 -47 -9 -67 -35 -120 -83 -176 -48 -55 -46 -86 6 -102 26 -7 32
-14 32 -37 0 -32 33 -53 98 -64 27 -4 42 -12 45 -24 5 -21 69 -56 142 -79 35
-11 62 -29 89 -58 l37 -42 -52 -63 c-29 -35 -59 -79 -68 -98 -9 -19 -31 -51
-49 -70 -135 -142 -230 -356 -247 -556 -14 -161 56 -426 148 -557 17 -25 18
-30 4 -45 -63 -71 -135 -297 -111 -349 4 -10 8 -64 9 -119 0 -80 4 -106 16
-120 10 -11 20 -47 24 -84 18 -157 78 -314 119 -308 17 2 29 -14 68 -92 71
-141 215 -320 258 -320 9 0 27 -11 40 -25 l23 -24 -26 -78 c-49 -148 -118
-444 -156 -668 -12 -66 -23 -131 -26 -145 -5 -25 -3 -26 34 -25 35 0 41 3 45
25 3 14 15 81 27 150 26 155 93 447 125 549 13 41 27 90 30 108 7 39 12 40 44
10 92 -85 338 -211 453 -231 34 -6 39 -5 44 14 4 15 11 19 22 14 97 -40 295
-75 461 -81 179 -6 310 6 394 37 51 20 57 25 53 46 -3 18 0 24 12 24 32 0 223
69 279 101 77 43 153 102 180 139 19 25 21 34 11 46 -10 12 -7 21 18 47 79 84
125 196 126 302 1 77 -15 118 -64 170 l-29 31 25 59 c13 33 25 68 25 78 0 10
8 17 20 17 27 0 48 37 61 106 7 32 20 75 30 95 21 41 26 168 10 227 -7 24 -7
34 2 36 136 39 170 47 183 42 8 -3 88 -6 178 -7 l162 -1 49 -147 c26 -80 58
-184 71 -231 12 -47 23 -74 23 -60 1 42 -36 241 -62 330 -14 47 -26 92 -28
100 -3 11 13 16 77 21 70 7 117 15 185 35 39 11 288 -506 388 -809 18 -54 35
-96 38 -94 7 7 -53 223 -99 355 -45 134 -147 360 -213 476 -25 43 -44 80 -43
81 2 1 38 13 81 27 l79 26 82 -112 c91 -124 147 -209 196 -305 19 -36 35 -60
37 -54 9 26 -150 316 -233 426 -49 64 -50 67 -29 67 9 0 29 7 45 15 l29 15 84
-127 c288 -440 481 -942 643 -1673 27 -122 94 -488 94 -513 0 -3 12 -4 26 -3
l27 3 -2 94 c-2 100 -7 139 -47 344 -100 512 -270 1037 -454 1406 -95 189
-234 418 -297 490 -12 15 -8 29 33 120 317 705 476 1490 398 1959 -30 182
-119 371 -211 449 -21 18 -51 45 -67 59 l-28 26 7 -34 c9 -41 9 -41 28 -44 18
-2 100 -87 105 -107 2 -7 12 -19 23 -27 10 -7 19 -22 19 -32 0 -10 5 -22 10
-25 6 -3 10 -15 10 -26 0 -10 4 -19 9 -19 7 0 19 -33 26 -75 1 -5 7 -23 14
-40 20 -50 20 -52 8 -65 -9 -10 -9 -11 1 -6 9 5 12 -5 12 -39 0 -28 4 -44 10
-40 6 3 10 -1 10 -9 0 -19 -16 -21 -26 -4 -9 14 -10 19 -17 88 -3 25 -8 53
-12 62 -4 10 -8 29 -9 43 0 14 -5 23 -11 21 -5 -2 -11 8 -12 22 0 15 -6 28
-12 30 -6 2 -11 15 -11 28 0 13 -5 24 -11 24 -5 0 -7 5 -4 10 3 6 2 10 -4 10
-5 0 -15 15 -22 34 -7 19 -15 34 -18 33 -3 -1 -8 3 -10 8 -3 6 -15 18 -28 28
-13 10 -23 25 -23 32 0 8 -10 20 -22 26 -13 7 -33 23 -45 36 -12 12 -29 23
-37 23 -13 0 -14 5 -5 23 12 26 69 34 69 9 0 -15 40 -13 98 4 18 5 22 2 22
-15 0 -72 188 -32 350 74 63 41 160 129 209 189 73 90 161 316 161 412 0 83
17 44 29 -68 12 -111 5 -195 -25 -295 -11 -38 30 -29 66 15 108 130 146 355
100 584 -19 91 -40 153 -155 457 -19 52 -51 151 -71 220 -52 180 -53 184 -49
129 2 -26 -1 -51 -7 -54 -7 -4 -6 -9 2 -14 7 -4 14 -21 16 -37 2 -16 8 -42 14
-58 6 -15 8 -30 6 -33 -6 -6 -26 43 -26 64 0 9 -5 12 -11 8 -8 -5 -8 -1 0 13
7 14 7 23 -1 31 -7 7 -13 33 -14 58 -2 25 -8 52 -15 60 -6 7 -11 51 -12 99 0
47 -4 81 -7 75 -3 -5 -4 75 -3 178 7 426 8 632 1 632 -3 0 -6 19 -6 43 -1 50
-8 136 -14 157 -3 8 -3 12 -1 7 3 -4 8 -5 13 -2 13 8 33 -210 31 -340 0 -44 0
-181 1 -305 0 -124 0 -244 0 -268 -1 -29 2 -40 10 -36 8 5 9 -3 5 -25 -5 -23
-3 -30 5 -25 8 5 9 2 5 -9 -3 -9 3 -47 15 -84 11 -38 20 -79 20 -93 -1 -64 57
-203 122 -294 46 -63 132 -153 140 -145 3 2 -20 36 -49 74 -93 120 -168 290
-217 495 -18 76 -21 133 -28 540 -4 250 -10 464 -13 475 -3 11 -18 80 -32 153
-95 482 -388 942 -718 1126 -26 15 -47 22 -47 16 0 -6 7 -13 15 -16 21 -8 19
-20 -4 -20 -11 0 -19 5 -18 11 1 5 -6 9 -15 9 -10 -1 -18 2 -18 6 0 7 -39 21
-55 20 -3 0 -22 7 -43 16 -20 9 -48 18 -61 20 -14 3 -29 8 -35 12 -18 10 -86
11 -86 0 0 -5 -8 -7 -19 -3 -10 3 -38 1 -62 -5 -24 -6 -50 -12 -58 -14 -8 -1
-19 -10 -26 -20 -8 -10 -16 -13 -19 -7 -3 5 0 12 6 15 7 3 3 3 -9 0 -15 -3
-23 1 -28 15 -3 11 -10 20 -14 18 -16 -4 -72 44 -65 55 5 7 2 9 -7 6 -8 -3
-20 0 -26 7 -10 10 -9 14 3 19 9 3 12 1 9 -4 -3 -6 3 -10 14 -10 12 0 21 -8
23 -22 2 -12 10 -23 18 -25 12 -4 13 -3 1 5 -8 6 -11 17 -8 26 11 27 -135 123
-275 180 -172 69 -516 113 -713 89z m370 -37 c22 -3 57 -6 78 -8 20 -2 37 -8
37 -14 0 -5 -4 -9 -10 -8 -5 1 -26 2 -46 3 -19 0 -33 4 -31 9 3 4 -24 7 -59 6
-35 0 -64 2 -64 5 0 8 -275 5 -288 -3 -20 -12 -122 -18 -122 -6 0 7 8 9 19 5
11 -3 22 -1 26 5 4 6 15 8 26 5 10 -4 26 -2 35 3 16 9 325 8 399 -2z m-530
-16 c-3 -5 0 -10 7 -11 7 0 2 -5 -11 -10 -14 -5 -31 -7 -38 -4 -8 2 -30 -2
-50 -10 -41 -17 -118 -21 -93 -5 8 6 29 7 45 4 20 -3 25 -2 17 4 -15 10 28 22
79 22 15 0 31 5 34 10 3 6 8 10 11 10 3 0 2 -4 -1 -10z m724 -20 c12 0 21 -4
21 -9 0 -5 8 -7 19 -4 10 2 25 -3 35 -12 9 -9 16 -12 16 -6 0 7 6 8 18 2 9 -5
28 -14 42 -20 l25 -10 -25 4 c-14 3 -38 7 -54 10 -16 2 -33 10 -38 17 -5 9 -8
9 -8 1 0 -7 -15 -5 -47 7 -27 9 -54 15 -60 13 -7 -3 -13 -1 -13 5 0 16 12 21
31 12 10 -6 27 -10 38 -10z m-180 -16 c264 -39 491 -138 636 -277 l49 -47 56
27 c48 24 66 28 145 28 108 -1 194 -28 319 -102 113 -67 303 -256 385 -383
184 -284 289 -583 321 -913 6 -61 10 -283 9 -510 -3 -416 2 -483 42 -677 24
-116 43 -177 127 -395 109 -285 132 -375 132 -518 1 -53 7 -109 15 -132 16
-45 10 -108 -11 -126 -8 -6 -14 -17 -14 -23 0 -6 5 -4 10 4 6 9 10 10 10 3 0
-6 -9 -18 -20 -26 -12 -8 -20 -18 -19 -23 3 -20 -2 -31 -16 -31 -12 0 -14 8
-8 36 4 20 7 69 8 109 0 64 2 72 18 68 12 -3 17 2 17 19 0 82 -78 321 -132
408 -32 50 -55 63 -44 25 15 -48 18 -247 7 -328 -47 -317 -225 -549 -500 -650
-30 -11 -57 -18 -59 -15 -3 2 20 27 50 54 59 54 139 163 182 248 39 79 31 93
-15 25 -50 -75 -163 -182 -243 -229 -55 -32 -217 -93 -247 -93 -7 0 -76 31
-153 69 -78 38 -170 81 -206 96 -94 39 -222 104 -243 123 -29 26 -47 79 -54
159 -4 52 -3 73 6 73 17 0 181 104 248 157 138 110 282 273 342 386 l29 56 7
-83 c20 -238 -55 -488 -192 -636 -80 -86 -68 -101 13 -17 73 75 103 115 138
186 69 135 90 258 83 471 -5 149 -4 158 21 233 24 69 29 77 47 71 71 -23 134
-13 199 31 l36 24 15 -51 c55 -187 66 -442 26 -621 -36 -160 -87 -281 -167
-392 -42 -60 -141 -160 -199 -203 -55 -39 -5 -23 58 20 265 179 411 531 376
905 -10 113 -40 249 -70 319 -17 42 -17 42 7 65 64 60 146 213 174 327 24 94
26 237 5 309 -34 115 -102 166 -216 164 -78 -2 -156 24 -273 88 -234 130 -410
304 -540 537 -93 165 -176 415 -191 574 -10 100 -13 101 -55 22 -139 -256
-380 -493 -680 -670 -227 -134 -533 -243 -835 -297 -49 -9 -108 -20 -130 -25
-21 -5 -42 -7 -45 -4 -5 6 84 93 144 139 77 60 253 178 351 236 55 32 94 59
87 59 -35 0 -321 -164 -441 -254 -147 -109 -307 -284 -357 -388 -10 -21 -21
-38 -26 -38 -11 0 -12 -4 28 95 63 157 127 266 193 330 31 31 38 45 21 45 -16
0 -140 -152 -176 -216 -114 -205 -154 -420 -120 -651 9 -61 23 -132 30 -157 8
-25 11 -46 7 -46 -4 0 -23 -16 -43 -35 l-36 -35 -35 97 c-82 227 -119 428
-119 653 0 244 52 477 148 659 24 46 42 86 40 89 -8 7 -72 -98 -110 -181 -49
-108 -84 -224 -108 -362 -17 -101 -20 -146 -15 -285 9 -238 49 -412 138 -598
l40 -82 -40 -53 c-68 -92 -128 -229 -175 -407 l-23 -85 -91 4 c-90 3 -91 3
-97 -22 -5 -19 -11 -23 -27 -19 -17 4 -19 11 -15 42 7 57 54 145 103 196 25
25 43 48 41 50 -9 9 -96 -59 -124 -98 -31 -44 -67 -122 -77 -170 -4 -16 -12
-28 -20 -28 -7 0 -20 -10 -29 -22 -12 -18 -18 -20 -28 -11 -18 18 3 131 40
206 17 34 63 105 102 157 110 146 179 313 179 435 0 46 14 60 25 25 18 -55
196 -262 212 -246 3 3 -21 47 -55 98 -143 220 -210 397 -247 659 -60 422 66
917 327 1281 74 104 202 240 305 325 197 163 487 297 764 354 162 33 473 38
636 10 154 -27 267 -62 361 -112 88 -46 115 -51 52 -9 -191 130 -503 201 -810
186 -528 -26 -1011 -279 -1321 -692 -193 -257 -312 -546 -360 -879 -16 -108
-16 -403 0 -500 15 -89 42 -176 53 -169 5 3 7 2 6 -3 -4 -15 26 -113 34 -113
5 0 6 -5 3 -10 -4 -6 -2 -17 5 -25 9 -10 7 -20 -6 -40 -13 -20 -14 -29 -5 -38
10 -9 11 -8 5 6 -5 14 -2 16 12 11 26 -9 44 -33 37 -51 -5 -12 -7 -12 -15 -1
-8 10 -11 10 -15 0 -2 -6 -9 -10 -14 -6 -5 3 -8 2 -7 -3 1 -4 -3 -28 -10 -53
-7 -25 -14 -67 -15 -94 -2 -27 -8 -51 -14 -53 -6 -2 -9 7 -6 24 2 15 5 42 7
58 1 17 8 46 14 65 6 19 10 58 9 86 -2 41 -5 50 -17 46 -8 -3 -12 -1 -8 3 5 5
-3 28 -17 51 -14 24 -25 46 -25 49 0 3 -7 19 -15 35 -9 17 -13 30 -10 30 3 0
0 10 -7 23 -7 12 -11 26 -10 31 2 5 -4 16 -12 25 -12 13 -13 24 -6 46 l10 30
-4 -28 c-2 -20 2 -32 15 -40 11 -7 19 -17 19 -24 0 -7 6 -13 14 -13 12 0 12 6
0 39 -101 295 -112 670 -28 991 115 439 377 806 758 1061 209 139 496 247 741
279 50 6 97 13 105 15 48 9 288 3 379 -11z m-752 -35 c-7 -4 -25 -9 -42 -12
-16 -3 -49 -11 -72 -20 -23 -8 -46 -11 -52 -7 -6 3 13 12 41 20 29 7 56 18 60
24 6 8 8 8 8 0 0 -7 10 -9 25 -7 13 3 24 8 23 12 -2 19 3 24 12 11 6 -10 5
-17 -3 -21z m1137 -31 c-3 -5 2 -9 12 -8 29 3 36 1 29 -9 -8 -14 -65 8 -65 25
0 8 6 11 15 8 8 -4 12 -10 9 -16z m-1315 -17 c9 -6 10 -11 2 -15 -6 -4 -11 -1
-12 6 0 7 -4 4 -9 -7 -8 -19 -9 -19 -9 3 -1 24 6 27 28 13z m1381 -11 c0 -5
-5 -10 -11 -10 -5 0 -7 5 -4 10 3 6 8 10 11 10 2 0 4 -4 4 -10z m-1430 -15
c-19 -23 -82 -50 -108 -46 -14 1 -22 -1 -20 -6 6 -10 -28 -43 -37 -35 -3 4
-10 0 -15 -8 -5 -8 -13 -11 -17 -6 -4 5 -3 11 4 13 6 2 24 15 40 29 18 16 36
23 51 21 17 -3 22 -1 18 9 -3 8 -1 14 4 14 6 0 10 -5 10 -11 0 -7 11 0 25 15
26 28 68 39 45 11z m1499 -15 c27 -14 26 -16 -1 -14 -30 2 -58 14 -58 24 0 11
31 5 59 -10z m-1712 -95 c0 -17 -13 -20 -21 -6 -4 5 0 12 6 14 7 3 13 6 14 6
0 1 1 -6 1 -14z m-37 -35 c-8 -5 -23 -10 -32 -10 -10 0 -18 -5 -18 -11 0 -5 5
-7 12 -3 7 4 8 3 4 -4 -9 -16 -36 -3 -29 14 3 8 14 14 25 14 10 0 17 4 14 9
-8 13 17 21 29 9 6 -6 5 -12 -5 -18z m-82 -59 c-13 -8 -24 -15 -25 -13 -2 1
-11 -6 -21 -15 -32 -31 -76 -63 -86 -63 -5 0 -1 7 10 16 17 14 17 15 1 10 -11
-3 -16 -2 -12 4 3 6 15 10 26 10 11 0 17 5 14 10 -5 9 1 12 21 9 3 0 14 9 24
21 10 12 22 22 27 23 4 1 7 5 6 8 -1 4 7 5 18 2 19 -5 19 -6 -3 -22z m2572
-31 c13 -9 13 -10 0 -10 -13 0 -13 -2 0 -9 8 -6 18 -7 22 -5 4 3 8 0 8 -5 0
-6 -6 -11 -14 -11 -18 0 -38 25 -28 35 4 4 -4 4 -18 1 -19 -6 -21 -5 -10 3 18
13 21 13 40 1z m55 -51 c-4 -5 1 -12 9 -15 9 -3 13 -10 11 -15 -8 -12 -42 24
-37 38 2 7 8 10 13 7 5 -3 7 -10 4 -15z m-2763 -23 c7 4 8 2 4 -5 -4 -6 -12
-9 -17 -6 -5 4 -9 1 -9 -5 0 -7 -6 -10 -14 -7 -8 3 -22 -3 -32 -14 -16 -18 -8
-27 12 -11 5 4 0 -1 -11 -12 -11 -10 -19 -23 -17 -28 1 -5 -2 -7 -8 -3 -5 3
-10 2 -10 -4 0 -6 -7 -7 -17 -4 -10 4 -14 2 -10 -4 9 -15 -1 -40 -19 -47 -9
-3 -12 -1 -9 4 3 6 1 10 -4 10 -6 0 -11 -6 -11 -14 0 -8 -7 -22 -16 -30 -8 -9
-12 -20 -9 -26 3 -5 0 -10 -8 -10 -8 0 -18 -11 -21 -25 -4 -14 -10 -24 -14
-24 -20 3 -32 -2 -27 -11 8 -13 -14 -42 -26 -34 -5 3 -9 -2 -9 -10 0 -9 -4
-16 -10 -16 -5 0 -10 -7 -10 -16 0 -28 -41 -87 -53 -75 -6 6 -4 15 7 26 9 9
14 21 11 26 -4 5 1 6 9 3 11 -4 16 0 16 11 0 24 62 114 84 121 15 5 16 8 5 15
-11 7 -10 9 4 9 9 0 17 7 17 15 0 7 6 18 14 22 7 4 18 18 25 31 6 12 21 22 32
22 11 0 17 5 14 10 -7 12 13 42 24 36 3 -2 12 2 19 10 8 9 9 14 2 14 -13 0 0
13 45 48 17 14 31 19 33 13 2 -6 9 -8 14 -5z m2842 -43 c9 -23 -11 -14 -28 12
-17 25 -16 25 3 13 11 -7 23 -18 25 -25z m31 -41 c-8 -8 -25 10 -19 20 4 6 9
5 15 -3 4 -7 6 -15 4 -17z m28 -26 c-4 -5 1 -7 10 -3 11 4 14 2 10 -9 -3 -8
-2 -14 3 -12 5 1 27 -15 48 -35 23 -22 31 -35 20 -31 -17 7 -17 6 -5 -9 7 -9
18 -14 24 -10 5 3 8 2 4 -3 -3 -5 1 -18 9 -29 8 -10 14 -15 14 -11 0 4 7 1 15
-8 8 -8 15 -19 15 -25 0 -6 5 -11 11 -11 6 0 9 -6 6 -14 -3 -8 2 -16 15 -19
11 -3 17 -10 13 -17 -3 -6 5 -24 19 -41 14 -17 26 -37 26 -45 0 -8 5 -14 11
-14 5 0 8 -4 5 -9 -3 -5 1 -14 9 -21 10 -8 13 -21 9 -33 -4 -12 -2 -17 4 -13
5 3 12 0 15 -8 3 -8 -2 -17 -11 -21 -9 -3 -13 -3 -9 1 4 4 3 12 -2 18 -5 6
-14 28 -21 49 -7 22 -16 34 -22 31 -7 -5 -9 0 -6 14 4 15 2 22 -8 22 -8 0 -13
3 -12 8 3 9 -21 52 -39 70 -7 8 -11 18 -7 23 3 5 -2 12 -10 15 -9 3 -16 13
-16 22 0 8 -3 12 -6 9 -7 -6 -68 71 -69 86 0 5 -8 14 -17 21 -10 7 -18 19 -18
25 0 7 -4 10 -9 7 -5 -3 -20 5 -35 19 -22 21 -23 24 -7 22 11 -1 17 -5 14 -11z
m-3276 -342 c-9 -9 -28 6 -21 18 4 6 10 6 17 -1 6 -6 8 -13 4 -17z m-32 -60
c-14 -18 -25 -39 -25 -48 0 -8 -7 -22 -16 -30 -8 -9 -12 -21 -8 -27 5 -8 3 -9
-6 -4 -10 6 -12 4 -7 -7 4 -11 -1 -18 -14 -21 -10 -3 -19 -1 -19 4 0 5 5 9 12
9 6 0 8 3 5 7 -4 3 0 15 10 25 9 10 13 21 10 25 -4 3 0 15 10 25 9 10 12 18 8
18 -4 0 2 9 14 19 12 11 23 28 24 40 1 15 4 17 14 9 11 -9 8 -17 -12 -44z
m3634 -66 c-1 -7 3 -24 9 -38 6 -14 11 -18 12 -10 0 8 7 0 15 -18 8 -18 11
-40 8 -49 -4 -11 -3 -14 5 -9 12 7 13 1 16 -49 1 -11 7 -19 14 -17 10 2 11 -4
7 -19 -4 -12 -3 -19 2 -16 5 3 7 -7 5 -25 -4 -24 -2 -29 8 -23 10 6 12 4 7 -8
-3 -10 -2 -17 2 -17 5 0 7 -10 4 -22 -4 -19 -3 -20 7 -8 9 12 10 8 5 -17 -4
-21 -3 -33 4 -33 6 0 11 -9 11 -20 0 -11 -6 -20 -14 -20 -8 0 -13 6 -13 13 2
23 -15 98 -28 124 -7 14 -11 32 -8 41 4 8 2 13 -3 9 -5 -3 -11 2 -11 11 -6 56
-9 68 -14 72 -9 9 -69 136 -69 148 0 7 5 12 10 12 6 0 10 -6 9 -12z m-1283
-17 c-3 -5 1 -14 9 -21 9 -7 14 -26 12 -44 -2 -29 -5 -32 -30 -31 -15 1 -26
-3 -25 -9 1 -6 -19 -54 -44 -106 -115 -236 -283 -435 -473 -555 -33 -21 -54
-40 -48 -42 19 -7 209 127 295 206 134 124 255 311 292 451 15 57 20 54 30
-16 16 -114 130 -385 216 -515 100 -151 227 -279 376 -380 72 -48 72 -48 103
-136 34 -94 71 -238 71 -278 0 -14 5 -25 10 -25 6 0 10 19 10 43 0 118 158
238 285 216 50 -8 107 -69 126 -136 53 -184 -47 -478 -208 -610 -61 -49 -93
-63 -148 -63 -70 0 -75 5 -75 69 l-1 56 -39 -115 c-99 -297 -234 -487 -485
-689 -90 -71 -238 -156 -360 -204 -191 -76 -480 -128 -629 -112 -148 15 -249
33 -284 51 -1 0 4 14 13 30 37 71 6 104 -97 104 -37 0 -69 -4 -72 -9 -3 -5
-18 -8 -33 -8 -24 0 -25 1 -9 13 10 7 23 11 30 8 7 -3 23 7 36 21 22 24 23 27
7 42 -12 12 -43 18 -120 22 -101 6 -104 7 -170 50 -54 35 -67 48 -67 70 -1 79
-72 321 -136 459 -73 160 -197 333 -264 367 -23 12 -29 26 -45 97 -10 50 -19
146 -22 243 l-5 160 46 77 c25 43 74 116 108 163 59 79 65 85 100 85 60 0 259
28 391 55 392 80 784 289 1057 564 58 58 126 135 152 171 26 36 54 73 63 83
14 16 12 21 -7 18 -15 -2 -8 14 12 27 11 7 20 21 20 32 0 11 5 20 11 20 6 0 9
6 6 14 -3 8 -3 17 0 20 9 9 15 7 9 -3z m-2430 -93 c-9 -12 -16 -32 -16 -43 0
-16 -2 -17 -10 -5 -5 8 -10 12 -10 8 0 -3 -3 -14 -7 -24 -4 -12 -3 -15 5 -10
7 4 12 2 12 -4 0 -7 -7 -10 -15 -6 -12 4 -14 0 -9 -19 4 -17 2 -25 -6 -25 -9
0 -9 -4 1 -17 12 -15 12 -16 -3 -11 -11 5 -18 0 -22 -15 -3 -12 -7 -19 -10
-16 -4 4 15 64 56 171 5 16 14 26 18 23 4 -3 11 2 14 11 4 9 9 14 12 11 3 -3
-1 -16 -10 -29z m-69 -202 c-16 -23 -25 -59 -26 -104 -1 -13 -5 -21 -9 -18 -5
3 -8 -19 -7 -49 1 -58 -9 -65 -20 -14 -5 22 -3 34 6 40 12 7 12 9 0 9 -11 0
-11 3 -1 15 12 15 22 61 22 98 -1 9 3 15 8 12 5 -3 14 4 20 15 6 11 13 20 17
20 3 0 -2 -11 -10 -24z m3926 -138 c3 -13 10 -38 15 -56 6 -19 7 -30 1 -27 -5
4 -9 14 -9 23 0 13 -2 14 -9 4 -5 -9 -8 -5 -8 15 0 15 -3 36 -7 46 -5 10 -4
17 2 17 5 0 12 -10 15 -22z m-3988 -163 c0 -51 -3 -91 -6 -89 -4 2 -5 -57 -4
-132 2 -102 0 -133 -9 -124 -13 13 -11 316 4 354 5 14 6 42 3 63 -3 22 -2 35
3 30 5 -5 9 -51 9 -102z m12 -450 c3 -16 6 -46 7 -65 0 -19 5 -38 10 -41 12
-9 16 -78 5 -85 -5 -3 -9 -2 -10 3 -3 26 -8 53 -18 93 -15 59 -23 186 -9 150
5 -14 12 -38 15 -55z m-30 3 c-3 -8 -6 -5 -6 6 -1 11 2 17 5 13 3 -3 4 -12 1
-19z m3383 -128 c25 -12 64 -26 88 -33 23 -6 42 -14 42 -17 0 -3 -18 -15 -40
-28 -22 -12 -50 -38 -63 -57 -12 -19 -24 -35 -27 -35 -3 0 -14 30 -24 67 -11
37 -30 87 -43 111 l-24 45 23 -16 c13 -9 43 -26 68 -37z m-2763 -82 c-3 -8 -6
-5 -6 6 -1 11 2 17 5 13 3 -3 4 -12 1 -19z m-554 -8 c-3 -12 -8 -19 -11 -16
-5 6 5 36 12 36 2 0 2 -9 -1 -20z m41 -45 c3 -8 1 -15 -4 -15 -6 0 -10 7 -10
15 0 8 2 15 4 15 2 0 6 -7 10 -15z m181 -354 c3 -5 1 -12 -5 -16 -5 -3 -10 1
-10 9 0 18 6 21 15 7z m22 -56 c0 -8 -4 -12 -9 -9 -5 3 -6 10 -3 15 9 13 12
11 12 -6z m445 -254 c101 -126 211 -379 253 -579 20 -95 20 -94 -14 -74 -26
14 -31 26 -46 107 -38 195 -142 419 -254 548 -54 61 -56 42 -3 -23 61 -75 131
-208 171 -322 32 -89 75 -257 68 -264 -2 -2 -20 5 -40 15 -20 10 -64 27 -96
37 l-60 17 25 49 c14 27 23 55 21 61 -3 11 -57 -77 -57 -94 0 -5 -4 -9 -9 -9
-5 0 -12 26 -16 57 -14 113 -39 130 -71 46 -27 -70 -29 -33 -4 68 27 107 18
131 -27 82 -30 -32 -59 -103 -69 -171 -11 -68 -18 -39 -15 56 5 163 57 368
107 423 10 11 14 22 10 26 -21 21 -104 -140 -136 -262 -25 -95 -39 -311 -22
-341 10 -16 12 -11 13 31 1 43 2 46 8 20 4 -16 14 -41 21 -55 14 -24 15 -24
23 30 15 102 37 182 58 217 12 19 23 32 26 29 2 -2 -5 -38 -16 -78 -40 -142
-17 -264 24 -128 10 33 21 60 25 60 4 0 10 -27 13 -60 7 -63 22 -104 36 -96
21 13 213 -55 288 -102 46 -29 52 -39 27 -44 -10 -2 22 -28 78 -65 93 -60 97
-62 182 -69 47 -4 86 -10 86 -14 0 -5 -22 -11 -50 -15 -27 -4 -50 -10 -50 -15
0 -15 155 -49 223 -50 26 0 47 -4 47 -8 0 -5 -18 -37 -39 -73 -42 -69 -51 -92
-38 -98 11 -4 127 48 127 57 0 4 10 8 23 9 12 0 16 -1 9 -4 -6 -3 -9 -9 -6
-15 4 -6 1 -9 -7 -6 -15 5 -119 -113 -119 -136 0 -13 7 -15 39 -10 39 6 40 6
46 -28 4 -20 -1 -62 -13 -106 l-19 -73 -64 -23 c-90 -32 -235 -102 -364 -175
-78 -44 -116 -60 -132 -56 -13 3 -23 9 -23 13 2 15 179 157 285 227 61 40 159
99 219 131 61 32 105 59 98 62 -36 12 -398 -214 -539 -337 -71 -62 -85 -71
-102 -62 -11 7 -22 7 -25 2 -3 -5 6 -12 19 -15 14 -4 23 -11 20 -16 -3 -6 5
-10 19 -10 31 0 34 -16 6 -25 -11 -3 -20 -11 -20 -16 0 -11 11 -6 210 101 80
43 188 97 240 120 52 22 103 46 113 51 26 14 32 4 13 -23 -30 -43 -21 -67 34
-91 27 -12 48 -26 46 -32 -1 -5 -34 -13 -72 -17 -116 -12 -345 -69 -446 -111
-35 -15 -37 -14 -53 6 -16 22 -16 22 -10 -5 4 -23 1 -29 -20 -34 -14 -3 -25
-11 -25 -16 0 -6 7 -7 15 -4 8 3 22 9 30 12 20 8 19 -12 -4 -61 -34 -74 -111
-125 -189 -125 -35 0 -40 3 -56 41 -17 37 -17 42 -2 58 9 10 16 33 16 52 0 19
5 40 11 46 5 5 9 30 7 54 l-3 44 -46 -1 c-85 -3 -198 -82 -215 -151 -11 -43 6
-58 67 -59 96 -1 129 -12 145 -50 18 -44 11 -73 -32 -123 -43 -50 -127 -91
-188 -91 -56 0 -65 13 -29 45 21 18 24 24 11 25 -9 0 -25 -12 -36 -27 -17 -23
-22 -25 -36 -14 -24 20 -19 37 14 51 16 7 30 16 30 21 0 13 -7 11 -35 -7 -23
-15 -25 -15 -25 1 0 9 5 25 11 37 15 27 7 31 -27 13 -16 -8 -33 -15 -37 -15
-5 0 -49 -20 -98 -45 -214 -106 -414 -249 -576 -412 l-73 -73 -89 0 c-71 0
-90 -3 -95 -15 -5 -13 -9 -14 -28 -4 -13 7 -31 13 -41 14 -11 1 -22 8 -27 15
-4 7 -13 9 -19 6 -6 -4 -11 0 -11 9 0 11 -5 15 -16 11 -8 -3 -12 -2 -9 3 3 5
-5 17 -17 25 -19 13 -20 16 -5 17 9 1 23 2 30 3 6 1 15 -3 19 -9 5 -6 8 -6 8
2 0 6 8 10 17 9 10 -2 18 -11 18 -22 0 -22 43 -46 69 -38 12 4 16 2 12 -5 -10
-15 60 -5 139 21 78 25 96 43 35 34 -70 -11 -202 -26 -229 -26 -32 0 -21 10
40 35 28 12 50 26 50 30 -1 9 -73 8 -178 -1 -35 -3 -63 -2 -63 3 0 4 23 16 50
26 28 10 50 22 50 27 0 6 -27 10 -60 10 -59 0 -79 13 -41 25 11 3 25 13 33 22
12 15 9 16 -32 9 -25 -4 -56 -10 -70 -13 l-25 -6 29 34 c40 47 65 111 73 181
5 47 9 58 24 58 21 0 35 18 22 31 -5 5 -29 10 -53 13 -53 4 -56 17 -6 30 56
15 45 32 -18 28 -67 -4 -83 13 -21 22 25 4 45 11 45 15 0 4 -36 35 -79 69
-184 142 -357 384 -432 601 -23 67 -52 218 -45 236 19 51 419 67 652 26 132
-23 194 -27 194 -11 0 6 -7 10 -15 10 -8 0 -15 3 -15 6 0 22 135 153 206 200
53 35 84 62 84 74 0 20 27 30 83 30 21 0 37 5 37 11 0 9 -21 10 -70 6 -38 -3
-70 -2 -70 2 0 19 149 54 252 59 59 3 105 9 102 13 -3 5 -20 9 -39 9 -19 0
-37 5 -40 10 -4 6 -23 8 -43 5 -20 -3 -31 -2 -24 1 6 3 10 9 7 13 -8 13 65 48
73 35 4 -6 14 -14 22 -17 15 -5 -23 -12 -45 -7 -7 1 -7 -2 0 -9 12 -12 195
-30 195 -19 0 8 -48 58 -55 58 -3 0 -5 -8 -6 -17 0 -14 -2 -13 -9 5 -5 12 -14
22 -20 22 -6 0 -8 5 -4 12 5 8 11 6 20 -6 8 -12 14 -14 19 -6 5 8 11 6 19 -5
14 -19 125 -37 143 -23 6 5 19 44 28 86 49 220 143 430 233 521 l53 54 31 -29
c17 -16 57 -62 90 -103z m-588 55 c-3 -9 -10 -16 -14 -16 -4 0 -10 -14 -14
-31 -3 -19 -10 -28 -17 -23 -8 4 -9 -1 -4 -16 6 -20 5 -21 -7 -9 -12 10 -13
18 -4 31 6 10 14 18 17 18 4 0 12 21 19 46 10 34 15 42 22 31 4 -8 5 -22 2
-31z m3966 -71 c4 2 6 -9 4 -26 -2 -16 0 -28 5 -25 4 3 13 -6 19 -19 7 -14 7
-25 2 -25 -17 0 -40 32 -40 55 0 13 -2 29 -3 37 -2 7 -2 10 0 5 3 -4 8 -5 13
-2z m-4044 -60 c-9 -14 -14 -31 -10 -38 4 -7 4 -9 0 -5 -9 8 -66 -54 -66 -71
0 -6 -3 -11 -7 -11 -5 0 -17 -13 -28 -30 -12 -18 -22 -25 -26 -18 -9 14 0 40
11 33 5 -3 11 -1 15 5 3 5 1 10 -5 10 -6 0 -8 5 -5 10 4 6 11 8 16 5 5 -3 6 2
2 11 -4 12 -3 15 5 10 7 -4 12 -2 12 5 0 7 3 10 6 7 7 -7 45 28 43 40 -3 19 2
33 11 27 6 -3 15 6 20 21 6 15 13 24 17 21 3 -4 -2 -18 -11 -32z m4073 -59 c7
-8 8 -17 3 -20 -6 -3 -12 3 -15 14 -6 24 -4 25 12 6z m31 -32 c0 -3 -7 -12
-15 -20 -16 -17 -18 -14 -9 10 6 15 24 23 24 10z m13 -55 c2 -8 6 -20 11 -27
5 -8 3 -19 -4 -25 -6 -7 -10 -7 -9 -2 1 6 -3 23 -9 38 -15 37 -16 55 -1 40 6
-6 11 -17 12 -24z m-3822 -6 c-12 -20 -14 -14 -5 12 4 9 9 14 11 11 3 -2 0
-13 -6 -23z m-438 -36 c3 -8 1 -20 -4 -28 -6 -10 -9 -7 -9 14 0 29 5 35 13 14z
m3330 -59 c-2 -5 -11 -8 -19 -8 -8 0 -14 -5 -14 -12 0 -6 -3 -9 -6 -5 -3 3 2
20 12 37 16 26 20 28 25 13 4 -10 5 -21 2 -25z m979 -40 c-2 -10 -8 -15 -14
-12 -5 3 -4 13 4 22 11 13 11 15 -3 10 -13 -5 -18 0 -22 20 -3 15 -3 31 0 35
8 13 39 -56 35 -75z m-4330 44 c-7 -2 -12 -13 -12 -25 -1 -12 -10 -40 -20 -62
-19 -38 -20 -38 -16 -10 5 46 37 115 49 108 8 -5 7 -8 -1 -11z m4383 -185 c3
-15 1 -36 -6 -45 -10 -16 -10 -16 -5 0 3 10 -2 34 -10 54 -8 20 -13 43 -10 51
3 8 2 12 -3 9 -4 -3 -13 6 -20 20 -6 15 -7 23 -1 19 6 -3 10 4 11 17 0 24 36
-74 44 -125z m-4432 8 c-5 -45 5 -66 37 -77 8 -3 -4 -7 -27 -9 -28 -3 -39 -1
-33 5 6 6 10 29 10 52 0 39 7 74 16 74 1 0 0 -20 -3 -45z m438 32 c-6 -8 -8
-17 -4 -20 3 -4 1 -7 -6 -7 -7 0 -9 -5 -5 -12 5 -10 4 -10 -6 -1 -11 10 -10
16 5 33 20 22 34 28 16 7z m-184 -59 c0 -7 -11 -14 -24 -14 -24 -2 -31 11 -10
19 22 9 34 7 34 -5z m4199 -43 c-2 -14 3 -36 10 -49 11 -23 11 -24 -6 -14 -23
15 -30 37 -19 66 11 29 18 28 15 -3z m-163 -20 c-3 -9 -8 -14 -10 -11 -3 3 -2
9 2 15 9 16 15 13 8 -4z m38 -78 c10 -26 13 -49 8 -53 -5 -3 -9 -11 -8 -17 0
-9 2 -9 6 1 2 6 9 12 14 12 4 0 6 -7 3 -15 -4 -8 -2 -15 4 -15 6 0 8 -9 5 -21
-4 -13 -8 -16 -13 -9 -5 7 -13 5 -28 -7 -15 -12 -26 -39 -34 -85 -7 -38 -16
-68 -21 -68 -4 0 -6 -4 -3 -9 6 -9 -24 -102 -36 -111 -4 -3 -8 -18 -10 -33 -2
-15 -14 -36 -27 -48 -12 -11 -26 -32 -31 -45 -5 -13 -17 -24 -27 -25 -16 0
-15 -2 2 -9 19 -8 19 -9 -2 -9 -15 -1 -25 -9 -29 -25 -4 -16 -11 -23 -20 -19
-10 4 -12 0 -8 -11 3 -9 1 -16 -6 -16 -6 0 -9 -4 -6 -8 2 -4 -4 -8 -14 -9 -11
-1 -23 3 -26 9 -4 6 -3 8 3 5 6 -4 16 0 23 8 7 8 9 15 4 15 -5 1 3 8 19 16 15
8 27 19 27 24 0 5 14 25 31 44 18 21 27 40 23 47 -4 7 -3 9 3 6 5 -3 15 10 22
29 7 19 17 31 23 28 6 -4 8 1 3 16 -4 14 -3 20 3 16 5 -3 13 1 16 10 3 8 2 12
-4 9 -18 -11 -10 10 9 24 12 9 17 21 13 34 -3 13 -1 18 5 14 7 -4 11 2 11 16
0 12 7 54 16 92 9 39 17 110 18 158 1 99 12 109 39 34z m-4471 18 c-19 -10
-20 -13 -6 -18 10 -4 14 -11 11 -17 -3 -5 0 -10 7 -11 10 0 10 -2 1 -6 -7 -2
-13 -11 -13 -18 0 -21 -27 -25 -43 -7 -23 28 -32 46 -17 37 9 -6 12 -4 8 7 -6
14 28 45 45 40 4 -1 7 3 7 9 0 5 5 7 11 3 8 -4 4 -11 -11 -19z m4616 -73 c3
-34 1 -68 -3 -77 -5 -8 -9 18 -10 66 -1 94 5 99 13 11z m-3296 38 c0 -5 -2
-10 -4 -10 -3 0 -8 5 -11 10 -3 6 -1 10 4 10 6 0 11 -4 11 -10z m-1360 -71 c0
-5 -7 -9 -15 -9 -15 0 -20 12 -9 23 8 8 24 -1 24 -14z m-64 -44 c-3 -9 -10
-13 -16 -10 -6 4 -5 11 3 20 15 16 22 11 13 -10z m4627 -53 c-3 -12 0 -29 6
-36 8 -9 8 -16 2 -20 -12 -8 -25 49 -15 65 3 6 1 15 -6 19 -7 5 -9 13 -5 21
12 18 25 -19 18 -49z m-4665 31 c-10 -2 -18 -8 -18 -13 0 -15 -31 -40 -48 -40
-12 0 -7 9 16 30 18 17 41 29 50 29 15 -1 15 -2 0 -6z m4759 -63 c-1 -28 -6
-49 -12 -47 -5 2 -10 9 -9 15 1 7 2 30 3 53 0 23 5 38 11 34 5 -3 8 -28 7 -55z
m-2957 40 c-13 -9 -7 -14 13 -11 10 2 9 -17 -2 -24 -6 -3 -15 3 -20 14 -15 27
-14 31 7 31 14 0 15 -2 2 -10z m-1880 -60 c-6 -10 -16 -23 -24 -27 -8 -4 -15
-16 -17 -26 -4 -16 -5 -16 -17 4 -8 11 -9 18 -3 14 6 -3 11 1 11 9 0 10 6 13
15 10 11 -5 13 -2 8 12 -4 12 -3 15 5 10 7 -4 12 -2 12 3 0 6 5 11 10 11 7 0
7 -6 0 -20z m-530 -20 c-14 -4 -52 -8 -86 -9 -33 -1 -65 -6 -72 -13 -9 -9 -12
-9 -12 0 0 14 27 21 100 25 97 6 97 6 70 -3z m273 -12 c9 1 15 -3 12 -9 -4 -5
-23 -7 -43 -4 -20 3 -66 7 -101 9 -35 3 -66 7 -69 10 -2 3 37 3 89 0 52 -4
102 -6 112 -6z m-476 -4 c-3 -3 -12 -4 -19 -1 -8 3 -5 6 6 6 11 1 17 -2 13 -5z
m-52 -26 c-9 -6 -19 -7 -22 -4 -4 3 -1 6 6 6 7 0 9 4 6 10 -4 6 1 7 11 3 15
-6 15 -7 -1 -15z m605 12 c13 -9 13 -10 0 -9 -8 0 -24 4 -35 9 l-20 9 20 0
c11 0 27 -4 35 -9z m117 -13 c-5 -15 -43 -18 -69 -7 -20 9 -19 10 10 6 17 -3
32 -2 32 3 0 4 7 8 15 8 9 0 14 -5 12 -10z m-781 -6 c8 7 14 7 14 1 0 -5 -10
-16 -23 -25 -23 -15 -25 -34 -13 -129 2 -21 0 -41 -6 -44 -6 -4 -9 5 -7 22 2
16 0 35 -5 43 -5 7 -9 37 -11 67 -1 42 1 54 12 50 7 -3 13 2 14 12 0 11 2 12
6 4 4 -10 8 -10 19 -1z m3914 -37 c0 -53 28 -153 55 -199 35 -57 82 -111 91
-102 4 4 -1 16 -11 27 -23 25 -8 26 24 1 23 -18 23 -18 6 -52 -44 -84 -157
-208 -271 -296 -73 -56 -245 -139 -338 -163 -96 -24 -227 -26 -311 -5 -64 16
-225 93 -225 107 0 5 7 20 16 33 12 19 25 25 51 25 22 0 32 4 27 11 -3 6 -17
8 -30 5 -20 -5 -24 -3 -24 16 0 28 -27 58 -53 58 -14 0 -17 4 -12 18 4 9 13
33 20 52 12 33 18 36 96 57 46 12 85 20 88 18 2 -3 -6 -28 -18 -56 -12 -29
-19 -55 -15 -58 10 -10 53 48 65 88 11 38 13 39 68 46 79 10 113 27 39 20 -31
-3 -62 -7 -70 -10 -10 -4 -13 13 -13 82 0 64 -5 97 -17 122 -10 19 -18 35 -18
35 0 1 62 2 138 2 79 1 176 8 229 18 108 19 325 87 368 115 42 27 45 26 45
-15z m-1035 -24 c-3 -5 -1 -10 4 -10 20 0 11 -17 -15 -28 -14 -7 -23 -8 -19
-2 3 5 0 10 -7 10 -7 1 -3 9 11 20 25 22 36 26 26 10z m159 -81 c47 -10 60
-17 72 -40 20 -40 18 -49 -14 -49 -30 0 -126 -29 -119 -36 2 -3 33 2 68 11 35
8 70 15 77 15 13 0 15 -59 4 -124 -7 -37 -10 -40 -57 -52 -28 -7 -60 -15 -73
-19 -21 -7 -22 -5 -16 20 6 24 4 26 -14 21 -19 -7 -20 -5 -11 26 17 59 11 102
-16 128 -28 26 -27 37 8 80 26 34 20 33 91 19z m-3041 -84 c-7 -21 -12 -19
-10 4 0 11 5 18 9 15 4 -3 5 -11 1 -19z m2897 -2 c0 -14 -2 -15 -9 -4 -5 8
-14 10 -21 6 -9 -5 -11 -4 -6 3 11 18 36 14 36 -5z m1144 -30 c3 -7 3 -13 -1
-13 -6 0 -43 40 -43 47 0 8 40 -23 44 -34z m-4027 0 c0 -10 3 -29 7 -42 3 -13
1 -31 -4 -40 -9 -17 -10 -16 -11 47 0 13 -5 20 -11 16 -6 -4 -6 2 1 15 14 26
16 26 18 4z m4073 -29 c0 -3 -7 -1 -15 6 -8 7 -15 17 -15 22 0 5 7 3 15 -6 8
-8 15 -18 15 -22z m50 -7 c0 10 20 -19 20 -29 0 -5 -5 -8 -11 -8 -5 0 -7 5 -4
10 3 6 2 10 -4 10 -5 0 -12 -6 -14 -12 -3 -8 -6 -6 -6 5 -1 9 -5 17 -11 17 -5
0 -10 5 -10 10 0 7 6 7 20 0 11 -6 20 -7 20 -3z m106 -50 c16 -7 30 -18 32
-25 3 -18 -13 -14 -33 8 -10 12 -25 18 -32 16 -7 -3 -13 -1 -13 4 0 13 12 13
46 -3z m-4197 -15 c7 -13 6 -19 -2 -19 -7 0 -13 9 -13 19 0 10 1 18 3 18 1 0
7 -8 12 -18z m4257 -65 c88 -40 198 -95 244 -123 256 -150 360 -378 360 -794
0 -246 -33 -493 -106 -785 -64 -257 -242 -761 -328 -928 -18 -35 -34 -48 -95
-79 -138 -68 -420 -122 -706 -134 -82 -4 -152 -10 -155 -13 -3 -4 -21 -4 -40
0 -19 3 -28 7 -19 8 9 0 20 8 23 16 4 13 10 14 26 5 22 -12 43 -3 136 56 160
103 408 357 544 559 18 28 34 51 35 53 1 1 33 -5 71 -14 79 -18 165 -14 212
10 37 19 76 85 135 231 70 171 132 366 166 522 33 149 42 242 14 148 -57 -198
-193 -589 -209 -604 -4 -3 -9 -1 -11 6 -2 7 -27 41 -54 75 -187 238 -538 398
-871 398 -84 0 -98 5 -80 25 5 6 24 48 42 95 86 220 275 557 376 669 25 28 44
56 42 62 -5 16 -160 -159 -226 -254 -113 -163 -207 -346 -274 -532 -21 -60
-43 -119 -47 -129 -6 -16 -13 -8 -38 45 -25 55 -28 66 -15 75 33 24 -35 148
-109 199 -27 19 -39 35 -39 52 0 34 -33 96 -96 180 -30 40 -54 75 -54 78 0 3
7 5 15 5 21 0 19 39 -4 75 -26 43 -112 129 -213 213 l-87 72 24 36 c17 25 23
44 19 60 -8 31 -1 30 44 -6 49 -39 134 -76 211 -91 89 -17 268 -7 356 21 213
67 448 248 565 437 25 40 48 72 51 73 3 0 78 -33 165 -73z m938 64 c5 -8 -104
-89 -127 -94 -6 -1 -23 -12 -37 -24 -13 -13 -32 -23 -41 -23 -9 0 -30 -7 -48
-16 -17 -9 -46 -17 -64 -19 -17 -2 -43 -7 -57 -10 -19 -5 -22 -4 -10 4 12 9
11 11 -8 11 -14 0 -29 11 -40 28 -10 17 -23 27 -32 25 -13 -4 -13 -3 0 6 8 5
17 8 21 5 13 -7 79 29 72 39 -3 6 -1 7 6 3 6 -4 18 0 27 8 8 9 21 16 27 16 9
0 9 -2 0 -8 -6 -4 -13 -14 -15 -22 -2 -8 -12 -22 -22 -31 -22 -18 -17 -43 13
-59 15 -8 21 -8 21 0 0 6 5 8 10 5 6 -3 16 -3 23 2 6 4 17 8 22 9 30 6 166 79
159 86 -3 3 9 11 26 17 20 7 29 15 24 22 -5 9 -2 10 9 6 11 -4 17 -1 17 8 0
16 16 20 24 6z m-924 -16 c0 -2 -6 -5 -13 -8 -8 -3 -14 1 -14 8 0 7 6 11 14 8
7 -3 13 -6 13 -8z m656 -7 c4 -6 3 -8 -4 -4 -5 3 -13 0 -15 -6 -3 -8 -6 -6 -6
5 -1 19 14 23 25 5z m-4906 -25 c1 -25 45 -94 55 -85 4 4 5 2 1 -5 -3 -7 14
-44 39 -83 25 -38 45 -76 45 -83 0 -8 4 -7 10 3 6 9 10 10 10 3 0 -22 -15 -21
-37 3 -12 13 -19 24 -17 24 7 0 -15 38 -34 61 -9 11 -17 25 -17 32 -1 7 -6 11
-13 10 -7 -2 -9 4 -5 14 5 12 3 14 -7 8 -10 -6 -12 -4 -7 8 3 10 2 17 -4 17
-10 0 -30 46 -28 64 0 5 -5 13 -13 17 -10 7 -9 9 5 9 9 0 17 -8 17 -17z m2870
2 c0 -8 5 -15 12 -15 6 0 3 -9 -7 -20 -10 -11 -24 -20 -31 -20 -7 0 -10 8 -7
20 3 11 10 20 15 20 6 0 8 7 4 15 -3 8 -1 15 4 15 6 0 10 -7 10 -15z m1410 3
c0 -10 2 -10 8 -1 5 8 14 6 30 -7 l23 -19 -25 3 c-14 1 -31 7 -38 13 -7 6 -20
13 -28 16 -10 4 -7 6 8 6 12 1 22 -5 22 -11z m122 -45 c-6 -2 -10 -9 -6 -14 3
-5 1 -9 -5 -9 -5 0 -12 4 -15 9 -6 9 10 19 29 19 6 0 4 -2 -3 -5z m38 -23 c8
-5 11 -10 5 -10 -5 0 -17 5 -25 10 -8 5 -10 10 -5 10 6 0 17 -5 25 -10z
m-1591 -17 c-8 -10 -21 -30 -29 -46 -12 -24 -12 -29 6 -42 10 -8 15 -14 9 -15
-16 0 -33 14 -35 30 -4 29 0 41 12 34 8 -5 9 -2 5 9 -3 10 -2 17 3 17 5 0 7 7
4 15 -4 11 0 15 16 15 21 0 22 -2 9 -17z m1841 -3 c0 -5 -5 -10 -11 -10 -5 0
-7 5 -4 10 3 6 8 10 11 10 2 0 4 -4 4 -10z m30 -4 c0 -3 -4 -8 -10 -11 -5 -3
-10 -1 -10 4 0 6 5 11 10 11 6 0 10 -2 10 -4z m-181 -21 c2 -2 1 -12 -3 -21
-6 -16 -8 -15 -21 4 -9 11 -23 23 -33 25 -9 2 -1 2 18 0 19 -3 37 -6 39 -8z
m-1655 -93 c3 -5 -1 -9 -9 -9 -8 0 -12 4 -9 9 3 4 7 8 9 8 2 0 6 -4 9 -8z
m-56 -71 c-1 -6 -40 -51 -86 -100 -88 -96 -91 -114 -11 -56 27 19 49 31 49 26
0 -26 -113 -176 -187 -248 -83 -81 -90 -100 -33 -88 43 9 37 -5 -18 -42 -58
-40 -100 -56 -127 -49 -16 4 -25 -4 -44 -39 -56 -105 -211 -219 -356 -260 -33
-10 -67 -20 -75 -23 -11 -4 -10 1 4 16 33 38 1 24 -116 -47 -62 -39 -115 -68
-117 -65 -3 2 8 17 22 32 41 43 22 44 -46 2 -71 -43 -142 -76 -207 -96 -54
-16 -50 -16 -50 -5 0 4 27 25 60 45 33 21 60 42 60 47 0 6 -9 5 -21 -2 -33
-17 -192 -70 -197 -65 -10 10 137 235 226 346 24 30 67 79 94 108 51 53 60 86
12 41 -80 -74 -296 -372 -338 -465 -20 -46 -21 -46 -158 -60 -72 -7 -93 6 -36
22 17 5 33 15 35 21 3 9 -5 9 -32 2 -20 -6 -39 -9 -41 -7 -8 8 71 108 163 208
110 118 197 196 322 287 81 60 85 62 98 43 23 -32 68 -50 128 -50 95 0 183 53
224 135 13 26 27 42 35 39 23 -9 110 16 149 43 46 32 88 100 90 147 2 35 2 35
92 65 84 28 246 68 360 89 69 13 77 13 73 3z m-2608 -65 c0 -6 -7 -2 -15 8
-10 14 -15 15 -15 6 0 -22 -23 5 -27 32 -3 21 -2 21 27 -7 16 -16 30 -34 30
-39z m2627 27 c-4 -3 1 -12 11 -19 15 -12 15 -13 -5 -8 -15 4 -25 0 -33 -15
-6 -12 -9 -25 -6 -30 3 -4 -1 -8 -8 -8 -15 0 -11 21 7 45 5 6 6 12 1 12 -4 0
1 7 12 15 20 15 32 20 21 8z m-807 -22 c0 -11 -5 -32 -11 -48 -7 -15 -15 -46
-18 -68 -7 -43 -8 -43 -106 -33 -11 1 -35 -1 -52 -5 -31 -6 -33 -5 -33 22 0
36 58 96 125 127 62 30 95 31 95 5z m-1798 -41 c-1 -6 3 -10 10 -8 7 3 23 -10
36 -29 12 -18 29 -33 36 -33 8 0 17 -7 20 -16 4 -9 9 -14 13 -10 9 8 44 -25
37 -35 -3 -5 2 -9 10 -9 23 0 20 -27 -5 -40 -15 -9 -18 -15 -10 -24 6 -7 8
-16 4 -19 -3 -4 1 -7 10 -7 9 0 14 -6 12 -12 -5 -16 22 -54 31 -45 10 10 35
-13 28 -25 -4 -6 -8 -31 -9 -57 -1 -25 -8 -59 -15 -76 -7 -16 -14 -33 -14 -37
-1 -3 -4 -9 -8 -13 -7 -7 -5 10 5 38 17 44 20 54 23 79 5 36 -12 78 -31 78 -8
0 -15 5 -15 10 0 6 -11 23 -24 37 -14 15 -23 30 -20 35 3 4 -2 5 -11 2 -21 -9
-16 12 11 42 l21 24 -31 35 c-18 19 -35 35 -39 35 -9 0 -47 38 -46 46 0 4 -10
12 -22 18 -25 12 -40 42 -18 34 8 -3 13 -11 11 -18z m2548 10 c0 -5 -5 -10
-11 -10 -5 0 -7 5 -4 10 3 6 8 10 11 10 2 0 4 -4 4 -10z m-9 -127 c13 -16 12
-17 -3 -4 -10 7 -18 15 -18 17 0 8 8 3 21 -13z m198 -220 c35 -35 61 -66 58
-70 -4 -3 -15 1 -24 9 -19 16 -109 58 -125 58 -5 0 35 -47 89 -104 54 -57 123
-142 153 -189 45 -70 59 -85 75 -81 15 4 16 3 6 -4 -8 -6 -10 -15 -5 -23 4 -8
-6 -2 -24 13 -41 34 -122 60 -122 39 0 -6 33 -27 72 -48 78 -41 198 -149 198
-178 0 -13 -8 -10 -36 15 -20 17 -38 29 -41 27 -2 -3 11 -27 30 -55 48 -68 81
-134 106 -216 32 -104 26 -125 -18 -61 -39 58 -37 31 5 -57 37 -79 39 -87 39
-183 0 -59 -5 -108 -12 -120 -9 -16 -13 -17 -16 -5 -3 8 -10 34 -18 58 -19 66
-30 61 -23 -11 5 -53 3 -72 -15 -112 -22 -50 -54 -89 -65 -78 -3 4 -6 22 -6
42 0 46 -10 81 -22 81 -5 0 -9 -15 -7 -32 4 -68 -1 -90 -30 -119 -36 -36 -86
-39 -125 -8 -26 20 -27 26 -24 85 2 35 -1 64 -5 64 -12 0 -37 -65 -37 -96 0
-27 0 -27 -21 -8 -65 58 -100 164 -105 314 -2 63 -4 117 -4 120 -2 13 -29 -48
-30 -66 0 -11 -6 -28 -13 -38 -10 -14 -11 1 -5 81 4 54 12 114 17 133 6 19 11
43 11 54 0 15 -3 16 -15 6 -8 -7 -15 -20 -15 -28 0 -11 -3 -13 -10 -6 -10 10
28 118 56 158 22 33 16 42 -11 16 -20 -19 -25 -20 -25 -7 0 20 107 137 126
137 8 0 14 7 14 15 0 12 -5 13 -26 4 -15 -5 -28 -8 -28 -7 -1 2 -10 28 -19 59
-9 31 -26 64 -37 74 -29 27 -24 38 10 20 43 -22 70 -20 70 7 0 28 -98 124
-164 161 -64 35 -85 29 -26 -8 51 -32 150 -123 150 -138 0 -11 -43 -2 -84 19
-53 26 -63 17 -24 -23 45 -48 87 -115 94 -152 5 -24 -2 -39 -40 -86 -41 -50
-65 -103 -58 -128 1 -5 -4 -31 -13 -59 -18 -61 -20 -128 -4 -128 8 0 10 -14 6
-43 -9 -65 7 -158 30 -177 14 -11 22 -33 26 -80 6 -57 5 -66 -15 -87 -12 -13
-25 -23 -30 -23 -16 0 -93 83 -90 97 4 18 -33 60 -69 79 -20 10 -25 19 -22 38
4 21 -3 29 -48 55 -30 17 -70 36 -90 41 -21 6 -39 16 -42 24 -8 21 -111 56
-172 59 -41 1 -55 6 -58 19 -7 24 -87 33 -166 19 -74 -14 -183 -59 -175 -72 3
-5 14 -4 25 2 59 31 281 66 266 42 -4 -6 -19 -13 -34 -16 -16 -3 -36 -12 -46
-19 -15 -11 6 -13 127 -13 103 0 149 -4 158 -12 10 -10 5 -13 -24 -13 -56 0
-53 -15 5 -29 85 -19 187 -53 187 -62 0 -5 -20 -6 -45 -2 -71 9 -54 -10 50
-57 52 -24 100 -49 107 -57 8 -10 13 -11 18 -3 5 8 9 4 12 -8 5 -19 3 -18 -49
5 -75 34 -91 16 -21 -22 71 -38 169 -139 203 -210 34 -69 38 -151 10 -204
l-17 -35 -13 37 c-17 49 -40 83 -70 103 -38 25 -40 12 -6 -42 34 -52 47 -101
37 -138 -7 -29 -59 -71 -97 -81 -24 -6 -27 -3 -33 31 -7 37 -46 106 -66 119
-21 13 -22 -3 -2 -42 10 -21 22 -55 25 -76 5 -33 3 -39 -23 -52 -34 -18 -94
-19 -141 -4 -19 7 -65 35 -104 64 -38 29 -95 66 -125 83 -59 33 -216 76 -253
69 -25 -4 -18 -8 51 -26 23 -7 40 -16 38 -20 -3 -4 -56 -9 -119 -10 -117 -2
-232 16 -290 46 -42 21 -45 8 -9 -30 18 -18 30 -36 26 -39 -9 -9 -65 27 -104
67 -18 19 -38 35 -43 35 -5 0 -6 -19 -2 -42 l7 -43 -45 43 c-54 53 -99 137
-123 232 -10 38 -22 70 -27 70 -11 0 -4 -147 7 -172 5 -11 4 -18 -2 -18 -5 0
-20 21 -31 46 -25 53 -30 179 -10 258 16 64 4 69 -23 10 -30 -67 -37 -198 -13
-260 19 -49 66 -94 92 -88 13 2 27 -11 48 -43 49 -78 155 -144 155 -98 0 20 6
19 38 -4 28 -19 93 -41 126 -41 15 0 17 5 12 26 -6 23 -4 25 11 19 64 -27 212
-32 318 -10 74 16 75 16 125 -10 27 -14 86 -54 130 -90 116 -94 211 -115 302
-69 15 8 40 14 56 14 60 0 142 53 158 102 3 10 17 23 30 29 28 10 63 79 71
138 5 33 11 40 66 69 l61 32 22 -21 c14 -13 42 -23 68 -26 45 -6 67 2 193 64
31 15 83 78 83 99 0 6 11 16 25 22 55 25 84 170 54 276 -6 21 -8 60 -4 88 l7
49 67 -6 c270 -26 514 -121 703 -272 l37 -30 -123 -186 c-152 -231 -207 -300
-365 -458 -278 -278 -515 -375 -1033 -425 -131 -12 -227 -15 -398 -11 -295 8
-417 21 -840 91 -85 14 -166 26 -180 26 -23 0 -26 4 -26 33 0 17 -4 40 -8 50
-7 14 -3 17 16 17 25 0 64 22 86 48 17 22 15 73 -5 102 -12 18 -14 25 -4 28
49 16 69 104 32 141 -21 21 -30 24 -206 65 -105 25 -274 98 -282 121 -2 6 22
11 56 12 105 3 171 51 171 124 0 28 -8 47 -28 70 -28 31 -30 32 -153 39 -68 5
-137 13 -153 19 l-28 11 4 100 c2 55 3 100 1 100 -10 0 -28 -55 -33 -105 -6
-60 -6 -60 -20 -30 -18 43 -24 124 -11 170 6 22 26 63 45 92 19 28 32 54 29
57 -3 3 -22 -6 -42 -20 -60 -41 -47 -8 28 69 39 40 66 73 61 75 -5 2 -32 -4
-61 -12 -29 -9 -54 -14 -56 -12 -6 5 20 38 87 109 l56 59 39 -11 c22 -6 54
-11 72 -13 29 -2 32 -5 26 -27 -4 -17 -2 -22 6 -17 6 4 11 13 11 19 0 9 24 11
85 8 47 -1 98 2 115 7 36 13 38 4 14 -53 -8 -20 -14 -44 -12 -53 2 -10 14 13
27 49 21 59 28 68 58 77 29 9 37 8 54 -9 15 -15 28 -18 62 -13 49 6 156 41
175 57 8 6 27 10 42 9 34 -3 97 23 173 72 40 26 73 39 105 42 64 5 88 11 152
36 64 25 171 92 217 137 42 40 93 115 93 135 0 12 10 16 35 16 76 0 201 98
192 149 -4 20 5 35 40 71 25 25 59 64 75 87 l31 42 71 -67 c39 -37 100 -95
135 -129z m-1331 -3 c-196 -127 -472 -394 -550 -530 l-23 -40 -90 0 c-60 0
-99 5 -119 15 -15 8 -35 15 -43 15 -35 0 -2 25 48 36 57 13 149 49 149 59 0 3
-22 3 -50 -1 -28 -4 -50 -3 -49 2 0 5 46 51 102 101 182 166 406 311 612 399
29 12 30 11 33 -14 3 -19 -3 -31 -20 -42z m3234 -38 c-7 -2 -12 -8 -12 -13 0
-6 5 -7 10 -4 12 7 12 5 15 -165 2 -74 -2 -162 -7 -195 -5 -33 -11 -78 -13
-100 -9 -88 -12 -113 -19 -123 -3 -6 -3 -17 0 -25 7 -19 -15 -100 -30 -109 -8
-6 -7 -10 3 -17 16 -11 7 -46 -10 -35 -8 4 -8 1 -1 -13 6 -10 7 -25 3 -32 -15
-23 -22 35 -11 81 6 24 13 51 15 62 2 10 6 38 7 62 2 24 6 44 9 44 3 0 6 6 6
13 3 76 15 193 21 195 9 3 8 309 -2 346 -8 31 0 50 17 39 8 -5 8 -8 -1 -11z
m-1827 -1 c-3 -6 4 -15 15 -21 21 -11 28 -40 10 -40 -5 0 -10 -9 -10 -20 0
-25 -27 -26 -35 -1 -3 10 -15 23 -28 29 -20 11 -20 12 -2 11 43 -2 47 0 41 26
-4 15 -2 25 4 25 6 0 9 -4 5 -9z m45 -153 c0 -18 -2 -20 -9 -8 -6 8 -7 18 -5
22 9 14 14 9 14 -14z m-2701 -9 c-8 -5 -10 -9 -4 -9 5 0 4 -5 -3 -12 -9 -9
-15 -9 -24 1 -11 10 -9 11 5 5 10 -3 17 -3 16 2 -4 22 2 35 12 28 8 -4 7 -9
-2 -15z m2745 -45 c7 -19 2 -18 -19 6 -16 17 -16 20 -3 15 9 -4 19 -13 22 -21z
m-2736 -21 c20 -21 30 -28 24 -16 -9 16 -9 24 0 29 6 4 8 3 5 -3 -8 -13 41
-55 56 -47 7 3 -4 -9 -23 -27 -19 -18 -27 -30 -17 -26 11 4 25 1 34 -9 14 -13
13 -14 -13 -8 -52 13 -75 24 -69 34 3 5 0 22 -8 37 -8 15 -13 35 -10 43 2 8
-2 5 -8 -7 -13 -25 -32 -32 -23 -8 4 8 1 15 -5 15 -6 0 -8 7 -5 15 9 23 24 18
62 -22z m333 -225 c0 -8 2 -9 5 -2 2 6 18 9 34 6 16 -2 27 -8 25 -13 -3 -4
-13 -6 -23 -3 -14 5 -15 4 -2 -5 13 -10 13 -12 0 -21 -10 -6 -21 -3 -35 10
-12 11 -27 20 -33 20 -7 0 -12 5 -12 10 0 15 40 12 41 -2z m959 -48 c0 -5 -4
-10 -10 -10 -5 0 -10 5 -10 10 0 6 5 10 10 10 6 0 10 -4 10 -10z m-867 -42
c-2 -5 6 -8 19 -8 21 0 20 -2 -12 -32 -19 -18 -39 -31 -44 -30 -5 2 -5 -5 -2
-15 6 -15 5 -16 -6 -5 -11 11 -9 16 8 30 17 13 21 24 17 50 -3 17 -10 32 -15
32 -5 0 -6 -6 -2 -12 5 -9 2 -8 -10 1 -12 11 -14 16 -5 22 14 8 60 -21 52 -33z
m847 27 c7 -8 8 -15 2 -15 -5 0 -15 7 -22 15 -7 8 -8 15 -2 15 5 0 15 -7 22
-15z m1690 -45 c0 -14 -19 -32 -29 -26 -7 5 -7 14 1 32 8 18 14 21 20 12 4 -7
8 -15 8 -18z m-1954 -5 c2 -30 -1 -31 -29 -4 -15 13 -17 18 -6 14 10 -4 20 -2
24 4 9 15 10 14 11 -14z m-360 -9 c-1 -21 -3 -23 -16 -12 -8 8 -21 11 -29 8
-9 -3 -11 0 -7 7 5 7 17 9 28 5 14 -4 18 -2 14 5 -4 6 -3 11 2 11 6 0 9 -11 8
-24z m33 0 c11 -14 6 -15 -27 -7 -4 1 8 21 12 21 2 0 9 -6 15 -14z m-313 -82
c-1 -8 -6 -17 -12 -21 -5 -4 -6 -4 -2 1 4 5 3 14 -2 21 -7 8 -5 12 4 12 8 0
13 -6 12 -13z m2951 -45 c249 -33 513 -150 678 -301 59 -54 125 -138 125 -159
0 -17 -63 -169 -70 -168 -3 0 -18 27 -33 59 -34 71 -155 199 -240 253 -199
127 -467 217 -648 217 -38 0 -69 3 -69 6 0 4 8 28 17 55 l18 49 72 0 c39 0
107 -5 150 -11z m-3008 -26 c-8 -9 -9 -14 -2 -10 7 5 13 -1 15 -15 2 -19 9
-23 33 -21 22 2 25 0 12 -5 -10 -4 -18 -12 -17 -17 1 -6 -8 -12 -20 -15 -21
-5 -80 -82 -80 -105 0 -7 6 -18 14 -24 11 -9 13 -30 9 -91 -13 -186 70 -266
290 -280 91 -5 111 -9 129 -27 15 -15 19 -28 14 -46 -13 -52 -161 -93 -248
-69 -53 15 -50 -4 11 -61 82 -77 230 -141 397 -172 49 -9 95 -22 102 -28 7 -5
12 -24 10 -41 -3 -26 -9 -33 -43 -44 -64 -22 -237 -10 -375 26 -63 16 -119 27
-124 24 -14 -8 80 -50 173 -78 47 -13 140 -29 208 -36 116 -10 124 -13 129
-34 8 -30 0 -40 -49 -66 -63 -32 -208 -29 -342 7 -55 15 -111 29 -125 32 l-25
5 25 -21 c55 -46 207 -90 325 -95 39 -2 73 -4 78 -5 15 -2 6 -38 -14 -57 -43
-39 -225 -28 -335 21 -41 18 -54 21 -54 10 0 -31 234 -115 276 -98 8 3 14 -1
14 -10 0 -21 -55 -31 -137 -24 -101 8 -193 58 -285 156 -131 140 -209 299
-244 501 -29 169 -2 331 86 505 59 118 129 211 173 230 18 8 27 14 20 15 -6 0
-19 3 -29 7 -13 5 -15 3 -9 -7 5 -9 4 -11 -3 -6 -6 4 -19 -2 -29 -14 -21 -24
-30 -25 -30 -5 0 8 2 13 5 10 9 -8 40 40 34 54 -3 9 -1 12 6 7 7 -4 12 -1 12
6 0 16 21 40 28 33 3 -2 -1 -12 -9 -22z m2101 -59 c0 -7 -5 -16 -12 -20 -8 -5
-9 -2 -5 9 3 9 2 19 -3 22 -6 4 -10 11 -10 17 0 7 6 6 15 -2 8 -7 15 -18 15
-26z m622 4 c-7 -7 -12 -19 -12 -27 0 -13 2 -13 9 -2 6 9 11 10 15 2 4 -6 2
-11 -4 -11 -6 0 -8 -5 -4 -12 5 -9 2 -9 -9 1 -26 20 -21 61 7 61 6 0 5 -5 -2
-12z m1367 -95 c1 -7 -3 -13 -9 -13 -5 0 -10 17 -9 38 1 33 2 34 9 12 4 -14 8
-31 9 -37z m-4179 13 c-17 -22 -32 -9 -19 16 8 14 14 17 22 9 7 -7 6 -15 -3
-25z m-25 -26 c3 -6 -1 -7 -9 -4 -18 7 -21 14 -7 14 6 0 13 -4 16 -10z m145
-26 c0 0 -10 -12 -22 -25 -12 -14 -19 -17 -15 -8 3 9 1 21 -5 27 -6 6 -8 18
-5 26 6 15 9 14 27 -1 11 -10 20 -18 20 -19z m-160 8 c0 -8 -14 -27 -52 -72
-7 -8 -12 -16 -10 -17 1 -2 -9 -26 -23 -54 -13 -29 -22 -56 -19 -60 3 -5 1 -9
-5 -9 -6 0 -13 -11 -17 -25 -3 -14 -10 -25 -15 -25 -11 0 -1 50 12 65 5 5 9
17 9 27 0 10 7 21 16 25 8 3 13 12 10 20 -4 9 -2 11 6 7 8 -5 9 -2 5 10 -4 10
-3 15 3 11 6 -3 10 2 10 12 0 10 15 35 33 55 35 40 37 42 37 30z m4209 -9 c0
-10 -4 -27 -8 -37 -6 -16 -9 -17 -16 -6 -5 9 -4 15 4 18 11 4 11 6 1 12 -7 4
-9 13 -6 19 11 17 26 13 25 -6z m-19 -79 c0 -8 -4 -14 -10 -14 -5 0 -10 9 -10
21 0 11 5 17 10 14 6 -3 10 -13 10 -21z m-2187 -30 c-2 -7 -13 -10 -24 -7 -10
3 -16 9 -13 14 3 5 -1 9 -8 10 -7 0 -4 4 7 8 21 9 45 -7 38 -25z m2178 -3 c-7
-5 -11 -13 -8 -18 3 -5 -1 -22 -9 -37 -7 -16 -14 -36 -15 -45 0 -10 -3 -8 -10
7 -6 17 -5 27 6 38 8 9 15 23 15 33 0 20 9 31 24 31 6 0 5 -4 -3 -9z m-41
-137 c0 -8 -4 -12 -10 -9 -5 3 -10 1 -10 -4 0 -6 5 -11 11 -11 8 0 8 -5 -1
-15 -7 -8 -10 -15 -6 -15 4 0 -1 -11 -10 -25 -9 -14 -18 -33 -19 -43 -6 -47
-19 -82 -31 -82 -8 0 -14 5 -14 10 0 6 5 10 11 10 5 0 8 4 4 10 -3 5 -2 17 3
27 28 53 34 72 27 84 -6 8 -4 10 5 4 10 -6 12 -4 7 8 -7 19 13 78 25 71 4 -3
8 -12 8 -20z m-426 8 c3 -5 -1 -9 -9 -9 -8 0 -12 4 -9 9 3 4 7 8 9 8 2 0 6 -4
9 -8z m-3849 -39 c-4 -10 -8 -25 -9 -33 0 -8 -5 -18 -11 -22 -12 -9 -15 -254
-4 -285 5 -13 4 -25 -1 -28 -9 -6 -14 8 -11 28 1 4 -3 17 -9 27 -7 14 -7 20 0
20 5 0 10 7 10 16 0 8 -5 12 -10 9 -7 -5 -9 28 -4 102 4 59 7 116 7 125 1 9 6
16 11 15 6 -1 11 4 12 11 1 6 2 17 3 22 0 6 6 10 12 10 7 0 8 -7 4 -17z m3928
-93 c40 -72 41 -85 12 -98 -43 -20 -205 -12 -205 9 0 5 22 44 48 87 27 42 52
86 56 96 6 18 9 16 36 -15 16 -19 40 -54 53 -79z m-3622 83 c13 -16 12 -17 -3
-4 -10 7 -18 15 -18 17 0 8 8 3 21 -13z m2624 -12 c3 -5 2 -12 -3 -15 -5 -3
-9 1 -9 9 0 17 3 19 12 6z m-505 -35 c0 -8 15 -37 34 -65 l35 -51 -29 -15
c-37 -19 -37 -20 -43 13 -3 15 -17 43 -30 63 -23 34 -24 38 -9 53 20 20 42 21
42 2z m81 -73 c13 -16 12 -17 -3 -4 -17 13 -22 21 -14 21 2 0 10 -8 17 -17z
m26 -34 c2 -16 -1 -19 -9 -11 -5 5 -7 15 -4 21 10 15 12 14 13 -10z m52 -2 c8
-10 7 -14 -4 -14 -8 0 -11 5 -8 10 4 6 0 8 -10 4 -10 -3 -17 -2 -17 3 0 15 26
12 39 -3z m1423 -5 c-7 -2 -10 -8 -7 -12 3 -5 2 -11 -3 -14 -4 -2 -8 6 -8 19
0 16 4 21 15 17 10 -4 11 -7 3 -10z m-295 -15 c0 -7 -9 -13 -19 -13 -18 0 -18
1 -2 13 10 7 18 13 19 13 1 0 2 -6 2 -13z m487 -24 c-4 -16 -13 -33 -20 -39
-8 -7 -12 -20 -8 -30 5 -17 4 -17 -5 -2 -9 13 -7 27 5 57 18 46 38 55 28 14z
m-42 -119 c-13 -23 -25 -1 -16 28 6 19 7 19 16 5 5 -10 5 -23 0 -33z m-28 -70
c-9 -22 -16 -42 -16 -46 3 -14 -16 -9 -21 5 -3 7 4 24 14 38 10 13 19 33 19
44 0 13 3 16 11 8 7 -7 5 -22 -7 -49z m-4137 -20 c3 -52 -8 -54 -12 -2 -3 28
1 48 8 48 1 0 3 -21 4 -46z m4102 -70 c-7 -9 -14 -21 -15 -28 -14 -67 -19 -75
-35 -59 -7 7 -5 15 6 26 8 9 14 20 13 24 -3 11 33 65 40 59 3 -3 -1 -13 -9
-22z m-4076 -30 c-4 -11 -3 -15 4 -11 13 8 26 -34 14 -46 -5 -5 -12 -3 -16 4
-5 8 -4 10 3 5 7 -4 12 -3 12 3 0 5 -6 14 -12 18 -18 11 -36 46 -31 60 4 10 8
9 19 -1 8 -8 11 -22 7 -32z m37 -78 c0 -3 -4 -8 -10 -11 -5 -3 -10 -1 -10 4 0
6 5 11 10 11 6 0 10 -2 10 -4z m3984 -11 c-4 -8 -10 -15 -15 -15 -4 0 -6 7 -3
15 4 8 10 15 15 15 4 0 6 -7 3 -15z m-3132 -22 c-6 -2 -9 -10 -6 -15 4 -7 2
-8 -5 -4 -13 9 -5 26 12 25 9 0 8 -2 -1 -6z m-823 -33 c11 -24 11 -24 -3 -6
-9 11 -16 24 -16 30 0 12 5 7 19 -24z m3924 -11 c-11 -19 -18 -41 -18 -49 1
-8 -2 -20 -7 -26 -7 -10 57 -125 73 -132 5 -2 5 -10 2 -18 -4 -11 -10 -7 -21
15 -8 17 -19 28 -25 24 -5 -3 -7 -1 -4 4 4 6 -3 19 -14 29 -11 10 -18 23 -15
30 3 8 -1 11 -10 7 -9 -3 -14 1 -14 12 0 14 -3 15 -15 5 -12 -10 -15 -10 -15
0 0 6 9 14 21 17 16 5 18 8 7 15 -9 6 -5 7 11 3 17 -5 21 -4 16 5 -10 17 29
109 42 96 2 -2 -4 -19 -14 -37z m-3893 -34 c0 -8 5 -15 11 -15 6 0 9 -7 5 -15
-3 -8 2 -19 12 -24 9 -6 15 -11 12 -11 -3 -1 -13 -3 -24 -5 -19 -4 -53 -44
-48 -58 1 -5 -7 -20 -18 -34 -11 -14 -17 -30 -13 -36 3 -6 1 -7 -5 -3 -8 5
-13 -1 -14 -16 -2 -42 -3 -45 -18 -62 -12 -15 -12 -19 0 -26 8 -5 12 -11 9
-14 -2 -3 -11 -1 -19 4 -12 8 -13 13 -3 29 9 14 9 21 1 23 -7 3 -6 9 4 19 14
14 33 66 29 82 -1 5 3 6 8 2 6 -3 15 4 21 15 8 15 8 20 -2 20 -8 0 -6 5 5 11
9 6 15 15 11 20 -9 15 15 39 32 32 13 -5 13 -1 0 32 -19 44 -19 45 -6 45 6 0
10 -7 10 -15z m253 -294 c38 -18 95 -38 127 -44 58 -11 58 -11 64 -52 9 -57
64 -179 116 -255 53 -78 139 -172 151 -164 5 3 7 10 4 15 -4 5 2 6 11 2 12 -4
14 -8 6 -11 -10 -3 -10 -7 -2 -17 6 -8 19 -11 27 -8 12 5 15 2 10 -10 -4 -12
-2 -15 11 -11 12 4 11 2 -3 -7 -11 -6 -27 -17 -35 -24 -12 -10 -19 -7 -39 18
-22 27 -23 29 -4 19 23 -13 34 -7 26 15 -4 10 -8 11 -13 4 -4 -7 -27 3 -64 29
-56 40 -76 48 -76 32 0 -16 125 -156 166 -186 21 -17 41 -32 44 -36 22 -25
155 -94 245 -128 79 -29 285 -59 285 -42 0 5 -6 10 -12 13 -7 3 -4 5 7 6 113
4 128 3 136 -10 18 -29 9 -33 -71 -31 -19 1 -64 -1 -99 -4 -47 -4 -60 -9 -52
-17 18 -18 271 -14 358 6 156 36 295 103 473 230 58 41 107 73 109 71 1 -1
-24 -35 -58 -75 -33 -40 -59 -74 -57 -76 2 -2 25 10 52 27 101 62 195 82 279
59 75 -21 108 -71 107 -163 -2 -121 -103 -268 -254 -367 -50 -32 -94 -59 -99
-59 -5 0 -9 -5 -9 -10 0 -6 23 -9 55 -8 42 2 54 6 50 17 -6 16 39 61 61 61 8
0 13 4 10 9 -3 5 8 14 24 21 17 7 30 18 30 24 0 6 16 22 35 36 19 14 35 33 35
43 0 9 5 17 11 17 5 0 8 3 5 8 -8 13 19 41 33 33 10 -6 6 -15 -13 -34 -14 -14
-26 -33 -26 -42 0 -8 -7 -15 -16 -15 -8 0 -13 -4 -10 -9 3 -5 -1 -14 -10 -21
-8 -7 -13 -19 -10 -27 3 -7 1 -13 -4 -13 -5 0 -7 -6 -4 -13 3 -8 -16 -36 -43
-63 -26 -27 -43 -43 -39 -36 7 11 -52 -23 -81 -48 -7 -6 -13 -8 -13 -4 0 4 -8
-1 -19 -10 -17 -15 -19 -15 -25 -1 -3 9 -2 13 4 10 6 -3 10 -1 10 5 0 6 5 8
10 5 6 -3 10 -1 10 5 0 6 5 8 10 5 6 -3 10 -2 10 4 0 5 10 11 23 13 l22 3 -22
7 c-14 4 -37 -2 -60 -13 -118 -61 -308 -107 -473 -115 -58 -3 -112 -8 -120
-11 -20 -6 42 -38 93 -47 20 -4 37 -11 37 -16 0 -12 -280 -4 -380 10 -197 28
-411 105 -570 205 -43 27 -50 29 -50 17 0 -14 121 -131 141 -137 11 -4 17 -11
14 -16 -4 -5 -1 -9 4 -9 15 0 14 27 -1 34 -7 3 3 3 22 0 19 -3 39 -10 45 -15
5 -5 17 -9 27 -9 10 0 27 -9 38 -20 11 -11 26 -20 33 -20 8 0 7 4 -3 11 -12 9
-12 10 3 5 10 -3 23 -6 28 -6 6 0 7 -5 4 -11 -4 -6 -1 -9 6 -8 24 4 89 -13 89
-23 0 -5 8 -8 18 -7 34 3 53 -1 47 -11 -3 -5 -1 -10 4 -10 6 0 11 5 11 10 0 6
4 10 10 10 5 0 7 -7 3 -16 -4 -11 -12 -14 -27 -9 -61 19 -93 27 -108 28 -10 1
-18 4 -18 8 0 3 -18 9 -39 13 -22 3 -47 9 -57 13 -12 4 -15 3 -10 -5 4 -7 1
-12 -8 -12 -8 0 -16 -5 -18 -12 -3 -7 -11 -9 -24 -3 -10 4 -28 10 -39 12 -11
2 -23 10 -28 18 -4 9 -20 14 -35 13 -34 -2 -72 10 -72 23 0 6 -5 7 -12 3 -7
-4 -8 -3 -4 4 7 12 36 5 36 -9 0 -4 7 -6 15 -3 8 4 15 1 15 -5 0 -6 7 -8 15
-5 25 10 17 20 -37 45 -204 93 -407 287 -531 503 l-29 51 6 -37 c4 -30 23 -81
54 -140 2 -5 -1 -8 -7 -8 -16 0 -116 156 -153 237 -42 92 -75 211 -89 313 -6
47 -14 92 -17 100 -9 27 -20 -41 -21 -139 0 -52 -4 -92 -7 -89 -17 18 -37 146
-38 243 -1 89 3 124 22 184 13 40 21 75 19 78 -7 6 -55 -79 -62 -110 -7 -25
-25 -38 -25 -19 0 23 41 165 55 192 21 40 10 53 -16 20 -10 -14 -23 -30 -27
-35 -5 -6 -9 -17 -9 -25 0 -13 -13 -68 -30 -124 -4 -13 -1 -16 7 -11 9 6 11 4
6 -4 -5 -7 -1 -17 9 -25 12 -9 17 -31 19 -89 2 -42 -1 -74 -6 -71 -4 3 -6 10
-3 15 4 5 1 9 -4 9 -6 0 -11 7 -11 15 0 8 5 15 11 15 5 0 7 5 4 11 -5 6 -12 4
-20 -7 -11 -16 -13 -15 -18 12 -4 16 -6 74 -6 129 0 55 -2 110 -5 122 -2 13
-1 25 5 28 5 4 9 1 9 -5 0 -32 26 5 49 70 15 41 38 98 51 125 l25 50 85 -85
c62 -63 103 -95 153 -119z m3487 187 c0 -6 -3 -8 -7 -5 -3 4 -12 -1 -20 -11
-13 -15 -13 -15 -3 6 11 23 30 30 30 10z m-163 -54 c-3 -3 -12 -4 -19 -1 -8 3
-5 6 6 6 11 1 17 -2 13 -5z m-54 -30 c-7 -19 -10 -18 -16 5 -3 13 -1 18 9 14
7 -2 10 -11 7 -19z m462 -74 c-3 -5 -1 -11 5 -15 5 -3 10 0 10 7 1 8 6 6 15
-6 18 -24 19 -40 3 -30 -7 4 -3 -3 9 -15 31 -29 55 -79 47 -93 -5 -7 -2 -9 9
-5 11 4 14 2 10 -9 -3 -7 0 -14 6 -14 9 0 38 -53 47 -85 1 -5 5 -18 9 -27 4
-10 3 -18 -3 -18 -10 0 -26 38 -22 55 1 5 -6 15 -15 21 -9 7 -17 19 -19 26 -1
8 -12 27 -24 42 -12 16 -23 35 -23 42 -3 26 -4 29 -24 51 -27 29 -60 76 -61
88 -1 6 -2 16 -3 23 0 7 -5 10 -11 7 -6 -3 -7 1 -4 10 5 13 10 10 25 -15 11
-17 17 -35 14 -40z m-3285 56 c0 -2 -7 -7 -16 -10 -8 -3 -12 -2 -9 4 6 10 25
14 25 6z m150 -41 c47 -8 152 -30 234 -50 83 -19 227 -44 320 -56 168 -20 171
-21 199 -52 15 -17 42 -61 60 -97 17 -36 35 -66 40 -68 11 -5 8 -30 -5 -38 -7
-4 -8 -3 -4 4 4 7 2 12 -3 12 -6 0 -10 4 -8 9 4 14 -63 91 -80 91 -15 0 -15
-1 0 -18 44 -48 113 -249 79 -228 -7 4 -12 11 -12 17 0 14 -64 109 -74 109 -4
0 -5 -8 -1 -17 4 -10 19 -61 32 -113 20 -79 23 -111 20 -190 -3 -57 -13 -115
-24 -144 -20 -54 -26 -58 -118 -70 -48 -6 -49 -5 -27 10 12 9 22 20 22 24 0 4
-66 10 -147 13 -171 7 -303 36 -420 91 -89 43 -195 114 -188 126 4 6 14 5 25
-2 14 -9 22 -9 34 1 9 8 16 17 16 22 0 5 -44 53 -98 106 -110 111 -160 181
-207 291 -52 121 -52 122 -15 122 41 0 89 26 99 54 6 14 23 27 50 34 22 7 43
17 47 23 4 7 19 8 38 4 17 -3 69 -13 116 -20z m2343 9 c-3 -8 -7 -14 -10 -14
-2 0 -11 6 -18 14 -12 11 -10 14 10 14 16 0 22 -5 18 -14z m-580 -41 c-7 -2
-19 -2 -25 0 -7 3 -2 5 12 5 14 0 19 -2 13 -5z m-27 -120 c4 -45 10 -81 13
-79 3 2 6 -9 6 -24 0 -15 -3 -26 -7 -24 -3 2 -8 -1 -10 -7 -2 -7 -4 3 -4 22
-1 40 -22 119 -32 119 -4 0 -7 -61 -7 -135 0 -142 -12 -187 -33 -125 -13 36
-32 32 -32 -7 0 -34 -26 -132 -49 -187 -19 -43 -20 -44 -54 -37 -33 8 -125 0
-160 -15 -17 -6 -18 -5 -6 13 16 27 5 53 -24 53 -13 0 -58 -21 -100 -47 -41
-27 -115 -73 -164 -103 -80 -51 -251 -135 -259 -127 -2 1 4 23 12 47 10 28 16
82 17 143 0 53 4 97 8 97 37 0 51 98 25 172 -12 33 -11 37 5 41 11 3 19 14 19
27 0 30 -54 140 -85 174 -14 15 -25 28 -25 29 0 1 77 0 171 -1 95 -2 231 1
303 7 137 12 370 44 421 60 17 4 33 6 37 2 4 -3 10 -43 14 -88z m-2119 71 c-3
-3 -12 -4 -19 -1 -8 3 -5 6 6 6 11 1 17 -2 13 -5z m1138 -24 c3 -6 -1 -7 -9
-4 -18 7 -21 14 -7 14 6 0 13 -4 16 -10z m17 -22 c-8 -8 -9 -4 -5 13 4 13 8
18 11 10 2 -7 -1 -18 -6 -23z m2562 -220 c-3 -5 2 -11 10 -14 9 -3 16 -10 16
-16 0 -5 -4 -6 -10 -3 -5 3 -10 1 -10 -4 0 -6 4 -11 9 -11 5 0 14 -14 20 -32
6 -17 18 -39 27 -49 13 -15 13 -17 -2 -23 -20 -8 -36 12 -29 33 3 8 1 17 -5
21 -6 4 -12 13 -13 21 -2 8 -12 31 -24 51 -15 26 -18 39 -10 47 12 12 30 -6
21 -21z m-1678 -140 c-19 -26 -20 -20 -5 19 6 15 13 22 16 16 2 -7 -3 -23 -11
-35z m38 27 c3 -8 1 -15 -4 -15 -6 0 -10 7 -10 15 0 8 2 15 4 15 2 0 6 -7 10
-15z m-2584 -110 c12 -33 23 -70 24 -82 1 -21 2 -21 28 7 23 25 27 27 33 12 8
-21 16 -58 18 -93 1 -15 4 -25 6 -23 3 2 11 -10 18 -27 7 -18 11 -34 8 -37 -3
-3 -5 0 -5 7 0 7 -4 9 -10 6 -5 -3 -10 0 -10 7 0 15 -29 41 -51 46 -23 6 -39
23 -39 44 0 10 -9 36 -20 57 -11 23 -17 50 -14 66 3 18 1 24 -7 19 -7 -4 -10
-2 -7 7 3 8 1 25 -4 39 -6 16 -6 21 0 15 5 -5 20 -37 32 -70z m1754 69 c-7 -3
-10 -14 -7 -25 4 -15 2 -18 -12 -12 -12 4 -16 3 -11 -5 3 -6 3 -13 -2 -16 -5
-3 -9 0 -9 7 0 7 -4 21 -9 32 -7 17 -6 18 8 7 13 -10 17 -10 22 3 3 8 11 15
18 14 9 0 9 -2 2 -5z m2565 -46 c18 -42 26 -112 13 -104 -6 3 -8 16 -4 28 3
14 2 19 -6 14 -7 -4 -13 -1 -14 6 0 7 -2 18 -2 23 -1 6 -4 15 -7 20 -15 26
-18 45 -6 45 7 0 19 -15 26 -32z m-3569 -90 c0 -6 -6 -5 -15 2 -8 7 -15 14
-15 16 0 2 7 1 15 -2 8 -4 15 -11 15 -16z m1480 16 c0 -8 -19 -13 -24 -6 -3 5
1 9 9 9 8 0 15 -2 15 -3z m2141 -58 c12 -13 11 -26 -1 -26 -5 0 -10 7 -10 15
0 8 -8 15 -17 16 -11 0 -13 3 -5 6 6 2 13 12 13 21 1 13 3 12 6 -3 3 -11 9
-24 14 -29z m-1884 -7 c3 -19 10 -28 19 -25 18 7 59 -73 45 -87 -11 -11 -16 2
-12 32 2 8 -3 10 -11 5 -7 -4 -10 -4 -6 1 4 4 -4 16 -17 27 -14 11 -25 26 -25
35 0 10 -6 14 -20 10 -17 -4 -18 -2 -9 14 14 28 29 23 36 -12z m-247 11 c-8
-5 -22 -10 -30 -10 -13 0 -13 1 0 10 8 5 22 10 30 10 13 0 13 -1 0 -10z m2150
-65 c0 -14 -5 -25 -11 -25 -5 0 -8 4 -4 9 3 5 1 12 -5 16 -15 9 -12 25 5 25 9
0 15 -9 15 -25z m22 -74 c-3 -8 -1 -12 4 -8 6 3 11 -4 11 -16 2 -21 1 -21 -17
3 -10 13 -16 28 -14 32 2 3 -1 10 -7 14 -8 4 -7 9 2 15 16 9 30 -17 21 -40z
m-1846 -74 c-3 -23 -7 -48 -8 -54 -1 -7 -6 -13 -11 -13 -5 0 -7 -9 -4 -19 3
-14 1 -18 -9 -14 -11 4 -10 12 5 41 19 37 20 80 5 117 -8 19 -7 19 10 2 14
-14 17 -27 12 -60z m-2398 25 c23 -47 24 -52 12 -52 -6 0 -8 5 -5 10 3 6 2 10
-4 10 -6 0 -13 11 -17 25 -3 14 -10 22 -15 19 -5 -3 -9 2 -9 10 0 23 23 10 38
-22z m4266 -13 c-8 -13 -21 -11 -27 5 -4 10 0 12 14 9 10 -3 16 -9 13 -14z
m-3167 5 c-3 -3 -12 -4 -19 -1 -8 3 -5 6 6 6 11 1 17 -2 13 -5z m429 -6 c4 -6
3 -8 -3 -5 -6 4 -14 0 -17 -9 -4 -9 -9 -14 -13 -11 -3 4 0 13 7 22 15 18 17
18 26 3z m2751 -28 c-3 -12 -1 -18 5 -14 6 4 8 -2 3 -16 -5 -17 -4 -21 6 -15
8 5 11 5 7 0 -4 -4 -3 -14 3 -22 9 -10 8 -13 -2 -13 -9 0 -10 -3 -3 -8 19 -12
37 -55 36 -84 0 -15 4 -30 9 -33 5 -4 9 -17 9 -31 0 -13 5 -24 10 -24 6 0 10
-5 10 -11 0 -5 -4 -7 -10 -4 -5 3 -10 1 -10 -5 0 -6 7 -13 15 -16 20 -8 19
-21 -2 -42 -16 -16 -16 -16 -10 2 4 10 4 24 -1 30 -12 15 -36 125 -34 156 0
16 -1 19 -4 7 -3 -9 -10 -15 -15 -11 -5 3 -7 9 -4 14 3 5 -1 25 -9 45 -8 19
-13 35 -11 35 2 0 -2 15 -10 34 -11 27 -12 36 -2 39 19 8 20 8 14 -13z m-4240
-33 c-5 -14 18 -39 27 -29 4 3 4 -2 0 -12 -6 -16 -9 -15 -29 11 -23 28 -24 43
-3 43 5 0 8 -6 5 -13z m2317 -81 c-3 -9 -10 -13 -15 -10 -5 3 -3 11 4 19 15
16 19 13 11 -9z m-2254 -8 c5 -13 9 -19 9 -14 1 6 10 0 22 -13 17 -18 23 -20
35 -10 13 10 20 8 39 -13 13 -14 21 -28 19 -31 -3 -3 8 -16 25 -28 24 -17 30
-28 25 -43 -6 -18 -5 -19 10 -7 9 8 16 9 16 3 0 -23 -23 -23 -59 2 -20 14 -42
26 -48 26 -6 0 -23 18 -38 40 -15 22 -31 40 -36 40 -5 0 -5 8 -2 18 6 15 5 16
-12 2 -11 -9 -16 -10 -11 -2 4 7 2 12 -4 12 -7 0 -10 6 -7 14 4 9 -1 17 -11
19 -15 4 -15 5 1 6 10 0 22 -9 27 -21z m232 -193 c-2 -4 9 -16 25 -26 15 -10
24 -19 19 -19 -5 0 10 -13 32 -30 23 -16 46 -30 50 -30 12 0 55 -51 48 -57 -2
-3 -10 4 -17 15 -7 12 -19 18 -27 14 -11 -4 -13 -1 -7 8 6 10 4 12 -9 7 -10
-4 -19 -1 -22 8 -4 8 -11 12 -18 8 -6 -3 -8 -3 -4 2 8 8 -28 45 -44 45 -5 0
-6 6 -3 13 4 6 -10 -6 -30 -28 -22 -24 -34 -46 -31 -57 2 -10 0 -16 -4 -13 -5
3 -11 1 -15 -5 -3 -5 -2 -10 3 -10 6 0 8 -9 5 -21 -3 -12 -9 -17 -15 -11 -12
12 2 93 15 85 7 -4 8 0 3 12 -4 10 0 28 9 41 9 14 11 24 5 24 -6 0 -8 5 -5 10
3 6 1 10 -5 10 -6 0 -8 4 -5 10 7 11 52 7 47 -5z m4058 -46 c0 -5 -4 -9 -10
-9 -5 0 -10 7 -10 16 0 8 5 12 10 9 6 -3 10 -10 10 -16z m17 -34 c4 -4 3 -5
-3 -2 -8 5 -11 -2 -10 -17 0 -13 4 -22 8 -20 4 2 10 -5 13 -17 5 -14 2 -25 -6
-30 -11 -7 -10 -9 5 -9 13 0 17 -5 13 -20 -3 -11 -1 -23 4 -26 5 -3 9 -11 8
-17 -2 -12 -1 -17 20 -77 18 -50 22 -100 8 -100 -8 0 -9 -3 -2 -8 16 -10 39
-88 31 -101 -9 -15 -22 -6 -29 18 -3 15 -1 18 12 14 14 -4 14 -3 -1 9 -9 8
-18 27 -21 44 -2 16 -6 36 -10 44 -11 31 -15 60 -6 54 5 -3 9 2 9 11 0 10 -6
15 -12 12 -8 -3 -13 5 -14 22 -1 14 -7 46 -14 71 -6 25 -13 53 -15 63 -2 9 -6
21 -10 26 -3 5 -7 23 -9 39 -3 29 12 38 31 17z m-3847 -101 c0 -2 -9 0 -20 6
-11 6 -20 13 -20 16 0 2 9 0 20 -6 11 -6 20 -13 20 -16z m1426 -3 c-22 -25
-53 -33 -60 -15 -3 8 0 11 10 7 7 -3 14 0 14 6 0 6 6 8 14 5 8 -3 17 -1 21 5
3 6 9 11 12 11 3 0 -2 -9 -11 -19z m-1399 -15 c0 -8 -6 -12 -14 -9 -7 3 -10 9
-7 14 8 14 21 11 21 -5z m-325 -25 c-7 -4 -12 -12 -11 -17 5 -16 -12 -74 -22
-74 -5 0 -9 -5 -9 -11 0 -6 6 -7 13 -2 6 4 4 -5 -5 -20 -20 -29 -23 -41 -9
-33 5 3 3 -15 -5 -40 -7 -26 -12 -50 -9 -54 3 -5 -4 -6 -15 -3 -24 6 -27 23
-4 23 11 0 15 8 13 28 -4 33 10 103 23 119 5 6 8 17 7 25 -2 13 10 66 19 81 2
5 9 4 16 -3 8 -8 8 -13 -2 -19z m1648 6 c0 -8 -3 -7 -9 2 -7 11 -11 10 -19 -5
-6 -10 -13 -16 -17 -13 -9 9 25 40 36 34 5 -4 9 -12 9 -18z m-60 -7 c0 -5 -12
-10 -26 -10 -16 0 -23 -4 -18 -12 4 -7 3 -8 -4 -4 -14 8 -36 -30 -26 -46 5 -7
2 -9 -9 -5 -9 3 -17 3 -19 -1 -2 -4 -22 -15 -46 -24 -27 -10 -40 -12 -35 -5 5
9 2 8 -8 0 -9 -7 -29 -12 -45 -11 -16 1 -37 -2 -46 -6 -11 -5 -18 -4 -18 2 0
6 9 14 21 17 21 7 21 16 4 58 -6 13 -3 16 9 11 16 -6 94 6 206 32 30 7 56 13
58 13 1 1 2 -3 2 -9z m-685 -100 c-3 -5 -10 -10 -16 -10 -5 0 -9 5 -9 10 0 6
7 10 16 10 8 0 12 -4 9 -10z m45 -10 c0 -5 -9 -10 -21 -10 -11 0 -17 5 -14 10
3 6 13 10 21 10 8 0 14 -4 14 -10z m97 -2 c7 -6 21 -8 32 -5 10 2 25 1 32 -4
9 -5 -9 -9 -46 -9 -45 0 -56 3 -45 11 11 8 7 9 -17 4 -17 -3 -33 -2 -36 2 -8
13 66 13 80 1z m193 -10 c0 -5 -22 -8 -50 -7 -65 3 -65 14 0 15 28 0 50 -3 50
-8z m30 2 c0 -5 -4 -10 -10 -10 -5 0 -10 5 -10 10 0 6 5 10 10 10 6 0 10 -4
10 -10z m-1330 -154 c0 -3 -5 -17 -12 -33 -6 -15 -13 -41 -14 -58 -1 -16 -3
-31 -3 -32 -1 -2 0 -5 2 -6 1 -2 -4 -11 -12 -20 -7 -9 -11 -24 -7 -32 3 -8 2
-15 -3 -15 -4 0 -6 -12 -4 -27 4 -22 2 -25 -6 -13 -6 9 -8 30 -4 50 4 19 6 43
5 53 0 9 4 17 9 17 6 0 8 4 5 9 -8 12 24 111 36 111 4 0 8 -2 8 -4z m4312
-120 c-1 -22 3 -43 8 -46 10 -6 14 -49 10 -105 -2 -34 -26 85 -35 175 -5 45
-3 51 6 36 7 -11 11 -38 11 -60z m-4372 -156 c0 -10 -5 -22 -11 -26 -8 -4 -7
-9 2 -15 10 -6 11 -9 2 -9 -9 0 -13 -15 -13 -43 0 -32 -4 -44 -15 -44 -9 0
-11 4 -6 11 5 6 7 21 5 34 -2 12 3 38 11 58 8 19 11 42 8 51 -4 11 -3 14 5 9
7 -4 12 -16 12 -26z"/>
<path d="M4380 9060 c0 -5 11 -10 24 -10 45 0 151 -39 227 -84 87 -51 216
-169 297 -270 264 -330 439 -837 443 -1281 1 -91 3 -110 10 -80 22 108 -1 404
-45 590 -73 303 -200 575 -365 780 -113 141 -216 227 -359 299 -103 52 -232
83 -232 56z"/>
<path d="M3777 8769 c-403 -26 -823 -194 -1177 -472 -143 -112 -358 -342 -432
-462 -28 -46 -21 -63 8 -19 84 125 268 313 414 424 296 224 664 396 1014 474
104 23 262 45 335 46 13 0 22 2 20 4 -12 10 -76 12 -182 5z"/>
<path d="M4260 8732 c0 -33 52 -249 79 -332 18 -52 63 -158 101 -235 148 -300
320 -518 569 -722 63 -51 119 -93 123 -93 18 0 6 16 -31 42 -110 78 -314 301
-433 473 -158 228 -294 510 -367 763 -28 98 -41 131 -41 104z"/>
<path d="M3887 8397 c-195 -201 -422 -374 -695 -531 -117 -67 -291 -154 -369
-186 -18 -7 -33 -16 -33 -21 0 -5 21 0 48 10 26 10 83 33 127 51 259 103 541
281 771 488 68 60 280 287 297 318 20 36 -18 2 -146 -129z"/>
<path d="M4675 7950 c3 -5 8 -10 11 -10 2 0 4 5 4 10 0 6 -5 10 -11 10 -5 0
-7 -4 -4 -10z"/>
<path d="M2990 7840 c-9 -6 -10 -10 -3 -10 6 0 15 5 18 10 8 12 4 12 -15 0z"/>
<path d="M5528 6284 c-4 -3 -2 -20 3 -37 18 -63 39 -250 39 -349 0 -184 -43
-393 -110 -537 -29 -61 -93 -158 -115 -173 -7 -5 -7 -8 1 -8 28 0 133 150 176
251 59 140 73 225 73 439 0 181 -2 203 -29 308 -15 61 -29 112 -30 112 -2 0
-5 -3 -8 -6z"/>
<path d="M5430 8361 c0 -6 4 -13 10 -16 6 -3 7 1 4 9 -7 18 -14 21 -14 7z"/>
<path d="M4029 8003 c-13 -16 -12 -17 4 -4 16 13 21 21 13 21 -2 0 -10 -8 -17
-17z"/>
<path d="M3690 7846 c0 -2 8 -10 18 -17 15 -13 16 -12 3 4 -13 16 -21 21 -21
13z"/>
<path d="M4020 7527 c-67 -16 -86 -26 -125 -67 l-30 -33 30 6 c99 20 189 28
254 22 132 -11 268 -50 349 -98 85 -50 19 26 -82 93 -105 72 -276 105 -396 77z
m165 -28 c33 -1 69 -8 80 -15 19 -14 18 -14 -7 -12 -15 1 -25 5 -23 8 2 3 -30
5 -71 4 -41 -1 -74 3 -74 8 0 5 -10 6 -22 3 -18 -5 -20 -4 -8 4 8 6 26 9 40 6
14 -3 52 -6 85 -6z m-162 -6 c-7 -2 -19 -2 -25 0 -7 3 -2 5 12 5 14 0 19 -2
13 -5z m307 -37 c0 -2 -9 -2 -20 1 -11 3 -20 9 -20 15 0 5 9 4 20 -2 11 -6 20
-12 20 -14z"/>
<path d="M3865 7470 c-21 -22 -36 -43 -32 -46 4 -4 8 -5 10 -3 1 2 17 21 36
41 47 51 34 58 -14 8z"/>
<path d="M2810 7347 c0 -2 14 -16 30 -32 33 -32 42 -17 10 15 -17 17 -40 27
-40 17z"/>
<path d="M2625 7334 c-53 -13 -144 -49 -174 -70 -74 -50 -181 -169 -181 -201
0 -7 31 13 69 44 37 32 98 73 134 91 76 37 206 72 274 74 43 1 45 2 27 16 -18
14 -17 14 11 9 17 -3 38 -9 48 -12 27 -11 20 11 -10 31 -28 17 -152 29 -198
18z m57 -31 c-23 -2 -40 -7 -38 -12 3 -4 -5 -8 -16 -8 -20 -2 -20 -1 -2 12 11
8 37 14 59 13 l40 -1 -43 -4z m-82 -16 c0 -8 -7 -14 -15 -14 -25 0 -17 17 13
26 1 1 2 -5 2 -12z m-54 -22 c-11 -8 -27 -15 -35 -15 -13 1 -12 4 3 15 11 8
27 15 35 15 13 -1 12 -4 -3 -15z m-56 -25 c0 -5 -8 -10 -17 -10 -15 0 -16 2
-3 10 19 12 20 12 20 0z"/>
<path d="M4077 7170 c-77 -20 -150 -69 -197 -133 -16 -22 -28 -42 -26 -44 2
-2 27 21 56 51 73 77 140 107 252 114 74 4 97 1 149 -17 74 -28 91 -20 23 11
-55 24 -192 34 -257 18z"/>
<path d="M4399 7163 c-13 -16 -12 -17 4 -4 9 7 17 15 17 17 0 8 -8 3 -21 -13z"/>
<path d="M3930 7159 c0 -5 5 -7 10 -4 6 3 10 8 10 11 0 2 -4 4 -10 4 -5 0 -10
-5 -10 -11z"/>
<path d="M4409 7124 c-7 -8 -26 -22 -42 -31 -27 -13 -34 -13 -76 4 -33 13 -72
18 -136 18 -78 0 -97 -4 -140 -27 -97 -52 -151 -123 -181 -238 -18 -69 -14
-172 6 -211 17 -30 21 -18 9 24 -6 21 -9 54 -7 75 l3 37 17 -55 c23 -75 75
-132 152 -170 53 -26 75 -31 137 -32 121 0 216 56 274 163 23 43 30 69 33 135
4 80 4 81 32 81 34 0 100 39 100 60 0 14 -2 14 -18 0 -27 -24 -103 -22 -133 3
-23 19 -23 19 -4 20 24 0 102 48 109 67 7 17 -9 17 -37 -1 -12 -7 -43 -16 -68
-19 -40 -5 -49 -3 -67 18 -20 23 -20 24 -2 30 24 8 70 44 70 56 0 14 -16 11
-31 -7z m-170 -48 c12 -8 13 -8 7 2 -4 6 -2 12 3 12 6 0 11 -7 11 -15 0 -8 -5
-15 -12 -15 -6 0 -3 -7 8 -15 21 -16 14 -19 -39 -15 -36 2 -77 -25 -77 -51 0
-11 -4 -18 -9 -15 -5 4 -8 -2 -6 -11 2 -10 4 -29 5 -43 1 -14 4 -20 7 -13 3
10 7 10 18 0 7 -7 11 -15 9 -19 -5 -7 19 -15 66 -22 14 -2 31 4 38 13 10 12
12 12 6 1 -5 -10 0 -9 14 4 12 11 22 24 22 30 0 6 -5 4 -10 -4 -5 -8 -10 -10
-10 -5 0 6 4 16 8 23 6 9 14 0 25 -28 9 -23 11 -37 5 -33 -7 4 -9 0 -5 -10 4
-10 2 -27 -2 -40 -12 -29 -23 -61 -21 -65 2 -7 -56 -59 -62 -55 -5 2 -8 0 -8
-5 0 -5 -10 -13 -22 -17 -32 -11 -129 -14 -123 -5 3 4 -11 11 -30 14 -20 4
-33 11 -30 17 4 5 -1 9 -9 9 -9 0 -16 6 -16 13 -1 6 -11 25 -24 41 -14 16 -22
35 -19 43 3 7 0 13 -6 13 -6 0 -11 8 -11 18 0 14 2 15 10 2 6 -10 8 -3 3 23
-4 25 -2 37 6 37 7 0 9 9 5 24 -4 16 -1 25 11 30 11 4 14 12 10 27 -17 51 -6
79 30 79 9 0 13 4 10 10 -3 6 1 7 10 4 9 -4 23 0 33 9 28 25 141 28 171 3z
m41 -16 c0 -5 -5 -10 -11 -10 -5 0 -7 5 -4 10 3 6 8 10 11 10 2 0 4 -4 4 -10z
m46 -47 c19 -14 47 -47 62 -72 22 -38 27 -58 27 -116 0 -60 -5 -78 -31 -125
-78 -138 -234 -188 -372 -119 -66 33 -94 63 -117 130 -30 85 -15 183 40 255
16 20 21 35 14 43 -5 6 -1 4 8 -4 15 -13 15 -18 5 -33 -44 -60 -53 -127 -27
-203 37 -108 151 -169 260 -139 97 27 175 148 160 248 -8 51 -35 111 -59 131
-16 13 -22 31 -10 31 3 0 21 -12 40 -27z m-68 -29 c31 -21 30 -69 -3 -90 -42
-27 -95 4 -95 56 0 47 54 65 98 34z m181 -58 c7 -8 8 -17 3 -20 -6 -3 -12 3
-15 14 -6 24 -4 25 12 6z"/>
<path d="M3840 7086 c0 -2 8 -10 18 -17 15 -13 16 -12 3 4 -13 16 -21 21 -21
13z"/>
<path d="M5122 7019 c-36 -24 -89 -111 -127 -213 -27 -73 -27 -90 3 -63 25 22
49 21 62 -2 23 -44 4 -108 -48 -163 -32 -34 -21 -49 16 -21 65 48 93 127 68
187 -12 28 -21 36 -40 36 -15 0 -26 5 -26 10 0 22 83 173 107 196 48 45 93 24
115 -52 13 -46 23 -29 13 23 -14 75 -78 103 -143 62z"/>
<path d="M2663 6989 c-53 -10 -142 -50 -126 -56 6 -2 24 2 40 10 47 25 141 39
202 32 58 -7 152 -44 183 -72 10 -9 21 -13 24 -10 18 18 -99 82 -176 97 -60
11 -87 11 -147 -1z"/>
<path d="M2480 6936 c0 -8 13 -25 29 -37 l30 -22 -27 -34 c-24 -31 -31 -34
-65 -30 -21 3 -46 12 -56 21 -10 9 -24 16 -31 16 -26 0 33 -50 72 -62 27 -8
37 -16 33 -26 -3 -7 -5 -17 -5 -21 0 -11 -68 -31 -120 -34 -45 -3 -45 -3 -17
-15 16 -7 50 -12 76 -12 l48 0 6 -51 c12 -102 82 -205 166 -245 20 -10 69 -19
113 -22 70 -4 82 -2 140 26 103 50 163 121 174 204 9 66 24 50 25 -25 0 -52 2
-58 10 -37 15 36 -6 163 -36 226 -33 67 -97 130 -165 163 -46 22 -68 26 -135
25 -75 -1 -107 -9 -187 -52 -3 -1 -22 11 -42 29 -26 22 -36 27 -36 15z m350
-28 c0 -5 7 -8 15 -8 8 0 15 -6 16 -12 0 -10 2 -10 6 -1 6 15 43 -1 43 -19 0
-6 -6 -5 -17 3 -9 8 -14 9 -10 3 4 -7 0 -14 -8 -18 -8 -3 -15 0 -15 6 0 6 -3
8 -7 5 -3 -4 -12 -2 -20 4 -10 9 -13 8 -13 0 0 -7 -4 -10 -9 -6 -5 3 -18 -6
-29 -20 -11 -13 -21 -23 -23 -20 -3 2 -5 -14 -5 -35 -1 -25 2 -37 9 -33 7 4 8
-1 3 -13 -4 -10 -4 -15 0 -11 4 3 14 -2 23 -12 21 -24 76 -22 94 3 8 11 19 15
30 10 28 -10 20 -158 -8 -154 -6 0 -11 -8 -13 -19 -2 -10 -13 -27 -25 -37 -19
-17 -20 -17 -8 -1 12 15 12 17 -2 11 -9 -3 -19 -14 -22 -25 -4 -10 -11 -19
-16 -19 -6 0 -7 5 -4 10 3 6 1 10 -4 10 -6 0 -11 -4 -11 -9 0 -16 -100 -7
-111 10 -5 7 -9 10 -9 5 0 -5 -10 -1 -22 10 -14 13 -19 14 -14 4 4 -8 1 -6 -8
5 -8 11 -20 26 -26 33 -6 6 -8 12 -5 12 4 0 -3 16 -15 36 -19 30 -22 45 -17
96 3 40 11 64 22 72 12 9 15 19 11 34 -11 33 -19 27 -43 -33 -38 -92 -26 -174
34 -244 101 -119 265 -104 338 30 38 70 33 154 -13 228 -17 28 -29 51 -26 51
20 0 87 -69 108 -112 34 -68 34 -132 1 -197 -98 -194 -379 -199 -475 -8 -47
95 -40 183 22 275 26 38 27 47 6 43 -15 -2 -8 8 14 20 18 10 20 9 14 -7 -5
-17 -5 -17 7 -3 6 9 22 19 35 23 12 4 22 12 22 18 0 6 9 8 20 5 11 -3 17 -1
14 4 -3 6 24 9 70 7 42 -2 76 -6 76 -10z m40 -90 c25 -27 25 -43 0 -68 -24
-24 -38 -25 -68 -4 -24 17 -30 62 -10 82 19 19 55 14 78 -10z m-365 -27 c3 -5
2 -12 -3 -15 -5 -3 -9 1 -9 9 0 17 3 19 12 6z m-29 -97 c1 -9 0 -13 -4 -10 -3
4 -7 14 -8 22 -1 9 0 13 4 10 3 -4 7 -14 8 -22z"/>
<path d="M2450 6865 c-13 -14 -19 -25 -13 -25 5 0 20 11 33 25 13 14 19 25 13
25 -5 0 -20 -11 -33 -25z"/>
<path d="M3378 6391 c-81 -26 -127 -83 -113 -138 10 -41 31 -60 86 -78 71 -24
96 -14 34 14 -90 40 -114 80 -79 129 28 41 72 56 162 56 50 0 79 3 73 9 -13
13 -130 18 -163 8z"/>
<path d="M3550 6237 c-32 -15 -65 -45 -58 -53 4 -3 28 4 54 15 27 12 56 19 67
15 16 -5 19 -3 14 11 -4 9 -7 19 -7 21 0 8 -46 2 -70 -9z"/>
<path d="M3880 6119 c0 -8 5 -20 12 -27 8 -8 5 -16 -13 -31 -118 -100 -276
-151 -466 -151 -99 0 -169 13 -245 47 -52 23 -74 43 -48 43 6 0 10 7 10 15 0
8 -1 15 -3 15 -2 0 -25 -20 -51 -45 -48 -44 -48 -60 -1 -29 22 14 26 14 52 -5
15 -11 57 -33 93 -48 61 -26 73 -28 215 -28 137 1 156 3 223 27 86 31 168 78
223 129 l39 36 31 -19 c17 -10 36 -17 42 -15 7 2 -2 12 -18 22 -17 10 -45 32
-62 49 -23 20 -33 25 -33 15z"/>
<path d="M3066 6043 c-6 -14 -5 -15 5 -6 7 7 10 15 7 18 -3 3 -9 -2 -12 -12z"/>
<path d="M3665 5811 c-13 -22 -112 -44 -194 -44 -85 1 -93 -5 -32 -26 49 -16
127 -14 164 6 43 22 87 55 87 65 0 11 -17 10 -25 -1z"/>
<path d="M2468 5753 c7 -3 16 -2 19 1 4 3 -2 6 -13 5 -11 0 -14 -3 -6 -6z"/>
<path d="M2304 5553 c-33 -6 -104 -72 -104 -95 0 -19 2 -20 18 -6 48 43 106
63 185 63 42 0 77 3 77 6 0 4 -18 14 -40 23 -38 15 -88 18 -136 9z"/>
<path d="M282 5419 c-21 -8 -23 -13 -17 -56 26 -183 165 -438 319 -586 72 -68
174 -139 195 -135 10 2 16 19 18 58 5 77 20 138 49 189 13 24 22 47 19 51 -3
4 -32 11 -65 15 -33 4 -60 10 -60 14 0 4 24 13 53 20 72 19 119 39 113 49 -3
5 -69 12 -148 16 -78 3 -147 11 -151 15 -16 16 64 32 200 40 130 8 163 17 163
46 0 20 -55 62 -90 70 -16 4 -33 11 -36 17 -5 7 14 8 60 4 61 -7 66 -6 66 12
0 38 -197 122 -362 156 -84 17 -288 21 -326 5z m316 -39 c95 -20 287 -81 332
-106 23 -12 19 -13 -50 -11 -94 3 -98 -11 -16 -56 84 -47 83 -57 -6 -57 -130
-1 -288 -40 -288 -72 0 -23 54 -39 149 -45 60 -4 97 -9 89 -14 -7 -5 -23 -9
-34 -9 -12 0 -32 -8 -45 -19 -20 -16 -21 -21 -10 -35 7 -8 35 -19 62 -22 27
-4 49 -7 49 -8 0 0 -14 -27 -30 -59 -17 -34 -32 -83 -36 -118 -4 -32 -10 -59
-15 -59 -10 0 -114 86 -173 144 -121 117 -267 380 -291 523 -6 38 -5 42 17 46
41 9 200 -3 296 -23z"/>
<path d="M1651 5404 c0 -11 3 -14 6 -6 3 7 2 16 -1 19 -3 4 -6 -2 -5 -13z"/>
<path d="M2457 5400 c-3 -8 -7 -24 -9 -35 -3 -16 -13 -21 -48 -26 -115 -14
-182 -97 -182 -225 0 -46 7 -75 25 -110 32 -64 63 -101 74 -90 4 5 2 11 -5 13
-7 3 -17 14 -23 25 -11 21 -11 21 24 -1 20 -12 57 -24 84 -27 65 -7 145 33
187 93 38 55 47 144 21 203 l-18 39 32 26 c17 15 31 34 31 42 0 10 -11 5 -36
-17 -36 -31 -37 -31 -55 -13 -19 18 -19 20 1 57 10 22 17 43 13 49 -3 5 -11
-3 -18 -19 -28 -67 -77 -72 -86 -9 -3 24 -8 34 -12 25z m-27 -102 c0 -3 -17
-9 -38 -13 -36 -6 -38 -8 -35 -38 2 -29 2 -30 -6 -7 -8 23 -9 23 -10 3 -1 -30
46 -83 73 -83 13 0 33 9 46 20 24 21 46 27 35 10 -3 -6 0 -13 8 -16 7 -2 14
-18 14 -34 0 -16 -4 -27 -9 -24 -4 3 -8 -4 -8 -16 0 -30 -59 -85 -90 -84 -44
2 -106 46 -94 66 2 4 -1 10 -7 14 -8 5 -9 3 -4 -6 5 -9 4 -11 -3 -6 -7 4 -12
18 -12 32 0 13 -4 24 -10 24 -5 0 -7 8 -4 18 2 9 -1 7 -7 -5 -10 -18 -8 -32 5
-68 45 -116 186 -130 245 -25 29 53 28 115 -4 162 -14 21 -34 42 -45 48 -11 6
-20 16 -20 21 0 18 53 0 84 -29 83 -78 72 -220 -23 -286 -35 -25 -51 -29 -103
-29 -65 1 -94 15 -132 66 -28 38 -35 154 -12 189 9 14 13 28 9 33 -5 4 -2 5 5
1 7 -4 12 -2 12 7 0 7 11 20 25 27 14 7 25 17 25 22 0 5 10 6 21 3 13 -5 19
-3 15 3 -3 6 7 9 24 8 17 0 30 -4 30 -8z m4 -38 c47 -17 24 -75 -26 -68 -35 5
-36 75 -1 78 1 0 13 -4 27 -10z"/>
<path d="M2246 5323 c-6 -14 -5 -15 5 -6 7 7 10 15 7 18 -3 3 -9 -2 -12 -12z"/>
<path d="M1385 5101 c-92 -43 -165 -154 -153 -231 3 -22 8 -17 35 35 51 99
155 185 222 185 14 0 21 5 19 13 -7 20 -79 19 -123 -2z"/>
<path d="M2915 5041 c-3 -5 0 -13 6 -17 8 -5 9 -3 4 6 -6 10 -4 12 9 7 10 -4
15 -3 11 3 -8 13 -22 13 -30 1z"/>
<path d="M1530 4889 c-25 -11 -62 -37 -82 -57 -36 -34 -40 -35 -71 -24 -40 15
-47 15 -47 2 0 -5 18 -15 40 -21 34 -10 39 -16 34 -33 -10 -36 -34 -47 -84
-40 -35 5 -43 4 -33 -6 6 -7 32 -15 57 -17 39 -5 46 -9 46 -27 0 -26 -46 -56
-84 -56 -14 0 -26 -5 -26 -11 0 -12 72 -8 102 5 13 6 20 2 27 -15 27 -69 112
-119 201 -119 138 0 242 107 227 236 -5 50 4 57 23 17 7 -16 15 -23 17 -16 7
18 -61 117 -101 148 -75 57 -167 70 -246 34z m100 -16 c-20 -8 -70 -59 -70
-71 0 -6 8 -24 18 -41 11 -21 22 -29 34 -25 9 2 19 0 23 -6 3 -5 11 -10 16
-10 6 0 7 5 3 12 -5 8 -2 9 10 5 10 -4 15 -3 11 4 -4 5 -1 16 5 25 10 11 16
12 26 3 11 -9 12 -15 3 -26 -7 -7 -9 -16 -5 -20 3 -3 6 0 6 8 1 10 4 9 14 -4
12 -15 12 -25 0 -63 -7 -24 -12 -48 -11 -52 1 -4 -8 -8 -21 -10 -12 -2 -19 -8
-16 -14 4 -6 -1 -8 -16 -3 -14 4 -20 3 -16 -3 3 -6 -10 -9 -34 -8 -22 0 -40 4
-40 8 0 4 -7 4 -17 1 -9 -4 -14 -2 -10 3 3 6 -3 17 -14 25 -22 15 -65 93 -46
83 8 -5 7 -2 0 7 -7 7 -13 21 -13 30 0 10 -5 21 -11 25 -23 14 -4 -102 22
-141 86 -127 279 -77 279 73 0 58 -23 105 -73 147 -45 39 -36 45 22 16 119
-61 145 -202 55 -295 -45 -46 -73 -58 -144 -58 -77 -1 -143 39 -179 109 -23
45 -2 188 33 220 5 4 6 2 2 -4 -5 -9 -2 -11 8 -7 9 3 13 10 10 15 -3 5 2 9 10
9 9 0 16 5 16 11 0 6 9 9 19 6 12 -3 18 0 15 7 -3 7 13 12 43 13 27 1 41 -1
33 -4z m31 -59 c19 -23 -1 -49 -37 -49 -30 0 -42 20 -30 51 7 19 50 18 67 -2z"/>
<path d="M2306 4882 c-3 -5 1 -9 9 -9 8 0 12 4 9 9 -3 4 -7 8 -9 8 -2 0 -6 -4
-9 -8z"/>
<path d="M2640 4850 c-8 -5 -10 -10 -5 -10 6 0 17 5 25 10 8 5 11 10 5 10 -5
0 -17 -5 -25 -10z"/>
<path d="M2415 4759 c-10 -15 3 -25 16 -12 7 7 7 13 1 17 -6 3 -14 1 -17 -5z"/>
<path d="M2396 4691 c-4 -7 -5 -15 -2 -18 9 -9 19 4 14 18 -4 11 -6 11 -12 0z"/>
<path d="M2465 4640 c-8 -13 4 -32 16 -25 12 8 12 35 0 35 -6 0 -13 -4 -16
-10z"/>
<path d="M2385 4611 c-6 -11 9 -23 19 -14 9 9 7 23 -3 23 -6 0 -12 -4 -16 -9z"/>
<path d="M1990 4494 c0 -8 5 -12 10 -9 6 3 10 10 10 16 0 5 -4 9 -10 9 -5 0
-10 -7 -10 -16z"/>
<path d="M2065 4491 c-6 -11 9 -23 19 -14 9 9 7 23 -3 23 -6 0 -12 -4 -16 -9z"/>
<path d="M2160 4485 c0 -8 5 -15 10 -15 6 0 10 7 10 15 0 8 -4 15 -10 15 -5 0
-10 -7 -10 -15z"/>
<path d="M2106 4423 c-11 -11 -6 -23 9 -23 8 0 15 4 15 9 0 13 -16 22 -24 14z"/>
<path d="M5607 5336 c-4 -10 -1 -13 8 -9 8 3 12 9 9 14 -7 12 -11 11 -17 -5z"/>
<path d="M1240 5781 c0 -5 5 -13 10 -16 6 -3 10 -2 10 4 0 5 -4 13 -10 16 -5
3 -10 2 -10 -4z"/>
<path d="M3245 4760 c-3 -6 1 -7 9 -4 18 7 21 14 7 14 -6 0 -13 -4 -16 -10z"/>
<path d="M3180 5281 c0 -6 4 -13 10 -16 6 -3 7 1 4 9 -7 18 -14 21 -14 7z"/>
<path d="M4345 5059 c-11 -16 -1 -19 13 -3 7 8 8 14 3 14 -5 0 -13 -5 -16 -11z"/>
<path d="M4970 3781 c0 -6 4 -13 10 -16 6 -3 7 1 4 9 -7 18 -14 21 -14 7z"/>
<path d="M3707 2219 c7 -7 15 -10 18 -7 3 3 -2 9 -12 12 -14 6 -15 5 -6 -5z"/>
<path d="M2804 4420 c0 -13 4 -16 10 -10 7 7 7 13 0 20 -6 6 -10 3 -10 -10z"/>
<path d="M2437 4333 c-15 -29 -82 -73 -110 -73 -9 0 -19 -5 -23 -12 -11 -18
74 -1 106 22 27 19 58 76 47 86 -3 3 -12 -7 -20 -23z"/>
<path d="M2596 4208 c3 -5 10 -6 15 -3 13 9 11 12 -6 12 -8 0 -12 -4 -9 -9z"/>
<path d="M640 4591 c0 -10 19 -25 25 -20 1 2 -3 10 -11 17 -8 7 -14 8 -14 3z"/>
<path d="M3365 3920 c-3 -6 1 -7 9 -4 18 7 21 14 7 14 -6 0 -13 -4 -16 -10z"/>
<path d="M5161 3994 c0 -11 3 -14 6 -6 3 7 2 16 -1 19 -3 4 -6 -2 -5 -13z"/>
<path d="M4520 3320 c-9 -6 -10 -10 -3 -10 6 0 15 5 18 10 8 12 4 12 -15 0z"/>
<path d="M896 3463 c-6 -14 -5 -15 5 -6 7 7 10 15 7 18 -3 3 -9 -2 -12 -12z"/>
<path d="M997 3409 c7 -7 15 -10 18 -7 3 3 -2 9 -12 12 -14 6 -15 5 -6 -5z"/>
<path d="M1750 719 c0 -5 5 -7 10 -4 6 3 10 8 10 11 0 2 -4 4 -10 4 -5 0 -10
-5 -10 -11z"/>
<path d="M2416 1813 c-6 -14 -5 -15 5 -6 7 7 10 15 7 18 -3 3 -9 -2 -12 -12z"/>
<path d="M5070 1691 c0 -6 4 -13 10 -16 6 -3 7 1 4 9 -7 18 -14 21 -14 7z"/>
<path d="M801 1565 c0 -5 6 -21 14 -35 8 -14 14 -20 14 -15 0 6 -6 21 -14 35
-8 14 -14 21 -14 15z"/>
<path d="M1217 1014 c-3 -5 1 -15 9 -22 16 -14 18 -5 5 17 -5 7 -11 9 -14 5z"/>
<path d="M5435 580 c3 -5 8 -10 11 -10 2 0 4 5 4 10 0 6 -5 10 -11 10 -5 0 -7
-4 -4 -10z"/>
<path d="M5265 9011 c-3 -5 -2 -12 3 -15 5 -3 9 1 9 9 0 17 -3 19 -12 6z"/>
<path d="M985 3719 c-4 -6 -5 -12 -2 -15 2 -3 7 2 10 11 7 17 1 20 -8 4z"/>
<path d="M656 2553 c-6 -14 -5 -15 5 -6 7 7 10 15 7 18 -3 3 -9 -2 -12 -12z"/>
<path d="M4935 2139 c-4 -6 -5 -12 -2 -15 2 -3 7 2 10 11 7 17 1 20 -8 4z"/>
<path d="M5005 2009 c-4 -6 -5 -12 -2 -15 2 -3 7 2 10 11 7 17 1 20 -8 4z"/>
<path d="M4826 1773 c-6 -14 -5 -15 5 -6 7 7 10 15 7 18 -3 3 -9 -2 -12 -12z"/>
<path d="M5341 1294 c0 -11 3 -14 6 -6 3 7 2 16 -1 19 -3 4 -6 -2 -5 -13z"/>
<path d="M5640 769 c0 -5 5 -7 10 -4 6 3 10 8 10 11 0 2 -4 4 -10 4 -5 0 -10
-5 -10 -11z"/>
</g>
</svg>
