<?xml version="1.0" standalone="no"?>
<!DOCTYPE svg PUBLIC "-//W3C//DTD SVG 20010904//EN"
 "http://www.w3.org/TR/2001/REC-SVG-20010904/DTD/svg10.dtd">
<svg version="1.0" xmlns="http://www.w3.org/2000/svg"
 width="600.000000pt" height="800.000000pt" viewBox="0 0 600.000000 800.000000"
 preserveAspectRatio="xMidYMid meet">
<g transform="translate(0.000000,800.000000) scale(0.100000,-0.100000)"
fill="#000000" stroke="none">
<path d="M428 7783 c-17 -40 -21 -66 -20 -177 1 -425 181 -817 449 -978 43
-26 119 -62 168 -79 50 -17 91 -32 93 -34 2 -1 -4 -20 -13 -41 -8 -22 -30 -98
-49 -169 -39 -152 -46 -167 -120 -260 -31 -38 -71 -99 -89 -135 -28 -57 -32
-74 -31 -147 0 -76 3 -88 43 -167 73 -148 248 -312 491 -461 52 -32 96 -59 97
-60 2 -1 -8 -33 -21 -71 -27 -81 -74 -182 -146 -313 -62 -113 -119 -256 -161
-405 -34 -122 -88 -275 -114 -327 -25 -50 -81 -105 -158 -155 -169 -110 -219
-201 -196 -360 18 -125 86 -251 190 -352 24 -23 51 -44 59 -47 12 -4 14 -24
12 -121 -3 -97 -8 -123 -27 -162 -13 -26 -34 -85 -46 -132 -20 -73 -23 -108
-23 -255 1 -157 3 -179 31 -285 50 -189 135 -363 256 -526 29 -38 120 -139
203 -224 82 -85 165 -177 183 -203 36 -53 75 -142 85 -196 6 -33 6 -33 -26
-27 -94 20 -216 37 -347 46 -361 27 -669 -48 -821 -200 -73 -73 -133 -188
-128 -246 3 -37 5 -40 55 -56 87 -29 267 -41 508 -34 594 17 1102 124 1239
261 71 71 71 161 1 265 -51 74 -65 129 -65 252 0 72 2 79 18 73 42 -17 207
-46 311 -55 183 -16 372 9 544 72 32 11 59 19 60 17 2 -2 21 -29 43 -59 21
-30 83 -111 136 -180 114 -145 165 -241 183 -343 6 -39 11 -75 9 -78 -2 -3
-36 1 -76 9 -54 12 -134 16 -313 16 -216 0 -248 -2 -320 -22 -223 -61 -384
-190 -470 -374 -33 -70 -32 -93 3 -106 67 -27 118 -34 282 -39 350 -11 798 48
1125 148 93 29 210 82 245 111 78 66 80 158 5 228 -65 60 -91 166 -82 333 6
119 24 220 59 328 l21 66 49 2 c141 5 360 66 517 146 267 134 498 321 720 584
162 190 222 280 432 645 56 97 96 152 167 227 98 105 106 123 77 179 -32 62
-94 75 -191 42 -124 -43 -257 -154 -466 -390 -247 -278 -366 -387 -493 -450
-116 -58 -151 -66 -281 -66 -66 1 -126 4 -132 8 -8 4 -8 15 -2 31 18 47 32
242 27 360 -15 334 -145 671 -357 930 -124 151 -265 271 -505 428 -66 43 -187
123 -270 177 -370 243 -582 463 -678 702 -35 89 -61 244 -54 328 l5 65 124
125 c102 103 131 140 166 207 71 137 70 241 -3 364 -101 170 -111 197 -154
380 -11 47 -23 93 -26 101 -5 12 6 16 59 22 36 4 107 20 157 36 340 111 565
408 648 855 42 228 40 373 -6 419 -22 22 -34 26 -87 26 -111 0 -244 -41 -402
-124 -151 -79 -236 -139 -347 -245 -155 -149 -276 -311 -365 -488 l-31 -60
-58 57 c-91 88 -226 141 -283 110 -17 -9 -21 -18 -17 -40 5 -24 3 -27 -12 -23
-11 3 -28 0 -40 -6 -30 -16 -27 -59 6 -93 19 -20 22 -28 12 -31 -53 -14 -152
-37 -153 -35 -1 2 -12 35 -24 74 -67 213 -240 470 -424 629 -86 74 -252 181
-336 216 -83 34 -186 59 -250 59 -42 0 -44 -1 -64 -47z m212 -29 c223 -70 512
-308 663 -547 51 -80 113 -205 147 -297 l29 -78 -30 -12 c-16 -7 -55 -28 -86
-47 -31 -18 -57 -32 -58 -31 -1 2 -23 62 -50 133 -136 360 -283 622 -413 735
-66 58 -172 106 -277 126 -49 10 -92 19 -94 21 -2 1 -1 9 3 18 7 20 54 15 166
-21z m2631 9 c21 -24 15 -204 -10 -346 -52 -287 -148 -487 -315 -653 -116
-116 -259 -183 -469 -223 l-48 -9 -19 41 c-11 22 -19 41 -17 42 1 2 38 10 82
20 255 56 489 217 603 416 30 51 10 42 -23 -12 -44 -69 -156 -179 -239 -233
-102 -66 -175 -98 -300 -130 -127 -33 -153 -33 -168 -1 -14 31 -2 64 122 320
134 279 268 467 411 580 112 87 242 143 339 145 34 1 34 2 10 11 -60 25 -211
-20 -326 -96 -105 -70 -244 -228 -344 -390 -50 -80 -149 -286 -205 -425 -21
-52 -40 -96 -41 -98 -1 -2 -31 19 -67 46 -36 28 -83 55 -104 62 -21 7 -41 14
-45 17 -9 4 56 119 140 248 221 340 531 578 865 665 93 24 150 25 168 3z
m-2629 -73 c134 -50 234 -142 336 -307 84 -137 112 -195 213 -447 l88 -221
-26 -24 c-24 -23 -28 -24 -77 -11 -69 17 -200 78 -277 130 -85 57 -229 204
-253 258 -11 23 -23 42 -28 42 -13 0 49 -110 98 -171 43 -56 208 -186 282
-223 59 -29 166 -66 192 -66 26 0 25 -8 -9 -49 l-28 -35 -99 32 c-160 51 -268
125 -359 246 -96 129 -172 311 -210 506 -18 93 -32 322 -21 363 l6 25 58 -13
c32 -8 83 -23 114 -35z m1951 -160 c-3 -12 -8 -19 -11 -16 -5 6 5 36 12 36 2
0 2 -9 -1 -20z m-1473 -36 c0 -8 -19 -13 -24 -6 -3 5 1 9 9 9 8 0 15 -2 15 -3z
m1430 3 c0 -2 -10 -12 -22 -23 l-23 -19 19 23 c18 21 26 27 26 19z m-1399 -44
c13 -17 13 -17 -6 -3 -11 8 -22 16 -24 17 -2 2 0 3 6 3 6 0 17 -8 24 -17z
m1339 -17 c0 -2 -7 -7 -16 -10 -8 -3 -12 -2 -9 4 6 10 25 14 25 6z m-1267 -60
c4 -10 1 -13 -8 -9 -8 3 -12 9 -9 14 7 12 11 11 17 -5z m86 -120 c-3 -3 -11 5
-18 17 -13 21 -12 21 5 5 10 -10 16 -20 13 -22z m1031 20 c0 -2 -8 -10 -17
-17 -16 -13 -17 -12 -4 4 13 16 21 21 21 13z m-931 -191 c0 -5 -6 1 -14 15 -8
14 -14 30 -14 35 0 6 6 -1 14 -15 8 -14 14 -29 14 -35z m422 -58 c69 -21 152
-79 200 -141 24 -30 51 -55 59 -56 30 -1 116 -59 163 -109 71 -76 119 -187
170 -391 46 -181 64 -228 123 -310 86 -120 101 -226 48 -340 -65 -138 -254
-328 -434 -437 -41 -25 -95 -59 -119 -75 l-44 -30 39 54 c21 29 42 55 46 56 5
2 8 9 8 15 0 6 -58 -46 -128 -116 -115 -112 -134 -127 -184 -142 -45 -13 -65
-14 -104 -5 -70 16 -101 39 -199 145 -48 53 -90 94 -92 91 -6 -6 66 -104 85
-116 11 -6 13 -9 4 -10 -10 0 -10 -4 2 -16 9 -8 16 -21 16 -27 0 -7 -8 -3 -18
8 -9 11 -26 28 -37 38 l-20 18 20 -7 c31 -11 10 7 -100 81 -212 145 -323 245
-393 353 -101 156 -96 284 17 427 97 123 119 162 141 257 30 134 67 241 99
287 36 55 136 157 189 193 112 77 324 144 378 119 36 -16 29 -2 -32 67 -31 35
-55 64 -53 66 12 11 101 -29 138 -60 l43 -38 -15 31 c-9 17 -32 51 -52 77 -19
25 -35 48 -35 51 0 9 25 6 71 -8z m-311 -193 c0 -2 -10 -9 -22 -15 -20 -11
-21 -10 -11 3 7 8 10 18 6 22 -4 4 0 4 10 0 9 -3 17 -8 17 -10z m-183 -111
c-9 -2 -15 -9 -12 -14 4 -5 2 -9 -4 -9 -5 0 -12 4 -15 9 -7 10 11 20 34 19 10
0 9 -2 -3 -5z m-62 -64 c-4 -5 -16 -14 -28 -19 -22 -11 -22 -11 -2 5 11 9 19
21 17 26 -1 6 2 8 8 4 6 -3 8 -11 5 -16z m-112 -126 c-7 -3 -10 -10 -7 -18 3
-7 2 -15 -3 -18 -4 -3 -9 8 -10 23 -2 23 1 28 14 23 10 -4 12 -8 6 -10z m1246
3 c9 -11 9 -16 -1 -22 -7 -4 -10 -4 -6 1 4 4 3 14 -3 22 -6 7 -9 13 -6 13 2 0
10 -6 16 -14z m23 -33 c-6 -2 -10 -9 -7 -13 3 -5 1 -11 -4 -14 -7 -5 -8 11 -2
32 1 1 7 2 14 1 9 0 9 -2 -1 -6z m-1429 -418 c-3 -9 -8 -14 -10 -11 -3 3 -2 9
2 15 9 16 15 13 8 -4z m-73 -99 c0 -2 -8 -10 -17 -17 -16 -13 -17 -12 -4 4 13
16 21 21 21 13z m95 -566 c10 -11 16 -20 13 -20 -3 0 -13 9 -23 20 -10 11 -16
20 -13 20 3 0 13 -9 23 -20z m106 -97 c13 -16 12 -17 -3 -4 -17 13 -22 21 -14
21 2 0 10 -8 17 -17z m1188 -11 c-9 -4 -15 -15 -13 -24 2 -15 -1 -16 -17 -8
-23 13 -25 22 -4 13 9 -3 15 -2 14 3 -3 18 1 24 19 23 15 0 15 -1 1 -7z m-33
-170 c1 -190 39 -312 152 -482 107 -160 321 -350 607 -536 475 -310 548 -364
680 -507 96 -104 180 -226 245 -356 178 -355 207 -744 83 -1116 -27 -84 -74
-191 -216 -490 -109 -233 -131 -288 -167 -435 -37 -145 -51 -287 -40 -396 14
-134 28 -172 90 -240 53 -58 57 -78 25 -119 -71 -94 -402 -186 -875 -244 -170
-21 -360 -31 -360 -19 0 3 19 35 43 69 26 39 67 82 109 114 37 27 65 51 63 53
-2 2 -27 -9 -56 -25 -66 -35 -159 -120 -196 -178 l-28 -45 -100 7 c-55 3 -102
7 -103 9 -2 1 9 26 24 54 35 64 140 162 200 187 45 18 62 40 22 27 -103 -31
-235 -135 -279 -220 -13 -24 -32 -47 -43 -50 -15 -5 -16 -8 -5 -16 12 -8 11
-9 -1 -5 -8 2 -14 10 -13 16 4 15 -14 14 -20 -1 -3 -7 -6 -3 -6 10 -1 23 13
30 24 12 10 -16 25 -12 25 6 0 32 65 129 129 194 116 117 257 172 486 191 142
12 334 1 471 -27 41 -9 82 -13 90 -10 30 12 12 171 -34 286 -32 82 -68 138
-171 270 -255 326 -364 583 -392 927 -24 299 35 592 176 873 142 283 314 468
484 521 96 30 185 11 279 -59 18 -14 35 -22 38 -20 3 3 -17 22 -45 42 -111 82
-220 104 -326 67 -268 -94 -551 -523 -647 -978 -31 -147 -33 -500 -5 -633 25
-114 87 -297 137 -405 22 -48 39 -89 38 -90 -11 -10 -180 -57 -249 -69 -138
-25 -198 -28 -319 -16 -315 30 -582 139 -840 345 -36 28 -75 51 -87 51 -12 0
-19 -4 -17 -8 3 -4 0 -8 -5 -8 -6 0 -11 7 -11 16 0 9 -5 12 -12 8 -9 -5 -8 -2
1 9 12 15 12 17 -3 11 -12 -5 -19 0 -23 15 -3 11 -10 21 -15 21 -5 0 -6 -5 -2
-12 4 -7 3 -8 -4 -4 -6 4 -8 14 -5 23 4 10 2 14 -4 10 -11 -7 -54 43 -66 76
-4 11 -12 15 -19 11 -7 -4 -10 -3 -5 1 4 5 -1 18 -12 29 -18 20 -61 91 -61
101 0 3 5 5 12 5 6 0 8 -3 4 -7 -3 -4 4 -13 16 -20 13 -7 17 -12 11 -13 -7 0
-13 -5 -13 -11 0 -5 4 -8 9 -4 5 3 16 -2 24 -10 9 -8 20 -15 24 -15 5 0 22
-14 39 -31 34 -37 142 -90 234 -115 46 -12 100 -17 185 -17 103 0 131 4 199
27 174 59 310 161 433 326 61 82 133 221 164 319 35 109 37 81 4 -50 -47 -183
-99 -299 -188 -414 -144 -188 -354 -290 -592 -289 -175 1 -324 58 -413 161
-61 69 -80 68 -35 -2 20 -30 39 -53 42 -50 4 2 26 -13 49 -34 23 -21 44 -36
46 -33 3 2 27 -7 54 -21 74 -39 199 -61 302 -54 401 30 689 328 776 807 24
133 24 437 0 575 -22 120 -59 252 -90 316 l-22 47 84 64 c112 83 158 138 178
206 15 50 15 60 0 120 -17 68 -64 163 -84 170 -6 2 0 -22 15 -54 18 -39 28
-81 31 -129 8 -133 -36 -184 -343 -393 -82 -56 -160 -110 -173 -120 -16 -12
-38 -62 -72 -166 -28 -82 -68 -186 -89 -232 -40 -84 -120 -214 -132 -214 -11
0 -19 85 -12 141 5 45 3 52 -8 41 -13 -12 -19 -146 -8 -182 3 -11 -5 -16 -28
-18 -24 -2 -35 2 -47 20 -23 36 -29 91 -17 149 14 64 7 75 -15 23 -11 -27 -15
-55 -11 -91 3 -29 2 -53 -2 -53 -13 0 -49 132 -55 200 -12 133 31 260 121 360
25 28 114 102 197 164 243 182 316 274 324 411 5 86 -9 122 -102 258 -105 155
-172 301 -200 440 -29 141 -19 356 25 545 12 50 16 55 63 79 77 38 212 121
226 138 7 8 15 15 19 15 3 0 6 -57 7 -128z m-336 -116 c-48 -139 -67 -309 -51
-444 15 -123 50 -229 127 -391 35 -73 64 -135 64 -138 0 -3 24 -44 53 -91 48
-79 52 -90 52 -146 -1 -123 -76 -218 -300 -386 -71 -53 -146 -112 -166 -131
-44 -42 -110 -131 -137 -185 -20 -40 -23 -41 -83 -47 -120 -13 -346 20 -335
49 14 37 17 119 7 180 -13 71 -61 196 -87 225 -8 9 -12 22 -10 30 3 8 17 127
31 265 46 457 77 576 222 864 86 171 122 257 149 358 2 8 20 0 53 -23 134 -96
271 -84 385 34 22 22 41 39 43 37 2 -1 -6 -29 -17 -60z m403 -120 c-3 -4 -9
-2 -14 5 -13 22 -11 31 5 17 8 -7 12 -17 9 -22z m20 -50 c-3 -4 -9 -2 -14 5
-13 22 -11 31 5 17 8 -7 12 -17 9 -22z m27 -66 c0 -5 -2 -10 -4 -10 -3 0 -8 5
-11 10 -3 6 -1 10 4 10 6 0 11 -4 11 -10z m47 -64 c13 -16 22 -35 19 -42 -3
-7 0 -11 7 -8 17 6 39 -44 24 -53 -7 -3 -9 -3 -6 1 3 3 -9 22 -27 41 -22 24
-31 41 -27 53 3 9 2 14 -2 10 -10 -9 -34 33 -27 47 3 5 8 2 10 -5 3 -8 16 -28
29 -44z m76 -113 c-4 -11 -3 -14 5 -9 7 4 12 2 12 -4 0 -6 5 -8 12 -4 6 4 8 3
4 -4 -3 -6 -2 -13 4 -17 6 -4 7 -11 4 -17 -5 -7 -1 -9 9 -5 9 3 16 3 14 -1 -1
-4 1 -7 4 -7 3 0 26 -24 52 -53 26 -29 47 -49 47 -45 1 4 10 -3 21 -17 12 -14
33 -31 48 -38 14 -7 18 -10 9 -8 -15 5 -16 2 -6 -13 6 -11 16 -17 22 -15 6 2
31 -14 56 -36 24 -22 39 -40 33 -40 -6 0 -18 7 -26 15 -8 8 -18 11 -22 7 -5
-4 -5 -2 -1 5 4 8 -5 18 -27 27 -19 7 -42 24 -51 37 -9 13 -21 24 -26 24 -6 0
-11 5 -11 10 -1 6 -16 20 -33 33 -17 12 -40 34 -52 47 -12 14 -24 22 -28 20
-3 -3 -4 -2 -1 1 2 4 -7 15 -20 26 -14 11 -25 26 -25 34 0 8 -4 13 -9 9 -12
-7 -34 32 -26 45 10 16 15 11 8 -7z m397 -348 c8 0 14 -6 13 -12 -2 -7 3 -13
11 -13 8 0 21 -8 28 -17 7 -10 19 -18 27 -18 8 0 15 -8 17 -18 1 -9 -2 -15 -7
-11 -5 3 -6 10 -3 16 5 7 1 9 -9 5 -9 -3 -20 0 -24 7 -5 8 -28 25 -53 38 -32
17 -43 27 -35 35 7 7 11 7 15 -1 3 -6 12 -11 20 -11z m153 -112 c4 -7 16 -13
26 -13 10 0 26 -9 36 -20 10 -11 24 -20 31 -20 8 0 11 -6 8 -15 -6 -14 -8 -14
-18 0 -6 9 -19 17 -28 19 -22 3 -98 64 -98 78 0 11 30 -9 43 -29z m-1946 5
c-3 -8 -6 -5 -6 6 -1 11 2 17 5 13 3 -3 4 -12 1 -19z m-7 -47 c0 -17 -5 -33
-12 -37 -6 -4 -8 -3 -4 4 3 6 2 13 -4 17 -5 3 -10 11 -10 16 0 6 4 7 10 4 6
-3 7 1 4 9 -3 9 -1 16 5 16 6 0 11 -13 11 -29z m-21 -43 c3 -24 3 -48 0 -73
-2 -10 -6 -12 -14 -5 -7 5 -14 7 -17 5 -6 -7 -4 19 7 63 9 37 19 42 24 10z
m2098 16 c-9 -10 16 -32 30 -27 7 3 13 0 13 -6 0 -6 8 -11 18 -11 14 0 15 -2
2 -10 -9 -6 -17 -5 -21 2 -4 7 -15 13 -25 14 -23 4 -38 20 -30 33 4 6 10 11
13 11 4 0 4 -3 0 -6z m-1063 -50 c3 -8 2 -12 -4 -9 -6 3 -10 10 -10 16 0 14 7
11 14 -7z m1179 -27 c4 3 7 1 7 -6 0 -7 5 -9 10 -6 6 4 9 1 8 -5 -2 -7 4 -14
13 -15 10 -2 27 -13 38 -24 12 -12 26 -19 31 -16 6 4 10 -1 10 -10 0 -18 -12
-13 -48 19 -13 12 -24 19 -25 17 -1 -2 -24 10 -50 27 -28 17 -42 32 -35 35 7
3 18 -1 24 -9 6 -8 14 -11 17 -7z m-2248 -123 c-9 -49 -19 -133 -22 -186 -3
-54 -8 -98 -10 -98 -1 0 -20 18 -40 41 -37 41 -90 75 -100 65 -4 -3 5 -15 19
-25 55 -44 161 -220 199 -330 22 -62 26 -193 8 -238 l-12 -28 -7 25 c-4 14
-17 43 -28 65 -55 104 -80 99 -28 -6 36 -72 46 -119 24 -119 -13 0 -110 96
-126 125 -6 11 -13 17 -17 13 -9 -9 22 -67 53 -100 40 -44 17 -45 -44 -3 -139
96 -234 267 -234 419 1 110 38 163 187 262 93 62 137 108 165 172 11 24 22 42
24 39 3 -2 -2 -44 -11 -93z m2394 20 c4 3 13 1 19 -3 10 -6 9 -11 -3 -21 -13
-11 -14 -10 -9 4 4 11 2 16 -6 14 -7 -2 -14 3 -15 10 -2 7 -1 8 2 2 2 -5 8 -8
12 -6z m64 -40 c4 -1 10 -2 14 -3 4 0 2 -6 -5 -13 -8 -8 -15 -8 -27 2 -18 15
-20 35 -2 23 6 -4 15 -8 20 -9z m29 -31 c-6 -2 -9 -10 -6 -15 4 -7 2 -8 -5 -4
-13 9 -5 26 12 25 9 0 8 -2 -1 -6z m32 -21 c3 -5 -1 -9 -9 -9 -8 0 -15 4 -15
9 0 4 4 8 9 8 6 0 12 -4 15 -8z m36 -32 c0 -5 6 -10 13 -10 7 0 13 -10 14 -22
2 -21 2 -21 -15 -2 -9 10 -23 25 -31 32 -13 10 -12 12 2 12 9 0 17 -4 17 -10z
m59 -62 c1 10 4 10 15 0 8 -7 12 -16 10 -20 -2 -4 5 -9 16 -13 11 -4 18 -9 16
-13 -6 -10 21 -32 29 -24 4 4 5 0 3 -8 -1 -8 2 -14 9 -13 7 2 10 -4 6 -13 -3
-9 -1 -14 7 -12 11 3 78 -77 79 -94 2 -17 -18 -7 -24 12 -4 11 -11 18 -16 15
-9 -6 -13 8 -10 34 2 7 -2 10 -7 7 -6 -3 -21 6 -33 20 -13 15 -39 42 -56 62
-18 19 -33 39 -33 44 0 4 -5 7 -12 6 -6 -2 -13 6 -15 17 l-3 20 9 -20 c5 -11
10 -14 10 -7z m-2624 -149 c-5 -16 -4 -19 5 -14 9 6 11 4 5 -4 -10 -18 -27 2
-19 22 9 25 17 21 9 -4z m2835 -85 c0 -8 -19 -13 -24 -6 -3 5 1 9 9 9 8 0 15
-2 15 -3z m60 -92 c13 -20 23 -43 21 -51 -1 -7 2 -10 9 -6 6 3 10 3 9 -2 -3
-12 18 -60 30 -67 6 -4 7 -14 4 -23 -5 -12 -3 -14 7 -8 10 6 12 4 7 -8 -3 -9
-1 -17 4 -19 6 -2 12 -15 13 -28 4 -29 17 -63 26 -70 14 -10 20 -59 8 -66 -7
-4 -8 -3 -4 5 4 6 3 17 -2 24 -10 13 -37 85 -37 102 0 6 -8 21 -18 35 -9 13
-17 32 -17 41 0 9 -7 20 -16 23 -8 3 -13 10 -10 14 3 5 -6 24 -19 42 -13 18
-22 37 -19 41 3 5 1 9 -4 9 -5 0 -14 11 -20 25 -17 38 0 30 28 -13z m-1537
-123 c47 -138 68 -251 74 -414 9 -243 -23 -404 -120 -589 -184 -354 -495 -537
-821 -484 -168 27 -328 122 -395 233 -104 172 -175 456 -184 743 -2 76 3 96
18 72 10 -17 159 -58 267 -74 58 -9 154 -16 214 -16 l109 0 19 -46 c23 -55 59
-100 97 -119 95 -50 190 27 289 230 40 83 118 301 132 367 3 18 246 189 262
184 5 -1 23 -40 39 -87z m637 -78 c0 -5 -7 -12 -16 -15 -14 -5 -15 -4 -4 9 14
17 20 19 20 6z m2645 -51 c13 -10 21 -28 22 -52 1 -31 -4 -42 -32 -67 -18 -16
-31 -31 -29 -34 3 -3 0 -8 -7 -13 -8 -4 -10 -3 -5 4 4 7 2 12 -3 12 -6 0 -3 8
7 18 9 11 20 17 24 15 4 -2 13 15 19 37 10 34 10 43 0 50 -8 4 -11 12 -8 18 4
6 -13 8 -46 6 -88 -7 -147 -21 -147 -35 0 -5 -7 -9 -16 -9 -9 0 -12 -5 -8 -12
4 -7 3 -10 -1 -5 -5 4 -16 0 -25 -8 -16 -14 -18 -14 -23 -1 -4 9 -1 18 5 22 7
5 8 2 3 -6 -5 -8 -3 -11 6 -8 8 3 13 11 12 17 -2 6 4 11 13 11 9 0 12 5 8 12
-4 6 -3 8 4 5 13 -9 44 2 37 13 -3 4 9 7 25 6 17 -1 30 1 30 5 0 22 106 20
135 -1z m-2714 -53 c-10 -9 -11 -8 -5 6 3 10 9 15 12 12 3 -3 0 -11 -7 -18z
m2689 13 c12 -7 0 -23 -56 -82 -81 -84 -125 -146 -219 -313 -150 -266 -238
-397 -396 -585 -326 -389 -690 -619 -1091 -688 -53 -9 -100 -14 -103 -11 -3 4
1 19 9 35 101 198 272 571 298 651 l33 101 30 -6 c17 -4 84 -7 150 -7 130 1
177 12 290 67 126 63 227 151 435 380 297 325 396 414 508 454 44 16 91 17
112 4z m-4545 -30 c-3 -5 -12 -10 -18 -10 -7 0 -6 4 3 10 19 12 23 12 15 0z
m123 -17 c42 -13 92 -18 188 -18 l132 0 -7 -35 c-8 -46 -8 -145 1 -194 l7 -39
-143 6 c-161 8 -264 25 -378 63 -75 25 -78 27 -78 57 0 18 3 48 6 68 l6 35 55
0 c53 -1 57 1 92 41 20 23 42 40 49 38 7 -3 38 -13 70 -22z m349 2 c0 -8 -4
-12 -9 -9 -5 3 -6 10 -3 15 9 13 12 11 12 -6z m1373 5 c0 -5 -2 -10 -4 -10 -3
0 -8 5 -11 10 -3 6 -1 10 4 10 6 0 11 -4 11 -10z m2427 -24 c-12 -12 -17 -13
-20 -3 -3 6 -6 2 -6 -10 -1 -12 -6 -25 -13 -29 -7 -4 -8 -3 -4 4 4 7 3 12 -2
12 -11 0 -26 -30 -23 -45 2 -5 0 -7 -3 -4 -8 7 -91 -72 -88 -83 1 -5 -2 -8 -7
-8 -20 0 -5 36 27 67 17 17 32 28 32 25 0 -3 18 14 39 38 22 25 45 45 53 45 7
1 12 7 10 15 -3 12 -1 12 9 3 9 -9 8 -15 -4 -27z m-4363 -7 c-3 -5 -13 -9 -22
-8 -11 0 -12 2 -4 6 6 2 10 9 7 14 -4 5 1 6 9 3 9 -3 13 -10 10 -15z m-61 -2
c4 3 7 1 7 -6 0 -8 -6 -11 -16 -7 -12 5 -15 2 -10 -9 3 -9 2 -13 -3 -10 -6 3
-9 14 -8 25 1 13 5 16 13 10 6 -6 14 -7 17 -3z m1970 -2 c-3 -9 -8 -14 -10
-11 -3 3 -2 9 2 15 9 16 15 13 8 -4z m1177 -24 c7 -24 6 -31 -3 -28 -7 2 -11
12 -9 22 2 9 -1 14 -6 11 -6 -4 -8 3 -5 14 7 25 11 22 23 -19z m-3166 -29 c2
-4 0 -14 -6 -22 -8 -12 -9 -12 -5 2 3 9 1 19 -6 22 -9 3 -9 5 0 5 6 1 14 -3
17 -7z m4663 -14 c-8 -13 -20 -22 -26 -20 -6 1 -12 -2 -12 -8 -3 -20 -4 -25
-12 -38 -5 -7 -13 -10 -18 -6 -5 3 0 19 12 35 12 17 24 28 27 25 3 -3 11 3 19
14 8 11 17 20 20 20 3 0 -1 -10 -10 -22z m-1486 -41 c-8 -8 -11 -3 -11 19 1
25 2 27 11 11 8 -14 8 -22 0 -30z m-3194 -29 c-3 -8 -6 -5 -6 6 -1 11 2 17 5
13 3 -3 4 -12 1 -19z m3212 0 c1 -29 9 -84 17 -123 5 -24 4 -28 -6 -18 -7 6
-13 29 -14 51 0 23 -5 38 -10 35 -5 -4 -7 0 -4 9 4 8 2 21 -2 29 -5 8 -4 19 2
26 14 17 16 17 17 -9z m1047 -40 c-9 -5 -23 -22 -31 -39 -9 -16 -20 -27 -25
-24 -15 9 -12 25 5 25 8 0 15 5 15 11 0 6 10 23 23 38 16 21 23 24 26 13 1 -8
-4 -19 -13 -24z m337 16 c-7 -3 -10 -11 -7 -18 3 -7 -7 -21 -22 -31 -21 -13
-24 -19 -13 -26 10 -6 11 -9 2 -9 -7 0 -13 -7 -13 -15 0 -9 -7 -18 -15 -21 -8
-4 -13 -9 -11 -13 2 -3 -7 -26 -20 -51 -12 -25 -23 -38 -24 -30 0 13 -1 13
-10 0 -5 -8 -10 -10 -10 -5 1 17 27 45 34 37 5 -4 6 2 5 13 -2 11 7 36 21 55
14 19 25 37 25 40 0 14 33 49 40 42 4 -4 6 0 2 10 -6 18 0 28 17 27 7 0 6 -2
-1 -5z m-4583 -20 c0 -8 -4 -12 -10 -9 -5 3 -10 10 -10 16 0 5 5 9 10 9 6 0
10 -7 10 -16z m1890 -48 c0 -2 -8 -10 -17 -17 -16 -13 -17 -12 -4 4 13 16 21
21 21 13z m-1900 -26 c0 -5 -5 -10 -11 -10 -6 0 -3 -7 5 -16 18 -18 21 -28 5
-18 -7 4 -10 -5 -9 -27 4 -76 1 -86 -25 -86 -15 0 -22 4 -19 11 3 6 -2 2 -10
-8 -19 -24 -20 -16 -5 35 7 21 16 36 20 33 8 -5 14 26 10 49 -1 5 3 5 9 2 6
-4 11 -1 9 6 -3 25 1 39 11 39 6 0 10 -4 10 -10z m660 -25 c0 -5 -5 -3 -10 5
-5 8 -10 20 -10 25 0 6 5 3 10 -5 5 -8 10 -19 10 -25z m3530 25 c0 -5 -13 -19
-30 -31 -16 -12 -26 -27 -23 -32 3 -6 1 -7 -4 -4 -6 4 -16 0 -23 -8 -7 -8 -10
-15 -6 -15 3 0 -3 -9 -14 -20 -11 -11 -23 -20 -27 -19 -5 0 -10 -10 -13 -23
-3 -13 -13 -23 -23 -23 -9 0 -22 -7 -29 -15 -11 -12 -11 -12 5 -1 18 14 20 12
11 -13 -3 -8 -12 -12 -19 -10 -7 3 -16 -3 -19 -14 -4 -10 -19 -31 -35 -45 -24
-21 -30 -23 -35 -10 -4 9 1 17 13 20 11 3 34 27 53 54 18 27 37 49 41 49 5 0
24 16 43 35 18 19 32 35 29 35 -2 0 11 16 31 35 19 19 39 35 44 35 6 0 10 7
10 15 0 8 5 15 10 15 6 0 10 -4 10 -10z m-961 -132 c-1 -93 -6 -87 -11 15 -2
37 0 67 4 67 4 0 7 -37 7 -82z m-2489 -13 c13 -14 21 -25 18 -25 -2 0 -15 11
-28 25 -13 14 -21 25 -18 25 2 0 15 -11 28 -25z m1098 11 c-7 -8 -15 -12 -17
-11 -5 6 10 25 20 25 5 0 4 -6 -3 -14z m-1830 -36 c0 -22 4 -44 7 -50 3 -5 0
-7 -7 -5 -12 5 -14 23 -10 78 3 32 10 17 10 -23z m4452 20 c0 -5 -4 -10 -10
-10 -5 0 -10 5 -10 10 0 6 5 10 10 10 6 0 10 -4 10 -10z m-4471 -155 c36 -220
109 -411 228 -595 71 -108 247 -284 369 -367 97 -66 269 -160 347 -188 l47
-18 0 -79 c0 -43 7 -114 16 -156 14 -69 27 -97 87 -193 24 -38 24 -84 0 -117
-104 -140 -711 -262 -1306 -262 l-168 0 30 44 c42 61 109 117 183 154 75 37
53 42 -33 8 -78 -32 -144 -82 -194 -146 l-40 -52 -70 7 c-38 4 -72 8 -74 10
-9 9 75 107 119 140 51 37 169 95 195 95 8 0 15 4 15 9 0 13 -113 -15 -163
-40 -113 -58 -177 -126 -183 -194 -2 -25 1 -33 9 -29 8 5 8 2 0 -6 -11 -12
-15 -11 -28 6 -13 16 -14 16 -9 1 5 -13 2 -16 -10 -11 -13 5 -16 17 -15 50 2
24 7 44 12 44 5 0 6 7 3 16 -3 8 -2 13 3 10 5 -3 16 13 25 35 9 23 19 39 22
36 3 -3 1 -15 -6 -26 -6 -12 -8 -27 -4 -33 4 -6 3 -8 -3 -5 -6 4 -15 -5 -22
-19 -23 -52 -5 -62 23 -12 119 209 311 298 675 315 148 6 364 -13 527 -47 110
-23 119 -18 110 56 -19 163 -85 270 -303 496 -178 184 -263 297 -333 443 -86
178 -129 344 -131 503 -2 110 10 252 20 252 4 0 17 -61 30 -135z m4435 98
c-10 -7 -15 -13 -11 -13 4 0 -1 -10 -13 -22 -11 -12 -23 -18 -27 -15 -3 4 -1
7 6 7 7 0 9 5 6 10 -3 6 -1 10 6 10 7 0 10 3 7 6 -3 3 4 15 16 27 11 12 23 18
25 13 2 -5 -4 -15 -15 -23z m-4497 -5 c-3 -8 -6 -5 -6 6 -1 11 2 17 5 13 3 -3
4 -12 1 -19z m3304 -49 l-10 -24 0 26 c-1 14 2 29 6 33 12 12 14 -9 4 -35z
m-3314 -11 c-3 -7 -5 -2 -5 12 0 14 2 19 5 13 2 -7 2 -19 0 -25z m101 7 c-3
-3 -9 2 -12 12 -6 14 -5 15 5 6 7 -7 10 -15 7 -18z m1787 -5 c3 -5 1 -10 -4
-10 -6 0 -11 5 -11 10 0 6 2 10 4 10 3 0 8 -4 11 -10z m2569 -22 c-12 -43 -20
-52 -27 -34 -4 11 -3 15 4 11 6 -4 10 -1 8 6 -3 26 1 39 12 39 6 0 8 -9 3 -22z
m-2577 -20 c-3 -8 -6 -5 -6 6 -1 11 2 17 5 13 3 -3 4 -12 1 -19z m1428 -13
c-2 -20 -6 -39 -9 -43 -12 -19 -16 -125 -5 -138 9 -11 4 -22 -26 -55 -20 -23
-34 -47 -31 -55 3 -8 1 -14 -4 -14 -6 0 -10 5 -10 11 0 15 33 69 42 69 4 0 8
5 8 11 0 5 -5 7 -11 3 -8 -4 -8 -1 -1 12 5 11 9 33 7 51 -1 20 2 30 8 26 6 -4
8 0 4 9 -3 9 -2 33 3 54 5 22 11 51 15 67 8 39 16 33 10 -8z m675 28 c-1 -15
-29 -45 -44 -47 -9 -1 -15 -4 -14 -7 5 -8 -85 -84 -95 -81 -5 2 -16 -6 -24
-18 -8 -11 -18 -18 -23 -15 -5 3 -18 -3 -30 -15 -11 -11 -20 -15 -20 -10 0 6
-4 10 -10 10 -5 0 -9 -5 -7 -12 1 -7 -8 -13 -21 -14 -13 -1 -28 -6 -35 -13
-15 -15 -40 -14 -34 2 2 6 11 12 19 12 8 0 22 6 31 13 8 7 27 14 42 16 15 2
36 11 48 21 12 11 23 17 24 15 1 -3 12 5 25 17 13 12 35 26 51 32 15 6 26 15
25 20 -2 5 17 25 42 44 50 40 50 40 50 30z m437 -53 c-1 -11 -7 -22 -15 -25
-7 -3 -11 -9 -8 -14 6 -9 -22 -26 -36 -23 -12 3 -9 -16 2 -21 6 -3 5 -4 -2 -3
-21 4 -21 27 1 33 11 3 23 14 27 26 5 17 24 45 31 47 1 0 1 -9 0 -20z m-4310
-12 c-3 -8 -6 -5 -6 6 -1 11 2 17 5 13 3 -3 4 -12 1 -19z m31 -88 c6 -16 7
-32 3 -34 -4 -3 -8 0 -8 7 0 7 -3 22 -7 35 -11 33 0 27 12 -8z m4212 -8 c0 -4
-10 -18 -22 -32 -13 -14 -36 -42 -51 -63 -16 -20 -33 -35 -38 -31 -12 7 -3 19
14 19 5 0 12 6 15 14 3 9 0 11 -9 6 -7 -5 2 10 21 33 18 23 37 39 41 36 8 -5
13 10 10 29 -1 5 3 6 9 2 5 -3 10 -9 10 -13z m-2493 -14 c-3 -8 -6 -5 -6 6 -1
11 2 17 5 13 3 -3 4 -12 1 -19z m1523 -58 l25 -1 -24 -12 c-19 -9 -25 -9 -28
0 -3 8 -12 9 -28 3 -19 -7 -23 -6 -19 5 4 9 15 13 27 11 12 -3 33 -5 47 -6z
m230 4 c0 -11 -50 -22 -71 -16 l-24 6 23 5 c30 8 72 10 72 5z m-105 -14 c3 -5
1 -10 -4 -10 -6 0 -11 5 -11 10 0 6 2 10 4 10 3 0 8 -4 11 -10z m-52 -7 c-7
-2 -19 -2 -25 0 -7 3 -2 5 12 5 14 0 19 -2 13 -5z m-3273 -28 c7 -9 8 -15 2
-15 -5 0 -12 7 -16 15 -3 8 -4 15 -2 15 2 0 9 -7 16 -15z m1667 -7 c-3 -8 -6
-5 -6 6 -1 11 2 17 5 13 3 -3 4 -12 1 -19z m2379 -30 c-9 -5 -15 -12 -13 -16
2 -4 -9 -19 -24 -34 -36 -34 -38 -20 -3 21 14 17 23 31 19 31 -3 0 -4 4 0 10
3 5 13 6 21 3 15 -5 15 -7 0 -15z m-4037 -2 c9 -11 9 -16 -1 -22 -7 -4 -10 -4
-6 1 4 4 3 14 -3 22 -6 7 -9 13 -6 13 2 0 10 -6 16 -14z m-171 -51 c-3 -3 -9
2 -12 12 -6 14 -5 15 5 6 7 -7 10 -15 7 -18z m3204 3 c-7 -7 -12 -8 -12 -2 0
14 12 26 19 19 2 -3 -1 -11 -7 -17z m-2989 -51 c-3 -5 -9 -3 -14 4 -4 7 -5 17
-2 22 3 5 9 3 14 -4 4 -7 5 -17 2 -22z m-183 -21 c0 -12 -5 -7 -19 24 -11 24
-11 24 3 6 9 -11 16 -24 16 -30z m4100 35 c0 -6 -5 -13 -10 -16 -6 -4 -8 -11
-4 -16 3 -5 1 -8 -4 -7 -5 2 -19 -8 -31 -21 -12 -13 -21 -19 -21 -13 0 6 7 17
15 25 8 8 11 17 8 21 -4 3 -1 6 6 6 7 0 9 4 6 10 -4 6 1 7 11 3 12 -4 15 -3
10 5 -4 7 -2 12 3 12 6 0 11 -4 11 -9z m-948 -37 c-8 -14 -9 -13 -9 10 0 18 3
24 9 18 7 -7 7 -16 0 -28z m-2943 -29 c1 -5 -6 -2 -15 7 -10 9 -13 21 -8 29 5
9 9 8 15 -7 4 -10 8 -23 8 -29z m2926 6 c3 -5 2 -12 -3 -15 -5 -3 -9 1 -9 9 0
17 3 19 12 6z m-3125 -21 c0 -5 -2 -10 -4 -10 -3 0 -8 5 -11 10 -3 6 -1 10 4
10 6 0 11 -4 11 -10z m4001 -13 c-6 -8 -7 -17 -3 -21 4 -4 0 -6 -8 -4 -8 2
-14 -3 -12 -10 1 -7 -5 -15 -13 -18 -8 -3 -12 -11 -8 -17 3 -5 1 -7 -5 -3 -6
3 -16 0 -24 -7 -7 -7 -17 -15 -23 -18 -5 -2 -9 -6 -9 -9 1 -3 -9 -16 -22 -30
-20 -21 -24 -22 -24 -7 0 10 5 15 10 12 6 -3 10 1 10 9 0 9 18 29 40 45 21 15
36 31 32 35 -3 4 2 4 11 0 10 -3 17 -3 15 2 -4 14 21 54 34 54 7 0 7 -4 -1
-13z m-4000 -30 c-10 -9 -11 -8 -5 6 3 10 9 15 12 12 3 -3 0 -11 -7 -18z
m3090 -10 c-10 -9 -11 -8 -5 6 3 10 9 15 12 12 3 -3 0 -11 -7 -18z m-3051 -60
c0 -12 0 -11 -24 28 l-17 30 20 -24 c12 -13 21 -28 21 -34z m3040 33 c-8 -5
-11 -10 -7 -10 4 0 3 -9 -3 -20 -6 -11 -16 -20 -23 -20 -9 0 -8 3 1 9 7 4 15
17 17 27 2 10 4 20 4 22 1 1 7 2 14 2 8 0 7 -4 -3 -10z m-3010 -82 c0 -4 -4
-8 -9 -8 -6 0 -12 4 -15 8 -3 5 1 9 9 9 8 0 15 -4 15 -9z m2963 -20 c-3 -13
-11 -27 -17 -33 -6 -5 -17 -21 -24 -35 l-12 -25 6 25 c3 14 12 30 20 36 8 6
14 18 14 26 0 13 9 28 16 28 1 0 0 -10 -3 -22z m803 5 c-1 -10 -12 -22 -24
-28 -12 -5 -22 -13 -22 -18 0 -4 -4 -5 -10 -2 -12 7 -14 26 -2 24 20 -3 32 2
26 13 -4 6 -3 8 3 5 6 -4 13 0 17 8 7 20 15 19 12 -2z m-1989 -35 c-3 -8 -6
-5 -6 6 -1 11 2 17 5 13 3 -3 4 -12 1 -19z m-1744 -18 c10 -16 15 -30 10 -30
-4 0 -16 14 -25 30 -9 17 -14 30 -10 30 4 0 16 -13 25 -30z m3667 -11 c0 -6
-7 -8 -16 -5 -12 5 -15 2 -10 -9 3 -9 2 -13 -4 -10 -6 3 -10 2 -10 -4 0 -19
-41 -34 -54 -20 -8 9 -8 10 2 5 8 -5 23 4 39 23 28 31 53 41 53 20z m-1901
-54 c0 -5 -4 -3 -9 5 -5 8 -9 22 -9 30 0 16 17 -16 18 -35z m-1719 -22 c0 -8
5 -11 10 -8 6 3 10 4 10 1 0 -3 -4 -7 -10 -11 -5 -3 -17 9 -26 27 -16 30 -16
32 -1 19 10 -7 17 -20 17 -28z m333 -20 c-4 -11 -8 -13 -11 -5 -2 7 -9 9 -15
5 -7 -4 -6 1 2 10 16 20 33 13 24 -10z m3177 17 c0 -5 -7 -10 -15 -10 -8 0
-14 -5 -12 -11 1 -6 -5 -14 -13 -16 -13 -4 -13 -3 0 6 13 10 13 11 0 11 -9 1
-5 6 10 15 30 17 30 17 30 5z m-700 -15 c0 -8 -2 -15 -4 -15 -2 0 -6 7 -10 15
-3 8 -1 15 4 15 6 0 10 -7 10 -15z m-2360 -90 c3 2 6 -5 6 -16 0 -18 -2 -18
-12 -5 -6 9 -15 12 -19 8 -5 -4 -5 -1 -1 6 5 8 0 12 -16 12 -18 0 -20 2 -8 10
13 8 12 10 -2 10 -10 0 -18 5 -18 10 0 6 -6 10 -14 10 -8 0 -16 6 -19 14 -11
28 5 22 50 -20 26 -23 50 -41 53 -39z m3000 64 c0 -12 -40 -18 -47 -7 -3 7 -1
8 5 4 7 -4 12 -3 12 2 0 5 7 9 15 9 8 0 15 -4 15 -8z m-3405 -11 c5 4 5 2 2
-5 -4 -6 -1 -14 5 -16 8 -3 8 -6 2 -6 -6 -1 -19 9 -30 21 -12 14 -13 18 -3 10
9 -6 20 -8 24 -4z m3335 -34 c0 -8 -4 -12 -10 -9 -5 3 -10 10 -10 16 0 5 5 9
10 9 6 0 10 -7 10 -16z m-3290 -24 c0 -5 3 -16 7 -26 6 -16 5 -17 -9 -4 -9 8
-14 17 -12 19 2 2 -1 10 -8 18 -8 11 -7 12 6 7 9 -3 16 -10 16 -14z m1690 -25
c0 6 4 3 9 -5 6 -8 7 -18 4 -23 -7 -11 -28 20 -37 53 -5 21 -3 20 9 -5 8 -16
14 -25 15 -20z m990 37 c0 -5 -7 -17 -15 -28 -14 -18 -14 -17 -4 9 12 27 19
34 19 19z m564 -7 c3 -8 2 -14 -2 -14 -4 1 -16 1 -27 0 -17 -1 -18 -3 -5 -12
13 -9 13 -10 0 -6 -8 2 -39 -9 -68 -26 -41 -23 -56 -27 -65 -18 -9 9 -8 11 7
5 15 -6 17 -4 11 6 -6 10 -4 12 8 7 8 -3 21 1 27 9 7 8 18 14 24 14 6 0 27 11
46 25 19 13 36 24 36 25 1 0 4 -7 8 -15z m-2828 -62 c-7 -7 -36 22 -36 36 0 6
9 2 21 -10 11 -11 18 -23 15 -26z m-377 2 c1 6 6 3 11 -5 16 -25 11 -31 -10
-13 -11 10 -20 24 -19 33 0 10 3 9 9 -5 5 -11 9 -15 9 -10z m2604 0 c-3 -9 -8
-14 -10 -11 -3 3 -2 9 2 15 9 16 15 13 8 -4z m-2173 -9 c0 -2 -9 -6 -20 -9
-11 -3 -20 -1 -20 4 0 5 9 9 20 9 11 0 20 -2 20 -4z m15 -16 c-3 -5 -12 -10
-18 -10 -7 0 -6 4 3 10 19 12 23 12 15 0z m2574 -6 c6 4 11 5 11 1 0 -13 -53
-26 -64 -15 -8 8 -6 9 7 4 10 -3 17 -3 16 2 -3 20 2 28 10 15 5 -7 14 -10 20
-7z m-2959 -50 c0 -2 -8 4 -18 14 -10 9 -17 23 -14 30 3 8 10 3 18 -14 8 -14
14 -28 14 -30z m2526 24 c-11 -15 -16 -18 -16 -7 0 16 21 42 28 34 2 -2 -3
-14 -12 -27z m-2097 -5 c0 -11 -3 -13 -6 -5 -2 6 -10 9 -15 6 -7 -4 -8 -2 -4
4 11 18 26 14 25 -5z m2466 7 c4 -6 -1 -7 -11 -3 -12 4 -15 3 -10 -5 5 -8 0
-12 -13 -12 -10 0 -27 -3 -37 -7 -11 -4 -15 -2 -12 7 2 7 14 14 26 15 12 1 25
5 29 8 9 10 21 9 28 -3z m-2344 -62 c3 -5 16 -10 29 -13 29 -6 39 -15 16 -15
-9 0 -30 7 -47 15 -16 9 -34 13 -39 10 -6 -3 -7 1 -4 10 5 11 2 14 -12 8 -13
-5 -15 -3 -9 7 6 10 4 12 -7 7 -15 -5 -38 9 -38 25 0 8 102 -42 111 -54z
m1089 58 c0 -3 -4 -8 -10 -11 -5 -3 -10 -1 -10 4 0 6 5 11 10 11 6 0 10 -2 10
-4z m1146 -15 c-4 -5 0 -11 6 -14 7 -2 1 -4 -14 -3 -31 1 -37 12 -10 19 9 3
18 5 20 6 2 0 1 -3 -2 -8z m-2714 -56 c15 0 22 -21 9 -30 -7 -4 -8 0 -4 11 4
12 3 15 -5 10 -13 -8 -45 21 -55 50 -5 12 2 8 18 -11 14 -16 30 -30 37 -30z
m2464 30 c10 -8 14 -15 7 -15 -6 0 -15 5 -18 10 -3 6 -11 10 -17 10 -5 0 0 -9
13 -21 l24 -21 -23 5 c-12 3 -20 1 -16 -4 3 -5 0 -9 -5 -9 -12 0 -15 43 -4 53
10 10 17 9 39 -8z m194 5 c0 -5 -3 -10 -7 -10 -5 0 -18 -3 -30 -6 -14 -4 -23
-2 -23 5 0 5 6 8 14 5 8 -3 17 -1 21 5 8 14 25 14 25 1z m-80 -10 c8 -5 11
-10 5 -10 -5 0 -17 5 -25 10 -8 5 -10 10 -5 10 6 0 17 -5 25 -10z m-975 -47
c-2 -8 -1 -12 4 -9 11 7 33 -18 25 -27 -4 -3 -16 1 -29 9 -20 13 -28 13 -71
-1 -27 -9 -57 -20 -66 -25 -23 -13 -25 -13 -31 3 -3 8 8 13 32 14 19 1 37 7
39 12 2 6 17 11 33 11 21 0 27 4 23 15 -4 8 -1 15 6 15 6 0 8 -5 4 -12 -5 -7
-3 -8 5 -3 9 5 10 10 2 18 -20 20 -11 30 9 12 12 -10 18 -25 15 -32z m905 35
c0 6 8 12 18 12 15 -1 15 -2 -2 -15 -26 -20 -47 -19 -39 1 5 13 7 13 14 2 7
-10 9 -10 9 0z m-1872 -57 c42 -12 52 -24 30 -37 -7 -4 -8 -3 -4 4 4 7 5 12 2
12 -11 0 -33 -55 -28 -69 3 -9 0 -11 -7 -7 -7 4 -10 20 -8 36 5 27 -19 60 -43
60 -6 0 -10 7 -10 16 0 12 3 14 13 6 6 -5 31 -15 55 -21z m-600 11 c-4 -10 72
-88 83 -85 4 2 5 -5 2 -14 -5 -12 -3 -14 7 -8 9 6 11 4 5 -5 -6 -10 -4 -12 9
-7 9 4 14 3 11 -2 -3 -5 -1 -12 5 -16 6 -4 7 -11 4 -17 -5 -7 -2 -9 7 -6 10 4
15 -1 15 -13 0 -17 -2 -17 -18 -2 -10 9 -16 18 -14 20 2 2 -16 24 -40 49 -24
25 -44 47 -44 50 0 4 -11 15 -25 26 -14 11 -23 24 -20 29 7 11 16 12 13 1z
m712 -43 c0 -6 9 -8 23 -4 19 5 20 5 4 -5 -13 -9 -22 -9 -32 0 -8 6 -23 9 -35
5 -11 -4 -20 -2 -20 4 0 6 14 11 30 11 17 0 30 -5 30 -11z m914 -21 c-2 -4 0
-9 6 -13 5 -3 15 -16 21 -28 6 -12 -4 -4 -24 18 -33 37 -42 70 -13 42 8 -6 12
-15 10 -19z m-259 8 c-16 -7 -32 -11 -35 -9 -8 7 24 23 45 22 15 0 13 -3 -10
-13z m-571 -2 c9 -3 16 -10 16 -14 0 -10 -38 -1 -46 11 -6 10 7 12 30 3z m520
-9 c3 -8 1 -15 -3 -15 -5 0 -11 7 -15 15 -3 8 -1 15 3 15 5 0 11 -7 15 -15z
m-74 -5 c-13 -8 -13 -10 2 -10 9 0 18 6 21 13 2 6 8 9 12 5 17 -16 -9 -30 -46
-25 -22 3 -37 1 -33 -4 3 -5 -2 -6 -10 -3 -23 9 -20 12 17 23 43 12 55 13 37
1z m-366 -9 c3 -4 -6 -6 -19 -3 -14 2 -25 6 -25 8 0 8 39 4 44 -5z m61 -1 l20
-9 -20 0 c-11 0 -27 4 -35 9 -13 9 -13 10 0 9 8 0 24 -4 35 -9z m78 -7 c-7 -2
-21 -2 -30 0 -10 3 -4 5 12 5 17 0 24 -2 18 -5z m127 1 c-34 -7 -110 -9 -110
-2 0 5 28 7 63 7 34 -1 55 -3 47 -5z m-559 -65 c-5 -13 -10 -19 -10 -12 -1 15
10 45 15 40 3 -2 0 -15 -5 -28z m1109 -5 c0 -8 -5 -12 -10 -9 -6 4 -8 11 -5
16 9 14 15 11 15 -7z m21 -46 c-10 -11 -11 -9 -5 6 6 15 4 17 -6 11 -9 -6 -11
-4 -5 4 5 9 10 10 18 2 8 -8 7 -14 -2 -23z m-1124 0 c-3 -8 -6 -5 -6 6 -1 11
2 17 5 13 3 -3 4 -12 1 -19z m-407 -13 c7 -9 8 -15 2 -15 -5 0 -12 7 -16 15
-3 8 -4 15 -2 15 2 0 9 -7 16 -15z m1571 -16 c8 -17 8 -20 -2 -17 -7 2 -13 12
-15 21 -3 23 3 21 17 -4z m-1531 -77 c0 -6 -4 -13 -9 -17 -6 -3 -8 3 -6 14 2
11 -3 25 -11 32 -8 6 -14 16 -14 22 0 5 9 -2 20 -16 11 -14 20 -30 20 -35z
m1610 -30 c-5 -2 -20 7 -32 19 -13 12 -17 19 -10 15 6 -4 12 -2 12 3 0 6 -4
11 -10 11 -5 0 -10 6 -10 13 0 6 14 -4 30 -23 16 -19 25 -36 20 -38z m-1200 4
c0 -3 -4 -8 -10 -11 -5 -3 -10 -1 -10 4 0 6 5 11 10 11 6 0 10 -2 10 -4z
m1226 -38 c0 -10 -3 -18 -7 -18 -4 0 -9 8 -11 18 -3 10 0 19 6 19 7 0 12 -9
12 -19z m-1625 -31 c-10 -9 -11 -8 -5 6 3 10 9 15 12 12 3 -3 0 -11 -7 -18z
m414 13 c-3 -5 -2 -10 3 -10 4 0 20 -18 35 -40 28 -44 28 -51 -3 -20 -11 11
-17 20 -13 20 3 0 -3 10 -15 23 -12 13 -19 27 -15 30 10 10 15 8 8 -3z m1239
-16 c3 -8 2 -12 -4 -9 -6 3 -10 10 -10 16 0 14 7 11 14 -7z m-2259 -4 c-3 -5
-15 -10 -26 -10 -10 0 -19 5 -19 10 0 6 12 10 26 10 14 0 23 -4 19 -10z m180
0 c3 -5 -3 -10 -15 -10 -12 0 -18 5 -15 10 3 6 10 10 15 10 5 0 12 -4 15 -10z
m51 -8 c-10 -2 -22 0 -28 6 -6 6 0 7 19 4 21 -5 23 -7 9 -10z m-426 -7 c-7 -8
-17 -15 -23 -15 -6 0 -2 7 9 15 25 19 30 19 14 0z m80 5 c-8 -5 -22 -9 -30 -9
-10 0 -8 3 5 9 27 12 43 12 25 0z m732 -20 c-5 -38 -14 -43 -38 -25 -10 9 -14
15 -9 14 23 -3 33 2 38 21 8 31 14 24 9 -10z m-275 14 c-3 -3 -12 -4 -19 -1
-8 3 -5 6 6 6 11 1 17 -2 13 -5z m48 -4 c3 -5 2 -10 -4 -10 -5 0 -13 5 -16 10
-3 6 -2 10 4 10 5 0 13 -4 16 -10z m-635 -10 c12 -8 9 -9 -12 -8 -15 1 -24 6
-22 10 7 10 16 10 34 -2z m2517 -7 c0 -9 -4 -10 -14 -2 -7 6 -13 12 -13 14 0
1 6 2 13 2 8 0 14 -6 14 -14z m-2577 -7 c0 -5 -154 -60 -159 -57 -2 1 -7 -3
-11 -9 -5 -9 -9 -9 -14 -1 -4 6 -2 12 3 12 6 1 14 2 19 4 51 14 61 18 56 26
-3 5 3 6 12 2 12 -5 15 -3 9 6 -5 10 -2 12 11 7 11 -3 26 -1 34 4 15 10 40 13
40 6z m-227 -110 c-4 -8 -12 -15 -18 -16 -5 -1 -9 -6 -7 -12 1 -5 -2 -7 -8 -3
-8 5 -7 12 2 23 26 33 48 39 31 8z m1607 -19 c0 -8 -11 -24 -25 -37 -13 -12
-22 -28 -18 -34 4 -7 1 -6 -7 1 -10 9 -8 16 12 35 14 13 23 29 21 36 -3 6 0
12 6 12 6 0 11 -6 11 -13z m-1667 -40 c-10 -10 -20 -14 -26 -8 -5 5 -2 16 10
28 23 24 39 6 16 -20z m2914 11 c-3 -8 -6 -5 -6 6 -1 11 2 17 5 13 3 -3 4 -12
1 -19z m-2942 -37 c3 -5 2 -12 -3 -15 -5 -3 -9 1 -9 9 0 17 3 19 12 6z m2949
-42 c-11 -21 -11 -28 -1 -32 7 -2 8 -8 3 -13 -5 -5 -11 -4 -13 4 -3 6 -9 12
-14 12 -6 0 -7 -4 -4 -10 4 -6 -1 -7 -11 -3 -16 6 -15 8 4 16 22 10 38 41 34
67 -2 13 -1 13 7 1 6 -10 5 -24 -5 -42z m-1319 31 c3 -5 -1 -10 -10 -10 -9 0
-13 5 -10 10 3 6 8 10 10 10 2 0 7 -4 10 -10z m1702 -20 c-1 -10 -4 -17 -8
-14 -4 2 -7 13 -6 24 1 10 4 17 8 14 4 -2 7 -13 6 -24z m-1743 -11 c-3 -5 -10
-7 -15 -3 -5 3 -7 10 -3 15 3 5 10 7 15 3 5 -3 7 -10 3 -15z m-34 -9 c0 -5 -5
-10 -11 -10 -5 0 -7 5 -4 10 3 6 8 10 11 10 2 0 4 -4 4 -10z m843 3 c-7 -2
-19 -2 -25 0 -7 3 -2 5 12 5 14 0 19 -2 13 -5z m275 0 c-10 -2 -26 -2 -35 0
-10 3 -2 5 17 5 19 0 27 -2 18 -5z m-351 -9 c-3 -3 -12 -4 -19 -1 -8 3 -5 6 6
6 11 1 17 -2 13 -5z m1090 -80 c0 -8 -3 -11 -6 -8 -3 3 -6 9 -6 12 0 13 -32
52 -37 47 -3 -3 -8 5 -11 17 -5 18 1 15 27 -15 18 -22 33 -45 33 -53z m-1927
56 c-8 -5 -19 -10 -25 -10 -5 0 -3 5 5 10 8 5 20 10 25 10 6 0 3 -5 -5 -10z
m-43 -16 c-3 -3 -12 -4 -19 -1 -8 3 -5 6 6 6 11 1 17 -2 13 -5z m667 -18 c-22
-12 -44 -17 -44 -9 0 12 35 30 48 25 11 -4 10 -7 -4 -16z m-771 -13 c-7 -2
-19 -2 -25 0 -7 3 -2 5 12 5 14 0 19 -2 13 -5z m-73 -13 c0 -5 -5 -10 -11 -10
-5 0 -7 5 -4 10 3 6 8 10 11 10 2 0 4 -4 4 -10z m35 0 c3 -6 -1 -7 -9 -4 -18
7 -21 14 -7 14 6 0 13 -4 16 -10z m-65 -9 c0 -4 -11 -6 -25 -3 -14 2 -25 6
-25 8 0 2 11 4 25 4 14 0 25 -4 25 -9z m781 -13 c-25 -11 -53 -30 -63 -42 -9
-11 -17 -17 -18 -13 0 15 36 46 70 61 53 23 62 17 11 -6z m-916 -8 c-3 -5 -11
-10 -16 -10 -6 0 -7 5 -4 10 3 6 11 10 16 10 6 0 7 -4 4 -10z m-38 -6 c-3 -3
-12 -4 -19 -1 -8 3 -5 6 6 6 11 1 17 -2 13 -5z m80 0 c-3 -3 -12 -4 -19 -1 -8
3 -5 6 6 6 11 1 17 -2 13 -5z m-140 -10 c-3 -3 -12 -4 -19 -1 -8 3 -5 6 6 6
11 1 17 -2 13 -5z m-794 -47 c12 -2 -6 -4 -41 -3 l-63 1 28 22 c26 21 27 21
40 3 7 -10 23 -21 36 -23z m704 35 c7 -4 -11 -8 -40 -9 -46 0 -48 0 -17 7 19
4 37 8 40 9 3 0 10 -3 17 -7z m2518 -2 c3 -5 1 -10 -4 -10 -6 0 -11 5 -11 10
0 6 2 10 4 10 3 0 8 -4 11 -10z m-3428 -16 c-3 -3 -12 -4 -19 -1 -8 3 -5 6 6
6 11 1 17 -2 13 -5z m28 -4 c3 -5 1 -10 -4 -10 -6 0 -11 5 -11 10 0 6 2 10 4
10 3 0 8 -4 11 -10z m700 0 c-27 -12 -43 -12 -25 0 8 5 22 9 30 9 10 0 8 -3
-5 -9z m78 3 c-7 -2 -19 -2 -25 0 -7 3 -2 5 12 5 14 0 19 -2 13 -5z m-716 -9
c-3 -3 -12 -4 -19 -1 -8 3 -5 6 6 6 11 1 17 -2 13 -5z m530 0 c-3 -3 -12 -4
-19 -1 -8 3 -5 6 6 6 11 1 17 -2 13 -5z m-239 -11 c-27 -2 -69 -2 -95 0 -27 2
-5 3 47 3 52 0 74 -1 48 -3z m135 0 c-13 -2 -33 -2 -45 0 -13 2 -3 4 22 4 25
0 35 -2 23 -4z m1395 -7 c-7 -6 -18 -17 -24 -24 -9 -10 -13 -9 -18 3 -3 9 -2
13 4 10 6 -3 13 0 16 8 2 7 12 14 20 14 12 0 12 -2 2 -11z m1492 -6 c0 -5 -7
-10 -16 -10 -8 0 -12 -4 -9 -10 3 -5 -2 -10 -12 -10 -16 1 -15 3 6 20 26 23
31 24 31 10z m-1544 -34 c-1 -7 -14 -28 -29 -45 -15 -18 -27 -38 -27 -44 -1
-7 -12 -25 -27 -42 -18 -21 -21 -23 -9 -5 9 14 19 32 22 40 3 8 10 22 15 30
55 87 59 92 55 66z m1484 -10 c0 -3 -4 -8 -10 -11 -5 -3 -10 -1 -10 4 0 6 5
11 10 11 6 0 10 -2 10 -4z m-80 -46 c-8 -5 -19 -10 -25 -10 -5 0 -3 5 5 10 8
5 20 10 25 10 6 0 3 -5 -5 -10z m-60 -20 c-8 -5 -19 -10 -25 -10 -5 0 -3 5 5
10 8 5 20 10 25 10 6 0 3 -5 -5 -10z m-135 -40 c-3 -5 -12 -10 -18 -10 -7 0
-6 4 3 10 19 12 23 12 15 0z m-38 -16 c-3 -3 -12 -4 -19 -1 -8 3 -5 6 6 6 11
1 17 -2 13 -5z m-132 -24 c-3 -5 -14 -10 -23 -10 -15 0 -15 2 -2 10 20 13 33
13 25 0z m42 4 c-3 -3 -12 -4 -19 -1 -8 3 -5 6 6 6 11 1 17 -2 13 -5z m-175
-21 c-6 -2 -10 -9 -6 -14 3 -5 -5 -9 -18 -9 -22 1 -22 1 -4 15 11 8 25 15 30
14 6 0 5 -3 -2 -6z m-55 -19 c-3 -3 -12 -4 -19 -1 -8 3 -5 6 6 6 11 1 17 -2
13 -5z m-863 -16 c-3 -4 0 -8 6 -8 6 0 8 -4 5 -10 -3 -5 -11 -10 -16 -10 -6 0
-7 5 -3 11 4 8 -1 9 -16 4 -20 -6 -21 -5 -9 7 14 15 42 21 33 6z m806 2 c-8
-5 -28 -9 -45 -9 l-30 1 30 8 c17 4 37 8 45 9 13 1 13 0 0 -9z m-549 -14 c-9
-11 -9 -16 0 -22 8 -4 9 -3 5 4 -5 8 1 12 15 12 22 0 22 0 4 -14 -15 -10 -25
-11 -39 -4 -19 10 -19 11 -1 24 24 18 31 18 16 0z m404 4 c-3 -5 -18 -9 -33
-9 l-27 1 30 8 c17 4 31 8 33 9 2 0 0 -3 -3 -9z m-145 -14 c0 -2 -7 -7 -16
-10 -8 -3 -12 -2 -9 4 6 10 25 14 25 6z m-305 -24 c-3 -3 -11 0 -18 7 -9 10
-8 11 6 5 10 -3 15 -9 12 -12z"/>
<path d="M1047 7439 c12 -12 24 -21 27 -18 2 2 -8 13 -22 23 l-27 19 22 -24z"/>
<path d="M1375 6979 c-4 -6 -5 -12 -2 -15 2 -3 7 2 10 11 7 17 1 20 -8 4z"/>
<path d="M2805 6869 c-4 -6 -5 -12 -2 -15 2 -3 7 2 10 11 7 17 1 20 -8 4z"/>
<path d="M2943 6815 c0 -8 4 -12 9 -9 5 3 6 10 3 15 -9 13 -12 11 -12 -6z"/>
<path d="M2886 6772 l-20 -27 23 20 c13 11 26 19 30 18 3 -1 8 1 11 4 3 4 0 3
-7 0 -6 -4 -13 -3 -15 2 -1 5 -12 -3 -22 -17z"/>
<path d="M2748 6673 c7 -3 16 -2 19 1 4 3 -2 6 -13 5 -11 0 -14 -3 -6 -6z"/>
<path d="M664 7079 c-4 -7 -3 -9 4 -5 5 3 13 0 15 -6 4 -9 6 -10 6 -1 1 17
-16 25 -25 12z"/>
<path d="M1123 6975 c0 -8 4 -12 9 -9 4 3 8 9 8 15 0 5 -4 9 -8 9 -5 0 -9 -7
-9 -15z"/>
<path d="M785 6951 c-3 -5 -2 -12 3 -15 5 -3 9 1 9 9 0 17 -3 19 -12 6z"/>
<path d="M920 6866 c0 -2 7 -7 16 -10 8 -3 12 -2 9 4 -6 10 -25 14 -25 6z"/>
<path d="M845 6769 c-4 -6 -5 -12 -2 -15 2 -3 7 2 10 11 7 17 1 20 -8 4z"/>
<path d="M1509 6753 c-13 -16 -12 -17 4 -4 9 7 17 15 17 17 0 8 -8 3 -21 -13z"/>
<path d="M2116 6632 c-3 -5 1 -9 9 -9 8 0 12 4 9 9 -3 4 -7 8 -9 8 -2 0 -6 -4
-9 -8z"/>
<path d="M2088 6608 c5 -5 16 -8 23 -6 8 3 3 7 -10 11 -17 4 -21 3 -13 -5z"/>
<path d="M2106 6568 c-25 -36 -21 -48 13 -35 34 13 73 -1 115 -39 37 -35 41
-26 9 22 -50 75 -106 97 -137 52z"/>
<path d="M1270 6573 c-19 -7 -70 -54 -70 -65 0 -5 14 -1 31 8 18 9 46 14 66
12 31 -4 34 -2 31 21 -3 26 -26 36 -58 24z"/>
<path d="M2260 6546 c7 -7 13 -7 20 0 6 6 3 10 -10 10 -13 0 -16 -4 -10 -10z"/>
<path d="M1225 6345 c-21 -22 -36 -49 -40 -76 -9 -50 2 -126 21 -156 14 -22
13 -22 -51 -22 -35 0 -73 -4 -82 -10 -14 -7 -1 -10 48 -10 47 1 80 -6 113 -20
l46 -22 -20 -22 c-33 -35 -72 -107 -90 -166 -16 -50 -20 -55 -58 -66 -41 -13
-107 -53 -99 -62 3 -2 18 2 34 10 44 22 107 32 101 15 -3 -7 -2 -40 3 -72 24
-151 165 -307 281 -310 35 -1 37 -3 49 -46 31 -116 99 -207 172 -230 47 -15
87 -8 143 25 54 32 95 94 129 197 25 78 30 85 82 121 66 47 134 136 180 237
19 41 36 77 38 79 2 2 23 -6 46 -18 23 -12 43 -20 46 -18 2 3 -15 20 -39 40
-44 35 -100 59 -130 54 -32 -5 -28 -14 12 -26 22 -6 40 -14 40 -17 0 -3 -19
-42 -42 -87 -53 -102 -138 -194 -220 -237 -79 -42 -186 -52 -266 -26 -61 21
-72 33 -83 90 l-8 44 89 90 c105 104 141 170 142 256 1 75 -27 117 -100 153
-105 52 -278 32 -351 -40 -41 -39 -51 -65 -51 -130 0 -98 72 -213 181 -289 32
-23 59 -49 59 -57 0 -9 3 -33 6 -53 6 -37 5 -38 -37 -58 -24 -11 -57 -20 -72
-20 -67 0 -175 87 -222 180 -68 133 -45 282 68 443 23 34 51 81 60 105 42 106
-1 262 -74 262 -12 0 -36 -16 -54 -35z m71 -30 c21 -32 6 -75 -25 -75 -37 0
-53 56 -25 84 21 22 31 20 50 -9z m40 -152 c-3 -8 -10 -12 -15 -8 -5 3 -13 1
-16 -5 -4 -6 -2 -9 3 -8 6 2 10 0 11 -4 3 -22 0 -29 -10 -22 -7 4 -7 -1 1 -16
10 -18 10 -21 -2 -14 -21 14 -35 13 -35 -2 0 -10 4 -11 14 -3 8 7 13 8 13 1 0
-15 -22 -20 -45 -11 -11 4 -16 8 -12 8 5 1 1 8 -8 17 -9 9 -13 19 -10 22 3 4
10 0 15 -8 6 -8 10 -11 10 -7 0 5 -8 21 -18 35 -16 23 -20 53 -13 95 1 11 21
-2 21 -14 0 -6 -4 -7 -10 -4 -5 3 -10 1 -10 -4 0 -6 4 -11 10 -11 5 0 7 -6 4
-14 -7 -17 31 -40 52 -32 8 3 14 18 14 32 0 15 8 36 18 47 17 19 17 18 20 -18
2 -20 1 -44 -2 -52z m-56 27 c0 -11 -4 -20 -9 -20 -14 0 -23 18 -16 30 10 17
25 11 25 -10z m371 -182 c53 -17 89 -47 89 -72 0 -29 -43 -69 -100 -95 -87
-40 -196 -19 -253 48 -29 35 -27 50 11 84 45 41 181 60 253 35z m100 -25 c13
-16 12 -17 -3 -4 -10 7 -18 15 -18 17 0 8 8 3 21 -13z m25 -156 c-9 -30 -25
-62 -36 -72 -11 -10 -20 -24 -20 -32 0 -8 -5 -11 -12 -7 -7 5 -8 3 -4 -5 9
-15 -70 -94 -85 -85 -5 3 -8 2 -7 -3 1 -4 -10 -21 -25 -37 -21 -23 -30 -27
-39 -18 -7 7 -8 12 -2 13 5 0 -7 6 -26 14 -19 7 -34 18 -32 24 1 6 -2 10 -6 9
-13 -4 -97 82 -97 99 0 7 -5 17 -11 21 -15 11 -37 69 -29 81 3 6 0 11 -7 11
-10 0 -10 2 0 9 8 4 13 11 13 15 -1 3 1 6 4 6 3 0 10 0 16 0 6 0 8 -7 5 -16
-3 -8 -2 -13 3 -10 5 3 14 -1 21 -9 7 -8 18 -15 25 -15 7 0 18 -7 25 -15 8
-10 25 -14 46 -12 18 3 31 0 28 -5 -3 -5 13 -6 38 -2 24 4 44 11 46 15 2 4 14
4 27 -1 18 -7 23 -6 20 3 -3 7 13 22 35 35 22 12 40 27 40 33 0 6 4 8 9 5 12
-8 26 24 31 67 1 14 5 7 12 -21 7 -32 5 -56 -6 -95z m-89 -467 c7 0 13 -9 13
-20 0 -13 -7 -20 -20 -20 -26 0 -78 -26 -107 -53 -18 -16 -24 -17 -28 -6 -2 8
-11 33 -19 56 l-15 41 36 24 36 24 45 -23 c25 -13 51 -23 59 -23z m210 -26
c-9 -29 -15 -34 -31 -30 -12 3 -39 9 -61 12 -68 9 -85 14 -85 24 0 6 32 10 73
10 39 0 79 5 87 10 25 16 29 11 17 -26z m-101 -45 c32 -6 63 -14 67 -19 10 -9
-16 -65 -47 -98 -67 -75 -189 -68 -243 14 -17 27 -17 27 20 59 60 52 106 62
203 44z"/>
<path d="M1416 5937 c3 -10 9 -15 12 -12 3 3 0 11 -7 18 -10 9 -11 8 -5 -6z"/>
<path d="M1607 5899 c7 -7 15 -10 18 -7 3 3 -2 9 -12 12 -14 6 -15 5 -6 -5z"/>
<path d="M1630 5235 c-7 -9 -11 -17 -9 -20 3 -2 10 5 17 15 14 24 10 26 -8 5z"/>
<path d="M1620 5193 c5 -2 8 -9 5 -13 -3 -5 -1 -11 4 -14 5 -4 8 2 7 11 -2 9
-8 18 -15 19 -6 1 -7 0 -1 -3z"/>
<path d="M2093 6364 c-24 -10 -53 -71 -58 -125 -11 -112 56 -211 130 -192 16
4 53 8 82 8 64 0 53 16 -15 23 l-49 4 15 31 c48 96 6 258 -66 256 -15 0 -32
-3 -39 -5z m51 -43 c34 -37 -1 -100 -41 -75 -34 21 -24 94 12 94 6 0 20 -9 29
-19z m40 -144 c-3 -58 -3 -59 -14 -52 -5 3 -7 0 -4 -9 3 -8 0 -21 -8 -29 -11
-13 -17 -13 -40 -1 -16 8 -28 20 -28 26 0 6 -8 20 -17 31 -10 11 -12 17 -5 13
6 -4 12 -2 12 3 0 6 -5 11 -10 11 -12 0 -10 59 2 66 4 3 8 -9 8 -26 0 -18 4
-29 10 -25 5 3 7 0 4 -8 -6 -17 19 -29 41 -21 8 4 16 11 16 18 2 22 5 31 13
56 8 22 10 23 15 7 4 -11 6 -38 5 -60z m-54 17 c0 -8 -4 -14 -10 -14 -5 0 -10
9 -10 21 0 11 5 17 10 14 6 -3 10 -13 10 -21z"/>
<path d="M1806 6031 c4 -17 3 -21 -6 -16 -9 6 -11 4 -5 -4 5 -9 11 -9 17 -3 7
7 6 16 -1 29 -11 16 -11 15 -5 -6z"/>
<path d="M1010 6006 c0 -2 7 -9 15 -16 9 -7 15 -8 15 -2 0 5 -7 12 -15 16 -8
3 -15 4 -15 2z"/>
<path d="M1253 5855 c0 -8 4 -12 9 -9 5 3 6 10 3 15 -9 13 -12 11 -12 -6z"/>
<path d="M2103 5825 c-3 -9 -3 -19 1 -22 3 -4 6 1 6 10 0 8 6 18 13 20 9 4 9
6 -1 6 -7 1 -15 -6 -19 -14z"/>
<path d="M1816 5747 c3 -10 9 -15 12 -12 3 3 0 11 -7 18 -10 9 -11 8 -5 -6z"/>
<path d="M990 5735 c-11 -13 -10 -14 4 -9 9 3 16 10 16 15 0 13 -6 11 -20 -6z"/>
<path d="M926 5646 c7 -19 20 -21 30 -3 4 6 4 9 -1 5 -4 -4 -14 -3 -22 4 -11
8 -12 7 -7 -6z"/>
<path d="M2029 5568 c0 -2 -2 -11 -4 -21 -3 -15 -1 -16 11 -6 7 6 11 15 8 20
-5 9 -13 12 -15 7z"/>
<path d="M1460 5551 c0 -6 4 -13 10 -16 6 -3 7 1 4 9 -7 18 -14 21 -14 7z"/>
<path d="M1661 5547 c-8 -10 -7 -14 2 -14 8 0 14 6 14 14 0 7 -1 13 -2 13 -2
0 -8 -6 -14 -13z"/>
<path d="M1025 5511 c-3 -5 -2 -12 3 -15 5 -3 9 1 9 9 0 17 -3 19 -12 6z"/>
<path d="M1317 5509 c7 -7 15 -10 18 -7 3 3 -2 9 -12 12 -14 6 -15 5 -6 -5z"/>
<path d="M2413 5505 c0 -8 4 -12 9 -9 5 3 6 10 3 15 -9 13 -12 11 -12 -6z"/>
<path d="M2126 5502 c-3 -5 1 -9 9 -9 8 0 12 4 9 9 -3 4 -7 8 -9 8 -2 0 -6 -4
-9 -8z"/>
<path d="M2121 5466 c-8 -10 -9 -16 -1 -21 6 -4 9 -1 8 7 -2 7 3 12 10 10 8
-1 11 2 7 8 -8 13 -10 13 -24 -4z"/>
<path d="M2156 5287 c3 -10 9 -15 12 -12 3 3 0 11 -7 18 -10 9 -11 8 -5 -6z"/>
<path d="M1375 5269 c-4 -6 -5 -12 -2 -15 2 -3 7 2 10 11 7 17 1 20 -8 4z"/>
<path d="M1400 5276 c0 -2 7 -7 16 -10 8 -3 12 -2 9 4 -6 10 -25 14 -25 6z"/>
<path d="M2014 5260 c0 -13 4 -16 10 -10 7 7 7 13 0 20 -6 6 -10 3 -10 -10z"/>
<path d="M1815 5080 c-3 -6 1 -7 9 -4 18 7 21 14 7 14 -6 0 -13 -4 -16 -10z"/>
<path d="M1782 5061 c-11 -7 -11 -9 0 -14 9 -3 15 1 15 9 0 8 -1 14 -1 14 -1
0 -7 -4 -14 -9z"/>
<path d="M2171 5169 c-35 -22 -83 -49 -108 -61 -24 -11 -42 -22 -40 -24 11
-11 196 90 212 117 9 14 5 12 -64 -32z"/>
<path d="M2484 4506 c1 -8 5 -18 8 -22 4 -3 5 1 4 10 -1 8 -5 18 -8 22 -4 3
-5 -1 -4 -10z"/>
<path d="M2579 4433 c-13 -16 -12 -17 4 -4 16 13 21 21 13 21 -2 0 -10 -8 -17
-17z"/>
<path d="M2670 4356 c0 -2 8 -10 18 -17 15 -13 16 -12 3 4 -13 16 -21 21 -21
13z"/>
<path d="M2870 4170 c0 -5 5 -10 11 -10 5 0 7 5 4 10 -3 6 -8 10 -11 10 -2 0
-4 -4 -4 -10z"/>
<path d="M3250 3946 c0 -2 8 -10 18 -17 15 -13 16 -12 3 4 -13 16 -21 21 -21
13z"/>
<path d="M3455 3770 c-3 -5 -2 -10 4 -10 5 0 13 5 16 10 3 6 2 10 -4 10 -5 0
-13 -4 -16 -10z"/>
<path d="M3546 3703 c21 -16 31 -16 39 -3 4 6 -1 7 -11 3 -10 -4 -15 -2 -11 3
3 5 -3 10 -14 10 -19 0 -19 -1 -3 -13z"/>
<path d="M3723 3545 c-10 -11 -9 -13 6 -12 11 1 17 7 14 14 -6 16 -5 16 -20
-2z"/>
<path d="M3275 3490 c-16 -7 -17 -9 -3 -9 9 -1 20 4 23 9 7 11 7 11 -20 0z"/>
<path d="M2360 3481 c0 -6 4 -13 10 -16 6 -3 7 1 4 9 -7 18 -14 21 -14 7z"/>
<path d="M3216 3457 c3 -10 9 -15 12 -12 3 3 0 11 -7 18 -10 9 -11 8 -5 -6z"/>
<path d="M3603 3375 c0 -7 6 -11 14 -8 7 3 13 6 13 8 0 2 -6 5 -13 8 -8 3 -14
-1 -14 -8z"/>
<path d="M3085 3351 c-3 -5 -2 -12 3 -15 5 -3 9 1 9 9 0 17 -3 19 -12 6z"/>
<path d="M1895 3320 c-3 -6 1 -7 9 -4 18 7 21 14 7 14 -6 0 -13 -4 -16 -10z"/>
<path d="M1736 3182 c-3 -5 1 -9 9 -9 8 0 12 4 9 9 -3 4 -7 8 -9 8 -2 0 -6 -4
-9 -8z"/>
<path d="M1736 3152 c-3 -5 1 -9 9 -9 8 0 12 4 9 9 -3 4 -7 8 -9 8 -2 0 -6 -4
-9 -8z"/>
<path d="M1170 1911 c5 -11 15 -23 21 -27 6 -3 3 5 -6 20 -20 30 -30 35 -15 7z"/>
<path d="M2212 1797 c-6 -7 -7 -18 -3 -26 6 -9 11 -10 15 -2 4 6 1 11 -6 11
-8 1 -6 6 6 15 11 8 15 15 9 15 -6 0 -15 -6 -21 -13z"/>
<path d="M1650 1576 c0 -2 7 -7 16 -10 8 -3 12 -2 9 4 -6 10 -25 14 -25 6z"/>
<path d="M2775 1506 c-118 -81 -326 -151 -520 -176 l-70 -9 90 4 c107 5 146
10 200 29 22 8 64 22 92 30 64 20 220 104 227 123 7 16 5 16 -19 -1z"/>
<path d="M2800 1425 c0 -7 30 -13 34 -7 3 4 -4 9 -15 9 -10 1 -19 0 -19 -2z"/>
<path d="M2986 1403 c-6 -14 -5 -15 5 -6 7 7 10 15 7 18 -3 3 -9 -2 -12 -12z"/>
<path d="M3104 1272 c3 -5 0 -13 -6 -15 -9 -4 -10 -6 -1 -6 17 -1 25 16 12 25
-7 4 -9 3 -5 -4z"/>
<path d="M3157 1179 c7 -9 11 -18 8 -21 -3 -3 3 -11 12 -19 16 -12 17 -12 6 2
-7 9 -11 18 -8 21 3 3 -3 11 -12 19 -16 12 -17 12 -6 -2z"/>
<path d="M3314 949 c-3 -6 -2 -15 3 -20 5 -5 9 -1 9 11 0 23 -2 24 -12 9z"/>
<path d="M2748 573 c7 -3 16 -2 19 1 4 3 -2 6 -13 5 -11 0 -14 -3 -6 -6z"/>
<path d="M3668 573 c7 -3 16 -2 19 1 4 3 -2 6 -13 5 -11 0 -14 -3 -6 -6z"/>
<path d="M2527 519 c7 -7 15 -10 18 -7 3 3 -2 9 -12 12 -14 6 -15 5 -6 -5z"/>
<path d="M2496 323 c-6 -14 -5 -15 5 -6 7 7 10 15 7 18 -3 3 -9 -2 -12 -12z"/>
<path d="M1501 4998 c0 -9 25 -44 58 -76 59 -59 87 -72 163 -72 43 0 118 37
154 77 44 48 35 57 -10 11 -19 -20 -37 -33 -40 -30 -3 3 -6 1 -6 -5 0 -9 -44
-26 -101 -37 -27 -6 -121 21 -116 32 4 10 -61 71 -68 64 -3 -3 -5 2 -5 12 0 9
-4 15 -9 11 -5 -3 -12 3 -14 12 -4 16 -5 16 -6 1z"/>
<path d="M1697 3343 c3 -7 6 -13 8 -13 1 0 7 6 13 13 8 10 6 13 -7 13 -11 0
-17 -6 -14 -13z"/>
<path d="M1629 3263 c-13 -16 -12 -17 4 -4 9 7 17 15 17 17 0 8 -8 3 -21 -13z"/>
<path d="M1070 4021 c0 -6 4 -13 10 -16 6 -3 7 1 4 9 -7 18 -14 21 -14 7z"/>
<path d="M761 3374 c0 -11 3 -14 6 -6 3 7 2 16 -1 19 -3 4 -6 -2 -5 -13z"/>
<path d="M2405 3120 c-3 -6 1 -7 9 -4 18 7 21 14 7 14 -6 0 -13 -4 -16 -10z"/>
<path d="M5608 3143 c7 -3 16 -2 19 1 4 3 -2 6 -13 5 -11 0 -14 -3 -6 -6z"/>
<path d="M5556 3033 c-6 -14 -5 -15 5 -6 7 7 10 15 7 18 -3 3 -9 -2 -12 -12z"/>
<path d="M5480 2976 c0 -2 7 -7 16 -10 8 -3 12 -2 9 4 -6 10 -25 14 -25 6z"/>
<path d="M4657 1835 c-20 -14 -37 -28 -37 -31 0 -6 49 20 75 40 33 25 2 18
-38 -9z"/>
<path d="M4566 1832 c-3 -5 1 -9 9 -9 8 0 12 4 9 9 -3 4 -7 8 -9 8 -2 0 -6 -4
-9 -8z"/>
<path d="M4575 1790 c-11 -18 -193 -98 -305 -135 -82 -26 -140 -38 -232 -46
-68 -5 -126 -13 -130 -17 -11 -11 201 4 250 17 24 7 53 9 65 6 16 -5 18 -4 8
3 -10 7 -2 12 30 18 24 5 50 8 56 7 7 0 10 4 6 10 -4 6 0 8 10 4 10 -3 17 -2
17 4 0 6 10 8 23 5 12 -3 16 -3 9 0 -9 4 2 14 30 26 30 13 48 17 58 10 22 -14
64 20 47 37 -9 10 -6 11 16 7 18 -3 25 -1 21 6 -5 7 -2 9 8 5 9 -3 24 1 35 9
17 13 17 14 -2 8 -20 -6 -20 -5 -1 10 17 14 17 16 4 16 -9 0 -20 -5 -23 -10z
m-76 -77 c-6 -7 -15 -10 -20 -7 -13 8 -3 21 15 21 12 0 13 -4 5 -14z"/>
<path d="M4358 1633 c7 -3 16 -2 19 1 4 3 -2 6 -13 5 -11 0 -14 -3 -6 -6z"/>
<path d="M3870 1490 c0 -5 5 -10 11 -10 5 0 7 5 4 10 -3 6 -8 10 -11 10 -2 0
-4 -4 -4 -10z"/>
<path d="M1217 1589 c7 -7 15 -10 18 -7 3 3 -2 9 -12 12 -14 6 -15 5 -6 -5z"/>
<path d="M1375 1561 c-3 -5 -2 -12 3 -15 5 -3 9 1 9 9 0 17 -3 19 -12 6z"/>
<path d="M1343 1462 c-8 -14 -8 -19 1 -19 7 0 13 9 13 19 1 10 1 18 0 18 -1 0
-7 -8 -14 -18z"/>
<path d="M1429 1413 c-1 -5 -1 -12 0 -16 1 -5 -9 -6 -21 -3 -13 3 -17 3 -10 0
6 -3 9 -10 6 -16 -5 -7 -1 -7 11 0 16 8 31 42 19 42 -2 0 -5 -3 -5 -7z"/>
<path d="M1473 1334 c9 -11 15 -24 12 -27 -3 -4 -2 -5 2 -2 4 3 8 13 9 21 1 9
0 13 -3 10 -4 -3 -13 0 -22 6 -12 10 -12 7 2 -8z"/>
<path d="M1525 1270 c-3 -6 1 -7 9 -4 18 7 21 14 7 14 -6 0 -13 -4 -16 -10z"/>
<path d="M316 527 c3 -10 9 -15 12 -12 3 3 0 11 -7 18 -10 9 -11 8 -5 -6z"/>
<path d="M4690 2349 c0 -5 5 -7 10 -4 6 3 10 8 10 11 0 2 -4 4 -10 4 -5 0 -10
-5 -10 -11z"/>
<path d="M389 723 c-13 -16 -12 -17 4 -4 9 7 17 15 17 17 0 8 -8 3 -21 -13z"/>
<path d="M1010 7666 c0 -2 8 -10 18 -17 15 -13 16 -12 3 4 -13 16 -21 21 -21
13z"/>
<path d="M2336 7428 c3 -5 10 -6 15 -3 13 9 11 12 -6 12 -8 0 -12 -4 -9 -9z"/>
<path d="M2036 7011 c-3 -5 1 -11 9 -14 9 -4 12 -1 8 9 -6 16 -10 17 -17 5z"/>
<path d="M3246 6973 c-6 -14 -5 -15 5 -6 7 7 10 15 7 18 -3 3 -9 -2 -12 -12z"/>
<path d="M1603 6925 c0 -8 4 -12 9 -9 5 3 6 10 3 15 -9 13 -12 11 -12 -6z"/>
<path d="M3019 6703 c-13 -16 -12 -17 4 -4 16 13 21 21 13 21 -2 0 -10 -8 -17
-17z"/>
<path d="M743 6657 c0 -8 6 -14 14 -14 9 0 10 4 2 14 -6 7 -12 13 -14 13 -1 0
-2 -6 -2 -13z"/>
<path d="M847 6579 c7 -7 15 -10 18 -7 3 3 -2 9 -12 12 -14 6 -15 5 -6 -5z"/>
<path d="M965 6500 c-3 -6 1 -7 9 -4 18 7 21 14 7 14 -6 0 -13 -4 -16 -10z"/>
<path d="M1046 5301 c-3 -5 1 -11 9 -14 9 -4 12 -1 8 9 -6 16 -10 17 -17 5z"/>
<path d="M2466 4835 c-9 -26 -7 -32 5 -12 6 10 9 21 6 23 -2 3 -7 -2 -11 -11z"/>
<path d="M2686 4537 c3 -10 9 -15 12 -12 3 3 0 11 -7 18 -10 9 -11 8 -5 -6z"/>
<path d="M2786 4457 c3 -10 9 -15 12 -12 3 3 0 11 -7 18 -10 9 -11 8 -5 -6z"/>
<path d="M1040 4181 c0 -6 4 -13 10 -16 6 -3 7 1 4 9 -7 18 -14 21 -14 7z"/>
<path d="M3249 4133 c-13 -16 -12 -17 4 -4 9 7 17 15 17 17 0 8 -8 3 -21 -13z"/>
<path d="M3340 4070 c-18 -12 -2 -12 25 0 13 6 15 9 5 9 -8 0 -22 -4 -30 -9z"/>
<path d="M660 3750 c-8 -5 -10 -10 -5 -10 6 0 17 5 25 10 8 5 11 10 5 10 -5 0
-17 -5 -25 -10z"/>
<path d="M3758 3733 c7 -3 16 -2 19 1 4 3 -2 6 -13 5 -11 0 -14 -3 -6 -6z"/>
<path d="M3826 3681 c-3 -5 1 -14 8 -20 12 -10 13 -8 9 8 -6 23 -9 25 -17 12z"/>
<path d="M5286 3065 c-3 -8 -1 -15 4 -15 6 0 10 7 10 15 0 8 -2 15 -4 15 -2 0
-6 -7 -10 -15z"/>
<path d="M5739 2963 c-13 -16 -12 -17 4 -4 16 13 21 21 13 21 -2 0 -10 -8 -17
-17z"/>
<path d="M5653 2895 c0 -8 4 -12 9 -9 5 3 6 10 3 15 -9 13 -12 11 -12 -6z"/>
<path d="M5100 2870 c-9 -6 -10 -10 -3 -10 6 0 15 5 18 10 8 12 4 12 -15 0z"/>
<path d="M5030 2830 c0 -5 5 -10 11 -10 5 0 7 5 4 10 -3 6 -8 10 -11 10 -2 0
-4 -4 -4 -10z"/>
<path d="M5064 2025 c-4 -8 -10 -13 -14 -10 -5 3 -11 2 -14 -3 -2 -4 6 -8 19
-8 16 0 21 4 17 15 -4 10 -1 12 8 6 9 -5 11 -4 6 3 -10 16 -15 15 -22 -3z"/>
<path d="M4994 1959 c1 -7 10 -13 19 -15 9 -1 15 2 11 7 -3 5 -9 7 -14 4 -4
-3 -11 0 -13 5 -3 6 -4 5 -3 -1z"/>
<path d="M4939 1883 c-13 -16 -12 -17 4 -4 16 13 21 21 13 21 -2 0 -10 -8 -17
-17z"/>
<path d="M4846 1768 c3 -5 10 -6 15 -3 13 9 11 12 -6 12 -8 0 -12 -4 -9 -9z"/>
<path d="M1013 1621 c0 -11 5 -18 9 -15 4 3 5 11 1 19 -7 21 -12 19 -10 -4z"/>
<path d="M2848 1233 c7 -3 16 -2 19 1 4 3 -2 6 -13 5 -11 0 -14 -3 -6 -6z"/>
<path d="M1447 1103 c3 -7 6 -13 8 -13 2 0 5 6 8 13 3 8 -1 14 -8 14 -7 0 -11
-6 -8 -14z"/>
<path d="M2076 653 c-6 -14 -5 -15 5 -6 7 7 10 15 7 18 -3 3 -9 -2 -12 -12z"/>
<path d="M2390 620 c-9 -6 -10 -10 -3 -10 6 0 15 5 18 10 8 12 4 12 -15 0z"/>
</g>
</svg>
