<?xml version="1.0" standalone="no"?>
<!DOCTYPE svg PUBLIC "-//W3C//DTD SVG 20010904//EN"
 "http://www.w3.org/TR/2001/REC-SVG-20010904/DTD/svg10.dtd">
<svg version="1.0" xmlns="http://www.w3.org/2000/svg"
 width="600.000000pt" height="600.000000pt" viewBox="0 0 600.000000 600.000000"
 preserveAspectRatio="xMidYMid meet">
<g transform="translate(0.000000,600.000000) scale(0.100000,-0.100000)"
fill="#000000" stroke="none">
<path d="M50 5945 c0 -52 -1 -55 -25 -55 -14 0 -25 -6 -25 -12 0 -8 14 -13 37
-12 l38 1 2 67 c1 51 -2 66 -13 66 -10 0 -14 -15 -14 -55z"/>
<path d="M5948 5934 c-1 -36 -2 -67 0 -68 8 -9 52 9 52 20 0 8 -6 13 -12 12
-9 -2 -12 12 -11 50 1 38 -2 52 -12 52 -9 0 -14 -19 -17 -66z"/>
<path d="M5 4455 c0 -770 1 -1084 2 -697 2 387 2 1017 0 1400 -1 383 -2 67 -2
-703z"/>
<path d="M1860 5840 c0 -5 5 -10 11 -10 5 0 7 5 4 10 -3 6 -8 10 -11 10 -2 0
-4 -4 -4 -10z"/>
<path d="M2175 5835 c-123 -13 -285 -41 -385 -66 -56 -14 -70 -14 -255 -4
-146 7 -257 2 -520 -27 -102 -11 -118 -10 -205 10 -52 12 -124 26 -160 32 -87
13 -396 12 -495 -3 l-79 -12 -15 -45 c-20 -64 -19 -246 3 -342 16 -73 16 -79
-1 -130 -26 -76 -25 -330 0 -443 24 -104 86 -292 133 -401 31 -71 40 -85 56
-80 10 3 26 8 36 12 16 5 17 -7 17 -143 0 -157 11 -231 52 -348 51 -145 121
-243 205 -286 55 -28 266 -43 498 -35 262 9 275 11 324 61 23 23 48 52 58 66
l16 24 10 -26 c19 -48 49 -58 307 -103 50 -9 102 -16 117 -16 14 0 48 -4 75
-9 45 -9 255 -35 368 -46 28 -3 102 -8 165 -11 63 -3 121 -11 128 -16 6 -6 12
-20 12 -32 0 -40 46 -200 72 -251 15 -27 38 -61 53 -75 26 -24 32 -25 187 -28
155 -4 323 9 401 29 108 28 213 211 248 432 6 42 15 77 20 77 4 0 16 -16 25
-35 21 -45 96 -112 151 -136 24 -10 79 -25 124 -34 150 -28 653 -17 1068 25
101 10 98 11 139 -47 13 -18 43 -44 66 -58 37 -22 54 -25 138 -25 203 0 422
33 492 74 54 32 117 104 151 172 26 53 35 93 14 64 -8 -11 -12 -12 -16 -2 -2
6 -9 12 -14 12 -6 0 -7 -5 -4 -11 9 -14 -3 -61 -14 -55 -5 3 -16 -3 -26 -14
-10 -11 -15 -20 -10 -20 4 0 -4 -9 -19 -21 -14 -11 -26 -30 -26 -41 0 -12 -3
-19 -6 -15 -4 3 -21 -5 -38 -18 -17 -13 -53 -30 -79 -36 -26 -7 -47 -16 -47
-19 0 -3 -27 -5 -61 -5 -33 0 -63 -3 -65 -7 -3 -4 -25 -5 -49 -3 -26 3 -45 1
-45 -5 0 -6 -7 -10 -16 -10 -8 0 -13 4 -10 9 4 5 -10 5 -33 0 -50 -11 -174 -4
-179 10 -2 6 -12 11 -23 11 -10 0 -19 4 -19 9 0 5 -9 11 -21 14 -12 3 -18 10
-14 16 3 6 0 11 -8 11 -12 0 -56 39 -46 41 45 7 74 7 78 0 6 -8 82 -1 151 14
21 5 30 4 26 -3 -3 -6 14 -4 41 4 25 8 57 14 70 14 14 0 21 4 18 10 -4 6 12
10 42 10 26 1 66 7 88 15 22 8 48 15 57 15 9 0 29 5 45 11 22 8 24 12 13 20
-10 6 -5 7 17 3 22 -4 41 -1 58 10 13 9 35 17 49 18 16 2 22 7 18 17 -3 9 -1
12 5 8 14 -9 43 2 43 15 0 6 -7 7 -16 4 -9 -3 -12 -2 -9 5 4 5 15 7 24 4 12
-3 22 3 30 19 7 13 20 23 30 22 11 -1 17 8 19 28 l4 29 -39 -30 c-68 -54 -199
-116 -293 -139 -8 -2 -40 -10 -70 -19 -30 -9 -73 -18 -95 -21 -22 -2 -47 -7
-55 -10 -19 -7 -223 -33 -315 -39 -80 -6 -458 -30 -710 -46 -227 -14 -467 0
-550 31 -121 45 -171 91 -236 213 -59 110 -50 90 -94 212 -20 55 -40 109 -45
120 -6 11 -25 67 -44 125 -49 150 -89 254 -131 340 -44 89 -95 170 -107 170
-4 0 -8 6 -8 14 0 7 -14 24 -32 37 -17 13 -38 31 -47 40 -9 10 -45 32 -81 50
-59 31 -73 34 -150 34 -75 -1 -92 -5 -146 -32 -100 -52 -170 -137 -201 -247
-26 -91 -25 -291 2 -451 13 -77 27 -151 31 -165 3 -14 10 -81 14 -150 5 -69
11 -158 16 -197 l7 -73 -74 0 c-41 0 -110 4 -154 9 -44 5 -111 12 -150 16 -38
3 -97 10 -130 15 -33 5 -89 12 -125 15 -36 4 -68 9 -71 11 -6 3 -41 8 -129 19
-19 2 -81 12 -138 22 -136 22 -128 14 -231 235 -29 62 -35 68 -69 73 -20 4
-64 13 -97 21 -33 8 -86 18 -118 21 -32 3 -60 10 -63 14 -3 5 -19 9 -35 9 -42
0 -88 26 -93 53 -13 63 -14 127 -3 127 13 0 123 -43 175 -69 26 -12 36 -13 51
-4 12 7 30 9 48 5 15 -4 51 -8 78 -7 47 0 51 2 68 35 16 30 18 51 12 153 -4
91 -3 117 7 117 10 0 10 2 1 8 -8 5 -8 17 3 47 7 22 14 49 14 61 0 11 3 24 8
28 4 4 7 11 8 14 3 27 34 88 56 111 20 23 24 36 6 25 -7 -4 -2 6 10 23 12 17
22 36 22 41 0 5 7 13 16 16 9 3 14 13 11 20 -3 8 1 20 9 26 10 9 14 9 14 1 0
-6 8 -11 18 -12 14 0 14 -2 -3 -9 -11 -5 -16 -9 -11 -9 6 -1 0 -10 -12 -21
-12 -11 -25 -32 -28 -45 -3 -14 -10 -25 -15 -25 -5 0 -9 -7 -9 -15 0 -8 -9
-24 -19 -34 -11 -11 -17 -22 -14 -25 3 -3 -2 -17 -12 -32 -9 -14 -18 -44 -19
-65 -1 -21 -5 -41 -9 -45 -11 -11 -8 -26 3 -19 6 3 13 0 16 -8 5 -15 34 -26
88 -33 15 -2 33 -7 40 -12 6 -5 18 -8 26 -7 21 4 12 -151 -10 -165 -20 -12
-81 -10 -73 3 4 6 1 7 -7 2 -8 -5 -31 -8 -51 -6 -33 1 -37 -1 -44 -26 -3 -15
-12 -31 -18 -35 -9 -6 -9 -8 1 -8 6 0 12 -6 12 -14 0 -7 15 -29 34 -49 18 -20
31 -38 28 -41 -3 -4 12 -6 34 -7 21 0 71 -1 111 -2 39 -1 69 1 67 5 -2 4 6 10
18 13 13 4 30 14 40 22 17 15 35 2 23 -17 -3 -5 6 -21 20 -36 14 -14 23 -29
20 -34 -3 -4 5 -6 17 -2 13 3 19 1 15 -5 -5 -7 1 -9 15 -5 15 3 19 2 14 -7 -4
-6 -4 -10 1 -9 14 4 53 -13 53 -23 0 -5 5 -9 10 -9 6 0 22 -8 37 -17 14 -10
33 -18 41 -19 8 -2 24 -12 36 -23 25 -24 44 -26 68 -7 18 13 17 68 -2 90 -5 7
-7 16 -3 19 3 4 1 7 -5 7 -7 0 -12 4 -12 9 0 5 -4 20 -9 33 -5 13 -9 28 -11
33 -1 6 -9 18 -17 28 -10 10 -12 17 -5 17 7 0 12 -4 12 -8 0 -4 12 -9 27 -10
15 -1 29 -6 32 -11 3 -5 22 -17 41 -27 19 -11 51 -30 70 -44 19 -14 35 -23 35
-20 0 3 16 -8 36 -23 20 -15 40 -27 45 -27 5 0 17 -9 27 -20 17 -20 77 -29 77
-12 0 5 6 9 14 9 8 0 11 -8 8 -20 -3 -13 -1 -18 6 -13 9 6 28 -29 24 -46 -1
-3 5 -12 13 -18 16 -13 21 -40 8 -40 -5 0 -17 7 -27 15 -11 8 -28 15 -37 15
-10 0 -21 5 -25 12 -5 8 -2 9 10 5 11 -4 15 -3 11 4 -4 6 -13 8 -21 5 -22 -9
-43 4 -37 22 5 14 3 15 -8 5 -18 -18 -29 -16 -29 3 0 10 -6 14 -14 11 -8 -3
-17 1 -20 9 -3 9 -10 12 -16 9 -6 -3 -13 1 -16 10 -4 9 -13 14 -21 11 -8 -3
-23 -1 -34 4 -11 6 -24 8 -30 4 -6 -3 49 -37 123 -74 73 -37 157 -84 187 -103
30 -20 58 -34 62 -31 9 5 -24 89 -72 184 -18 36 -32 68 -31 72 1 3 -5 12 -13
18 -8 7 -15 17 -15 23 0 13 -92 171 -102 175 -4 2 -8 8 -8 13 0 6 -18 37 -40
69 -22 32 -40 62 -40 65 0 3 -8 18 -19 33 -10 15 -45 68 -77 117 -31 50 -60
92 -63 95 -3 3 -28 34 -56 70 -27 36 -64 81 -82 100 -38 40 -41 60 -13 85 29
26 9 45 -47 45 -40 0 -80 13 -93 30 -3 3 -21 18 -42 34 -41 31 -58 21 -28 -16
51 -66 -44 -41 -139 36 -42 34 -78 63 -81 67 -3 3 -23 16 -45 29 -22 13 -46
30 -53 37 -7 7 -20 13 -28 13 -8 0 -14 4 -14 8 0 8 -31 26 -152 89 -74 37 -99
36 -74 -3 30 -44 16 -58 -24 -24 -13 11 -55 41 -94 67 -39 27 -73 51 -76 55
-4 4 -22 10 -40 14 -23 4 -31 3 -22 -4 11 -7 11 -10 -2 -15 -9 -4 -16 -2 -16
3 0 5 -7 6 -17 3 -11 -4 -14 -3 -9 5 5 8 2 10 -8 6 -9 -3 -16 -2 -16 4 0 6
-12 13 -28 16 -15 4 -41 15 -57 26 l-30 20 27 0 c15 0 30 -4 33 -10 3 -5 11
-10 16 -10 6 0 7 5 4 11 -5 7 -2 7 11 0 11 -5 32 -13 47 -16 22 -4 27 -10 23
-23 -6 -16 -5 -15 8 1 14 18 36 22 51 9 6 -5 38 -17 73 -27 35 -10 66 -23 69
-28 3 -5 9 -3 14 4 5 9 -1 17 -22 26 -33 14 -34 36 -3 42 10 2 21 6 24 10 3 4
32 22 65 41 33 18 67 39 75 45 17 14 166 98 277 156 82 43 249 102 338 119 33
6 76 15 95 20 220 53 821 63 1135 19 174 -24 388 -72 452 -100 23 -11 46 -19
51 -19 6 0 37 -13 70 -30 34 -16 64 -30 67 -30 3 0 11 -5 18 -10 7 -6 23 -20
37 -31 l25 -21 -25 7 c-14 4 -27 11 -30 15 -13 18 -162 55 -305 75 -148 21
-254 41 -350 64 -179 43 -314 57 -437 44 -114 -13 -235 -47 -272 -77 -26 -20
-28 -27 -27 -88 0 -36 8 -115 17 -174 37 -251 51 -308 90 -389 19 -38 34 -73
34 -76 0 -4 -29 -12 -65 -19 -44 -8 -65 -17 -65 -27 0 -15 15 -14 155 13 82
16 211 36 349 55 165 21 369 16 559 -15 113 -19 312 -94 439 -166 63 -36 99
-50 126 -50 21 0 42 -3 46 -7 3 -4 12 -8 19 -9 7 -1 32 -7 57 -15 25 -7 50
-13 55 -15 6 -1 44 -12 85 -24 41 -12 89 -25 105 -30 17 -4 73 -23 125 -40
106 -36 127 -37 290 -15 69 10 229 18 400 22 308 6 315 7 380 64 91 81 143
125 157 132 18 11 83 0 83 -13 0 -6 6 -10 14 -10 27 0 29 -22 5 -40 -21 -16
-24 -17 -35 -3 -9 13 -13 13 -19 3 -6 -9 -4 -11 5 -5 10 6 12 4 7 -9 -4 -10
-3 -15 3 -11 20 13 9 -7 -21 -37 -17 -17 -38 -42 -47 -56 -15 -24 -15 -26 10
-47 15 -13 25 -26 22 -29 -2 -3 -1 -4 2 -1 4 2 22 -8 41 -22 33 -25 36 -26 91
-14 104 23 132 32 132 43 0 13 -55 5 -127 -18 l-51 -16 -51 38 c-28 21 -51 43
-51 49 0 5 25 38 56 73 37 41 64 62 78 62 14 0 46 -23 84 -61 61 -59 62 -60
62 -32 0 53 -135 162 -310 248 -49 25 -92 45 -96 45 -3 0 -20 6 -37 14 -115
52 -361 106 -581 127 -159 15 -537 6 -691 -15 -121 -17 -119 -18 -152 44 -35
67 -238 363 -293 429 -31 36 -80 82 -111 102 -101 67 -328 139 -544 173 -55 8
-131 20 -170 26 -114 18 -688 21 -840 5z m-1400 -119 l120 -27 172 16 c189 17
518 20 528 6 3 -5 -5 -13 -17 -16 -27 -8 -138 -64 -188 -94 -19 -11 -42 -24
-50 -28 -8 -3 -40 -23 -70 -43 -30 -20 -82 -52 -115 -70 -33 -19 -62 -37 -65
-40 -3 -4 -26 -19 -52 -34 -46 -27 -47 -27 -100 -12 -161 45 -351 61 -508 44
-87 -10 -243 -63 -283 -96 -9 -9 -20 -13 -23 -9 -10 10 -34 200 -34 278 0 42
5 90 11 108 16 47 42 50 334 46 194 -3 234 -6 340 -29z m870 4 c3 -5 -3 -10
-14 -10 -12 0 -21 5 -21 10 0 6 6 10 14 10 8 0 18 -4 21 -10z m1290 -41 c92
-14 115 -18 145 -24 23 -5 264 -47 455 -80 44 -8 95 -18 113 -24 18 -5 35 -10
37 -10 3 0 31 -6 63 -12 51 -11 62 -18 100 -64 23 -29 42 -57 42 -63 0 -6 3
-12 8 -14 8 -3 43 -53 60 -84 11 -21 10 -21 -50 3 -34 14 -76 27 -92 30 -17 2
-42 8 -56 14 -43 17 -200 36 -308 38 -56 1 -128 6 -158 11 -31 5 -59 9 -63 8
-6 -2 -146 22 -259 43 -78 15 -306 12 -443 -7 -69 -9 -124 -13 -129 -8 -11 11
-17 180 -8 190 18 18 175 59 253 67 51 5 216 -3 290 -14z m120 -275 c77 -14
166 -28 198 -31 58 -6 73 -17 38 -28 -29 -9 -62 -73 -68 -130 -5 -59 24 -126
70 -159 36 -27 96 -25 135 3 76 54 83 224 10 275 -39 28 -7 33 117 19 141 -15
271 -45 375 -84 67 -26 78 -34 104 -76 114 -184 112 -178 64 -168 -64 14 -419
8 -537 -9 -62 -9 -117 -18 -121 -21 -5 -3 -53 2 -107 11 -172 28 -494 9 -731
-45 -32 -7 -46 -5 -64 7 -40 28 -46 38 -67 108 -22 71 -72 306 -67 312 18 17
213 39 361 40 120 1 178 -4 290 -24z m-2291 -73 c67 -33 166 -88 221 -122 100
-63 227 -155 233 -171 2 -4 11 -8 19 -8 13 0 15 9 10 55 -3 30 -2 55 3 55 24
0 289 -177 290 -193 0 -4 -18 -4 -39 -1 -72 12 -186 -27 -247 -84 -123 -113
-189 -301 -150 -419 19 -57 38 -78 79 -88 15 -4 27 -13 27 -21 0 -18 -9 -18
-66 2 -26 9 -50 12 -55 7 -5 -5 -5 -33 0 -63 5 -30 6 -59 2 -63 -11 -11 -179
81 -185 101 -3 9 -10 46 -16 82 -14 81 -51 225 -80 310 -71 212 -162 318 -278
328 -166 14 -269 -104 -287 -330 -4 -45 -8 -89 -11 -96 -2 -8 -20 2 -49 30
-36 34 -49 57 -65 108 -29 100 -43 223 -37 319 10 137 22 160 53 96 18 -38 34
-54 34 -33 0 7 -9 42 -20 78 -11 36 -20 68 -20 71 0 20 137 67 295 102 11 3
65 5 119 6 l99 1 121 -59z m2641 -1 c105 -65 68 -270 -50 -270 -115 0 -151
208 -46 273 35 22 57 21 96 -3z m-2427 -67 c12 -14 22 -21 22 -14 0 7 5 9 10
6 6 -3 10 -14 9 -23 0 -11 -2 -12 -6 -4 -2 6 -8 10 -13 7 -4 -3 -13 2 -20 10
-7 8 -20 15 -29 15 -14 0 -14 2 -1 10 12 8 10 10 -10 11 -14 1 -28 1 -32 0 -5
0 -8 4 -8 10 0 19 53 0 78 -28z m-874 -14 c-3 -6 -1 -15 6 -19 8 -5 6 -9 -8
-12 -15 -4 -18 -1 -14 18 2 13 9 24 14 24 5 0 6 -5 2 -11z m957 -36 c-11 -5
-11 -7 0 -14 8 -5 9 -9 3 -9 -6 0 -16 6 -22 13 -8 10 -6 13 11 14 12 0 16 -1
8 -4z m89 -55 c14 -5 21 -2 25 13 4 10 9 19 13 20 4 0 15 2 25 4 9 2 17 -1 17
-6 0 -5 7 -9 15 -9 8 0 15 -5 15 -11 0 -5 -4 -7 -10 -4 -5 3 -17 -12 -26 -34
-9 -23 -20 -41 -26 -41 -5 0 -6 5 -3 10 3 6 -1 10 -10 10 -9 0 -29 14 -45 30
-17 17 -30 28 -30 25 0 -4 -7 0 -15 9 -26 25 -16 37 11 13 14 -12 34 -25 44
-29z m3273 -143 c40 1 140 6 222 10 135 6 274 0 470 -21 76 -9 265 -51 337
-75 34 -12 68 -22 73 -23 11 -3 37 -14 125 -53 l55 -25 -25 -20 c-14 -10 -45
-37 -70 -58 -92 -80 -106 -90 -135 -104 -22 -10 -102 -15 -295 -20 -146 -3
-278 -8 -295 -11 -16 -3 -73 -9 -125 -15 -52 -5 -109 -12 -127 -16 -22 -4 -62
4 -140 29 -59 19 -135 43 -168 52 -33 10 -76 22 -95 28 -19 6 -39 12 -45 13
-5 1 -48 12 -95 23 -47 12 -94 21 -106 21 -11 0 -54 22 -95 49 -164 106 -379
191 -379 149 0 -5 -6 -3 -14 4 -19 18 -9 30 14 18 13 -7 20 -6 23 3 5 17 562
17 667 0 41 -7 120 -20 175 -28 105 -17 329 -67 399 -90 23 -7 73 -23 111 -34
39 -12 80 -27 92 -33 24 -12 43 -4 27 11 -8 8 -32 19 -149 66 -11 5 -22 9 -25
10 -3 0 -43 12 -90 27 -229 69 -382 100 -401 81 -15 -15 -61 5 -52 21 4 6 0 5
-9 -2 -10 -8 -34 -10 -77 -6 -70 8 -81 19 -18 20 94 1 157 9 158 19 1 5 3 3 6
-6 3 -13 18 -15 76 -14z m-3853 -5 c10 0 20 -9 23 -20 3 -11 11 -20 19 -20 10
0 9 3 -2 10 -17 11 -10 13 14 4 9 -3 14 -10 11 -15 -3 -4 4 -13 15 -19 11 -6
20 -15 20 -20 0 -6 9 -19 20 -30 11 -11 23 -34 27 -50 3 -17 8 -30 12 -30 3 0
12 -12 18 -27 20 -46 52 -143 47 -143 -2 0 2 -12 10 -27 12 -25 56 -189 56
-210 0 -4 -5 -1 -10 7 -8 12 -10 12 -11 -5 0 -11 -9 17 -19 61 -10 45 -28 100
-39 123 -12 23 -19 41 -15 41 3 0 -1 6 -8 13 -7 7 -24 30 -38 49 -29 43 -94
88 -127 88 -36 0 -27 -17 12 -24 19 -4 35 -11 35 -16 0 -5 8 -11 18 -15 9 -3
28 -21 42 -41 14 -19 31 -42 38 -49 20 -23 81 -206 91 -276 9 -65 7 -397 -2
-434 -3 -11 -14 -51 -23 -90 -10 -38 -20 -72 -24 -75 -3 -3 -12 -20 -19 -38
-19 -46 -83 -109 -121 -117 -17 -4 -34 -13 -37 -21 -3 -8 -9 -14 -15 -14 -5 0
-7 4 -4 8 3 5 -10 15 -29 22 -19 7 -32 17 -29 22 3 4 1 8 -4 8 -18 0 -61 46
-67 73 -4 15 -10 27 -14 27 -11 0 -61 126 -53 135 4 3 1 9 -6 14 -6 4 -16 32
-22 62 -5 30 -13 70 -17 89 -10 48 -10 310 0 390 6 49 5 61 -3 48 -10 -17 -13
-17 -40 -3 -17 9 -30 20 -30 25 0 16 -36 47 -62 55 -20 5 -19 2 11 -26 19 -18
36 -44 37 -58 2 -14 6 -45 9 -68 5 -34 3 -43 -9 -43 -8 0 -17 10 -21 23 -8 28
-17 50 -44 110 -12 27 -19 53 -16 58 4 5 1 9 -4 9 -6 0 -10 3 -9 8 1 4 -4 20
-10 35 -15 35 -15 34 3 34 8 0 13 -2 10 -5 -8 -8 42 -42 62 -42 27 0 40 33 48
120 7 91 22 153 36 144 6 -3 7 4 3 20 -3 15 -2 26 4 26 5 0 15 14 22 31 10 22
15 27 21 17 6 -9 9 -6 9 10 0 18 6 22 33 23 23 1 26 3 12 7 -28 8 71 32 109
26 16 -2 36 -4 46 -4z m960 -10 c0 -5 -2 -10 -4 -10 -3 0 -8 5 -11 10 -3 6 -1
10 4 10 6 0 11 -4 11 -10z m63 -54 c4 -10 0 -12 -14 -9 -27 7 -34 23 -11 23
11 0 22 -6 25 -14z m-4 -37 c30 -29 30 -31 16 -60 -22 -41 -35 -36 -35 15 0
30 -5 46 -15 50 -16 6 -21 26 -6 26 5 0 23 -14 40 -31z m221 -14 c11 -13 10
-14 -4 -9 -9 3 -16 10 -16 15 0 13 6 11 20 -6z m-291 -9 c15 -18 5 -59 -24
-106 -40 -64 -104 -204 -122 -265 -11 -40 -19 -116 -22 -225 l-6 -165 -47 -3
c-100 -6 -147 32 -151 122 l-2 41 47 0 c65 0 77 18 78 118 l0 77 -49 0 c-67 0
-85 18 -76 79 8 56 23 107 42 144 8 15 20 39 27 52 45 86 141 145 237 145 36
0 61 -5 68 -14z m291 -30 c25 -3 48 -5 53 -5 21 -2 -5 -65 -45 -103 -18 -19
-58 -24 -73 -9 -6 5 -29 11 -52 15 l-42 6 -33 -57 c-37 -64 -58 -109 -58 -123
0 -6 15 -10 33 -10 53 0 103 -18 115 -43 6 -12 10 -47 10 -77 -1 -30 2 -119 6
-197 9 -170 15 -163 -136 -163 l-104 0 -27 42 c-15 23 -27 53 -27 66 0 24 2
24 51 18 29 -4 64 -9 78 -12 16 -3 35 3 50 15 22 17 25 28 29 111 3 52 0 96
-5 101 -6 6 -42 13 -81 16 -88 7 -97 16 -83 82 19 91 55 159 150 283 l43 58
52 -5 c28 -3 71 -7 96 -9z m108 -14 c15 11 15 10 -1 -14 -10 -16 -13 -28 -7
-28 5 0 10 -5 10 -12 0 -6 10 -22 22 -35 12 -13 17 -23 11 -23 -6 0 -13 5 -15
10 -2 6 -20 12 -41 13 -40 2 -45 10 -21 34 8 9 14 27 14 42 -3 36 2 51 7 23 4
-20 7 -21 21 -10z m1077 -63 c5 -5 17 -9 27 -9 10 0 18 -4 18 -10 0 -5 7 -7
15 -4 8 4 15 1 15 -6 0 -6 4 -9 9 -6 11 7 91 -62 88 -77 -1 -7 6 -11 15 -11
10 1 17 -1 16 -5 -2 -22 3 -41 11 -36 5 3 12 1 15 -4 4 -5 1 -13 -6 -17 -8 -5
-5 -10 9 -15 13 -5 25 -24 33 -54 7 -26 19 -49 26 -52 6 -2 15 -20 19 -39 3
-19 10 -32 16 -29 5 4 9 3 7 -2 -4 -15 15 -78 31 -102 9 -14 14 -34 13 -44 -2
-12 1 -17 7 -13 7 5 11 -4 11 -22 0 -16 3 -32 8 -36 4 -4 8 -12 8 -17 1 -5 3
-11 4 -14 1 -3 3 -8 5 -12 1 -5 6 -19 12 -33 6 -14 16 -49 24 -77 7 -29 16
-53 20 -53 3 0 14 -28 24 -62 9 -35 22 -69 27 -75 6 -7 7 -29 3 -50 l-7 -37
21 24 20 25 1 -32 c0 -17 5 -35 10 -38 6 -3 10 -17 10 -31 0 -13 5 -24 11 -24
5 0 7 5 4 10 -3 6 -4 10 -1 10 10 0 32 -55 29 -72 -8 -33 -29 -27 -28 8 1 18
-2 31 -7 28 -4 -3 -8 -20 -8 -39 0 -19 -4 -36 -9 -39 -4 -3 -11 -38 -15 -77
-3 -40 -11 -78 -17 -85 -6 -7 -10 -26 -8 -41 1 -15 -10 -53 -25 -83 -15 -30
-25 -48 -22 -39 2 9 0 22 -5 30 -6 10 -9 11 -10 2 -1 -7 -3 -17 -4 -23 -1 -5
-3 -17 -4 -26 0 -8 -5 -12 -11 -9 -5 3 -10 1 -10 -4 0 -6 6 -11 13 -12 10 0
10 -2 0 -6 -7 -2 -13 -9 -13 -15 0 -36 -136 -88 -229 -88 -22 0 -51 -4 -65
-10 -14 -5 -26 -6 -26 -2 0 4 -71 8 -158 8 -177 2 -182 3 -182 20 0 6 -7 15
-16 18 -8 3 -12 11 -8 17 3 6 2 14 -3 18 -12 7 -63 112 -51 105 11 -7 10 -2
-7 39 -8 20 -15 53 -15 72 0 22 -4 34 -10 30 -5 -3 -11 4 -11 17 -3 32 -4 43
-13 128 -5 41 -10 86 -11 100 -1 14 -5 45 -8 70 -4 25 -8 100 -10 168 -3 74
-9 128 -16 135 -6 6 -11 23 -11 37 0 15 -3 30 -7 34 -9 9 -11 21 -19 136 -11
139 -3 263 17 285 5 5 9 19 9 31 0 12 9 33 20 46 10 14 16 28 13 32 -3 3 -1 6
5 6 7 0 12 5 12 11 0 18 57 69 77 69 9 0 13 3 10 7 -10 9 25 32 51 33 13 0 21
4 17 9 -12 20 178 20 200 0z m-1287 -55 c11 6 62 -16 62 -27 0 -4 11 0 25 9
24 16 25 15 25 -4 0 -11 -7 -25 -15 -32 -8 -7 -15 -18 -15 -26 0 -7 -6 -17
-12 -21 -18 -11 -38 -49 -38 -72 0 -19 -1 -19 -24 1 -12 12 -47 29 -77 39 -30
10 -45 18 -34 18 17 1 17 3 5 11 -11 7 -11 10 -2 10 7 0 10 5 7 10 -3 6 -1 10
4 10 6 0 11 7 11 16 0 8 5 12 11 8 8 -4 9 0 4 15 -5 15 -2 21 9 21 9 0 16 7
16 16 0 13 3 14 15 4 8 -6 18 -9 23 -6z m223 -26 c19 -24 36 -45 40 -48 11 -9
222 -306 274 -387 66 -104 145 -233 145 -239 0 -2 12 -23 26 -45 14 -22 24
-44 22 -49 -2 -4 -43 19 -93 51 -111 74 -318 189 -339 189 -20 0 -20 -2 5 -47
12 -21 37 -75 55 -121 32 -79 41 -112 29 -112 -6 0 -57 32 -65 40 -9 10 -122
74 -177 100 -29 14 -54 30 -57 37 -3 7 -8 113 -12 235 -4 123 -10 230 -15 239
-6 12 1 30 22 60 16 24 45 65 62 91 18 26 35 48 39 48 3 0 21 -19 39 -42z m99
-42 c0 -2 -7 -7 -16 -10 -8 -3 -12 -2 -9 4 6 10 25 14 25 6z m20 -60 c0 -12
-5 -7 -19 24 -11 24 -11 24 3 6 9 -11 16 -24 16 -30z m34 -28 c-9 -14 -23 2
-17 18 4 12 8 13 14 3 4 -7 5 -17 3 -21z m41 -52 c11 -24 22 -43 26 -41 3 2 6
-2 6 -10 0 -22 -4 -19 -30 23 -28 45 -39 72 -29 72 4 0 16 -20 27 -44z m-965
-56 c0 -6 18 -10 39 -10 37 0 39 -1 43 -37 3 -21 1 -51 -3 -68 -4 -20 -7 -23
-8 -10 -2 25 -31 66 -31 44 0 -12 -2 -12 -10 1 -5 8 -10 11 -10 7 0 -17 -29
21 -36 47 -3 14 -10 26 -15 26 -5 0 -9 7 -9 15 0 13 4 14 20 5 11 -6 20 -15
20 -20z m600 -1 c0 -6 -4 -7 -10 -4 -5 3 -10 11 -10 16 0 6 5 7 10 4 6 -3 10
-11 10 -16z m-1442 -41 c-5 -59 -28 -63 -28 -4 0 35 4 46 16 46 12 0 15 -9 12
-42z m547 -50 c4 -18 9 -44 9 -57 1 -14 7 -26 14 -29 7 -2 10 -8 6 -13 -3 -5
-2 -18 1 -30 6 -19 7 -20 20 -2 17 22 35 23 55 3 21 -22 71 -44 95 -41 17 2
17 0 5 -8 -12 -9 -11 -11 8 -11 13 0 21 4 18 9 -3 5 0 11 8 14 15 6 30 -19 21
-34 -4 -5 0 -6 8 -3 8 3 17 -3 21 -13 3 -10 9 -24 12 -30 3 -8 -1 -13 -12 -13
-9 0 -15 3 -11 6 3 4 0 13 -8 20 -19 19 -26 18 -18 -3 6 -17 6 -17 -11 0 -10
10 -25 16 -34 12 -13 -5 -13 -3 -1 12 10 12 10 15 1 9 -7 -4 -19 -2 -27 4 -12
10 -15 10 -15 -1 0 -11 -2 -11 -10 1 -5 8 -12 11 -16 7 -4 -4 -13 -2 -20 4
-13 11 -87 2 -79 -10 2 -4 5 -32 6 -62 3 -87 31 -128 96 -138 41 -7 54 -26 24
-34 -13 -3 -22 -18 -28 -48 -8 -38 -6 -51 15 -95 33 -68 65 -86 161 -89 42 -2
82 -4 89 -4 7 -1 11 -5 8 -10 -9 -15 41 -30 71 -22 15 4 34 6 41 4 14 -5 17
-33 3 -33 -5 0 -11 -9 -14 -20 -3 -11 -17 -22 -33 -26 -16 -4 -31 -10 -34 -14
-7 -10 -110 -19 -104 -9 2 4 -1 11 -7 15 -7 4 -9 3 -5 -4 3 -6 2 -13 -4 -17
-10 -6 -422 -6 -475 0 -16 2 -47 4 -69 4 -31 1 -36 3 -27 15 6 7 24 16 39 19
15 3 42 19 60 36 38 36 92 140 92 176 0 14 4 25 9 25 27 0 44 297 28 473 -6
55 -5 87 1 87 5 0 13 -15 17 -32z m887 -50 c3 -27 2 -48 -3 -48 -5 0 -9 23 -9
52 0 62 5 60 12 -4z m-619 -15 c-7 -2 -13 -12 -13 -20 0 -9 -3 -14 -6 -10 -10
10 4 37 18 36 10 0 10 -2 1 -6z m-221 -55 c-7 -7 -12 -8 -12 -2 0 14 12 26 19
19 2 -3 -1 -11 -7 -17z m1416 -63 c-3 -3 -9 2 -12 12 -6 14 -5 15 5 6 7 -7 10
-15 7 -18z m-1105 -261 c17 -5 17 -7 -1 -38 -17 -28 -18 -37 -7 -76 7 -25 15
-52 19 -61 5 -13 0 -18 -24 -23 -41 -8 -51 -1 -41 27 18 47 -8 122 -52 155
-29 22 -9 35 42 27 25 -3 54 -9 64 -11z m-118 -26 c29 -27 37 -44 44 -88 10
-61 2 -80 -33 -80 -48 1 -96 70 -96 138 0 68 32 79 85 30z m246 -8 c13 0 101
-182 92 -191 -9 -8 -29 -12 -54 -10 -13 1 -16 9 -12 44 5 47 -14 102 -46 131
-25 23 -28 41 -5 32 9 -3 20 -6 25 -6z m-36 -32 c10 -18 22 -35 27 -39 14 -9
27 -103 16 -116 -13 -16 -43 -17 -70 -2 -43 23 -79 160 -47 180 28 18 55 9 74
-23z m2373 -303 c-3 -3 -9 2 -12 12 -6 14 -5 15 5 6 7 -7 10 -15 7 -18z
m-1048 -67 c0 -18 -2 -20 -9 -8 -6 8 -7 18 -5 22 9 14 14 9 14 -14z m1154 -13
c11 -8 15 -15 10 -15 -6 0 -19 7 -30 15 -10 8 -14 14 -9 14 6 0 19 -6 29 -14z
m2102 -10 c-9 -9 -16 -13 -16 -8 0 12 22 34 28 28 2 -2 -3 -11 -12 -20z m-631
-145 c3 -5 1 -10 -4 -10 -6 0 -11 5 -11 10 0 6 2 10 4 10 3 0 8 -4 11 -10z
m162 4 c-3 -3 -12 -4 -19 -1 -8 3 -5 6 6 6 11 1 17 -2 13 -5z"/>
<path d="M1360 5659 c0 -5 5 -7 10 -4 6 3 10 8 10 11 0 2 -4 4 -10 4 -5 0 -10
-5 -10 -11z"/>
<path d="M248 5653 c7 -3 16 -2 19 1 4 3 -2 6 -13 5 -11 0 -14 -3 -6 -6z"/>
<path d="M1275 5600 c3 -5 8 -10 11 -10 2 0 4 5 4 10 0 6 -5 10 -11 10 -5 0
-7 -4 -4 -10z"/>
<path d="M130 5446 c0 -2 7 -7 16 -10 8 -3 12 -2 9 4 -6 10 -25 14 -25 6z"/>
<path d="M2888 5643 c7 -3 16 -2 19 1 4 3 -2 6 -13 5 -11 0 -14 -3 -6 -6z"/>
<path d="M2671 5383 c-18 -9 -45 -35 -60 -57 -22 -34 -26 -50 -26 -117 0 -71
2 -80 31 -116 55 -68 128 -85 196 -47 38 22 88 111 88 158 0 140 -119 233
-229 179z m137 -29 c55 -36 78 -154 44 -224 -21 -42 -75 -80 -114 -80 -89 0
-154 109 -127 214 24 98 119 141 197 90z"/>
<path d="M2703 5300 c-81 -49 -42 -205 47 -192 39 6 70 51 70 102 0 35 -32
100 -49 100 -5 0 -15 2 -23 5 -7 3 -27 -4 -45 -15z m31 -35 c-4 -8 -9 -13 -13
-10 -4 2 -8 -10 -8 -28 0 -18 2 -26 4 -20 7 21 53 -16 53 -42 0 -46 -65 -36
-73 12 -9 53 -6 73 16 88 27 19 28 19 21 0z m45 -36 c-12 -22 -29 -16 -29 10
0 25 11 33 26 20 10 -8 11 -16 3 -30z m8 -51 c-3 -8 -6 -5 -6 6 -1 11 2 17 5
13 3 -3 4 -12 1 -19z"/>
<path d="M390 5330 c0 -5 7 -7 15 -4 8 4 15 8 15 10 0 2 -7 4 -15 4 -8 0 -15
-4 -15 -10z"/>
<path d="M850 5250 c0 -5 5 -10 11 -10 5 0 7 5 4 10 -3 6 -8 10 -11 10 -2 0
-4 -4 -4 -10z"/>
<path d="M202 5170 c0 -14 2 -19 5 -12 2 6 2 18 0 25 -3 6 -5 1 -5 -13z"/>
<path d="M1014 5133 c10 -11 37 -12 30 -2 -3 5 -12 9 -21 9 -9 0 -13 -3 -9 -7z"/>
<path d="M556 5093 c-6 -14 -5 -15 5 -6 7 7 10 15 7 18 -3 3 -9 -2 -12 -12z"/>
<path d="M490 5089 c0 -5 5 -7 10 -4 6 3 10 8 10 11 0 2 -4 4 -10 4 -5 0 -10
-5 -10 -11z"/>
<path d="M695 5020 c3 -5 8 -10 11 -10 2 0 4 5 4 10 0 6 -5 10 -11 10 -5 0 -7
-4 -4 -10z"/>
<path d="M253 4945 c-3 -9 -3 -19 1 -22 3 -4 6 1 6 10 0 8 6 18 13 20 9 4 9 6
-1 6 -7 1 -15 -6 -19 -14z"/>
<path d="M1205 4950 c-3 -5 -1 -10 4 -10 6 0 11 5 11 10 0 6 -2 10 -4 10 -3 0
-8 -4 -11 -10z"/>
<path d="M1209 4873 c-13 -16 -12 -17 4 -4 9 7 17 15 17 17 0 8 -8 3 -21 -13z"/>
<path d="M141 4774 c0 -11 3 -14 6 -6 3 7 2 16 -1 19 -3 4 -6 -2 -5 -13z"/>
<path d="M830 4781 c0 -6 4 -13 10 -16 6 -3 7 1 4 9 -7 18 -14 21 -14 7z"/>
<path d="M861 4684 c0 -11 3 -14 6 -6 3 7 2 16 -1 19 -3 4 -6 -2 -5 -13z"/>
<path d="M1077 4680 c-3 -11 -1 -20 4 -20 5 0 9 9 9 20 0 11 -2 20 -4 20 -2 0
-6 -9 -9 -20z"/>
<path d="M1055 4640 c-3 -5 -1 -10 4 -10 6 0 11 5 11 10 0 6 -2 10 -4 10 -3 0
-8 -4 -11 -10z"/>
<path d="M928 4423 c7 -3 16 -2 19 1 4 3 -2 6 -13 5 -11 0 -14 -3 -6 -6z"/>
<path d="M1065 4370 c-3 -5 -2 -10 4 -10 5 0 13 5 16 10 3 6 2 10 -4 10 -5 0
-13 -4 -16 -10z"/>
<path d="M1025 4320 c-3 -5 -1 -10 4 -10 6 0 11 5 11 10 0 6 -2 10 -4 10 -3 0
-8 -4 -11 -10z"/>
<path d="M3321 5281 c-21 -16 -25 -28 -25 -74 -1 -65 21 -97 66 -97 21 0 33 8
48 33 35 56 19 128 -32 146 -37 13 -28 14 -57 -8z m73 -38 c9 -22 -10 -41 -25
-26 -13 13 -5 43 10 43 5 0 12 -8 15 -17z m-54 3 c0 -3 -4 -8 -10 -11 -5 -3
-10 -1 -10 4 0 6 5 11 10 11 6 0 10 -2 10 -4z m14 -41 c8 -9 19 -15 23 -15 15
1 14 -38 -1 -43 -20 -8 -46 1 -47 17 -6 48 -5 56 2 56 4 0 14 -7 23 -15z"/>
<path d="M3365 5170 c3 -5 8 -10 11 -10 2 0 4 5 4 10 0 6 -5 10 -11 10 -5 0
-7 -4 -4 -10z"/>
<path d="M4300 4906 c0 -2 7 -7 16 -10 8 -3 12 -2 9 4 -6 10 -25 14 -25 6z"/>
<path d="M4400 4899 c0 -5 5 -7 10 -4 6 3 10 8 10 11 0 2 -4 4 -10 4 -5 0 -10
-5 -10 -11z"/>
<path d="M4478 4873 c7 -3 16 -2 19 1 4 3 -2 6 -13 5 -11 0 -14 -3 -6 -6z"/>
<path d="M3936 4853 c-8 -21 5 -35 23 -23 12 7 12 11 -1 24 -15 14 -17 14 -22
-1z"/>
<path d="M5563 4833 c-26 -5 -47 -28 -38 -43 10 -15 68 -12 93 6 18 13 21 19
11 30 -11 14 -24 15 -66 7z m37 -23 c0 -5 -12 -10 -26 -10 -14 0 -23 4 -19 10
3 6 15 10 26 10 10 0 19 -4 19 -10z"/>
<path d="M3953 4805 c-17 -13 -15 -15 19 -29 44 -19 74 -20 84 -5 18 30 -69
59 -103 34z m67 -20 c0 -19 -11 -19 -36 0 -18 14 -18 14 9 15 17 0 27 -5 27
-15z"/>
<path d="M4648 4813 c7 -3 16 -2 19 1 4 3 -2 6 -13 5 -11 0 -14 -3 -6 -6z"/>
<path d="M5435 4780 c-3 -6 1 -7 9 -4 18 7 21 14 7 14 -6 0 -13 -4 -16 -10z"/>
<path d="M5431 4700 c-9 -5 -4 -7 13 -7 29 0 32 2 13 10 -8 3 -20 2 -26 -3z"/>
<path d="M5273 4693 c-20 -7 -16 -43 5 -44 60 -4 76 -2 86 14 8 13 7 20 -4 27
-16 10 -66 12 -87 3z m67 -23 c0 -5 -11 -10 -25 -10 -14 0 -25 5 -25 10 0 6
11 10 25 10 14 0 25 -4 25 -10z"/>
<path d="M4564 4638 c-12 -20 28 -40 66 -33 46 9 53 14 39 31 -14 17 -95 19
-105 2z m69 -13 c1 -5 -6 -11 -15 -13 -11 -2 -18 3 -18 13 0 17 30 18 33 0z"/>
<path d="M675 4840 c-3 -5 1 -10 9 -10 9 0 16 5 16 10 0 6 -4 10 -9 10 -6 0
-13 -4 -16 -10z"/>
<path d="M595 4830 c-7 -12 12 -12 40 0 18 8 17 9 -7 9 -15 1 -30 -3 -33 -9z"/>
<path d="M530 4780 c-13 -8 -12 -10 3 -10 9 0 17 5 17 10 0 12 -1 12 -20 0z"/>
<path d="M490 4770 c-9 -6 -10 -10 -3 -10 6 0 15 5 18 10 8 12 4 12 -15 0z"/>
<path d="M430 4709 c0 -5 5 -7 10 -4 6 3 10 8 10 11 0 2 -4 4 -10 4 -5 0 -10
-5 -10 -11z"/>
<path d="M411 4672 c-17 -31 -13 -40 5 -14 9 13 14 26 11 29 -3 2 -10 -4 -16
-15z"/>
<path d="M562 4553 c-32 -28 -68 -101 -86 -180 -14 -54 -17 -99 -13 -190 6
-149 20 -220 58 -295 5 -10 9 -25 9 -33 0 -8 3 -15 8 -15 4 0 18 -16 31 -35
19 -28 30 -35 56 -35 27 0 40 8 64 39 17 21 31 46 31 54 0 9 5 19 11 22 6 4 8
13 5 21 -3 8 -2 14 2 14 5 0 6 16 4 36 -3 21 -8 31 -12 24 -13 -21 -55 2 -46
25 2 7 -1 18 -7 24 -7 7 -7 12 -2 11 22 -5 29 1 15 10 -13 8 -13 10 2 10 9 0
19 -6 21 -12 3 -8 6 -6 6 5 1 22 21 23 21 0 0 -9 3 -13 7 -9 9 9 14 43 13 88
0 20 4 39 10 43 5 3 10 16 9 28 -1 20 -2 20 -9 -3 -8 -25 -8 -25 -10 5 -5 82
-10 118 -16 124 -9 9 -54 8 -54 -1 0 -4 -5 -8 -11 -8 -6 0 -8 9 -4 23 11 36
24 43 39 22 11 -16 12 -10 5 44 -18 130 -93 198 -157 144z m72 -12 c4 -5 -8
-21 -25 -35 -17 -14 -27 -26 -24 -26 4 0 2 -6 -4 -14 -16 -19 -33 -78 -20 -71
5 4 21 30 35 60 15 30 33 56 42 60 21 8 42 -13 42 -41 0 -13 5 -24 10 -24 15
0 12 -38 -4 -47 -25 -14 -48 -85 -41 -125 5 -25 3 -38 -4 -38 -14 0 -15 -127
0 -135 5 -4 19 1 29 10 16 14 18 26 13 69 -3 28 -11 57 -16 64 -8 10 -7 16 6
23 9 6 17 19 17 29 0 13 7 20 20 20 25 0 27 -31 4 -66 -21 -31 -14 -82 16
-122 26 -35 20 -58 -10 -40 -16 10 -23 8 -45 -12 -21 -19 -24 -30 -19 -55 9
-45 33 -78 53 -72 18 4 21 -12 6 -46 -7 -17 -8 -17 -27 0 -25 22 -49 76 -59
133 -4 25 -13 63 -18 85 -9 35 -9 32 -5 -25 8 -104 36 -180 77 -215 22 -18 23
-22 9 -42 -19 -29 -26 -29 -57 5 -28 30 -67 127 -85 213 -12 54 -8 227 7 288
4 20 3 23 -6 15 -18 -17 -24 -60 -24 -189 -1 -78 4 -134 13 -160 8 -22 13 -43
12 -48 -4 -16 41 -97 74 -131 19 -19 34 -38 34 -41 0 -16 -64 2 -74 20 -6 11
-14 22 -17 25 -16 14 -62 136 -74 200 -17 89 -17 247 -1 319 17 73 59 169 80
183 16 11 54 10 60 -1z m106 -325 c0 -13 3 -31 6 -40 3 -9 1 -16 -5 -16 -15 0
-32 46 -25 65 9 23 24 18 24 -9z"/>
<path d="M637 4424 c-4 -4 -7 -14 -7 -23 0 -11 3 -12 11 -4 6 6 10 16 7 23 -2
6 -7 8 -11 4z"/>
<path d="M615 4350 c-4 -6 -8 -45 -10 -88 l-4 -77 13 85 c14 86 14 101 1 80z"/>
<path d="M357 4547 c-11 -29 -9 -43 4 -30 6 6 9 19 7 29 -3 18 -4 18 -11 1z"/>
<path d="M1315 4782 c-11 -2 -36 -21 -56 -41 -80 -81 -47 -198 42 -151 10 6
19 16 19 23 0 7 13 39 30 71 36 74 24 111 -35 98z m28 -46 c-4 -6 -8 -16 -9
-21 -1 -6 -10 -28 -20 -50 -15 -30 -26 -41 -47 -43 -26 -3 -27 -2 -22 33 4 37
27 69 40 57 4 -4 6 0 3 8 -3 8 4 20 15 26 24 14 50 7 40 -10z"/>
<path d="M1265 4640 c-3 -5 -1 -10 4 -10 6 0 11 5 11 10 0 6 -2 10 -4 10 -3 0
-8 -4 -11 -10z"/>
<path d="M1410 4715 c0 -8 2 -15 4 -15 2 0 6 7 10 15 3 8 1 15 -4 15 -6 0 -10
-7 -10 -15z"/>
<path d="M1390 4690 c0 -5 5 -10 11 -10 5 0 7 5 4 10 -3 6 -8 10 -11 10 -2 0
-4 -4 -4 -10z"/>
<path d="M1324 4559 c-4 -7 -3 -9 4 -5 5 3 13 0 15 -6 4 -9 6 -10 6 -1 1 17
-16 25 -25 12z"/>
<path d="M1196 4552 c-3 -5 1 -9 9 -9 8 0 15 4 15 9 0 4 -4 8 -9 8 -6 0 -12
-4 -15 -8z"/>
<path d="M1190 4225 c-6 -8 -10 -19 -8 -24 1 -6 8 1 15 14 13 28 11 31 -7 10z"/>
<path d="M1710 4805 c7 -8 17 -15 22 -15 6 0 5 7 -2 15 -7 8 -17 15 -22 15 -6
0 -5 -7 2 -15z"/>
<path d="M1775 4800 c-3 -6 1 -7 9 -4 18 7 21 14 7 14 -6 0 -13 -4 -16 -10z"/>
<path d="M1658 4503 c6 -2 18 -2 25 0 6 3 1 5 -13 5 -14 0 -19 -2 -12 -5z"/>
<path d="M1608 4493 c7 -3 16 -2 19 1 4 3 -2 6 -13 5 -11 0 -14 -3 -6 -6z"/>
<path d="M1506 4147 c3 -10 9 -15 12 -12 3 3 0 11 -7 18 -10 9 -11 8 -5 -6z"/>
<path d="M2873 4603 c-30 -4 -69 -33 -44 -33 6 0 11 5 11 10 0 6 30 10 68 11
37 1 78 5 92 9 27 9 -65 11 -127 3z"/>
<path d="M3050 4600 c19 -12 90 -13 90 -1 0 5 -23 9 -52 9 -36 1 -48 -2 -38
-8z"/>
<path d="M3158 4593 c6 -2 18 -2 25 0 6 3 1 5 -13 5 -14 0 -19 -2 -12 -5z"/>
<path d="M2856 4493 c33 -64 44 -104 80 -283 20 -103 29 -277 27 -522 -2 -194
-4 -214 -33 -330 -17 -67 -42 -142 -55 -165 -27 -45 -29 -53 -16 -53 5 0 14
14 21 30 7 17 16 30 19 30 4 0 15 28 25 63 10 34 20 69 24 77 3 8 6 17 7 20 1
7 17 99 21 125 2 11 6 97 10 190 6 157 -3 305 -32 540 -15 125 -92 344 -121
345 -6 0 4 -30 23 -67z"/>
<path d="M2722 4526 c-17 -39 -15 -56 3 -22 9 16 14 34 12 39 -1 5 -8 -3 -15
-17z"/>
<path d="M2691 4464 c0 -11 3 -14 6 -6 3 7 2 16 -1 19 -3 4 -6 -2 -5 -13z"/>
<path d="M2670 4413 c-6 -16 -14 -37 -19 -48 -5 -11 -12 -40 -15 -65 -2 -25
-8 -55 -12 -67 -4 -14 -2 -23 5 -23 6 0 11 12 12 28 0 15 10 66 23 115 22 87
24 112 6 60z"/>
<path d="M2720 4308 c0 -9 5 -20 10 -23 13 -8 13 5 0 25 -8 13 -10 13 -10 -2z"/>
<path d="M2755 4251 c4 -14 -1 -31 -14 -50 -11 -15 -18 -31 -15 -33 2 -3 0
-18 -7 -34 -11 -30 -13 -49 -25 -240 -9 -154 27 -414 63 -456 9 -10 12 -25 8
-37 -4 -15 -2 -21 8 -21 7 0 14 6 14 13 1 6 6 37 12 67 5 30 13 116 16 190 3
74 7 152 9 172 3 21 0 40 -4 43 -5 3 -7 12 -3 20 3 8 0 15 -7 15 -8 0 -10 -18
-6 -65 3 -36 1 -65 -4 -65 -4 0 -7 -28 -7 -62 1 -35 -2 -64 -8 -65 -12 -3 -14
236 -2 244 12 7 8 23 -5 21 -9 -2 -12 9 -10 40 2 25 -1 42 -7 42 -18 0 -13
-270 6 -365 14 -71 23 -185 15 -185 -11 0 -32 31 -32 47 0 10 -7 52 -16 93
-18 88 -21 424 -4 505 20 97 22 105 31 105 18 0 22 -33 12 -97 -7 -52 -7 -66
4 -70 8 -3 13 -24 13 -59 0 -42 3 -54 16 -54 8 0 13 4 10 8 -2 4 -6 41 -7 82
-1 40 -5 91 -9 111 -4 21 -3 36 1 33 5 -3 9 0 9 5 0 6 -4 11 -9 11 -8 0 -23
57 -25 94 -1 5 -7 11 -15 14 -9 3 -11 -1 -6 -17z"/>
<path d="M2612 4110 c0 -14 2 -19 5 -12 2 6 2 18 0 25 -3 6 -5 1 -5 -13z"/>
<path d="M2611 4064 c0 -11 3 -14 6 -6 3 7 2 16 -1 19 -3 4 -6 -2 -5 -13z"/>
<path d="M3516 3698 c-3 -29 -6 -82 -6 -118 0 -36 -7 -110 -15 -165 -13 -90
-13 -116 -1 -104 2 2 7 31 11 63 3 33 8 63 11 68 3 5 8 70 10 146 3 75 7 143
9 150 3 6 1 12 -4 12 -4 0 -11 -24 -15 -52z"/>
<path d="M3031 3614 c0 -11 3 -14 6 -6 3 7 2 16 -1 19 -3 4 -6 -2 -5 -13z"/>
<path d="M2706 3537 c3 -10 9 -15 12 -12 3 3 0 11 -7 18 -10 9 -11 8 -5 -6z"/>
<path d="M3385 3180 c-3 -5 -1 -10 4 -10 6 0 11 5 11 10 0 6 -2 10 -4 10 -3 0
-8 -4 -11 -10z"/>
<path d="M1994 4553 c2 -9 8 -18 15 -19 6 -1 7 0 1 3 -5 2 -8 9 -5 13 3 5 1
11 -4 14 -5 4 -8 -2 -7 -11z"/>
<path d="M2181 4257 c-13 -21 -12 -21 5 -5 10 10 16 20 13 22 -3 3 -11 -5 -18
-17z"/>
<path d="M2255 4160 c-3 -5 -1 -10 4 -10 6 0 11 5 11 10 0 6 -2 10 -4 10 -3 0
-8 -4 -11 -10z"/>
<path d="M1961 4124 c0 -11 3 -14 6 -6 3 7 2 16 -1 19 -3 4 -6 -2 -5 -13z"/>
<path d="M2260 4126 c0 -8 5 -18 10 -21 6 -3 10 1 10 9 0 8 -4 18 -10 21 -5 3
-10 -1 -10 -9z"/>
<path d="M2284 4082 c4 -3 14 -7 22 -8 9 -1 13 0 10 4 -4 3 -14 7 -22 8 -9 1
-13 0 -10 -4z"/>
<path d="M2260 4070 c0 -5 5 -10 11 -10 5 0 7 5 4 10 -3 6 -8 10 -11 10 -2 0
-4 -4 -4 -10z"/>
<path d="M2002 3998 c2 -14 11 -22 25 -23 12 -1 20 2 17 7 -3 4 -12 8 -19 8
-9 0 -12 6 -9 15 4 8 1 15 -6 15 -6 0 -10 -10 -8 -22z"/>
<path d="M900 4200 c0 -5 5 -10 11 -10 5 0 7 5 4 10 -3 6 -8 10 -11 10 -2 0
-4 -4 -4 -10z"/>
<path d="M1103 3854 c-7 -7 -13 -19 -13 -26 0 -7 7 -2 16 10 18 26 16 37 -3
16z"/>
<path d="M1270 3816 c0 -2 7 -9 15 -16 13 -11 14 -10 9 4 -5 14 -24 23 -24 12z"/>
<path d="M3350 5830 c-9 -6 -10 -10 -3 -10 6 0 15 5 18 10 8 12 4 12 -15 0z"/>
<path d="M3640 5730 c8 -5 20 -10 25 -10 6 0 3 5 -5 10 -8 5 -19 10 -25 10 -5
0 -3 -5 5 -10z"/>
<path d="M1910 5673 c-65 -7 -195 -34 -272 -58 -42 -13 -79 -20 -82 -17 -3 3
-6 0 -6 -6 0 -7 -6 -12 -12 -12 -19 0 -227 -107 -265 -136 -17 -13 -36 -24
-42 -24 -6 0 -11 -4 -11 -10 0 -5 -6 -10 -13 -10 -7 0 -30 -18 -51 -39 l-39
-40 64 -40 c35 -23 70 -41 77 -41 6 0 12 -4 12 -8 0 -5 41 -25 91 -46 106 -43
103 -44 139 49 47 122 142 302 180 343 11 12 29 22 40 22 10 0 22 5 25 10 3 6
10 10 16 10 12 0 12 -37 -1 -45 -39 -24 -209 -390 -210 -451 0 -23 165 -69
425 -120 199 -39 245 -46 268 -40 35 9 83 58 95 96 20 61 1 282 -44 497 -10
52 -61 99 -122 112 -50 10 -183 13 -262 4z m232 -33 c38 0 54 -6 81 -30 29
-25 36 -41 50 -107 27 -128 39 -229 40 -336 1 -83 -2 -107 -16 -128 -28 -42
-67 -54 -135 -40 -31 6 -118 22 -192 36 -158 30 -371 83 -383 94 -14 14 53
187 116 301 38 70 115 188 128 196 15 9 188 23 229 18 19 -2 56 -4 82 -4z
m-537 -133 c-39 -64 -69 -125 -120 -242 -8 -16 -17 -43 -21 -58 -8 -35 -18
-33 -146 28 -131 63 -158 78 -158 91 0 26 261 178 395 230 98 38 101 34 50
-49z"/>
<path d="M1811 5524 c0 -11 3 -14 6 -6 3 7 2 16 -1 19 -3 4 -6 -2 -5 -13z"/>
<path d="M1782 5490 c0 -14 2 -19 5 -12 2 6 2 18 0 25 -3 6 -5 1 -5 -13z"/>
<path d="M1646 5202 c-3 -5 1 -9 9 -9 8 0 12 4 9 9 -3 4 -7 8 -9 8 -2 0 -6 -4
-9 -8z"/>
<path d="M1657 5159 c7 -7 15 -10 18 -7 3 3 -2 9 -12 12 -14 6 -15 5 -6 -5z"/>
<path d="M2160 5040 c0 -5 7 -7 15 -4 8 4 15 8 15 10 0 2 -7 4 -15 4 -8 0 -15
-4 -15 -10z"/>
<path d="M1540 5490 c-13 -8 -12 -10 3 -10 9 0 17 5 17 10 0 12 -1 12 -20 0z"/>
<path d="M1407 5458 c-14 -18 -41 -64 -61 -103 -34 -65 -36 -71 -20 -82 24
-17 34 -16 69 7 17 11 38 20 48 20 9 0 17 4 17 9 0 22 -23 21 -65 -3 -24 -14
-46 -23 -49 -18 -10 17 85 184 98 172 2 -3 7 -19 10 -35 6 -30 31 -63 42 -53
3 4 -1 17 -10 30 -9 12 -16 32 -16 43 0 21 -17 45 -31 45 -5 0 -19 -15 -32
-32z"/>
<path d="M1513 5445 c0 -8 4 -15 9 -15 4 0 8 4 8 9 0 6 -4 12 -8 15 -5 3 -9
-1 -9 -9z"/>
<path d="M1420 5375 c0 -8 4 -15 10 -15 5 0 7 7 4 15 -4 8 -8 15 -10 15 -2 0
-4 -7 -4 -15z"/>
<path d="M1287 5363 c-3 -5 -2 -16 2 -25 6 -17 7 -16 18 2 11 16 10 18 -4 13
-11 -4 -14 -3 -9 5 4 7 5 12 2 12 -3 0 -7 -3 -9 -7z"/>
<path d="M1405 5240 c3 -5 8 -10 11 -10 2 0 4 5 4 10 0 6 -5 10 -11 10 -5 0
-7 -4 -4 -10z"/>
<path d="M4061 5304 c0 -11 3 -14 6 -6 3 7 2 16 -1 19 -3 4 -6 -2 -5 -13z"/>
<path d="M1905 4970 c-13 -6 -15 -9 -5 -9 8 0 22 4 30 9 18 12 2 12 -25 0z"/>
<path d="M1848 4953 c7 -3 16 -2 19 1 4 3 -2 6 -13 5 -11 0 -14 -3 -6 -6z"/>
<path d="M3169 4924 c-1 -13 -2 -30 -3 -36 -3 -19 12 -77 31 -120 12 -29 22
-37 50 -43 20 -3 59 -17 89 -31 29 -13 57 -24 63 -24 5 0 11 -4 13 -8 6 -14
79 -52 89 -46 5 3 1 17 -10 32 -23 33 -36 72 -23 72 5 0 21 -9 35 -20 14 -11
32 -20 41 -20 9 0 16 -4 16 -10 0 -5 11 -12 24 -16 13 -3 36 -19 52 -35 53
-55 61 -23 12 49 -63 94 -236 262 -269 262 -13 0 -20 -11 -25 -35 -3 -19 -10
-35 -14 -35 -4 0 -31 15 -58 34 -28 18 -64 38 -81 44 -29 10 -31 9 -32 -14z
m117 -59 c36 -25 71 -45 75 -45 5 0 9 18 9 40 0 30 4 40 16 40 21 0 252 -231
237 -237 -7 -2 -32 9 -55 25 -45 31 -129 72 -148 72 -6 0 -1 -18 10 -41 12
-23 19 -43 16 -46 -3 -3 -21 5 -41 17 -41 25 -132 60 -158 60 -19 0 -39 39
-54 107 -16 69 0 70 93 8z"/>
<path d="M3428 4814 c-4 -3 -14 -7 -24 -8 -10 -2 -21 -15 -25 -29 -4 -16 -3
-25 2 -21 5 3 9 13 9 23 0 13 7 18 23 16 15 -2 24 2 24 11 0 16 -1 16 -9 8z"/>
<path d="M3350 4770 c-9 -6 -10 -10 -3 -10 6 0 15 5 18 10 8 12 4 12 -15 0z"/>
<path d="M2765 4880 c-13 -6 -15 -9 -5 -9 8 0 22 4 30 9 18 12 2 12 -25 0z"/>
<path d="M2628 4873 c7 -3 16 -2 19 1 4 3 -2 6 -13 5 -11 0 -14 -3 -6 -6z"/>
<path d="M3558 4833 c7 -3 16 -2 19 1 4 3 -2 6 -13 5 -11 0 -14 -3 -6 -6z"/>
<path d="M3790 4686 c0 -14 15 -52 62 -153 12 -27 22 -51 22 -55 1 -3 10 -17
22 -31 16 -18 35 -25 85 -31 254 -28 624 -45 663 -30 28 11 24 18 -61 114 -28
31 -51 43 -160 78 -70 23 -133 42 -139 42 -7 0 -34 6 -60 14 -82 24 -194 45
-296 56 -126 13 -138 13 -138 -4z m143 -21 l49 -6 33 -72 c35 -77 65 -147 65
-154 0 -2 -8 -2 -17 1 -10 2 -45 7 -78 11 -33 3 -63 9 -67 13 -12 13 -87 168
-94 196 -6 26 -5 27 27 22 19 -3 56 -8 82 -11z m293 -55 c211 -53 293 -86 347
-138 81 -79 78 -80 -223 -62 -265 16 -238 5 -288 118 -24 53 -46 103 -49 111
-8 19 56 10 213 -29z"/>
<path d="M3876 4604 c-5 -14 -4 -15 9 -4 17 14 19 20 6 20 -5 0 -12 -7 -15
-16z"/>
<path d="M3955 4610 c3 -5 8 -10 11 -10 2 0 4 5 4 10 0 6 -5 10 -11 10 -5 0
-7 -4 -4 -10z"/>
<path d="M4156 4581 c-4 -5 3 -7 14 -4 23 6 26 13 6 13 -8 0 -17 -4 -20 -9z"/>
<path d="M4124 4535 c-3 -8 -4 -20 -2 -27 3 -7 7 -1 10 15 6 29 1 36 -8 12z"/>
<path d="M4480 4480 c20 -13 33 -13 25 0 -3 6 -14 10 -23 10 -15 0 -15 -2 -2
-10z"/>
<path d="M4155 4460 c3 -5 8 -10 11 -10 2 0 4 5 4 10 0 6 -5 10 -11 10 -5 0
-7 -4 -4 -10z"/>
<path d="M4328 4463 c7 -3 16 -2 19 1 4 3 -2 6 -13 5 -11 0 -14 -3 -6 -6z"/>
<path d="M5666 4663 c-8 -20 9 -40 19 -22 6 8 4 10 -5 4 -9 -5 -10 -2 -5 14 8
25 0 29 -9 4z"/>
<path d="M5841 4671 c-10 -7 -7 -9 12 -8 14 1 23 5 20 10 -6 9 -15 9 -32 -2z"/>
<path d="M5928 4602 c-3 -11 0 -19 7 -19 7 0 10 8 7 19 -2 10 -6 18 -7 18 -1
0 -5 -8 -7 -18z"/>
<path d="M3771 4584 c0 -11 3 -14 6 -6 3 7 2 16 -1 19 -3 4 -6 -2 -5 -13z"/>
<path d="M3731 4574 c0 -11 3 -14 6 -6 3 7 2 16 -1 19 -3 4 -6 -2 -5 -13z"/>
<path d="M5740 4511 c0 -6 4 -13 10 -16 6 -3 7 1 4 9 -7 18 -14 21 -14 7z"/>
<path d="M3371 4464 c0 -11 3 -14 6 -6 3 7 2 16 -1 19 -3 4 -6 -2 -5 -13z"/>
<path d="M4388 4333 c7 -3 16 -2 19 1 4 3 -2 6 -13 5 -11 0 -14 -3 -6 -6z"/>
<path d="M4516 4254 c-87 -27 -151 -82 -131 -113 5 -10 34 -4 45 8 12 14 51
31 71 31 12 0 29 -8 38 -18 9 -10 32 -29 51 -42 19 -14 43 -31 52 -39 10 -8
37 -26 62 -40 24 -15 69 -40 99 -58 30 -18 67 -35 81 -39 14 -3 26 -10 26 -16
0 -5 4 -7 9 -4 5 4 11 2 13 -2 7 -18 155 -63 244 -74 115 -14 260 1 341 35 59
25 65 37 28 61 -32 21 -33 46 -1 46 17 0 28 9 40 34 9 19 16 39 16 45 0 6 5
11 10 11 6 0 10 9 10 19 0 21 39 53 78 65 12 4 22 12 22 17 0 5 7 9 15 9 8 0
15 4 15 9 0 5 9 13 20 16 20 6 27 29 11 39 -4 3 -30 -10 -57 -29 -216 -154
-644 -185 -1024 -73 -78 23 -107 35 -103 45 4 9 15 12 39 7 32 -6 64 7 64 25
0 14 -71 41 -103 40 -18 0 -54 -7 -81 -15z m37 -27 c20 12 55 9 50 -4 -3 -7
-9 -13 -14 -13 -5 0 -9 -11 -9 -25 0 -19 4 -23 17 -18 11 4 14 3 9 -5 -4 -7
-1 -12 8 -12 9 0 16 -4 16 -10 0 -5 -2 -10 -5 -10 -11 0 -60 35 -68 47 -4 7
-15 13 -24 13 -10 0 -13 6 -9 16 3 8 2 12 -3 9 -5 -3 -12 -1 -15 4 -4 5 2 11
11 13 10 2 20 0 21 -4 2 -5 9 -5 15 -1z m-73 -27 c-8 -5 -19 -10 -25 -10 -5 0
-3 5 5 10 8 5 20 10 25 10 6 0 3 -5 -5 -10z m213 -71 c21 -5 35 -14 32 -20 -4
-5 -2 -9 4 -9 5 0 13 5 17 11 4 8 9 8 17 0 6 -6 24 -11 39 -11 15 0 28 -4 28
-9 0 -21 167 -44 320 -45 162 0 262 12 369 45 35 11 66 18 69 15 10 -10 -32
-76 -53 -83 -25 -8 -26 -9 -136 -24 -120 -16 -296 -6 -424 24 -55 13 -108 27
-117 32 -26 11 -22 -12 5 -29 12 -8 54 -22 92 -31 39 -9 79 -19 90 -23 30 -9
366 -10 399 -1 20 6 35 4 50 -6 11 -8 17 -15 12 -15 -5 0 -3 -7 4 -15 16 -19
4 -35 -26 -35 -16 0 -23 -4 -18 -11 5 -8 1 -8 -14 0 -26 14 -35 14 -27 1 4 -6
-6 -10 -22 -11 -15 0 -39 -2 -53 -4 -83 -14 -95 -14 -80 -4 11 7 -4 9 -50 9
-88 -1 -137 4 -146 13 -4 4 -16 7 -26 7 -10 0 -18 5 -18 11 0 5 -4 7 -10 4 -5
-3 -22 1 -38 9 -16 8 -33 12 -37 8 -5 -4 -5 -1 -1 6 5 8 0 12 -13 12 -12 0
-21 4 -21 9 0 6 -9 8 -20 6 -11 -2 -20 0 -20 6 0 5 -6 9 -13 9 -8 0 -22 9 -32
20 -10 11 -20 18 -23 15 -3 -2 -18 5 -33 16 -16 11 -33 17 -39 14 -5 -3 -10 1
-10 9 0 9 -4 17 -10 17 -5 1 -14 2 -19 3 -5 0 -13 5 -18 10 -5 5 -3 6 5 2 6
-4 12 -3 12 3 0 5 -13 12 -30 16 -29 6 -37 15 -23 28 8 9 11 9 56 -4z"/>
<path d="M5758 4153 c7 -3 16 -2 19 1 4 3 -2 6 -13 5 -11 0 -14 -3 -6 -6z"/>
<path d="M4506 4103 c-6 -14 -5 -15 5 -6 7 7 10 15 7 18 -3 3 -9 -2 -12 -12z"/>
<path d="M1170 4084 c0 -7 33 -57 50 -75 10 -12 41 -19 98 -24 76 -7 94 -13
215 -75 170 -86 230 -120 260 -146 39 -34 52 -15 25 37 -13 24 -26 46 -30 47
-5 2 -8 9 -8 15 0 6 -10 21 -21 33 -13 14 -19 30 -15 39 5 15 9 15 38 -3 18
-12 38 -21 43 -22 6 -2 20 -6 33 -11 13 -5 25 -9 27 -9 2 0 33 -13 68 -30 36
-16 70 -30 76 -30 6 0 11 -4 11 -10 0 -5 6 -10 13 -10 7 0 39 -16 71 -35 32
-19 62 -35 67 -35 12 0 11 48 -2 110 -10 49 -29 69 -29 31 0 -11 -3 -21 -7
-24 -5 -2 -2 -2 4 -1 9 2 11 -7 8 -33 -5 -37 -15 -58 -15 -30 0 9 -6 14 -13
11 -7 -2 -24 5 -37 16 -18 16 -25 17 -32 8 -5 -9 -8 -5 -8 12 0 20 -2 22 -10
10 -9 -13 -12 -13 -21 3 -5 9 -17 17 -25 17 -9 0 -27 9 -41 20 -27 21 -48 27
-38 10 3 -6 -1 -7 -9 -4 -9 3 -13 10 -10 16 3 5 0 8 -7 7 -23 -4 -69 12 -63
22 3 5 -14 9 -38 9 -31 0 -39 3 -28 10 8 5 11 10 6 10 -6 0 -20 -9 -32 -21
-24 -23 -23 -37 8 -81 14 -20 15 -28 6 -34 -6 -4 -14 -2 -16 4 -2 7 -8 12 -13
12 -6 0 -7 -4 -4 -10 3 -5 1 -10 -4 -10 -6 0 -11 4 -11 9 0 11 -66 51 -85 51
-7 0 -15 7 -19 15 -3 8 -13 15 -22 15 -22 0 -104 41 -104 52 0 4 -9 8 -21 8
-11 0 -18 4 -15 9 7 10 -43 20 -126 23 -31 2 -54 6 -52 10 3 5 -4 8 -15 8 -19
0 -54 37 -46 50 2 3 -5 7 -16 7 -10 1 -19 0 -19 -3z"/>
<path d="M991 4064 c0 -11 3 -14 6 -6 3 7 2 16 -1 19 -3 4 -6 -2 -5 -13z"/>
<path d="M1018 4063 c7 -3 16 -2 19 1 4 3 -2 6 -13 5 -11 0 -14 -3 -6 -6z"/>
<path d="M4725 3950 c3 -5 8 -10 11 -10 2 0 4 5 4 10 0 6 -5 10 -11 10 -5 0
-7 -4 -4 -10z"/>
<path d="M3601 3884 c0 -11 3 -14 6 -6 3 7 2 16 -1 19 -3 4 -6 -2 -5 -13z"/>
<path d="M1836 3837 c3 -10 9 -15 12 -12 3 3 0 11 -7 18 -10 9 -11 8 -5 -6z"/>
<path d="M3620 3801 c0 -6 4 -13 10 -16 6 -3 7 1 4 9 -7 18 -14 21 -14 7z"/>
<path d="M1496 3763 c-6 -14 -5 -15 5 -6 7 7 10 15 7 18 -3 3 -9 -2 -12 -12z"/>
<path d="M1560 3686 c0 -2 7 -7 16 -10 8 -3 12 -2 9 4 -6 10 -25 14 -25 6z"/>
<path d="M400 3646 c0 -2 8 -10 18 -17 15 -13 16 -12 3 4 -13 16 -21 21 -21
13z"/>
<path d="M403 3605 c0 -8 4 -12 9 -9 5 3 6 10 3 15 -9 13 -12 11 -12 -6z"/>
<path d="M5885 3570 c-3 -5 -1 -10 4 -10 6 0 11 5 11 10 0 6 -2 10 -4 10 -3 0
-8 -4 -11 -10z"/>
<path d="M390 3520 c0 -23 4 -30 20 -30 11 0 20 5 20 10 0 6 -4 10 -10 10 -5
0 -10 5 -10 11 0 8 4 9 13 0 8 -6 17 -8 20 -4 4 3 7 -1 7 -10 0 -9 5 -17 10
-17 6 0 10 6 10 13 0 8 4 7 10 -3 8 -13 11 -11 16 8 8 27 24 29 24 3 0 -26 46
-26 53 1 4 14 1 18 -9 14 -8 -3 -14 0 -14 6 0 6 -3 8 -7 5 -3 -4 -12 -2 -20 5
-11 8 -17 7 -28 -8 -11 -15 -14 -16 -15 -4 0 17 -40 22 -40 6 0 -6 -5 -5 -12
2 -21 21 -38 13 -38 -18z"/>
<path d="M1397 3537 c-3 -7 3 -13 14 -13 13 0 15 3 7 13 -6 7 -12 13 -13 13
-2 0 -5 -6 -8 -13z"/>
<path d="M555 3460 c-3 -5 -1 -10 4 -10 6 0 11 5 11 10 0 6 -2 10 -4 10 -3 0
-8 -4 -11 -10z"/>
<path d="M1928 3463 c7 -3 16 -2 19 1 4 3 -2 6 -13 5 -11 0 -14 -3 -6 -6z"/>
<path d="M5140 3439 c0 -5 5 -7 10 -4 6 3 10 8 10 11 0 2 -4 4 -10 4 -5 0 -10
-5 -10 -11z"/>
<path d="M5140 3300 c-9 -6 -10 -10 -3 -10 6 0 15 5 18 10 8 12 4 12 -15 0z"/>
<path d="M5303 3233 c9 -2 23 -2 30 0 6 3 -1 5 -18 5 -16 0 -22 -2 -12 -5z"/>
<path d="M3511 3144 c0 -11 3 -14 6 -6 3 7 2 16 -1 19 -3 4 -6 -2 -5 -13z"/>
<path d="M3408 3063 c7 -3 16 -2 19 1 4 3 -2 6 -13 5 -11 0 -14 -3 -6 -6z"/>
<path d="M0 3033 c0 -7 5 -14 10 -14 6 -1 16 -2 23 -3 9 -1 12 -289 14 -1396
2 -767 5 -1405 8 -1417 4 -16 17 -25 46 -33 56 -15 42 -23 -36 -21 -39 1 -65
-2 -65 -9 0 -9 76 -16 105 -10 6 1 7 -2 3 -6 -4 -4 -2 -14 4 -21 7 -8 11 -35
9 -59 -2 -35 1 -44 13 -44 14 0 16 16 16 100 l0 100 -37 0 -38 0 -1 1422 -1
1422 -36 2 c-25 0 -37 -4 -37 -13z"/>
<path d="M5950 1626 l0 -1426 -95 0 -95 0 0 -100 c0 -79 3 -100 14 -100 18 0
27 26 20 56 -8 31 3 75 19 73 45 -6 187 3 187 11 0 6 -43 10 -110 10 -67 0
-110 4 -110 10 0 12 -3 12 90 13 48 1 80 6 89 15 11 11 13 126 13 673 0 393 3
659 9 659 5 0 9 5 9 11 0 5 -4 7 -10 4 -6 -4 -10 9 -9 32 1 35 2 36 10 13 7
-21 8 -21 2 5 -4 17 -7 344 -8 728 -2 584 0 697 11 697 8 0 14 7 14 15 0 8 -4
15 -9 15 -5 0 -16 3 -25 6 -15 6 -16 -124 -16 -1420z"/>
<path d="M2180 2779 c-132 -12 -295 -36 -366 -55 -46 -12 -120 -16 -334 -18
-151 -1 -324 -8 -385 -15 -108 -13 -112 -13 -230 14 -105 25 -142 28 -290 29
-93 1 -205 -3 -248 -7 -78 -9 -79 -9 -95 -45 -21 -49 -21 -255 1 -331 13 -49
13 -57 -2 -90 -13 -29 -16 -69 -16 -196 0 -144 3 -171 29 -270 25 -97 90 -279
128 -358 12 -27 21 -29 58 -13 13 5 14 -6 11 -81 -11 -265 93 -544 229 -613
53 -27 169 -40 358 -40 188 0 334 15 373 37 14 9 37 33 50 54 13 22 27 39 30
39 4 0 14 -11 23 -25 25 -39 53 -46 301 -86 221 -34 607 -77 716 -79 11 0 21
-26 38 -96 27 -109 74 -209 113 -237 24 -18 44 -19 205 -19 199 1 327 19 373
52 73 52 140 188 168 342 l17 90 32 -46 c42 -60 102 -102 182 -127 104 -34
395 -37 776 -9 164 12 303 24 308 27 5 3 30 -17 56 -44 77 -80 101 -87 260
-79 149 7 295 29 350 52 77 32 178 170 196 267 5 24 22 55 46 80 47 51 93 143
109 218 19 85 8 298 -18 372 -72 200 -215 346 -452 460 -246 119 -587 177
-955 164 -154 -6 -297 -19 -366 -33 -24 -4 -30 2 -69 68 -87 146 -245 366
-302 421 -115 109 -419 193 -823 227 -139 11 -447 11 -585 -1z m605 -39 c299
-28 512 -75 668 -147 42 -20 77 -40 77 -46 0 -5 -6 -7 -14 -4 -38 15 -107 29
-291 61 -110 19 -254 46 -320 59 -66 14 -158 28 -205 32 -155 12 -349 -28
-399 -83 -22 -24 -23 -31 -17 -98 10 -111 53 -352 76 -426 11 -36 29 -77 41
-92 23 -29 25 -27 -58 -46 -54 -12 -72 -30 -30 -30 12 0 100 14 196 30 443 75
697 63 983 -49 57 -23 134 -59 172 -81 37 -22 81 -40 96 -40 15 0 50 -7 76
-15 27 -8 90 -26 139 -40 50 -15 146 -44 215 -66 l126 -39 119 15 c66 8 242
20 390 26 149 6 279 12 290 15 11 2 58 38 105 80 111 100 112 100 160 73 22
-13 40 -27 40 -32 0 -5 -23 -31 -50 -59 -70 -70 -75 -82 -48 -107 12 -11 38
-32 58 -46 l37 -26 93 25 c51 13 97 23 104 20 6 -2 21 -19 32 -37 69 -104 94
-317 55 -461 -27 -100 -59 -153 -127 -215 -149 -137 -430 -208 -944 -240 -96
-6 -244 -16 -328 -21 -224 -14 -463 -12 -560 5 -104 18 -160 43 -209 93 -48
50 -119 186 -168 322 -20 58 -41 114 -45 125 -5 11 -25 70 -46 130 -85 251
-151 373 -250 463 -145 133 -332 135 -462 5 -55 -55 -88 -120 -104 -202 -16
-84 -3 -296 26 -434 37 -174 37 -310 0 -204 -32 92 -152 311 -271 494 -29 46
-53 86 -53 89 0 9 -117 171 -183 252 l-60 74 16 34 c16 32 15 34 -3 44 -10 5
-36 10 -57 10 -29 0 -50 9 -88 40 -31 24 -53 36 -59 30 -6 -6 -3 -17 7 -28 24
-26 21 -32 -14 -32 -23 0 -45 12 -82 46 -103 92 -414 280 -433 262 -3 -3 1
-17 7 -32 17 -37 4 -44 -29 -15 -38 35 -144 106 -178 120 -53 22 -1 20 61 -1
33 -12 71 -24 85 -27 22 -6 24 -4 11 10 -7 10 -19 17 -27 17 -48 0 -3 33 251
182 156 92 299 151 432 179 50 10 98 22 106 25 8 3 84 14 168 24 178 21 523
26 694 10z m-1984 -60 c30 -6 81 -18 114 -25 52 -13 80 -13 210 0 158 15 475
20 475 8 0 -5 -33 -24 -72 -43 -70 -34 -217 -120 -328 -192 -30 -19 -74 -45
-97 -57 l-43 -21 -72 19 c-156 42 -296 50 -438 27 -83 -14 -210 -55 -237 -78
-8 -7 -17 -7 -22 -2 -15 16 -31 138 -31 235 0 124 8 137 93 142 100 7 389 -2
448 -13z m2069 -56 c47 -9 175 -31 285 -49 343 -59 441 -83 472 -118 32 -36
113 -155 113 -166 0 -6 -18 -2 -42 8 -102 43 -242 67 -477 81 -95 6 -176 12
-180 15 -4 2 -62 13 -128 24 -147 26 -307 27 -461 5 -62 -9 -115 -14 -118 -12
-2 3 -7 42 -11 86 l-6 81 45 20 c120 51 304 60 508 25z m695 -84 c3 -5 2 -10
-4 -10 -5 0 -13 5 -16 10 -3 6 -2 10 4 10 5 0 13 -4 16 -10z m-628 -155 c81
-13 164 -26 183 -29 19 -2 37 -5 39 -5 2 -1 -8 -10 -23 -22 -37 -29 -56 -71
-56 -124 0 -52 10 -77 48 -117 21 -23 34 -28 73 -28 39 0 52 5 78 32 56 58 56
166 0 225 l-34 34 90 -6 c109 -9 286 -45 375 -77 64 -23 66 -25 127 -118 35
-52 60 -97 55 -101 -4 -3 -50 -2 -102 3 -102 11 -371 -3 -474 -24 -44 -8 -76
-8 -140 2 -154 24 -522 -1 -683 -46 -60 -17 -114 108 -148 347 l-7 45 94 16
c148 25 331 22 505 -7z m-2164 -25 c120 -45 420 -224 477 -285 37 -40 54 -33
48 20 -3 24 -3 46 -1 49 6 6 112 -55 190 -111 l68 -48 -72 -6 c-122 -11 -195
-63 -275 -199 -51 -87 -68 -181 -44 -255 17 -55 45 -85 78 -85 10 0 18 -5 18
-11 0 -11 -16 -10 -84 7 l-29 7 5 -62 c3 -39 1 -61 -6 -61 -6 1 -42 18 -81 39
l-69 38 -28 121 c-54 244 -112 392 -183 471 -47 52 -91 71 -162 71 -132 0
-215 -113 -230 -312 -3 -43 -9 -78 -12 -78 -4 0 -25 19 -48 43 -34 35 -44 54
-59 122 -22 93 -27 327 -8 359 11 17 14 14 34 -30 29 -65 36 -42 12 39 -11 36
-17 70 -13 75 20 33 189 81 321 92 52 4 96 8 97 9 1 0 27 -8 56 -19z m167 -13
c0 -5 4 -6 9 -2 5 3 13 -4 16 -15 4 -12 22 -28 40 -37 19 -9 32 -20 29 -25 -3
-4 -20 3 -38 17 -18 14 -36 22 -39 18 -4 -3 -7 -1 -7 6 0 7 -4 9 -10 6 -5 -3
-10 -1 -10 4 0 6 -6 11 -13 11 -7 0 -22 6 -33 14 -18 14 -16 15 18 13 21 -1
38 -6 38 -10z m2322 -47 c34 -36 38 -47 38 -91 0 -84 -38 -133 -103 -131 -54
1 -97 61 -97 136 0 39 6 51 38 86 24 24 48 40 62 40 14 0 38 -16 62 -40z
m-3001 -71 c-5 -13 -10 -19 -10 -12 -1 15 10 45 15 40 3 -2 0 -15 -5 -28z
m823 15 c3 -8 2 -12 -4 -9 -6 3 -10 10 -10 16 0 14 7 11 14 -7z m38 -28 c7 4
8 2 4 -5 -9 -13 -26 -5 -25 12 0 9 2 8 6 -1 2 -6 10 -9 15 -6z m168 -48 c0
-10 -3 -17 -7 -15 -5 3 -13 -1 -20 -8 -10 -11 -10 -14 0 -18 7 -2 9 -8 4 -12
-4 -5 -16 1 -27 13 -12 12 -26 22 -33 22 -7 0 -3 6 8 12 11 7 26 17 33 24 17
17 42 7 42 -18z m-109 5 c13 -16 12 -17 -3 -4 -17 13 -22 21 -14 21 2 0 10 -8
17 -17z m2904 -125 c-4 -10 64 -13 322 -13 352 0 413 -6 621 -61 107 -28 124
-34 214 -76 l66 -30 -70 -62 c-106 -92 -125 -103 -198 -110 l-65 -6 25 20 c18
13 22 22 14 30 -12 12 -75 16 -92 6 -19 -12 -14 -33 11 -42 15 -5 -3 -9 -58
-11 -144 -5 -398 -23 -480 -35 -87 -12 -69 -15 -395 87 -58 18 -163 42 -218
51 -23 4 -60 19 -80 34 -63 46 -224 128 -284 145 -32 9 -58 21 -58 26 0 16
464 11 597 -6 237 -31 437 -75 621 -135 103 -34 140 -35 76 -2 -131 67 -454
154 -581 156 -44 0 -79 5 -76 10 3 4 -4 5 -15 2 -11 -4 -23 -3 -25 2 -3 4 6 7
21 7 15 -1 33 3 39 8 7 5 19 7 26 4 8 -3 20 -1 28 4 18 11 19 11 14 -3z
m-3422 -22 c19 -11 27 -12 27 -3 0 7 7 4 14 -6 8 -10 18 -17 23 -15 4 2 12 -7
18 -19 5 -13 13 -23 18 -23 4 0 5 6 1 13 -5 8 -2 8 9 -2 9 -7 17 -19 17 -26 0
-7 7 -18 15 -25 21 -18 8 -32 -23 -26 -34 7 -73 -12 -89 -44 -7 -14 -13 -19
-13 -12 0 8 -5 10 -12 5 -14 -8 -19 -10 -42 -12 -20 -1 -68 -46 -59 -54 3 -4
1 -7 -5 -7 -15 0 -67 -109 -83 -173 -8 -33 -14 -44 -20 -35 -7 10 -9 10 -9 1
0 -23 -19 -14 -26 12 -3 14 -13 25 -21 25 -8 0 -17 9 -20 20 -3 11 -9 17 -14
14 -5 -3 -9 0 -9 7 0 8 -4 8 -13 1 -7 -6 -17 -8 -22 -4 -14 10 -17 32 -5 32 5
0 10 -3 10 -7 0 -5 16 -9 35 -10 24 -2 37 2 43 15 8 13 17 91 22 187 0 6 5 3
11 -5 9 -12 10 -10 5 9 -2 13 2 34 10 47 9 13 17 29 18 36 3 20 56 69 67 63 5
-4 12 1 15 10 4 9 12 14 18 12 6 -2 20 -1 31 4 27 11 27 11 58 -5z m915 -96
c6 -36 -15 -95 -60 -175 -63 -112 -88 -178 -95 -260 -5 -66 -4 -75 11 -75 9 0
16 -4 16 -9 0 -5 26 -12 58 -16 77 -9 88 -13 74 -27 -11 -11 -99 -1 -146 18
-14 5 -17 3 -15 -11 3 -11 14 -19 29 -20 14 -1 50 -5 81 -9 66 -9 74 -2 81 67
7 56 -3 64 -76 65 -60 2 -86 22 -86 68 0 71 82 229 171 328 l53 59 65 -7 c99
-10 170 -22 177 -29 9 -9 -75 -136 -98 -148 -17 -9 -73 -6 -120 7 -19 6 -77
-71 -64 -84 4 -4 26 -11 48 -17 71 -17 75 -32 82 -260 3 -113 1 -207 -4 -215
-7 -12 -35 -15 -131 -15 l-121 0 -39 44 c-32 36 -39 40 -39 23 0 -33 -33 -44
-108 -36 -37 3 -75 10 -84 15 -38 20 -94 188 -69 204 6 3 29 0 51 -6 52 -16
64 -5 64 58 l1 48 -42 5 c-59 8 -73 24 -73 79 0 86 58 208 133 282 61 58 115
79 202 76 66 -2 70 -3 73 -27z m42 -9 c7 -14 5 -23 -10 -36 -20 -18 -20 -17
-20 24 0 43 11 47 30 12z m-780 -87 c33 -63 104 -297 97 -318 -5 -13 -8 -7
-36 89 -36 121 -105 215 -165 226 -41 8 -27 28 21 32 65 5 65 5 83 -29z m2058
-21 c8 -8 21 -12 29 -9 9 4 11 1 7 -5 -4 -7 -1 -10 6 -7 14 4 95 -64 110 -93
8 -14 1 -16 -53 -16 -163 0 -251 -6 -278 -20 -16 -8 -33 -12 -39 -8 -6 3 -13
-1 -16 -9 -3 -9 -9 -14 -14 -11 -4 2 -15 -11 -26 -30 -10 -18 -22 -31 -27 -28
-6 4 -7 1 -3 -6 5 -7 0 -21 -10 -32 -9 -10 -14 -19 -9 -19 4 0 3 -6 -3 -12 -6
-7 -13 -31 -17 -53 -4 -22 -11 -47 -16 -56 -7 -14 -20 -106 -22 -156 -1 -27
-16 -11 -24 25 -11 50 -10 312 1 337 5 11 10 26 12 33 1 7 14 29 29 48 14 19
23 39 19 46 -4 6 -3 8 4 4 6 -3 13 3 17 13 4 13 11 18 22 14 11 -4 14 -2 9 5
-4 7 -1 12 9 12 9 0 14 4 11 8 -4 7 11 15 79 40 40 14 175 4 193 -15z m-2149
-24 c60 -33 107 -115 148 -254 24 -82 29 -383 9 -485 -31 -153 -87 -242 -168
-271 -33 -11 -42 -11 -73 4 -65 31 -144 190 -176 352 -21 109 -17 312 9 417
53 215 142 299 251 237z m1179 -4 c12 -14 18 -25 13 -25 -5 0 -16 11 -25 25
-9 14 -15 25 -13 25 2 0 13 -11 25 -25z m50 -121 c156 -204 399 -585 386 -605
-4 -6 -15 -3 -28 9 -64 58 -340 217 -361 208 -10 -3 -5 -21 19 -68 38 -71 72
-165 65 -173 -3 -2 -55 25 -115 60 -60 36 -119 68 -131 71 -20 5 -23 13 -24
53 0 25 -4 132 -8 236 -7 181 -6 191 14 220 46 68 79 105 89 102 6 -2 48 -53
94 -113z m3558 50 c36 -37 63 -71 61 -77 -3 -10 -134 -46 -172 -47 -22 0 -95
55 -95 71 0 19 103 119 122 119 10 0 48 -30 84 -66z m-551 17 c3 -5 1 -13 -5
-16 -15 -9 -43 3 -35 15 8 13 32 13 40 1z m-3207 -27 c4 -4 -2 -4 -13 0 -15 6
-17 4 -8 -5 6 -6 9 -18 6 -25 -6 -16 -33 -19 -33 -3 0 5 -5 7 -11 4 -6 -4 -17
1 -25 11 -9 11 -13 13 -9 7 7 -15 -1 -18 -10 -4 -3 5 1 16 10 24 11 11 24 13
51 7 19 -5 39 -12 42 -16z m1324 -99 c32 -53 98 -218 163 -410 26 -76 55 -158
65 -180 15 -36 16 -58 9 -190 -9 -146 -30 -302 -49 -357 -27 -76 -35 -89 -65
-106 -44 -27 -170 -42 -347 -42 -144 0 -172 6 -129 30 30 16 68 106 92 221 20
90 23 134 23 329 1 219 -8 330 -40 488 -17 84 -58 199 -80 223 -30 34 -8 39
164 39 l167 0 27 -45z m-375 -20 c85 -149 134 -569 102 -876 -19 -185 -82
-368 -131 -377 -46 -9 -114 196 -149 448 -16 116 -16 417 0 515 22 138 60 250
104 306 29 37 46 33 74 -16z m-2320 -72 c7 -47 6 -63 -3 -63 -12 0 -75 155
-66 164 2 3 17 -5 32 -17 21 -17 29 -35 37 -84z m1714 20 c13 -16 12 -17 -3
-4 -10 7 -18 15 -18 17 0 8 8 3 21 -13z m-1661 -32 c0 -17 -4 -33 -10 -36 -5
-3 -10 0 -10 7 0 7 -3 23 -6 36 -5 16 -2 22 10 22 11 0 16 -9 16 -29z m516
-193 c23 -155 25 -164 54 -190 19 -18 42 -28 60 -28 36 0 37 -2 5 -34 -31 -31
-31 -53 -4 -117 27 -62 57 -79 139 -79 41 0 74 -6 100 -20 26 -13 49 -18 69
-14 35 7 38 -1 15 -34 -34 -50 -62 -55 -320 -60 -259 -5 -399 3 -354 20 99 38
143 95 181 231 19 70 23 107 23 252 1 94 -3 190 -7 215 -6 34 -5 42 4 33 6 -6
22 -85 35 -175z m284 172 c0 -5 -6 -10 -14 -10 -8 0 -18 5 -21 10 -3 6 3 10
14 10 12 0 21 -4 21 -10z m228 -31 c4 -1 22 -2 41 -3 34 -2 51 -18 32 -31 -6
-3 -11 -1 -11 5 0 8 -6 7 -21 -1 -17 -9 -20 -8 -14 2 6 9 4 11 -8 6 -17 -6
-57 23 -57 42 0 8 5 7 16 -3 8 -9 18 -16 22 -17z m-421 -131 c-8 -5 -4 -8 11
-8 12 0 22 -4 22 -9 0 -5 6 -9 13 -8 33 1 47 -4 47 -17 0 -8 6 -17 13 -20 6
-3 1 -3 -13 1 -14 3 -31 6 -37 6 -7 0 -13 4 -13 7 0 11 -54 32 -71 28 -8 -2
-15 7 -18 22 l-4 25 -7 -25 c-6 -23 -7 -22 -11 10 l-4 35 42 -19 c29 -13 39
-22 30 -28z m60 -84 c81 -34 98 -45 137 -97 10 -13 37 -22 92 -29 66 -8 100
-21 209 -75 72 -36 156 -83 189 -104 62 -41 76 -46 76 -27 0 14 -56 116 -77
140 -8 9 -11 18 -6 21 10 6 205 -76 320 -135 45 -23 85 -39 88 -36 4 3 2 32
-4 64 -14 74 -14 94 1 94 15 0 188 -88 268 -137 36 -21 73 -42 83 -46 13 -5
17 -18 17 -50 0 -24 3 -65 6 -91 l7 -47 -99 7 c-139 8 -639 70 -764 94 -59 12
-112 28 -123 38 -18 16 -85 148 -101 200 -4 12 -15 26 -24 31 -14 7 -152 36
-269 57 -58 10 -101 25 -112 37 -15 19 -27 127 -13 127 5 0 50 -16 99 -36z
m939 -40 c-3 -7 2 -10 14 -7 10 3 21 0 24 -6 4 -6 16 -11 27 -11 11 0 18 -4
14 -9 -3 -5 10 -14 27 -20 18 -6 44 -21 58 -33 14 -13 34 -30 45 -38 17 -13
18 -13 11 0 -6 12 -5 12 6 -1 17 -20 74 -40 94 -32 13 5 13 8 2 15 -10 8 -10
9 2 5 8 -2 15 -9 15 -15 0 -6 5 -16 12 -23 6 -6 9 -18 6 -25 -3 -8 0 -14 6
-14 6 0 8 -7 4 -17 -4 -11 -3 -14 5 -9 7 4 12 2 12 -3 0 -19 -29 -12 -42 9 -7
11 -23 20 -35 20 -13 0 -23 5 -23 11 0 5 -4 7 -10 4 -5 -3 -10 -1 -10 5 0 6
-4 8 -10 5 -5 -3 -10 -1 -10 5 0 7 -7 9 -16 6 -8 -3 -12 -2 -9 4 3 6 -1 10 -9
10 -9 0 -16 6 -16 14 0 8 -4 18 -10 21 -6 3 -7 -1 -4 -9 8 -20 -3 -20 -22 -1
-9 8 -30 15 -47 15 -24 0 -28 3 -17 10 8 5 10 10 4 10 -5 0 -21 -10 -33 -21
-20 -19 -23 -29 -19 -74 4 -42 2 -51 -11 -50 -33 4 -48 17 -46 38 4 37 5 38
14 33 16 -10 20 35 6 82 -8 25 -11 50 -8 55 3 6 1 7 -4 4 -13 -8 -26 20 -16
35 3 6 1 8 -4 5 -6 -4 -13 2 -16 12 -4 17 -2 18 20 8 13 -6 22 -16 19 -23z
m-592 -35 c-7 -12 48 -21 146 -25 65 -2 97 1 102 9 5 8 8 5 8 -8 0 -18 1 -18
16 3 16 23 46 30 42 10 -2 -7 5 -12 14 -12 10 1 15 -3 11 -9 -4 -6 0 -8 10 -4
9 3 19 2 22 -4 4 -5 21 -15 38 -23 18 -7 42 -23 55 -35 12 -12 27 -19 32 -16
6 3 10 2 10 -3 0 -6 17 -17 38 -25 20 -9 32 -16 25 -16 -7 -1 -10 -8 -7 -18 4
-14 3 -15 -4 -5 -5 8 -11 13 -13 12 -2 -1 -17 3 -32 9 -16 6 -33 11 -38 11 -5
0 -9 8 -9 18 0 13 -2 14 -9 3 -6 -9 -11 -10 -15 -2 -7 10 -44 28 -101 48 -16
6 -39 14 -49 18 -15 7 -17 5 -11 -5 6 -10 4 -12 -8 -7 -10 4 -17 1 -18 -6 0
-7 -2 -22 -3 -34 -1 -12 0 -20 4 -18 4 2 14 -11 23 -30 9 -19 12 -35 7 -35 -6
0 -10 5 -10 10 0 6 -9 10 -20 10 -10 0 -23 6 -27 14 -4 8 -17 16 -28 18 -11 1
-22 5 -25 8 -12 13 -82 50 -96 50 -8 0 -14 5 -14 11 0 6 -7 8 -17 5 -10 -4
-14 -4 -10 0 16 16 -88 48 -193 59 -38 4 -40 4 -40 14 0 5 30 8 67 7 46 -2 72
2 81 10 10 11 17 11 32 2 10 -7 17 -15 14 -19z m-235 -100 l50 -11 -16 -24
c-15 -24 -14 -64 3 -121 6 -20 3 -23 -23 -23 -27 0 -29 2 -25 35 6 47 -3 78
-33 113 -13 16 -22 32 -18 36 8 8 3 8 62 -5z m-77 -19 c14 -11 33 -38 42 -60
39 -97 -36 -136 -89 -47 -22 37 -25 105 -5 117 21 13 24 13 52 -10z m271 -93
c41 -83 42 -111 5 -105 -20 3 -23 8 -20 40 4 39 -16 88 -52 126 l-21 24 25 -4
c20 -2 33 -18 63 -81z m-67 38 c32 -42 44 -115 21 -133 -24 -20 -63 4 -87 54
-20 43 -26 94 -13 107 17 18 54 5 79 -28z m2023 -105 c15 -45 -19 -310 -40
-310 -4 0 -5 -10 -3 -22 4 -21 4 -21 -5 -3 -4 11 -7 23 -5 26 10 17 25 153 26
239 1 55 5 100 9 100 4 0 12 -14 18 -30z m2184 -62 c-6 -31 -27 -37 -37 -12
-4 11 -2 15 8 11 11 -4 13 -1 9 10 -4 11 -2 14 5 9 7 -4 12 -2 12 5 0 7 2 10
4 8 2 -2 2 -16 -1 -31z m-48 -50 c-18 -59 -96 -163 -139 -185 -39 -20 -184
-41 -336 -49 -137 -7 -173 1 -220 51 l-23 24 24 5 c13 2 71 10 129 16 203 21
436 84 522 139 42 27 51 26 43 -1z m-725 -138 c8 -5 13 -10 10 -11 -3 0 -13
-2 -22 -4 -10 -2 -18 3 -18 11 0 16 9 18 30 4z"/>
<path d="M1920 2633 c-172 -20 -370 -79 -499 -150 -93 -50 -196 -120 -225
-152 -17 -19 -17 -20 26 -47 70 -45 231 -124 253 -124 16 0 26 14 44 63 33 86
128 272 157 307 22 26 78 49 90 37 3 -2 -11 -29 -31 -58 -73 -110 -175 -349
-163 -380 9 -23 420 -122 565 -135 68 -6 69 -6 105 27 54 52 57 95 23 354 -23
173 -41 216 -98 240 -34 14 -189 25 -247 18z m229 -46 c58 -29 82 -108 103
-339 11 -126 10 -136 -8 -173 -26 -54 -53 -62 -156 -46 -199 32 -478 99 -485
117 -12 32 94 262 178 386 45 65 40 64 224 66 78 1 128 -3 144 -11z m-507 -70
c-26 -30 -88 -151 -123 -237 -24 -58 -44 -94 -51 -92 -21 5 -110 46 -153 70
-22 12 -52 27 -67 33 -16 6 -28 17 -28 24 0 7 39 38 88 70 171 111 387 197
334 132z"/>
<path d="M1820 2531 c0 -6 4 -13 10 -16 6 -3 7 1 4 9 -7 18 -14 21 -14 7z"/>
<path d="M1436 2428 c-38 -51 -78 -137 -72 -155 7 -16 20 -15 89 9 20 7 37 16
37 20 0 18 -24 17 -60 -3 -22 -12 -43 -20 -46 -16 -3 3 11 38 32 76 37 68 64
91 64 53 0 -24 26 -59 36 -49 4 4 2 13 -4 19 -7 7 -12 21 -12 33 0 21 -17 45
-31 45 -5 0 -19 -15 -33 -32z"/>
<path d="M1676 2037 c3 -10 9 -15 12 -12 3 3 0 11 -7 18 -10 9 -11 8 -5 -6z"/>
<path d="M2296 2013 c-6 -14 -5 -15 5 -6 7 7 10 15 7 18 -3 3 -9 -2 -12 -12z"/>
<path d="M3031 1928 c0 -24 8 -65 17 -92 14 -40 23 -51 47 -59 69 -20 143 -52
183 -79 24 -15 45 -28 48 -28 10 0 2 32 -17 64 -12 20 -18 36 -15 36 15 0 94
-45 143 -81 29 -22 55 -39 58 -39 27 0 -54 118 -136 196 -136 131 -145 135
-165 76 l-10 -33 -25 19 c-29 23 -104 62 -119 62 -5 0 -10 -19 -9 -42z m91
-17 c25 -16 49 -34 52 -40 16 -25 36 -11 36 24 0 27 4 35 18 35 20 -1 219
-196 209 -206 -4 -4 -15 0 -24 8 -31 27 -147 78 -157 68 -5 -5 0 -21 13 -38
11 -17 21 -32 21 -35 0 -3 -26 7 -57 23 -32 16 -79 35 -106 42 -45 11 -48 14
-62 62 -28 94 -18 105 57 57z"/>
<path d="M3346 1898 c3 -5 10 -6 15 -3 13 9 11 12 -6 12 -8 0 -12 -4 -9 -9z"/>
<path d="M3598 1749 c-13 -8 -6 -31 48 -146 48 -105 35 -97 194 -112 338 -33
530 -35 530 -7 0 7 -22 37 -50 68 -45 50 -57 58 -142 86 -212 70 -543 133
-580 111z m125 -26 c37 -6 40 -9 83 -101 25 -52 42 -97 39 -100 -8 -8 -94 -2
-122 9 -17 6 -36 34 -64 93 -21 46 -39 89 -39 95 0 12 45 14 103 4z m227 -44
c130 -30 281 -80 317 -106 17 -13 42 -37 54 -55 l23 -31 -203 7 c-111 4 -215
9 -232 13 -27 5 -35 17 -75 101 -24 52 -44 97 -44 99 0 5 53 -4 160 -28z"/>
<path d="M5275 1729 c-4 -6 -5 -12 -2 -15 2 -3 7 2 10 11 7 17 1 20 -8 4z"/>
<path d="M5299 1723 c-13 -16 -12 -17 4 -4 9 7 17 15 17 17 0 8 -8 3 -21 -13z"/>
<path d="M3166 1677 c3 -10 9 -15 12 -12 3 3 0 11 -7 18 -10 9 -11 8 -5 -6z"/>
<path d="M5606 1532 c-3 -5 1 -9 9 -9 8 0 12 4 9 9 -3 4 -7 8 -9 8 -2 0 -6 -4
-9 -8z"/>
<path d="M4216 1346 c-50 -19 -101 -68 -93 -90 6 -15 11 -15 46 4 52 26 72 25
107 -6 90 -78 284 -188 422 -238 130 -47 349 -45 460 4 l46 20 -34 35 c-35 36
-35 34 14 49 8 3 28 31 43 62 22 44 38 63 74 83 74 42 92 58 86 75 -5 13 -18
8 -71 -25 -220 -138 -557 -156 -925 -51 -70 20 -100 48 -39 37 40 -8 71 16 49
38 -18 18 -140 20 -185 3z m94 -36 c-11 -21 -40 -28 -40 -9 0 6 -9 9 -20 6
-11 -3 -20 -3 -20 -1 0 8 44 23 68 23 20 1 21 -2 12 -19z m5 -40 c3 -5 1 -10
-4 -10 -6 0 -11 5 -11 10 0 6 2 10 4 10 3 0 8 -4 11 -10z m75 -40 c0 -5 9 -6
19 -3 11 3 48 -4 83 -15 119 -38 180 -46 343 -46 130 0 177 5 248 22 48 12 97
27 108 32 25 14 25 -3 -1 -45 -17 -27 -28 -33 -83 -43 -36 -7 -128 -12 -207
-12 -120 0 -159 4 -249 26 -58 14 -109 31 -113 37 -4 6 -10 8 -14 5 -8 -8 20
-38 35 -38 6 0 11 -5 11 -11 0 -5 4 -7 10 -4 5 3 25 -1 43 -10 43 -20 73 -27
120 -26 20 1 37 -3 37 -8 0 -4 55 -7 123 -6 67 2 122 3 122 4 0 1 21 4 47 6
45 4 49 2 63 -25 9 -17 11 -30 6 -30 -5 0 -12 8 -14 18 -4 14 -5 13 -6 -4 -1
-29 -74 -41 -225 -39 -114 2 -127 5 -216 40 -94 37 -169 75 -202 103 -9 8 -22
11 -29 6 -8 -4 -10 -3 -5 4 4 7 1 12 -7 12 -8 0 -20 7 -27 15 -7 8 -16 12 -21
9 -5 -3 -9 2 -9 10 0 9 -6 13 -14 10 -8 -3 -17 -1 -20 4 -3 5 6 10 19 10 14 0
25 -4 25 -8z"/>
<path d="M4426 1083 c-6 -14 -5 -15 5 -6 7 7 10 15 7 18 -3 3 -9 -2 -12 -12z"/>
<path d="M5545 930 c3 -5 8 -10 11 -10 2 0 4 5 4 10 0 6 -5 10 -11 10 -5 0 -7
-4 -4 -10z"/>
<path d="M3576 765 c-9 -26 -7 -32 5 -12 6 10 9 21 6 23 -2 3 -7 -2 -11 -11z"/>
<path d="M3615 2400 c-3 -5 -1 -10 4 -10 6 0 11 5 11 10 0 6 -2 10 -4 10 -3 0
-8 -4 -11 -10z"/>
<path d="M2550 2342 c-36 -35 -60 -91 -60 -138 0 -11 12 -43 26 -71 20 -41 35
-56 69 -73 39 -19 49 -20 82 -10 50 16 72 36 94 85 24 51 24 109 0 161 -27 59
-63 84 -124 84 -44 0 -54 -4 -87 -38z m150 -2 c30 -22 60 -85 60 -128 -1 -45
-36 -109 -69 -126 -86 -45 -171 19 -171 129 0 113 100 182 180 125z"/>
<path d="M2596 2285 c-21 -20 -26 -33 -26 -72 1 -51 12 -73 48 -92 17 -9 27
-9 45 0 30 16 27 12 42 56 11 32 11 43 -1 72 -26 63 -65 76 -108 36z m25 -38
c-12 -15 19 -55 38 -49 8 3 11 0 7 -7 -4 -6 -3 -11 3 -11 6 0 8 -7 4 -16 -4
-11 -8 -12 -13 -4 -5 8 -9 6 -14 -7 -7 -17 -9 -16 -27 6 -26 32 -24 121 3 105
5 -4 5 -10 -1 -17z m56 -2 c7 -20 -2 -29 -21 -22 -9 4 -13 13 -10 22 8 19 23
19 31 0z"/>
<path d="M2393 2335 c0 -8 4 -12 9 -9 5 3 6 10 3 15 -9 13 -12 11 -12 -6z"/>
<path d="M3056 2307 c3 -10 9 -15 12 -12 3 3 0 11 -7 18 -10 9 -11 8 -5 -6z"/>
<path d="M1231 2023 c7 -12 15 -20 18 -17 3 2 -3 12 -13 22 -17 16 -18 16 -5
-5z"/>
<path d="M940 1781 c0 -6 4 -13 10 -16 6 -3 7 1 4 9 -7 18 -14 21 -14 7z"/>
<path d="M3161 2264 c-40 -51 -12 -144 44 -144 32 0 55 36 55 85 0 79 -57 112
-99 59z m74 -24 c11 -17 -5 -32 -21 -19 -7 6 -11 15 -8 20 7 12 21 11 29 -1z
m-20 -50 c-3 -5 -2 -10 3 -10 5 0 9 -7 9 -15 0 -9 -4 -11 -11 -6 -6 5 -18 7
-27 6 -12 -2 -15 3 -12 16 3 10 14 19 25 19 10 0 16 -4 13 -10z"/>
<path d="M5166 1865 c-24 -18 -14 -45 18 -45 30 0 72 33 62 48 -10 16 -57 14
-80 -3z m49 -15 c-3 -5 -13 -10 -21 -10 -8 0 -14 5 -14 10 0 6 9 10 21 10 11
0 17 -4 14 -10z"/>
<path d="M3734 1848 c-4 -6 1 -17 11 -25 25 -18 40 -17 25 2 -10 13 -9 15 10
15 16 0 20 -4 16 -15 -4 -10 1 -15 14 -15 29 0 25 29 -6 40 -34 13 -61 13 -70
-2z"/>
<path d="M4284 1699 c-10 -17 13 -33 51 -33 38 0 61 16 51 33 -4 6 -27 11 -51
11 -24 0 -47 -5 -51 -11z m66 -9 c0 -5 -7 -10 -15 -10 -8 0 -15 5 -15 10 0 6
7 10 15 10 8 0 15 -4 15 -10z"/>
<path d="M1390 1929 c-71 -29 -135 -106 -175 -214 -27 -72 -32 -137 -12 -153
7 -6 32 -14 55 -18 50 -8 57 -25 45 -99 l-8 -50 -53 -1 c-29 -1 -56 -4 -59 -8
-10 -9 24 -111 46 -137 16 -20 28 -23 92 -23 l74 -1 6 165 c6 187 11 204 105
385 56 108 62 133 42 153 -14 14 -122 15 -158 1z m134 -5 c27 -10 18 -43 -37
-148 -90 -169 -100 -208 -105 -383 l-4 -153 -48 0 c-76 0 -96 12 -115 69 -9
28 -14 55 -11 60 4 5 22 7 41 4 59 -9 75 14 75 109 l0 78 -43 0 c-24 0 -48 5
-55 12 -43 43 36 250 118 308 61 43 138 62 184 44z"/>
<path d="M1351 1831 c-40 -11 -84 -74 -85 -123 -1 -36 3 -44 26 -57 21 -12 32
-13 45 -5 22 12 85 133 81 152 -5 23 -41 40 -67 33z m39 -26 c11 -13 8 -26
-15 -75 -29 -61 -45 -75 -76 -65 -28 9 -25 64 6 105 39 53 62 62 85 35z"/>
<path d="M1320 1758 c-24 -40 -25 -61 -3 -56 20 4 65 66 57 79 -11 18 -35 8
-54 -23z"/>
<path d="M1631 1865 c-80 -87 -161 -240 -161 -306 0 -27 28 -42 92 -50 63 -7
80 -20 73 -54 -2 -11 -4 -39 -4 -62 -1 -62 -28 -77 -111 -64 -35 6 -67 8 -71
5 -14 -8 20 -99 46 -121 23 -21 37 -23 125 -23 129 0 133 4 120 140 -5 52 -10
134 -10 182 0 80 -2 88 -25 106 -13 11 -42 22 -65 26 -22 3 -40 11 -40 16 0
17 54 119 65 124 6 2 31 0 56 -5 81 -15 86 -13 125 46 21 30 34 58 30 62 -8 8
-102 21 -162 22 -37 1 -46 -4 -83 -44z m197 19 c29 -6 28 -23 -6 -64 l-28 -33
-63 12 c-76 15 -80 13 -128 -82 -37 -74 -35 -87 14 -87 29 0 76 -18 85 -33 4
-7 8 -39 8 -72 0 -33 5 -111 11 -173 8 -86 7 -117 -2 -128 -8 -10 -36 -14
-105 -14 -82 0 -96 2 -113 21 -24 26 -43 77 -32 84 5 2 35 0 66 -6 52 -9 61
-8 84 9 24 18 26 25 29 110 l3 91 -33 5 c-18 3 -51 7 -72 10 -22 3 -43 9 -48
14 -28 28 65 228 144 311 38 39 38 39 100 34 35 -2 73 -6 86 -9z"/>
<path d="M1655 1290 c-3 -6 1 -7 9 -4 18 7 21 14 7 14 -6 0 -13 -4 -16 -10z"/>
<path d="M703 1639 c-31 -11 -70 -74 -93 -148 -38 -122 -22 -356 34 -476 25
-54 70 -105 93 -105 70 0 123 144 123 338 0 230 -77 422 -157 391z m41 -26 c3
-4 -7 -20 -22 -37 -40 -43 -61 -102 -72 -208 -16 -160 17 -321 81 -389 20 -22
27 -35 20 -42 -18 -18 -77 57 -100 125 -65 203 -49 442 37 541 15 17 43 23 56
10z m36 -42 c0 -5 -11 -31 -25 -58 -35 -67 -48 -152 -41 -256 7 -108 29 -187
63 -227 41 -50 9 -84 -35 -37 -50 54 -88 214 -79 341 9 131 54 246 97 246 11
0 20 -4 20 -9z m24 -56 c3 -9 -3 -19 -14 -25 -20 -11 -39 -66 -40 -115 0 -17
-3 -56 -6 -89 -7 -65 4 -88 31 -66 13 11 15 27 12 73 -3 43 0 68 12 88 30 53
42 29 17 -32 -16 -38 -11 -82 10 -100 16 -13 19 -49 5 -49 -6 0 -13 5 -16 11
-11 18 -55 -31 -55 -61 0 -31 37 -83 52 -74 6 4 8 -3 6 -17 -4 -31 -16 -30
-40 2 -60 80 -65 385 -8 454 16 19 26 19 34 0z m6 -80 c0 -12 -19 -12 -23 0
-4 9 -1 12 9 8 7 -3 14 -7 14 -8z m30 -135 c0 -16 -4 -30 -10 -30 -5 0 -10 14
-10 30 0 17 5 30 10 30 6 0 10 -13 10 -30z m-15 -132 c10 -9 -5 -55 -18 -55
-7 0 -12 14 -12 32 0 30 13 40 30 23z"/>
<path d="M630 936 c0 -2 8 -10 18 -17 15 -13 16 -12 3 4 -13 16 -21 21 -21 13z"/>
<path d="M1861 1694 c0 -11 3 -14 6 -6 3 7 2 16 -1 19 -3 4 -6 -2 -5 -13z"/>
<path d="M5400 1680 c6 -11 13 -20 16 -20 2 0 0 9 -6 20 -6 11 -13 20 -16 20
-2 0 0 -9 6 -20z"/>
<path d="M2671 1564 c0 -11 3 -14 6 -6 3 7 2 16 -1 19 -3 4 -6 -2 -5 -13z"/>
<path d="M2644 1363 c0 -21 -8 -65 -18 -98 -23 -78 -33 -346 -17 -466 13 -96
52 -259 63 -259 41 0 54 561 17 745 -24 113 -43 148 -45 78z m23 -140 c-4 -38
-11 -106 -17 -153 -11 -93 -8 -164 17 -312 16 -98 11 -159 -9 -108 -16 43 -38
231 -37 335 0 147 21 305 41 305 7 0 9 -23 5 -67z m18 -160 c-9 -36 -29 -28
-21 8 3 17 6 41 7 53 1 16 3 14 10 -9 5 -16 7 -40 4 -52z m5 -95 c0 -28 -3
-48 -6 -45 -11 11 -15 97 -4 97 5 0 10 -23 10 -52z m0 -124 c0 -24 -4 -44 -9
-44 -9 0 -20 88 -12 95 11 12 21 -11 21 -51z"/>
<path d="M1697 899 c7 -7 15 -10 18 -7 3 3 -2 9 -12 12 -14 6 -15 5 -6 -5z"/>
<path d="M2005 900 c-3 -6 1 -7 9 -4 18 7 21 14 7 14 -6 0 -13 -4 -16 -10z"/>
<path d="M2310 1030 c8 -5 22 -9 30 -9 10 0 8 3 -5 9 -27 12 -43 12 -25 0z"/>
<path d="M1720 1000 c-13 -8 -12 -10 3 -10 9 0 17 5 17 10 0 12 -1 12 -20 0z"/>
<path d="M3576 2608 c3 -5 10 -6 15 -3 13 9 11 12 -6 12 -8 0 -12 -4 -9 -9z"/>
<path d="M3740 2461 c0 -6 4 -13 10 -16 6 -3 7 1 4 9 -7 18 -14 21 -14 7z"/>
<path d="M5571 1793 c7 -12 15 -20 18 -17 3 2 -3 12 -13 22 -17 16 -18 16 -5
-5z"/>
<path d="M132 510 c0 -14 2 -19 5 -12 2 6 2 18 0 25 -3 6 -5 1 -5 -13z"/>
<path d="M5873 113 c9 -2 25 -2 35 0 9 3 1 5 -18 5 -19 0 -27 -2 -17 -5z"/>
</g>
</svg>
