<?xml version="1.0" standalone="no"?>
<!DOCTYPE svg PUBLIC "-//W3C//DTD SVG 20010904//EN"
 "http://www.w3.org/TR/2001/REC-SVG-20010904/DTD/svg10.dtd">
<svg version="1.0" xmlns="http://www.w3.org/2000/svg"
 width="338.000000pt" height="600.000000pt" viewBox="0 0 338.000000 600.000000"
 preserveAspectRatio="xMidYMid meet">
<g transform="translate(0.000000,600.000000) scale(0.100000,-0.100000)"
fill="#000000" stroke="none">
<path d="M1532 5841 c-98 -27 -152 -52 -228 -106 -159 -114 -266 -266 -343
-491 -39 -116 -65 -270 -86 -509 -36 -436 -58 -525 -207 -854 -94 -209 -131
-312 -148 -409 -47 -283 138 -576 433 -684 31 -11 57 -26 57 -32 0 -42 -34
-126 -83 -203 l-57 -90 10 -53 c5 -29 10 -69 10 -90 0 -30 9 -47 49 -91 47
-52 50 -53 68 -37 11 10 32 16 48 15 28 -2 30 0 27 31 -3 30 -1 32 27 32 24 0
31 4 31 19 0 11 -9 23 -20 26 -30 9 -50 34 -50 59 0 21 27 86 35 86 2 0 1 -24
-2 -53 -4 -41 -2 -56 11 -66 24 -20 31 -7 16 29 -16 38 -8 47 25 30 17 -9 25
-22 25 -41 0 -15 14 -127 30 -248 48 -353 48 -345 5 -496 -46 -163 -54 -278
-31 -450 9 -67 18 -135 22 -152 6 -29 3 -33 -31 -47 l-38 -16 6 -56 c3 -31 1
-66 -5 -78 -8 -19 -5 -34 16 -77 25 -54 25 -55 10 -128 -17 -83 -59 -173 -103
-224 -53 -59 -66 -183 -25 -228 51 -57 325 -71 393 -21 14 10 29 32 35 49 6
17 21 39 34 50 20 16 24 30 29 108 3 53 0 121 -7 165 -20 125 -16 200 19 335
6 22 11 55 11 73 0 28 -5 35 -35 48 -19 8 -35 15 -35 17 0 1 14 72 30 157 17
85 35 220 41 300 8 105 19 173 39 245 36 124 74 298 105 478 13 76 26 141 30
145 12 12 22 -20 29 -87 13 -126 76 -470 101 -550 20 -63 27 -114 35 -248 5
-92 19 -233 30 -313 12 -79 18 -146 13 -147 -4 -2 -24 -11 -43 -21 l-35 -17 0
-85 c0 -47 5 -103 11 -124 8 -31 8 -46 -4 -68 -7 -16 -11 -36 -8 -44 9 -23
-29 -150 -68 -229 -38 -76 -52 -145 -42 -201 6 -31 14 -39 54 -56 94 -42 307
-34 367 13 72 57 96 224 55 379 -34 129 -34 138 -12 188 11 26 28 82 38 126
l18 79 -26 21 -27 21 31 120 c22 90 31 152 35 245 4 118 3 132 -28 245 -47
173 -47 217 0 512 23 138 41 265 41 282 0 23 8 34 35 51 42 26 43 40 15 151
-12 44 -18 84 -15 90 4 5 33 23 65 39 l59 30 13 -28 c8 -15 23 -28 36 -30 20
-3 22 -8 16 -37 -4 -23 2 -50 21 -96 15 -35 35 -92 46 -126 24 -75 42 -97 69
-83 25 13 33 42 25 93 l-6 42 30 -35 c17 -19 40 -63 51 -97 24 -69 39 -86 72
-81 17 2 25 12 32 41 7 25 15 37 27 37 28 0 30 14 10 76 -10 33 -22 75 -26 94
-5 22 -28 57 -61 93 -90 97 -113 137 -107 183 4 33 1 43 -22 67 -15 15 -23 27
-18 27 18 0 125 143 154 205 49 104 62 176 56 305 -6 137 -29 225 -123 471
-78 204 -129 396 -143 539 -6 58 -16 215 -21 350 -12 315 -36 470 -100 654
-99 288 -378 504 -592 459 -43 -9 -60 -8 -88 4 -59 24 -185 26 -268 4z m240
-31 c21 -6 44 -21 53 -33 28 -40 17 -47 -32 -19 -42 24 -59 27 -138 27 -103
-1 -191 -25 -292 -81 -65 -36 -166 -122 -185 -158 -6 -11 16 6 49 39 114 113
247 174 400 183 131 7 198 -20 218 -88 l7 -25 -28 27 c-40 37 -74 48 -153 48
-89 0 -168 -21 -269 -72 -192 -96 -337 -291 -406 -550 -35 -129 -43 -184 -66
-423 -33 -341 -57 -454 -172 -805 -80 -246 -98 -328 -98 -448 1 -186 67 -355
188 -477 68 -69 150 -132 165 -127 5 1 6 -2 2 -8 -8 -13 -16 -8 -130 69 -150
101 -229 192 -286 331 -19 45 -23 74 -23 155 0 152 27 250 149 536 126 294
163 464 190 869 26 381 117 637 292 821 135 141 294 219 448 219 44 0 97 -5
117 -10z m295 -32 c107 -39 193 -107 273 -213 137 -183 210 -517 210 -958 0
-110 21 -312 44 -417 31 -147 97 -371 107 -365 9 6 61 -128 94 -240 25 -86 50
-233 41 -242 -3 -3 -7 5 -9 18 -29 157 -44 219 -79 325 -22 69 -42 123 -45
120 -3 -2 13 -60 35 -128 81 -249 96 -405 53 -548 -32 -104 -125 -240 -166
-240 -14 0 -2 48 25 95 96 167 109 379 44 675 -14 63 -34 141 -44 175 -82 269
-110 446 -120 775 -8 258 -11 282 -39 390 -58 224 -149 388 -274 491 -100 84
-260 149 -330 133 -26 -5 -28 -4 -25 18 3 22 7 23 74 22 111 0 213 -48 355
-167 54 -45 74 -71 112 -144 25 -49 57 -127 71 -174 28 -94 35 -91 10 5 -37
144 -135 317 -230 405 -89 84 -207 141 -294 144 -36 1 -74 -1 -85 -6 -18 -6
-21 -3 -21 25 0 18 5 36 11 40 22 16 144 8 202 -14z m-315 -68 c39 -11 98 -54
98 -72 0 -5 -14 2 -30 16 -44 37 -150 62 -150 36 0 -5 19 -10 43 -10 44 -1 64
-9 111 -47 25 -20 27 -27 21 -60 -5 -21 -9 -53 -10 -71 -1 -18 -8 -38 -15 -45
-10 -10 -12 -9 -7 5 7 21 -21 46 -61 54 -100 20 -361 -165 -467 -331 -53 -83
-105 -199 -112 -251 -4 -28 -11 -44 -20 -44 -11 0 -11 -4 2 -23 12 -19 13 -34
6 -73 -11 -56 -28 -205 -36 -314 -14 -177 -37 -375 -60 -515 -41 -246 -55
-373 -55 -486 0 -104 17 -224 39 -283 21 -54 21 -19 0 60 -17 60 -22 109 -22
209 -1 137 7 209 53 500 16 99 34 232 40 295 18 195 19 199 39 193 13 -3 27
-33 50 -101 49 -152 65 -315 37 -370 -8 -15 -28 -67 -45 -116 -17 -49 -45
-109 -61 -133 -17 -24 -30 -50 -30 -56 0 -7 13 -28 29 -48 l30 -35 -25 -135
c-23 -124 -38 -188 -78 -329 -9 -30 -16 -67 -16 -82 0 -46 -16 -39 -54 25
-107 181 -122 399 -49 712 14 61 31 137 39 170 29 131 54 310 69 500 25 309
41 413 91 569 54 168 119 280 224 384 132 131 367 206 445 142 11 -9 15 -9 15
-1 0 18 -63 41 -110 41 -47 0 -178 -41 -230 -72 -157 -94 -266 -235 -341 -439
-58 -160 -88 -326 -109 -619 -16 -220 -35 -348 -85 -565 -60 -267 -69 -324
-68 -455 1 -82 7 -137 21 -191 22 -83 78 -201 111 -236 19 -20 20 -26 9 -96
l-12 -75 -56 38 c-83 56 -173 158 -214 242 -52 105 -69 184 -69 313 1 132 16
204 102 463 103 309 137 474 166 787 19 209 37 325 69 435 64 222 173 383 325
484 139 92 307 135 413 106z m294 -8 c75 -26 160 -80 220 -139 70 -69 93 -113
28 -53 -100 93 -198 145 -317 170 -41 8 -67 9 -87 1 -26 -9 -30 -8 -30 9 0 10
6 21 13 23 28 12 125 5 173 -11z m-33 -113 c217 -73 361 -246 451 -540 38
-127 44 -181 51 -470 7 -279 25 -393 120 -753 30 -115 62 -256 70 -312 33
-221 10 -392 -72 -531 l-26 -45 -22 89 c-13 48 -41 131 -63 183 -59 137 -80
235 -78 352 1 53 5 100 9 104 11 12 8 36 -7 53 -25 29 -48 338 -45 611 2 135
-1 253 -5 263 -6 12 -4 17 6 17 7 0 30 25 51 56 32 49 37 65 37 113 0 33 -8
73 -20 98 -10 23 -26 69 -34 102 -25 99 -107 246 -179 324 -85 92 -241 186
-344 207 -53 11 -53 12 -53 49 0 21 3 41 7 44 13 14 85 7 146 -14z m-231 -101
c8 -7 18 -21 21 -31 8 -22 -18 -34 -38 -17 -8 7 -44 15 -80 18 -69 5 -73 10
-22 29 43 15 100 16 119 1z m242 -33 c150 -74 273 -198 345 -348 36 -74 76
-187 66 -187 -2 0 -21 37 -43 83 -51 103 -100 177 -166 245 -100 105 -265 202
-346 206 -45 1 -44 0 -29 28 9 18 17 20 55 14 25 -3 77 -22 118 -41z m-266
-37 c27 -8 37 -7 52 7 17 15 23 15 79 1 172 -44 360 -198 410 -335 29 -80 27
-87 -16 -45 -65 63 -107 79 -203 79 -126 0 -170 -18 -170 -71 0 -27 6 -28 67
-14 166 39 240 32 301 -26 36 -33 37 -34 17 -50 -18 -14 -20 -13 -25 7 -5 20
-7 20 -19 5 -16 -19 -38 -21 -43 -5 -2 7 -34 12 -85 13 -75 1 -84 -1 -124 -29
-52 -37 -81 -83 -86 -139 -9 -112 -10 -110 20 -124 15 -7 55 -19 88 -26 33 -6
64 -19 70 -27 7 -12 9 -11 9 4 0 20 20 23 38 5 9 -9 12 -8 12 6 0 13 5 17 19
13 12 -3 22 1 25 10 3 8 11 11 17 7 8 -4 9 -3 5 4 -3 6 3 16 14 22 11 6 19 14
16 18 -2 4 -1 23 3 42 4 19 4 50 0 68 -6 27 -4 32 11 32 10 0 28 9 41 21 13
11 18 18 12 14 -17 -8 -16 7 2 31 12 17 14 9 9 -71 -10 -170 -51 -318 -112
-406 -47 -68 -149 -137 -279 -190 -136 -56 -184 -60 -302 -20 -189 63 -324
158 -376 264 -37 77 -65 188 -65 262 l0 65 30 0 c28 0 30 -3 30 -34 0 -19 5
-38 10 -41 6 -3 10 -11 10 -17 0 -7 -6 -6 -15 2 -21 17 -19 1 3 -23 9 -11 11
-17 5 -13 -7 4 -13 3 -13 -2 0 -5 9 -12 20 -15 13 -3 18 -11 14 -20 -4 -12 0
-14 15 -10 17 4 21 1 21 -18 0 -18 3 -20 12 -11 18 18 28 15 29 -10 1 -17 2
-19 6 -5 3 13 15 17 51 17 26 0 80 10 120 21 80 24 89 36 73 99 l-9 35 -2 -35
c-2 -32 -3 -31 -11 14 -4 28 -6 53 -3 58 13 20 -53 101 -103 127 -26 13 -142
14 -163 1 -10 -6 -21 -4 -35 8 -19 16 -19 16 -6 -1 11 -13 11 -21 3 -29 -9 -9
-20 -6 -44 12 l-33 24 17 -26 c16 -25 16 -26 -3 -31 -17 -5 -20 -1 -17 26 2
26 13 39 53 66 55 37 40 36 263 15 69 -7 72 -6 72 14 0 12 -10 30 -22 42 -19
17 -35 20 -113 20 -115 0 -174 -19 -216 -68 -31 -37 -31 -37 7 33 50 93 82
140 139 203 49 55 139 128 188 154 31 16 128 14 185 -4z m283 -329 c-13 -11
-27 -17 -30 -13 -7 7 28 34 43 34 6 -1 0 -10 -13 -21z m63 12 c3 -5 -3 -11
-14 -14 -20 -5 -26 3 -13 16 9 10 21 9 27 -2z m-112 -12 c2 -2 1 -3 -1 -1 -2
1 -12 -5 -22 -14 -16 -14 -17 -14 -14 3 2 10 4 19 4 20 2 3 31 -3 33 -8z
m-503 -13 c13 -1 26 -8 28 -16 4 -13 3 -13 -6 0 -7 10 -11 11 -11 3 0 -7 -7
-13 -15 -13 -8 0 -15 5 -15 11 0 6 -6 9 -13 6 -7 -3 -24 2 -38 9 -23 14 -23
15 11 8 19 -4 46 -8 59 -8z m61 -7 c16 -30 8 -31 -13 -3 -10 13 -13 24 -8 24
6 0 15 -9 21 -21z m832 -84 c17 -37 29 -67 27 -69 -2 -2 -16 -6 -31 -10 -27
-6 -28 -5 -28 38 0 24 -3 58 -6 75 -10 50 5 36 38 -34z m-276 -24 c-3 -5 -22
-12 -41 -15 -43 -8 -99 -56 -125 -105 -11 -20 -19 -30 -20 -23 0 19 35 85 56
103 31 27 77 48 107 49 16 0 26 -4 23 -9z m77 -11 c3 6 4 5 3 -2 -2 -7 -8 -14
-14 -14 -7 -1 -17 -2 -23 -3 -7 -1 -8 -13 -4 -33 l7 -31 -29 24 c-19 15 -28
30 -24 39 4 12 6 12 9 -2 2 -10 7 -18 12 -18 4 0 7 8 6 18 -4 22 13 33 35 21
11 -5 19 -5 22 1z m-694 -14 c32 -17 91 -81 91 -99 0 -7 -12 3 -26 21 -34 43
-99 75 -151 75 -24 0 -43 4 -43 9 0 14 99 9 129 -6z m-159 -21 c-7 -8 -18 -15
-26 -15 -7 0 -18 -8 -23 -17 -6 -10 -11 -12 -11 -5 0 6 -5 11 -11 10 -6 -2
-14 4 -16 12 -3 12 -2 12 5 2 7 -10 11 -10 21 2 7 8 19 12 27 9 8 -3 14 0 14
7 0 6 5 8 10 5 6 -3 10 -1 10 6 0 7 3 9 6 6 4 -4 1 -13 -6 -22z m950 10 c17
-11 3 -22 -27 -21 -17 1 -29 7 -31 17 -2 12 4 16 22 14 14 -2 30 -6 36 -10z
m-887 -20 c15 -8 35 -12 45 -9 16 5 16 5 0 -6 -35 -22 -9 -77 34 -76 26 1 23
20 -3 26 -29 7 -37 30 -11 30 11 0 27 -10 36 -22 l17 -23 -7 24 c-5 21 -4 22
9 10 13 -12 13 -16 1 -30 -8 -8 -14 -21 -14 -28 0 -7 -4 -9 -10 -6 -5 3 -10 2
-10 -3 0 -19 -37 -19 -59 -1 -13 11 -20 19 -17 19 4 0 2 9 -5 21 -16 31 -32 9
-19 -26 28 -74 118 -75 143 -2 4 10 11 15 17 12 32 -20 -26 -93 -82 -102 -89
-14 -155 116 -82 160 19 11 18 30 -2 23 -8 -3 -13 -2 -9 3 3 5 -1 12 -7 14 -7
3 -8 6 -3 6 6 1 23 -6 38 -14z m804 -7 c32 -30 32 -111 0 -159 -33 -48 -100
-72 -169 -59 -77 15 -109 30 -104 49 2 9 7 34 11 56 l7 40 16 -35 c70 -145
264 -69 217 86 -15 50 -11 53 22 22z m-147 -3 c-9 -11 -10 -18 -1 -28 6 -8 8
-17 5 -20 -3 -3 10 -4 29 -2 25 2 34 -1 33 -11 -3 -20 -11 -25 -43 -30 -22 -3
-35 1 -49 17 -12 14 -13 19 -4 14 9 -5 8 0 -4 13 -24 27 -30 22 -21 -17 8 -38
39 -61 81 -61 35 0 58 21 68 63 7 32 26 27 26 -6 0 -34 -36 -86 -65 -93 -66
-16 -135 27 -135 85 0 30 13 50 50 75 31 20 46 21 30 1z m-810 -28 c0 -16 -45
-2 -48 15 -3 14 0 15 22 5 14 -7 26 -16 26 -20z m95 -7 c-40 -77 48 -186 131
-161 55 17 65 24 83 60 l19 36 7 -26 c4 -15 5 -39 3 -55 -2 -24 -10 -30 -48
-42 -60 -18 -143 -11 -178 15 -36 27 -72 91 -72 130 0 24 8 38 32 57 18 14 34
23 36 21 2 -2 -4 -17 -13 -35z m769 25 c7 -20 -23 -33 -34 -14 -5 7 -6 17 -4
21 9 13 32 9 38 -7z m331 -5 c26 -29 31 -110 11 -164 -21 -55 -66 -101 -101
-101 -25 -1 -26 2 -20 30 3 16 8 50 11 75 9 73 13 78 34 50 21 -27 26 -65 10
-75 -5 -3 -10 -11 -10 -17 0 -7 6 -6 15 2 24 20 19 77 -11 107 -30 29 -27 60
8 93 27 25 31 25 53 0z m-1251 -237 l13 -50 -24 5 c-16 3 -22 9 -19 19 3 8 6
31 6 50 0 46 8 38 24 -24z m1164 -55 c17 -17 15 -73 -2 -88 -20 -15 -60 -9
-64 10 -4 23 26 90 41 90 7 0 18 -5 25 -12z m39 -15 c5 -17 5 -101 -1 -203 -7
-125 -6 -216 2 -320 7 -80 15 -177 18 -215 l5 -70 -40 112 c-45 126 -55 149
-84 180 -19 21 -19 27 -8 120 7 54 19 139 28 188 13 77 20 93 44 113 31 25 38
66 19 103 -6 11 -7 19 -1 19 5 0 13 -12 18 -27z m-1182 -24 c24 -46 17 -74
-20 -74 -28 0 -30 2 -33 44 -2 28 1 47 10 52 21 14 27 11 43 -22z m1100 -114
c-21 -104 -45 -263 -45 -293 0 -21 -5 -44 -11 -52 -9 -13 -12 -12 -22 4 -27
43 -57 66 -87 66 -29 0 -31 2 -26 28 3 15 10 56 16 91 10 57 16 69 54 102 23
20 50 52 60 71 17 32 21 34 43 24 20 -9 23 -16 18 -41z m-1011 -35 c20 -28 27
-57 37 -142 14 -131 7 -190 -26 -212 -13 -9 -26 -16 -27 -16 -2 0 -4 32 -6 71
-3 88 -23 183 -56 275 -15 41 -21 70 -15 73 5 1 15 9 22 16 13 15 20 8 71 -65z
m127 -89 c49 -27 58 -37 64 -69 5 -29 3 -39 -10 -47 -9 -5 -40 -27 -68 -49
l-52 -38 -6 103 c-4 57 -10 118 -14 134 -8 29 -7 29 11 14 10 -9 44 -31 75
-48z m691 -56 c-9 -44 -17 -81 -18 -83 -1 -2 -22 7 -46 19 -26 14 -61 23 -90
23 -27 0 -48 3 -48 6 0 4 37 23 83 44 45 20 93 45 107 56 14 10 25 18 26 17 1
-1 -6 -38 -14 -82z m-543 -12 l54 -18 -59 -11 c-32 -7 -59 -12 -60 -11 -1 1
-4 17 -7 35 -5 25 -4 32 6 28 6 -2 36 -13 66 -23z m321 -67 c0 -47 24 -76 62
-76 22 0 23 -12 3 -49 -11 -23 -23 -30 -60 -35 -49 -8 -130 -34 -105 -35 8 0
43 6 77 13 l61 13 -25 -41 c-14 -23 -34 -53 -44 -68 -29 -40 -23 -45 14 -11
17 17 51 40 75 52 l42 22 9 -23 c36 -95 67 -389 50 -468 -6 -25 -13 -70 -16
-100 -4 -46 -2 -59 16 -79 12 -13 21 -29 21 -36 0 -19 -212 -50 -345 -49 -113
1 -307 27 -337 45 -10 6 -10 11 0 21 19 19 14 85 -18 203 -27 99 -29 115 -19
174 12 74 38 158 79 248 27 59 31 63 50 53 12 -6 39 -29 61 -51 21 -21 39 -34
39 -28 0 5 5 7 12 3 8 -5 9 -2 4 12 -5 10 -16 43 -27 72 l-18 52 27 -6 c15 -4
46 -13 70 -19 73 -22 46 3 -30 27 -57 18 -74 28 -76 44 -3 24 35 54 76 58 28
3 47 43 38 79 -4 15 0 18 17 13 55 -16 114 -17 152 -3 62 23 65 22 65 -27z
m-262 -3 c-2 -10 -25 -28 -51 -40 -72 -35 -75 -52 -33 -158 37 -91 41 -114 12
-71 -9 14 -44 44 -78 67 -114 76 -140 111 -95 125 12 4 35 20 51 35 35 34 96
57 154 58 36 1 43 -2 40 -16z m419 -11 c17 -12 43 -22 58 -22 28 0 85 -25 85
-38 0 -4 -9 -12 -20 -17 -23 -12 -224 -131 -260 -154 -28 -19 -28 -18 32 71
21 32 41 71 44 87 6 26 3 30 -29 40 -33 11 -47 27 -47 53 0 19 104 3 137 -20z
m191 -111 c11 -6 10 -19 -6 -69 -24 -72 -55 -218 -50 -234 2 -6 19 49 36 123
18 74 36 140 41 148 13 20 33 -15 75 -130 19 -53 42 -112 51 -130 21 -39 26
-34 -121 -115 l-92 -52 -1 172 c-1 94 -5 196 -10 226 -5 30 -7 58 -4 63 6 10
65 9 81 -2z m-84 -119 c7 -79 7 -82 -15 -91 -22 -7 -70 -6 -95 3 -6 2 -14 24
-18 48 -4 23 -10 54 -13 68 -4 17 -2 22 5 15 5 -5 14 -35 19 -65 l8 -55 50 0
50 0 -3 65 c-2 36 -5 79 -8 95 -3 21 -2 25 4 15 5 -8 13 -52 16 -98z m-791 78
c-1 -8 -14 -46 -28 -85 -24 -63 -26 -66 -20 -27 3 24 15 63 26 85 19 41 19 41
0 19 -26 -30 -48 -134 -57 -269 l-7 -112 -41 29 c-69 47 -72 54 -48 108 12 26
35 84 52 130 37 95 73 144 104 140 12 -2 20 -9 19 -18z m753 -68 c1 -34 -1
-62 -5 -63 -38 -5 -49 -4 -45 3 3 4 1 8 -3 8 -5 0 -8 15 -7 32 1 18 -3 39 -9
47 -9 12 -9 13 1 7 7 -4 12 -2 12 6 0 9 3 9 10 -2 8 -12 10 -11 10 7 0 14 5
20 18 19 14 -2 17 -14 18 -64z m-696 24 c0 -7 -4 -6 -9 2 -7 11 -9 10 -14 -3
-4 -9 -3 -13 3 -10 16 10 12 -5 -11 -36 -11 -16 -18 -29 -14 -29 3 0 3 -5 -1
-12 -5 -8 -10 -6 -14 8 -9 25 -1 56 13 47 6 -4 8 0 4 10 -3 9 0 23 8 31 8 7
11 17 7 22 -4 5 1 2 11 -5 9 -7 17 -19 17 -25z m-11 -85 c-28 -70 -36 -81 -57
-81 -17 0 -23 -4 -18 -15 3 -8 -1 -29 -9 -47 l-14 -33 4 40 c1 22 3 48 4 58 1
14 8 18 27 15 24 -3 28 3 49 57 32 85 37 96 42 91 3 -3 -10 -41 -28 -85z m-51
-39 c-15 -18 -29 -1 -21 26 5 21 6 21 18 5 10 -13 10 -22 3 -31z m711 -142 c6
-63 15 -207 20 -319 9 -188 19 -248 35 -206 4 11 2 14 -7 9 -9 -5 -9 -4 0 6 7
8 8 22 2 44 -5 17 -9 63 -8 101 0 39 -1 96 -4 127 -2 32 0 55 4 52 5 -3 5 5 0
18 -6 18 -23 182 -26 263 0 6 11 10 24 10 29 0 29 1 32 -189 1 -70 5 -123 9
-117 4 7 18 -23 33 -66 14 -43 44 -130 67 -194 40 -115 40 -116 25 -160 -9
-24 -27 -61 -41 -82 l-26 -39 -44 76 c-24 41 -50 79 -56 83 -7 4 -19 19 -27
33 -10 20 -11 22 0 13 22 -22 28 -14 13 17 -11 21 -18 92 -24 262 -5 128 -12
267 -16 308 -4 41 -4 73 -1 70 3 -3 10 -57 16 -120z m-718 4 c-13 -51 -24
-151 -31 -284 -6 -113 -15 -223 -20 -245 -6 -25 -5 -41 0 -43 17 -6 11 -27
-35 -123 -24 -52 -64 -154 -87 -227 l-43 -133 -50 7 c-27 3 -52 8 -55 10 -5 6
36 319 54 404 21 98 49 187 53 170 10 -35 14 -43 18 -38 2 2 0 20 -5 40 -8 28
-5 64 15 165 14 70 25 138 25 151 0 27 0 27 46 5 l37 -18 -7 -100 c-20 -308
-20 -335 -2 -335 9 0 16 4 16 9 0 5 4 53 10 107 5 55 14 171 20 259 7 109 17
183 31 233 12 40 24 71 25 69 2 -2 -5 -39 -15 -83z m-116 -71 c43 -27 61 -63
32 -63 -19 0 -80 49 -105 84 -26 37 -18 67 9 32 10 -13 39 -37 64 -53z m1192
61 c8 -23 -245 -169 -262 -152 -16 15 17 43 106 90 55 28 105 58 111 65 13 16
39 14 45 -3z m-1837 -116 c-11 -41 -24 -108 -29 -149 -7 -62 -9 -66 -10 -27
-2 65 42 268 55 255 3 -2 -5 -38 -16 -79z m1839 0 l-1 -63 -12 55 c-12 57 -12
70 5 70 5 0 9 -28 8 -62z m-13 -136 c23 -92 55 -196 71 -232 33 -72 47 -112
93 -278 35 -128 38 -116 -42 -162 l-37 -21 -39 68 c-78 134 -116 219 -158 353
-23 74 -60 182 -83 239 -22 58 -39 107 -36 109 2 2 39 19 81 38 43 18 82 38
88 44 5 5 12 10 16 10 3 0 23 -75 46 -168z m-1043 -104 c4 -26 1 -42 -9 -52
-8 -8 -14 -21 -14 -28 1 -15 30 -57 30 -42 0 6 -3 14 -7 20 -5 5 -2 4 6 -2 16
-14 5 -38 -14 -30 -8 3 -16 0 -19 -7 -2 -7 -5 -1 -6 13 -1 14 -3 40 -4 57 -2
20 0 30 6 27 6 -4 8 5 3 24 -3 17 -3 48 1 69 7 35 8 36 14 13 4 -14 9 -42 13
-62z m-707 -268 c36 -51 147 -160 182 -179 13 -7 21 -15 19 -18 -10 -9 -113
75 -170 138 -54 59 -96 131 -111 189 -4 14 6 0 21 -30 16 -30 42 -75 59 -100z
m859 125 c117 -20 318 -20 418 0 92 18 94 18 81 6 -21 -21 -126 -43 -231 -48
-83 -4 -110 -9 -104 -17 6 -7 6 -18 1 -25 -13 -22 0 -41 26 -41 29 0 53 38 33
51 -7 4 -16 6 -20 3 -4 -2 -10 0 -13 5 -3 5 18 8 47 7 54 -1 65 -10 66 -52 1
-19 -6 -22 -66 -27 -37 -3 -73 -3 -80 0 -8 3 -13 22 -13 49 0 43 -1 44 -32 44
-60 0 -202 30 -217 45 -20 19 -14 19 104 0z m530 -37 l0 -42 -65 -23 c-89 -31
-97 -30 -102 11 l-4 34 66 18 c36 9 74 23 85 31 11 7 20 13 20 13 0 0 0 -19 0
-42z m-687 -8 c-23 -31 -38 -38 -38 -18 0 16 31 48 47 48 10 0 7 -9 -9 -30z
m100 6 c1 -2 -1 -17 -4 -34 -7 -34 -19 -39 -59 -20 -29 13 -30 16 -9 47 13 18
22 21 43 16 14 -4 27 -8 29 -9z m40 -68 c-9 -52 -23 -70 -40 -53 -8 8 10 96
24 112 20 24 27 0 16 -59z m117 42 c35 -7 37 -9 18 -15 -26 -8 -31 -25 -8 -25
8 0 15 -7 15 -16 0 -10 -6 -14 -17 -11 -10 3 -40 8 -66 12 -38 5 -47 10 -43
22 3 8 6 21 6 29 0 16 33 17 95 4z m249 -21 c9 -45 7 -87 -3 -94 -11 -6 -17
11 -26 78 -5 37 -3 47 8 47 8 0 17 -14 21 -31z m-134 -8 c0 -14 -12 -20 -26
-14 -22 8 -17 32 6 26 11 -3 20 -9 20 -12z m415 -116 c25 -45 45 -87 45 -94 0
-27 -153 -5 -202 30 -25 18 -78 104 -78 127 0 5 24 14 53 21 28 6 63 18 77 26
23 13 27 12 43 -7 10 -11 38 -58 62 -103z m-705 74 c0 -5 -5 -9 -10 -9 -12 0
-50 -77 -49 -100 0 -8 12 9 25 38 22 48 26 52 40 38 23 -23 43 -20 56 10 10
22 16 25 47 19 96 -16 87 -6 95 -107 3 -50 6 -128 6 -172 1 -45 7 -112 14
-149 13 -68 13 -68 -8 -63 -12 2 -43 7 -71 10 l-50 5 40 -14 c22 -7 55 -14 73
-14 33 -1 47 -21 15 -21 -10 0 -27 -7 -37 -15 -23 -18 -14 -20 13 -3 33 20 51
3 51 -48 l0 -47 -117 6 c-173 8 -347 49 -403 95 l-20 17 24 115 c41 201 39
197 89 202 67 8 116 36 148 87 16 25 29 52 29 60 -1 9 -10 -3 -22 -27 -11 -23
-33 -53 -49 -67 -42 -35 -139 -59 -139 -35 0 6 17 10 39 10 23 0 51 9 72 23
28 19 33 28 31 52 -5 37 -1 34 -50 43 -30 5 -39 11 -33 20 6 10 16 9 51 -3 35
-12 45 -13 52 -3 19 30 1 49 -45 47 -17 -1 -14 -4 11 -11 44 -15 41 -30 -5
-22 -21 4 -40 8 -41 10 -2 1 6 16 18 32 l22 30 44 -15 c24 -8 44 -19 44 -24z
m893 -85 l26 -51 -45 -56 c-24 -32 -48 -57 -53 -57 -5 0 -17 24 -27 53 -9 28
-21 58 -26 64 -7 9 -3 22 15 42 13 16 33 50 43 75 l19 45 11 -32 c6 -18 23
-55 37 -83z m-503 45 c5 -18 12 -24 32 -22 20 1 29 -5 38 -27 17 -41 77 -100
119 -118 22 -9 66 -15 112 -15 l75 0 28 -121 c15 -66 33 -140 40 -163 l13 -43
-79 -25 c-116 -37 -288 -65 -395 -65 l-93 0 0 56 c0 54 1 56 23 50 12 -4 36
-9 52 -12 23 -4 27 -3 15 5 -8 6 -25 11 -37 11 -39 0 -25 18 20 26 23 4 36 9
28 12 -7 2 -38 -1 -67 -8 -30 -7 -56 -11 -58 -9 -2 2 -7 22 -10 44 -6 38 -4
41 26 56 52 25 58 46 58 226 0 145 2 162 18 166 27 7 36 2 42 -24z m70 16 c0
-24 35 -87 62 -112 38 -36 92 -53 168 -53 45 0 69 -4 65 -10 -9 -15 -123 -11
-168 4 -49 18 -72 39 -113 103 -34 52 -43 83 -24 83 6 0 10 -7 10 -15z m-160
-100 l0 -103 -35 -4 c-20 -2 -38 -2 -40 1 -3 2 -5 50 -5 106 l0 102 40 0 40 0
0 -102z m17 -62 c-2 -32 -3 -6 -3 57 0 63 1 89 3 58 2 -32 2 -84 0 -115z
m-421 104 c1 -1 5 -12 8 -24 8 -24 -17 -46 -66 -57 -33 -7 -34 -1 -12 55 15
36 19 40 43 34 14 -4 27 -7 27 -8z m1058 -114 c15 -26 25 -52 22 -59 -5 -12
-120 -104 -130 -104 -3 0 -6 9 -6 20 0 10 -5 30 -12 44 -10 23 -8 28 14 45 13
11 37 38 52 60 16 23 30 41 32 41 1 0 14 -21 28 -47z m266 -79 c7 -19 9 -38 6
-41 -3 -4 -9 8 -12 25 -4 18 -10 32 -15 32 -5 0 -9 5 -9 10 0 24 19 7 30 -26z
m-920 -21 c0 -34 -6 -53 -22 -70 -36 -39 -46 -30 -50 47 l-3 70 38 0 37 0 0
-47z m17 -20 c-2 -16 -4 -5 -4 22 0 28 2 40 4 28 2 -13 2 -35 0 -50z m869 32
c8 -33 2 -38 -21 -21 -11 8 -16 20 -12 30 9 24 26 19 33 -9z m-345 -149 c11
-49 18 -91 15 -93 -6 -6 -11 13 -35 122 -11 50 -23 101 -26 115 -3 14 2 7 10
-15 9 -22 25 -80 36 -129z m309 111 c0 -23 -12 -28 -36 -12 -17 11 -25 12 -30
3 -4 -6 -3 -8 3 -5 6 4 13 -2 16 -13 4 -14 10 -18 23 -13 12 4 15 3 10 -5 -12
-20 -39 -13 -64 15 l-23 27 22 8 c13 5 29 6 37 3 9 -3 12 0 9 9 -3 8 -3 17 0
20 8 7 33 -20 33 -37z m-155 15 c-19 -18 -147 -92 -133 -77 4 4 36 27 70 51
66 45 97 57 63 26z m212 -21 c-5 -21 81 -145 138 -196 25 -23 36 -45 48 -95 8
-36 18 -73 22 -83 7 -16 5 -16 -18 -6 -20 9 -27 23 -36 68 -6 32 -18 66 -26
77 -13 16 -13 14 0 -18 20 -51 13 -48 -20 8 -43 73 -40 44 5 -40 24 -46 40
-92 41 -114 l1 -37 8 30 c7 28 8 28 9 5 3 -86 -28 -81 -54 7 -13 43 -29 68
-71 111 -67 66 -80 61 -60 -25 8 -35 10 -66 5 -74 -12 -20 -23 -4 -52 81 -14
41 -33 95 -41 118 -10 27 -14 57 -10 77 5 28 13 37 55 54 53 23 65 35 24 25
-21 -5 -24 -3 -19 10 4 10 13 15 21 12 7 -3 16 1 19 9 9 22 17 18 11 -4z
m-151 -28 c20 -27 16 -38 -6 -18 -20 18 -26 35 -14 35 4 0 13 -8 20 -17z
m-752 -17 c-5 -12 -45 -36 -61 -36 -5 0 55 45 64 49 1 1 0 -5 -3 -13z m-617
-50 c9 -6 -23 -109 -45 -143 -86 -140 -100 -186 -67 -229 16 -21 21 -55 6 -38
-5 5 -18 26 -29 46 -20 38 -19 52 4 187 l6 35 -30 -32 c-17 -18 -32 -48 -36
-69 -3 -21 -8 -49 -11 -63 -5 -22 -3 -21 9 5 9 17 15 45 16 63 0 17 5 32 10
32 13 0 13 -86 0 -111 -8 -14 -6 -25 6 -43 8 -14 14 -32 12 -41 -2 -11 -11 -5
-31 20 -19 24 -31 55 -38 98 -5 34 -12 69 -14 78 -3 8 22 61 55 116 l61 101
57 -5 c31 -3 58 -6 59 -7z m209 -197 c55 -14 139 -24 219 -28 l130 -6 3 -32 3
-33 -113 0 c-132 0 -209 11 -316 45 -99 32 -132 59 -125 101 l5 31 52 -28 c29
-16 93 -38 142 -50z m978 49 c10 -39 7 -47 -26 -64 -105 -54 -294 -94 -450
-94 -110 0 -118 3 -118 47 l0 36 43 -6 c101 -14 411 38 497 83 46 24 47 24 54
-2z m-1239 -178 c14 -7 25 -18 25 -23 0 -5 -15 2 -32 15 -22 17 -34 35 -35 54
l-2 29 9 -31 c5 -17 21 -36 35 -44z m299 15 c59 -11 125 -16 197 -13 104 3
108 2 104 -17 -3 -11 -14 -74 -26 -140 -41 -236 -88 -427 -119 -486 -31 -60
-41 -104 -14 -59 10 16 13 18 9 6 -3 -11 -10 -78 -15 -150 -10 -122 -31 -271
-63 -426 l-13 -65 -66 -3 c-37 -2 -82 1 -100 6 l-33 8 -18 105 c-10 59 -18
162 -19 239 -1 129 0 141 35 258 26 87 37 143 37 188 0 52 -27 291 -65 566
l-5 37 42 -19 c24 -10 83 -26 132 -35z m870 -2 c-3 -27 -20 -129 -36 -228 -16
-99 -34 -223 -40 -275 -11 -91 -10 -99 15 -185 74 -248 73 -322 -4 -642 l-12
-53 -51 0 c-28 0 -74 3 -102 6 l-51 6 -23 187 c-30 238 -41 463 -22 456 8 -3
6 6 -6 23 -43 62 -69 170 -117 483 -34 224 -37 205 36 201 86 -5 230 13 324
42 44 13 84 24 88 25 5 0 5 -20 1 -46z m-1200 -53 l7 -25 -20 24 c-14 15 -21
36 -20 60 l0 36 13 -35 c7 -19 16 -46 20 -60z m308 -1321 c104 0 116 -7 74
-40 -15 -12 -29 -38 -36 -69 -11 -45 -25 -68 -35 -58 -2 2 2 25 10 51 13 44
13 48 -5 57 -23 12 -117 13 -124 1 -3 -5 -1 -33 4 -62 6 -29 8 -54 5 -57 -2
-3 -18 1 -34 8 -26 10 -30 18 -37 73 -11 84 -11 81 9 85 14 3 17 -4 18 -35 0
-59 13 -116 26 -120 9 -3 10 4 2 29 -5 18 -9 59 -9 92 0 50 2 57 17 52 9 -4
61 -7 115 -7z m138 -8 c0 -12 -20 -25 -27 -18 -7 7 6 27 18 27 5 0 9 -4 9 -9z
m580 -25 c99 -13 103 -14 74 -25 -31 -12 -44 -34 -44 -77 0 -23 -25 -62 -34
-53 -3 3 1 28 9 54 8 27 13 51 11 52 -8 8 -128 23 -138 17 -11 -7 -7 -109 6
-121 4 -4 11 -1 16 7 7 11 10 12 10 2 0 -10 3 -10 15 2 22 21 18 29 -10 22
-18 -5 -25 -2 -25 9 0 8 4 15 9 15 6 0 8 9 6 20 -3 18 2 20 41 20 29 0 43 -4
39 -11 -4 -5 -21 -9 -37 -7 -23 2 -31 -1 -34 -14 -1 -12 4 -18 16 -18 10 0 27
-3 37 -6 16 -5 16 -4 -1 10 -11 9 -15 16 -10 16 12 0 34 -21 34 -32 0 -4 -8
-8 -19 -8 -10 0 -25 -7 -32 -17 -13 -15 -11 -16 14 -9 40 10 33 -1 -8 -13 -23
-6 -44 -6 -63 1 -25 10 -28 15 -26 51 1 22 -3 55 -8 75 -7 26 -7 37 4 43 16
11 19 11 148 -5z m140 -6 c0 -5 -4 -10 -10 -10 -5 0 -10 5 -10 10 0 6 5 10 10
10 6 0 10 -4 10 -10z m-713 -42 c-3 -24 -13 -74 -21 -113 -9 -38 -16 -92 -16
-120 0 -27 -12 -86 -26 -129 -13 -44 -28 -99 -31 -123 l-6 -44 -29 35 c-36 44
-117 71 -184 61 -24 -3 -46 -10 -49 -16 -4 -5 -11 -9 -18 -9 -6 0 -4 7 6 17
25 26 143 30 191 8 45 -21 72 -14 56 15 -6 11 -15 20 -20 20 -6 0 -10 5 -10
11 0 6 9 9 19 6 34 -9 33 30 0 44 -17 6 -32 9 -36 5 -3 -3 -1 -6 5 -6 7 0 12
-5 12 -10 0 -7 -6 -7 -19 0 -25 13 -72 13 -105 0 -17 -6 -26 -6 -26 0 0 13 43
30 78 31 26 1 26 1 -5 10 -18 5 -33 14 -33 20 0 7 9 9 23 4 12 -3 40 -11 62
-16 22 -6 44 -14 50 -20 15 -15 23 -11 27 14 7 53 -65 73 -149 41 -41 -16 -57
-34 -31 -34 6 0 3 -7 -8 -15 -27 -20 -33 -19 -26 7 6 25 40 57 59 58 6 0 14 4
17 9 4 5 -3 7 -14 4 -12 -3 -20 0 -20 7 0 18 106 9 149 -13 27 -14 36 -15 43
-5 11 19 10 28 -7 34 -22 9 -12 48 14 52 21 3 51 48 51 77 0 21 -27 30 -45 15
-24 -20 -26 -8 -9 42 14 43 39 66 73 67 10 1 12 -9 8 -41z m411 -37 c3 -31 1
-51 -6 -51 -13 0 -22 35 -22 85 0 57 21 30 28 -34z m308 37 c-4 -13 -14 -50
-22 -83 -9 -33 -23 -69 -30 -80 -8 -11 -14 -45 -15 -80 0 -33 -8 -112 -17
-176 l-17 -115 -33 32 c-30 29 -31 32 -12 37 11 3 20 11 20 19 -1 16 -41 63
-61 71 -8 3 -2 5 14 4 15 -1 27 -7 27 -14 0 -7 5 -13 10 -13 18 0 10 27 -12
43 -13 8 -20 18 -16 22 4 4 14 2 23 -5 21 -17 26 -10 17 25 -8 28 -11 29 -65
29 -31 -1 -57 3 -57 8 0 4 -15 8 -34 8 -33 0 -35 -2 -51 -56 -19 -67 -32 -65
-16 3 6 26 13 60 16 76 6 29 25 38 25 11 0 -9 3 -14 8 -12 4 2 19 10 34 17 24
12 32 11 87 -18 33 -17 65 -31 71 -31 19 0 10 39 -10 45 -11 3 -20 9 -20 13 1
14 27 42 33 35 4 -3 7 1 7 10 0 18 -26 24 -32 8 -5 -13 -182 21 -204 40 -28
23 -13 26 40 8 41 -14 61 -16 87 -9 19 6 45 10 59 10 14 0 37 7 53 14 15 8 27
10 27 5 0 -13 -44 -29 -110 -38 l-55 -9 52 -1 c71 -1 135 24 131 53 -4 21 -9
23 -40 11 -16 -6 -17 -3 -12 26 8 42 16 51 57 66 46 17 50 16 43 -9z m-876 2
c-8 -5 -26 -10 -40 -11 -17 -1 -19 -3 -7 -6 9 -2 17 -11 17 -19 0 -10 5 -12
13 -8 9 6 9 4 -1 -8 -12 -14 -10 -16 10 -11 13 3 20 2 15 -2 -4 -5 -17 -10
-28 -12 -16 -2 -20 1 -15 12 3 8 1 15 -5 15 -6 0 -8 4 -5 9 3 4 -7 6 -22 3
l-27 -5 24 27 c16 17 35 26 55 26 24 0 27 -3 16 -10z m13 -29 c-4 -16 -8 -17
-18 -8 -10 10 -10 13 4 19 9 4 17 7 18 7 0 1 -1 -8 -4 -18z m-72 -28 c-11 -5
-11 -7 0 -14 11 -7 10 -9 -3 -9 -10 0 -18 7 -18 15 0 8 8 15 18 14 12 0 13 -2
3 -6z m-54 -52 c47 -13 63 -14 43 -1 -11 7 1 9 40 8 30 -1 65 1 78 6 38 13 25
-14 -15 -31 -71 -30 -188 -9 -213 37 -16 30 -12 35 10 12 11 -11 37 -26 57
-31z m227 20 c8 -12 -34 -63 -48 -58 -16 5 -48 -30 -33 -37 7 -2 -5 -5 -25 -5
-20 -1 -40 4 -43 9 -4 6 5 10 19 10 14 0 35 9 46 20 12 12 25 18 29 15 5 -3
14 9 20 25 10 30 25 38 35 21z m-246 -73 c7 -14 11 -17 11 -8 1 11 14 15 54
16 l52 2 -50 -18 c-69 -25 -82 -24 -87 5 -6 31 5 33 20 3z m712 -10 c0 -19
-18 -43 -25 -36 -9 9 4 48 16 48 5 0 9 -6 9 -12z m68 3 c10 -6 8 -10 -10 -14
-36 -10 -48 -8 -48 8 0 16 36 20 58 6z m-640 -36 c29 -9 52 -20 52 -25 0 -5
-18 -3 -39 5 -81 28 -138 24 -153 -12 -9 -22 -12 -24 -15 -11 -7 30 27 54 83
57 11 0 44 -6 72 -14z m725 -1 c-5 -13 -15 -15 -59 -9 -32 4 -61 2 -73 -5 -12
-6 -21 -7 -21 -2 0 14 59 30 112 31 40 1 46 -2 41 -15z m22 -45 c15 -14 -7
-10 -35 7 l-25 15 25 -7 c14 -3 29 -10 35 -15z m-735 -16 c-1 -23 -17 -29 -60
-20 -37 8 -41 11 -25 18 26 10 85 11 85 2z m20 -33 c0 -5 -2 -10 -4 -10 -3 0
-8 5 -11 10 -3 6 -1 10 4 10 6 0 11 -4 11 -10z m642 -11 c22 -12 31 -11 24 0
-5 8 9 8 34 1 3 -1 -5 -5 -17 -10 -13 -5 -23 -17 -23 -26 0 -17 0 -17 -100 1
-24 5 -31 4 -21 -3 13 -10 10 -14 -20 -25 -32 -11 -8 33 30 54 33 19 31 19
-16 3 -15 -5 -15 -3 2 10 19 16 70 14 107 -5z m-543 -89 c2 -74 0 -82 -29
-121 -30 -42 -39 -66 -20 -54 14 9 1 -85 -16 -112 -20 -33 -84 -46 -195 -41
-120 6 -170 27 -180 76 -7 37 -8 37 32 16 17 -8 57 -20 89 -25 97 -15 260 17
260 53 0 6 -9 3 -20 -7 -11 -10 -22 -16 -25 -13 -3 3 5 12 18 21 18 12 23 22
20 40 -5 27 46 247 57 247 4 0 8 -36 9 -80z m708 -22 c5 -65 3 -79 -18 -118
l-24 -45 -3 40 c-5 54 20 217 31 206 4 -4 11 -42 14 -83z m-1012 50 c-8 -35
-21 -55 -30 -46 -6 5 25 78 33 78 2 0 1 -15 -3 -32z m136 12 c10 -6 19 -17 19
-25 0 -11 -5 -12 -26 -5 -14 6 -38 10 -54 10 -33 0 -49 16 -23 23 32 8 64 7
84 -3z m684 -16 c41 -19 58 -50 23 -40 -13 3 -40 6 -60 6 -39 0 -49 15 -26 38
16 16 23 15 63 -4z m-728 -19 c29 -4 62 -15 74 -26 27 -23 22 -24 -20 -3 -18
9 -54 17 -82 18 -41 1 -49 4 -49 20 0 13 3 16 13 8 6 -5 35 -13 64 -17z m643
6 c0 -11 -31 -24 -39 -16 -3 3 1 10 9 15 19 12 30 12 30 1z m19 -30 c38 0 80
-5 95 -11 34 -13 39 -13 31 0 -3 6 -4 10 -1 10 13 0 14 -20 1 -33 -11 -12 -32
-14 -98 -10 -54 4 -91 1 -105 -6 -13 -7 -22 -8 -22 -2 0 28 127 38 195 16 11
-3 7 1 -9 10 -22 13 -47 16 -103 13 -59 -3 -72 -1 -68 10 3 8 6 19 6 25 1 7 3
5 6 -5 3 -13 18 -16 72 -17z m-636 -45 c47 -19 99 -82 95 -114 -2 -22 -12 -30
-53 -45 -61 -23 -200 -19 -240 7 -29 19 -39 20 -29 4 6 -10 5 -10 -8 0 -34 27
-6 91 60 133 52 33 119 39 175 15z m744 -30 c32 -16 77 -63 86 -88 3 -9 0 -21
-6 -26 -23 -19 -121 -42 -177 -42 -56 0 -160 24 -160 38 0 4 -3 16 -6 28 -7
26 37 81 81 101 37 17 141 11 182 -11z m-556 -70 c-3 -27 -11 -51 -18 -53 -14
-5 -7 59 9 90 14 27 16 18 9 -37z m709 -33 c-15 -71 -48 -117 -97 -135 -22 -7
-80 -13 -138 -12 -120 0 -174 20 -187 68 -9 36 -6 41 20 27 37 -20 154 -31
224 -21 71 10 120 28 113 41 -3 4 0 11 6 15 8 4 9 3 5 -4 -4 -7 -2 -12 4 -12
7 0 21 22 33 50 11 27 23 48 25 46 2 -3 -2 -31 -8 -63z"/>
<path d="M2502 5070 c0 -14 2 -19 5 -12 2 6 2 18 0 25 -3 6 -5 1 -5 -13z"/>
<path d="M2512 5015 c0 -16 2 -22 5 -12 2 9 2 23 0 30 -3 6 -5 -1 -5 -18z"/>
<path d="M1136 5143 c-6 -14 -5 -15 5 -6 7 7 10 15 7 18 -3 3 -9 -2 -12 -12z"/>
<path d="M1743 5470 c16 -5 36 -14 45 -22 13 -9 12 -7 -2 10 -11 13 -30 22
-45 21 l-26 -1 28 -8z"/>
<path d="M1385 5221 c-6 -11 9 -23 19 -14 9 9 7 23 -3 23 -6 0 -12 -4 -16 -9z"/>
<path d="M1571 4944 c6 -7 16 -11 21 -8 11 7 3 17 -18 20 -12 2 -13 -1 -3 -12z"/>
<path d="M1821 4584 c-1 -14 -7 -20 -22 -20 -12 1 -24 -5 -27 -13 -3 -10 2
-11 19 -6 33 10 42 20 36 41 -4 17 -5 17 -6 -2z"/>
<path d="M1683 4571 c2 -19 9 -25 30 -28 18 -3 26 0 22 7 -3 5 -15 10 -25 10
-10 0 -21 8 -24 18 -3 10 -4 7 -3 -7z"/>
<path d="M1670 4459 c-20 -15 -44 -29 -54 -30 -12 -3 -2 -16 35 -48 44 -38 60
-45 105 -49 53 -4 53 -4 114 53 33 32 59 60 57 61 -2 2 -19 -1 -38 -6 -19 -6
-74 -12 -124 -14 -49 -2 -99 -7 -110 -11 -13 -4 -8 4 14 23 32 27 41 30 97 28
35 -1 69 -8 78 -15 24 -20 30 -7 6 14 -14 13 -38 18 -81 19 -52 2 -67 -2 -99
-25z m178 -74 c-32 -30 -45 -35 -87 -35 -34 0 -56 6 -75 21 -40 31 -33 43 22
36 26 -3 65 -2 87 2 22 4 51 8 65 9 24 1 23 0 -12 -33z"/>
<path d="M2240 4920 c-9 -6 -10 -10 -3 -10 6 0 15 5 18 10 8 12 4 12 -15 0z"/>
<path d="M1435 4790 c3 -5 8 -10 11 -10 2 0 4 5 4 10 0 6 -5 10 -11 10 -5 0
-7 -4 -4 -10z"/>
<path d="M2379 4842 c-18 -20 -18 -22 -3 -9 27 22 33 22 44 -5 9 -23 9 -23 9
-2 1 12 -5 27 -12 33 -11 8 -19 4 -38 -17z"/>
<path d="M1636 4092 c-2 -4 4 -8 14 -8 10 0 16 4 14 8 -3 4 -9 8 -14 8 -5 0
-11 -4 -14 -8z"/>
<path d="M1835 3823 c-11 -3 -27 -14 -36 -25 -21 -27 -103 -64 -95 -43 3 8 1
15 -4 15 -5 0 -11 -9 -15 -19 -4 -13 -12 -17 -25 -14 -11 3 -31 -2 -45 -11
-34 -23 -38 -20 -20 14 14 28 14 31 -5 50 -11 11 -29 20 -40 20 -31 0 -82 -24
-104 -49 -17 -19 -17 -21 -3 -21 20 0 21 -7 2 -40 -8 -14 -14 -37 -15 -52 0
-14 -8 -40 -17 -57 -16 -28 -17 -33 -3 -58 23 -42 71 -43 111 -4 36 36 64 42
54 11 -9 -30 4 -60 26 -60 10 0 38 14 61 30 39 29 42 29 60 13 15 -14 23 -15
37 -6 10 7 47 17 82 23 92 16 93 17 117 59 32 56 29 64 -18 56 -27 -5 -46 -3
-55 5 -11 9 -15 9 -15 1 0 -6 -11 -11 -24 -11 -23 0 -24 2 -16 31 11 39 57 99
74 99 16 0 29 27 20 41 -5 9 -54 10 -89 2z m75 -16 c0 -5 -7 -7 -15 -3 -10 4
-26 -12 -51 -51 -43 -68 -53 -90 -34 -78 9 5 11 4 6 -4 -4 -6 -11 -9 -16 -6
-4 3 -10 -1 -13 -9 -6 -16 -87 -19 -87 -3 0 16 50 97 60 98 6 1 14 2 19 3 5 0
13 4 17 9 15 15 24 6 14 -13 -8 -14 -17 -19 -29 -15 -14 4 -24 -4 -39 -29 -12
-20 -17 -38 -13 -40 4 -3 15 11 25 31 9 19 19 33 22 30 3 -3 -2 -19 -11 -37
-31 -60 -10 -39 45 45 44 67 60 84 78 82 12 -1 22 -5 22 -10z m-88 -19 c-7 -7
-12 -8 -12 -2 0 14 12 26 19 19 2 -3 -1 -11 -7 -17z m-248 -35 c-2 -43 -41
-98 -59 -83 -15 13 -9 44 13 62 13 11 12 7 -2 -22 l-17 -35 21 24 c29 34 24
75 -10 78 -25 3 -25 3 -2 -7 23 -10 32 -26 8 -17 -15 6 -36 -32 -36 -66 0 -13
-6 -29 -12 -36 -11 -11 -9 -11 9 -2 26 13 31 7 39 -53 6 -43 5 -46 -26 -65
-25 -15 -38 -17 -52 -10 -26 14 -34 38 -20 60 7 10 12 31 12 46 0 23 2 25 11
13 8 -12 9 -8 5 16 -3 19 1 39 10 53 13 17 13 25 3 37 -6 8 -10 16 -8 18 20
17 50 25 79 23 33 -2 35 -4 34 -34z m143 -30 c-8 -10 -18 -30 -22 -45 -4 -15
-13 -32 -21 -38 -15 -13 -34 -5 -34 13 0 8 3 8 9 -1 6 -10 13 -4 25 21 9 19
16 40 16 45 0 6 8 13 18 15 9 3 19 5 21 6 2 0 -3 -7 -12 -16z m-48 -30 c0 -16
-3 -22 -6 -15 -8 20 -33 -6 -33 -34 0 -18 -8 -25 -32 -32 -42 -12 -48 -8 -48
32 0 27 6 36 38 54 20 12 47 22 60 22 18 0 22 -5 21 -27z m291 -63 c-1 -12
-28 -39 -33 -33 -4 3 -7 -1 -7 -9 0 -12 -15 -18 -57 -23 -31 -4 -67 -11 -81
-16 -21 -8 -23 -7 -18 13 4 16 2 14 -6 -4 -14 -33 -28 -37 -28 -8 0 25 -8 25
-40 0 -14 -11 -30 -20 -36 -20 -6 0 -19 -9 -29 -20 -10 -11 -21 -17 -24 -14
-9 9 -8 53 1 48 4 -3 8 -1 8 4 0 5 28 15 63 22 34 7 66 15 72 18 10 6 27 9
130 21 l70 8 -75 2 c-49 1 -80 -3 -88 -11 -10 -10 -15 -10 -20 -1 -7 11 -23 9
-122 -13 -28 -6 -31 -9 -15 -14 12 -5 -1 -7 -32 -7 -35 1 -53 5 -53 13 0 7 -2
21 -5 31 -3 10 0 6 8 -9 9 -19 17 -24 27 -18 14 7 148 34 215 43 42 6 175 4
175 -3z m-231 -34 c-2 -2 -22 -6 -44 -9 -28 -5 -34 -4 -20 3 19 8 73 14 64 6z"/>
<path d="M1456 3598 c-9 -12 -16 -27 -16 -33 0 -5 5 -3 10 5 9 13 10 13 10 0
1 -8 5 -5 11 8 10 26 32 25 37 0 2 -11 -7 -18 -27 -23 -34 -7 -42 -25 -13 -25
22 0 52 30 52 51 0 18 -20 39 -36 39 -7 0 -20 -10 -28 -22z"/>
<path d="M1597 3670 c-18 -30 -16 -50 5 -50 5 0 7 7 4 16 -3 8 1 26 10 40 9
13 12 24 7 24 -5 0 -17 -14 -26 -30z"/>
<path d="M1935 3777 c-17 -5 -43 -26 -58 -45 -25 -33 -26 -37 -10 -46 12 -6
18 -6 21 2 2 7 11 12 20 13 11 0 13 2 4 6 -7 3 -19 -1 -27 -7 -21 -18 -18 -3
6 31 12 17 29 29 42 29 12 0 18 -4 12 -8 -5 -4 -12 -18 -14 -32 -1 -14 -7 -28
-13 -31 -13 -8 18 -20 35 -13 18 6 47 58 47 82 0 15 -24 38 -33 31 -1 -1 -16
-6 -32 -12z m55 -17 c0 -5 -2 -10 -4 -10 -3 0 -8 5 -11 10 -3 6 -1 10 4 10 6
0 11 -4 11 -10z m-25 -51 c-22 -41 -36 -36 -17 5 9 19 19 33 24 30 4 -3 1 -18
-7 -35z"/>
<path d="M1905 3730 c-3 -5 -2 -10 4 -10 5 0 13 5 16 10 3 6 2 10 -4 10 -5 0
-13 -4 -16 -10z"/>
<path d="M1837 3355 c22 -40 134 -117 149 -102 3 3 -13 15 -35 27 -23 11 -60
38 -83 58 -24 22 -37 29 -31 17z"/>
<path d="M2146 3418 c-3 -24 -4 -53 -2 -65 11 -55 9 -184 -4 -196 -10 -10 -11
-9 -5 3 6 11 3 11 -10 -2 -15 -14 -16 -20 -5 -32 18 -22 37 -20 51 6 11 20 10
67 -4 316 -1 28 -15 9 -21 -30z m4 -288 c0 -5 -5 -10 -11 -10 -5 0 -7 5 -4 10
3 6 8 10 11 10 2 0 4 -4 4 -10z"/>
<path d="M2404 3224 c3 -9 6 -18 6 -20 0 -2 4 -4 9 -4 5 0 7 9 4 20 -3 11 -10
20 -15 20 -6 0 -7 -7 -4 -16z"/>
<path d="M1351 3334 c0 -11 3 -14 6 -6 3 7 2 16 -1 19 -3 4 -6 -2 -5 -13z"/>
<path d="M1247 2429 c7 -7 15 -10 18 -7 3 3 -2 9 -12 12 -14 6 -15 5 -6 -5z"/>
<path d="M1525 1749 c-4 -6 -5 -12 -2 -15 2 -3 7 2 10 11 7 17 1 20 -8 4z"/>
<path d="M1328 1707 c-3 -13 -1 -32 3 -43 5 -13 8 -7 8 24 1 46 -4 55 -11 19z"/>
<path d="M2081 1690 c0 -19 4 -44 9 -55 7 -16 9 -13 9 15 0 19 -4 44 -9 55 -7
16 -9 13 -9 -15z"/>
<path d="M1951 1584 c0 -11 3 -14 6 -6 3 7 2 16 -1 19 -3 4 -6 -2 -5 -13z"/>
<path d="M2190 110 c-8 -5 -12 -12 -9 -15 4 -3 12 1 19 10 14 17 11 19 -10 5z"/>
</g>
</svg>
