<?xml version="1.0" standalone="no"?>
<!DOCTYPE svg PUBLIC "-//W3C//DTD SVG 20010904//EN"
 "http://www.w3.org/TR/2001/REC-SVG-20010904/DTD/svg10.dtd">
<svg version="1.0" xmlns="http://www.w3.org/2000/svg"
 width="600.000000pt" height="849.000000pt" viewBox="0 0 600.000000 849.000000"
 preserveAspectRatio="xMidYMid meet">
<g transform="translate(0.000000,849.000000) scale(0.100000,-0.100000)"
fill="#000000" stroke="none">
<path d="M5388 8395 c-19 -19 -55 -64 -79 -100 -44 -65 -44 -65 -92 -65 -61 0
-97 -31 -97 -85 0 -29 5 -37 25 -45 14 -5 25 -12 25 -14 0 -3 -13 -26 -29 -52
-28 -44 -32 -46 -80 -49 -52 -2 -67 9 -59 46 2 10 -6 13 -26 12 -36 -3 -48
-14 -36 -33 8 -13 11 -12 24 5 9 12 16 15 17 8 1 -7 3 -17 4 -23 1 -5 3 -14 4
-18 0 -5 28 -10 61 -11 64 -2 70 1 127 77 21 27 26 29 48 19 23 -11 35 -37 17
-37 -5 0 -9 -7 -9 -17 0 -12 6 -9 22 11 18 23 27 26 61 22 21 -2 45 -5 52 -5
6 -1 12 -9 12 -18 0 -15 2 -15 14 2 13 18 8 20 -78 42 -50 13 -99 23 -109 23
-25 0 -77 38 -77 55 0 30 44 65 85 67 58 3 77 14 104 61 51 90 112 150 131
130 5 -4 18 -114 29 -243 12 -129 24 -250 27 -268 l5 -34 -37 37 c-20 20 -56
45 -80 55 -46 20 -139 40 -186 40 -28 0 -28 -1 -28 -62 0 -34 2 -59 4 -57 5 5
14 54 15 83 2 42 197 -9 259 -67 62 -58 91 -172 117 -472 12 -132 15 -267 13
-505 l-3 -325 -30 -60 c-27 -55 -36 -63 -92 -90 l-63 -29 0 -57 c0 -31 3 -97
6 -146 6 -85 8 -91 35 -107 27 -16 69 -100 55 -113 -3 -4 -44 -9 -90 -11 l-83
-4 -5 47 c-3 26 -11 52 -18 58 -10 10 -11 6 -6 -17 4 -15 10 -42 13 -59 l6
-30 -66 5 c-37 3 -67 2 -67 -3 0 -9 13 -11 78 -13 15 -1 30 -5 34 -11 5 -6 8
-6 8 1 0 14 90 14 90 0 0 -5 6 -4 13 2 6 5 24 10 38 10 15 0 42 7 60 16 34 17
88 12 57 -5 -9 -5 -33 -11 -54 -15 -22 -3 -52 -8 -69 -11 -63 -11 -115 -10
-115 1 0 8 -2 8 -8 0 -4 -7 -69 -14 -172 -19 -157 -7 -210 -1 -104 11 27 4 54
11 59 16 7 6 0 9 -20 6 -25 -3 -31 1 -38 27 -16 53 -28 78 -33 72 -5 -5 6 -53
21 -89 6 -16 1 -18 -39 -18 -25 0 -46 -4 -46 -8 0 -4 -10 -8 -22 -9 -13 0 -17
1 -10 4 22 9 5 123 -19 123 -11 0 -12 -13 0 -26 4 -5 11 -27 14 -48 l6 -39
-65 6 c-36 4 -69 9 -74 12 -6 4 -10 54 -11 113 0 59 -4 99 -8 88 -4 -10 -7
-46 -6 -81 l2 -62 -83 -13 c-87 -12 -127 -31 -109 -49 6 -6 53 -18 105 -28
122 -22 692 -26 805 -5 137 25 167 48 87 66 -36 9 -43 15 -58 54 -10 28 -27
51 -45 61 l-29 16 0 143 c0 124 2 142 16 142 29 0 110 51 127 79 37 63 47 138
47 361 l0 215 147 148 c89 90 157 150 172 153 38 8 74 24 68 30 -3 3 -14 1
-25 -5 -12 -6 -32 -11 -46 -11 -20 0 -59 -34 -169 -145 -79 -80 -145 -145
-147 -145 -3 0 -6 59 -8 130 l-3 130 65 67 65 67 -19 31 c-28 45 -11 69 41 60
24 -4 39 -3 39 3 0 17 -81 26 -91 11 -20 -30 -21 -60 -4 -79 17 -19 16 -21
-35 -77 -29 -32 -56 -59 -59 -61 -4 -1 -8 28 -9 65 -3 84 -28 261 -47 328 -8
28 -23 154 -35 280 -31 343 -32 349 -42 368 -14 26 -41 20 -80 -18z m-645
-2422 c6 -13 17 -23 24 -23 8 0 12 -4 9 -9 -5 -8 -91 6 -166 26 -22 5 -19 8
25 19 70 17 96 14 108 -13z m83 -41 c-10 -2 -22 0 -28 6 -6 6 0 7 19 4 21 -5
23 -7 9 -10z m57 1 c-7 -2 -19 -2 -25 0 -7 3 -2 5 12 5 14 0 19 -2 13 -5z"/>
<path d="M4823 8395 c0 -8 4 -12 9 -9 5 3 6 10 3 15 -9 13 -12 11 -12 -6z"/>
<path d="M4886 8373 c-57 -57 -265 -378 -319 -492 -55 -118 -70 -210 -61 -391
4 -79 12 -159 18 -176 12 -33 251 -242 264 -230 3 4 2 10 -5 14 -36 23 -112
96 -107 103 3 5 -1 7 -8 4 -7 -3 -40 19 -72 48 l-60 53 -8 140 c-13 236 3 338
64 395 64 59 136 84 335 114 39 6 41 5 36 -16 -5 -16 -3 -20 7 -14 8 5 11 3 8
-6 -4 -13 18 -38 34 -39 4 0 -2 21 -14 48 -13 26 -23 48 -24 50 -2 3 -179 -26
-224 -37 -52 -13 -111 -40 -147 -67 -18 -14 -33 -23 -33 -21 0 14 93 167 193
319 104 157 154 218 177 218 4 0 13 -53 20 -117 7 -65 16 -123 21 -129 5 -6
13 -28 18 -50 l9 -39 1 36 c1 20 -2 39 -6 43 -5 4 -15 65 -23 134 -15 124 -16
127 -41 130 -17 2 -34 -6 -53 -25z"/>
<path d="M5390 8339 c0 -5 5 -7 10 -4 6 3 10 8 10 11 0 2 -4 4 -10 4 -5 0 -10
-5 -10 -11z"/>
<path d="M4855 8269 c-4 -6 -5 -12 -2 -15 2 -3 7 2 10 11 7 17 1 20 -8 4z"/>
<path d="M5328 8243 c-20 -5 -32 -33 -15 -34 33 -2 51 -9 73 -30 13 -12 24
-17 24 -11 0 6 -4 14 -10 17 -5 3 -11 18 -11 33 -1 17 -3 21 -6 9 -2 -9 -9
-15 -14 -11 -5 3 -6 11 -2 17 4 7 -2 5 -12 -3 -17 -14 -18 -13 -12 3 3 9 5 16
4 16 -1 -1 -9 -3 -19 -6z"/>
<path d="M5417 8228 c9 -10 17 -18 17 -18 1 0 2 8 2 18 0 10 -8 18 -18 18 -16
0 -16 -2 -1 -18z"/>
<path d="M4900 8230 c0 -5 5 -10 10 -10 6 0 10 5 10 10 0 6 -4 10 -10 10 -5 0
-10 -4 -10 -10z"/>
<path d="M4863 8206 c-32 -30 -45 -37 -59 -32 -10 4 -13 2 -8 -6 5 -8 2 -9
-10 -5 -9 4 -15 3 -12 -2 3 -4 -8 -21 -24 -36 -45 -43 -36 -53 10 -11 22 20
48 36 58 37 116 7 148 17 124 41 -9 9 -15 8 -24 -4 -13 -15 -48 -32 -48 -22 0
3 5 14 10 24 12 22 0 33 -17 16z"/>
<path d="M5430 8175 c-3 -49 1 -99 11 -115 7 -12 9 -11 10 5 2 39 0 70 -10
105 l-9 35 -2 -30z"/>
<path d="M4707 8063 c-3 -5 -9 -25 -15 -45 -9 -32 -8 -38 4 -38 9 0 13 -4 10
-9 -3 -5 0 -11 8 -14 11 -5 12 1 4 30 -5 19 -7 46 -4 59 6 23 2 32 -7 17z"/>
<path d="M5452 8010 c0 -19 2 -27 5 -17 2 9 2 25 0 35 -3 9 -5 1 -5 -18z"/>
<path d="M4862 8008 c-23 -11 -41 -22 -40 -24 8 -7 88 21 92 33 7 17 -1 16
-52 -9z"/>
<path d="M5160 7995 c-8 -9 -8 -15 -2 -15 12 0 26 19 19 26 -2 2 -10 -2 -17
-11z"/>
<path d="M4875 7921 c-3 -5 -2 -12 3 -15 5 -3 9 1 9 9 0 17 -3 19 -12 6z"/>
<path d="M5254 7906 c-47 -21 -73 -64 -83 -142 -9 -75 -2 -175 14 -181 6 -2 9
29 7 85 -6 147 26 219 103 228 57 7 96 -20 131 -93 26 -52 29 -68 29 -155 0
-76 3 -98 14 -98 11 0 12 21 9 103 -3 89 -8 110 -33 162 -47 94 -113 125 -191
91z"/>
<path d="M4898 7871 c-70 -23 -134 -90 -163 -171 -20 -56 -19 -164 1 -225 22
-63 95 -139 149 -154 53 -14 72 -14 132 4 59 18 106 65 122 122 35 125 -20
347 -100 404 -32 22 -102 32 -141 20z m130 -39 c48 -31 102 -181 102 -285 0
-115 -43 -184 -131 -207 -228 -62 -357 294 -168 464 27 25 60 47 72 49 34 7
99 -4 125 -21z"/>
<path d="M5005 7739 c-4 -6 -5 -12 -2 -15 2 -3 7 2 10 11 7 17 1 20 -8 4z"/>
<path d="M4905 7680 c-19 -36 -19 -71 -1 -115 24 -57 81 -68 100 -19 16 43 0
139 -27 156 -27 17 -57 8 -72 -22z m66 -27 c8 -20 7 -33 -1 -47 -9 -14 -9 -16
0 -11 9 5 10 1 5 -16 -11 -35 -14 -35 -33 -8 -21 30 -27 76 -11 95 17 21 28
17 40 -13z"/>
<path d="M4936 7653 c-4 -9 -2 -21 4 -27 8 -8 9 -6 4 8 -5 13 -4 17 4 12 7 -4
12 -3 12 3 0 18 -18 21 -24 4z"/>
<path d="M4743 7795 c0 -8 4 -12 9 -9 5 3 6 10 3 15 -9 13 -12 11 -12 -6z"/>
<path d="M5220 7756 c0 -2 7 -7 16 -10 8 -3 12 -2 9 4 -6 10 -25 14 -25 6z"/>
<path d="M5251 7726 c-37 -44 -14 -146 32 -146 35 0 47 19 47 75 0 38 -5 57
-18 68 -23 21 -46 22 -61 3z m42 -17 c-9 -9 -8 -16 3 -27 13 -12 13 -17 2 -24
-10 -7 -10 -11 -1 -14 18 -8 4 -32 -16 -27 -23 6 -26 72 -3 90 21 16 30 17 15
2z"/>
<path d="M5823 7643 c-13 -2 -23 -10 -23 -18 0 -7 -6 -16 -12 -18 -10 -4 -10
-6 0 -6 7 -1 20 6 28 14 8 8 25 13 37 11 18 -3 22 -10 22 -40 0 -20 3 -36 8
-36 4 0 7 5 7 10 0 18 56 10 75 -10 18 -20 18 -21 -5 -53 -13 -17 -20 -29 -16
-25 5 4 20 2 35 -3 24 -8 24 -8 8 5 -15 12 -17 18 -7 36 18 34 -11 70 -56 70
-26 0 -35 4 -31 13 7 18 -15 52 -33 53 -8 1 -25 -1 -37 -3z"/>
<path d="M5215 7570 c3 -5 12 -7 20 -3 21 7 19 13 -6 13 -11 0 -18 -4 -14 -10z"/>
<path d="M5310 7560 c8 -5 33 -9 55 -9 35 1 37 2 15 9 -14 4 -38 8 -55 9 -23
0 -26 -2 -15 -9z"/>
<path d="M5377 7530 c-58 -10 -97 -34 -97 -58 0 -25 52 -104 85 -130 64 -50
111 -37 150 42 58 117 7 172 -138 146z m123 -29 c0 -15 -42 -41 -66 -41 -28 0
-84 20 -84 30 0 12 27 18 93 19 31 0 57 -3 57 -8z m-89 -65 c32 -11 37 -10 64
15 16 15 32 26 36 23 13 -8 -13 -81 -40 -113 -23 -27 -31 -31 -52 -22 -40 16
-103 84 -106 116 -2 29 16 35 41 13 12 -11 37 -25 57 -32z"/>
<path d="M4270 7500 c0 -6 10 -8 24 -4 24 6 58 -17 67 -45 3 -9 12 -9 37 0 27
9 37 8 57 -5 27 -18 35 -7 10 14 -8 7 -31 10 -52 8 -31 -4 -41 0 -56 19 -13
16 -29 23 -53 23 -19 0 -34 -5 -34 -10z"/>
<path d="M5847 7493 c-4 -3 -7 -15 -7 -25 0 -10 -7 -18 -15 -18 -8 0 -15 -4
-15 -10 0 -22 28 -8 40 20 12 30 10 47 -3 33z"/>
<path d="M4263 7460 c4 -15 1 -21 -11 -19 -40 4 -53 -3 -69 -36 -13 -26 -14
-38 -5 -47 8 -8 6 -17 -8 -36 -11 -14 -20 -31 -20 -38 0 -26 39 -54 73 -54 40
0 79 -25 210 -133 l94 -77 6 -188 c5 -163 12 -224 33 -293 3 -12 -10 -23 -48
-40 -42 -18 -76 -24 -162 -27 -86 -3 -116 -9 -143 -24 -19 -11 -32 -23 -29
-26 3 -2 18 4 33 14 22 15 48 19 128 20 55 0 115 4 133 8 24 6 32 4 31 -6 -1
-25 -14 -43 -29 -42 -32 2 -33 4 -14 19 10 8 14 15 7 15 -6 0 -15 -5 -18 -10
-4 -6 -16 -8 -28 -5 -21 6 -21 5 2 -14 43 -38 99 -15 89 37 -2 10 7 24 24 34
l28 17 47 -47 c27 -26 64 -52 83 -58 31 -9 35 -14 38 -48 4 -46 -14 -69 -102
-128 -88 -60 -200 -98 -294 -99 -110 -1 -152 18 -77 34 11 3 0 4 -25 4 -65 0
-96 16 -120 62 l-20 41 30 -6 c20 -4 30 -2 30 5 0 8 -8 10 -19 6 -24 -7 -51
28 -51 68 0 23 7 31 35 43 19 7 58 15 87 15 l53 2 -50 7 c-103 14 -169 -36
-134 -102 6 -11 13 -32 15 -46 12 -64 39 -89 154 -142 37 -17 173 -6 250 20
68 24 182 92 214 128 29 33 36 27 30 -22 -4 -27 -2 -46 5 -50 8 -5 11 22 11
94 0 92 2 101 18 97 41 -12 101 -20 157 -22 68 -2 62 7 64 -108 1 -43 5 -66
11 -62 6 3 10 45 10 93 l0 87 65 0 65 0 0 -171 0 -171 -30 -1 c-20 0 -31 5
-35 18 -8 24 -57 60 -82 60 -12 -1 -5 -8 19 -21 37 -19 68 -62 68 -94 0 -8 5
-15 11 -15 6 0 9 6 6 14 -6 15 24 28 41 17 5 -3 12 -17 15 -31 2 -14 4 31 4
100 -1 241 2 302 16 293 16 -10 177 -11 177 -1 0 4 7 8 15 8 8 0 12 6 9 14 -4
10 -15 11 -52 4 -65 -12 -452 -12 -535 1 -181 26 -230 99 -242 355 -3 66 -7
149 -9 184 -2 34 -2 62 1 62 3 0 24 -16 47 -35 24 -19 49 -35 55 -35 7 0 -5
15 -27 33 -291 240 -341 277 -372 277 -46 0 -70 12 -76 36 -7 26 12 58 30 51
7 -3 12 3 12 13 0 10 -6 16 -13 13 -16 -6 -17 30 -3 58 12 21 50 25 68 7 6 -6
15 -8 19 -3 5 4 3 10 -3 12 -6 2 -9 15 -6 28 3 16 0 25 -8 25 -8 0 -10 -8 -7
-20z"/>
<path d="M4452 7392 c-12 -25 -10 -29 14 -50 14 -13 29 -20 32 -17 3 3 -4 12
-16 21 -17 11 -20 21 -15 44 7 37 2 38 -15 2z"/>
<path d="M4720 7388 c0 -4 4 -8 9 -8 6 0 12 4 15 8 3 5 -1 9 -9 9 -8 0 -15 -4
-15 -9z"/>
<path d="M5542 7377 c-7 -7 -36 -63 -65 -123 -30 -60 -62 -116 -72 -124 -14
-11 -45 -15 -124 -15 -98 0 -110 2 -153 28 -51 30 -77 62 -55 70 6 2 1 2 -13
0 -14 -2 -33 -12 -44 -22 -18 -18 -18 -19 0 -47 11 -16 28 -37 39 -46 25 -22
108 -48 151 -48 40 0 86 20 81 34 -3 7 16 12 49 13 56 3 104 25 104 49 0 8 3
14 8 14 4 1 21 30 37 65 17 35 38 66 48 68 9 3 17 11 17 17 0 7 -7 10 -15 6
-8 -3 -15 -1 -15 4 0 6 4 10 8 10 4 0 13 14 19 30 12 33 11 37 -5 17z m-390
-260 c24 -9 60 -18 81 -22 23 -4 35 -10 31 -17 -4 -7 -34 -9 -81 -6 -79 5
-108 20 -146 71 -17 22 -18 29 -7 42 11 13 17 11 46 -19 18 -19 52 -41 76 -49z"/>
<path d="M5644 7368 c-4 -7 -3 -8 4 -4 18 11 37 -4 21 -16 -11 -8 -10 -9 3 -4
18 5 75 -39 71 -55 -2 -4 6 -7 17 -6 29 2 25 9 -31 55 -53 43 -73 50 -85 30z"/>
<path d="M4300 7358 c6 -7 24 -30 40 -52 17 -21 30 -35 30 -29 0 14 -60 93
-71 93 -6 0 -5 -5 1 -12z"/>
<path d="M5810 7360 c-9 -6 -10 -10 -3 -10 6 0 15 5 18 10 8 12 4 12 -15 0z"/>
<path d="M4423 7324 c9 -11 14 -24 10 -29 -5 -4 -2 -5 5 -1 7 4 10 11 7 16 -3
4 -2 10 2 13 5 2 3 3 -3 1 -6 -1 -18 3 -25 9 -7 7 -6 3 4 -9z"/>
<path d="M4810 7310 c-9 -6 -10 -10 -3 -10 6 0 15 5 18 10 8 12 4 12 -15 0z"/>
<path d="M4838 7298 c-10 -12 -18 -31 -18 -42 0 -10 -3 -17 -6 -13 -3 3 -15
-3 -27 -13 -11 -11 -36 -23 -54 -26 -19 -4 -32 -9 -29 -11 3 -3 29 1 58 8 29
7 57 13 63 14 5 0 12 15 16 33 4 19 12 39 18 45 6 6 11 15 11 19 0 15 -15 8
-32 -14z"/>
<path d="M5336 7307 c3 -10 9 -15 12 -12 3 3 0 11 -7 18 -10 9 -11 8 -5 -6z"/>
<path d="M4610 7283 c0 -6 8 -17 18 -24 16 -13 16 -13 2 6 -8 11 -16 22 -17
24 -2 2 -3 0 -3 -6z"/>
<path d="M4461 7225 c-28 -31 -49 -60 -45 -66 4 -6 13 -2 23 11 37 49 78 89
85 83 4 -4 4 0 0 10 -3 9 -7 17 -8 17 -2 0 -26 -25 -55 -55z"/>
<path d="M4820 7182 c0 -29 16 -55 70 -113 37 -41 55 -51 105 -64 61 -15 216
-25 209 -14 -2 4 15 9 38 12 37 5 100 47 70 47 -6 0 -12 -4 -12 -8 0 -28 -218
-45 -296 -23 -49 13 -103 48 -118 76 -6 11 -14 22 -17 25 -3 3 -16 23 -27 45
-17 32 -21 36 -22 17z"/>
<path d="M4527 7119 c7 -7 15 -10 18 -7 3 3 -2 9 -12 12 -14 6 -15 5 -6 -5z"/>
<path d="M4726 7078 c3 -5 10 -6 15 -3 13 9 11 12 -6 12 -8 0 -12 -4 -9 -9z"/>
<path d="M4680 6964 c0 -1 6 -7 14 -13 10 -9 15 -8 19 2 3 8 -3 13 -14 13 -11
0 -19 -1 -19 -2z"/>
<path d="M4576 6932 c-3 -6 -2 -13 2 -16 13 -8 15 -137 2 -172 l-10 -29 20 24
c15 17 20 38 20 81 0 59 -22 131 -34 112z"/>
<path d="M5070 6874 c-129 -13 -152 -20 -199 -59 -58 -49 -71 -91 -78 -239 -4
-90 -2 -139 5 -152 9 -15 12 9 12 106 1 195 25 251 129 302 43 21 58 23 251
23 l205 0 57 -29 c68 -34 85 -69 91 -183 5 -101 14 -100 16 1 2 62 -2 94 -14
117 -22 41 -63 79 -86 79 -9 0 -19 5 -21 10 -4 12 -166 39 -218 37 -19 -1 -87
-7 -150 -13z"/>
<path d="M3335 6649 c-17 -4 -47 -25 -66 -46 -41 -42 -180 -239 -261 -369
l-53 -84 -72 0 c-177 0 -272 -61 -297 -189 -13 -72 36 -163 95 -176 16 -4 29
-10 27 -14 -2 -3 -34 -61 -71 -127 l-68 -121 -121 -7 c-66 -4 -123 -4 -126 -1
-3 3 -8 40 -12 82 -6 65 -4 84 12 115 26 54 23 106 -12 174 -26 52 -31 78 -45
224 -28 301 -44 423 -60 446 -29 45 -107 38 -163 -16 -57 -54 -207 -276 -487
-720 -293 -464 -359 -601 -428 -890 l-32 -135 2 -385 c1 -212 6 -432 11 -490
5 -58 9 -106 7 -108 -1 -1 -22 15 -46 37 -24 21 -57 50 -73 63 l-28 24 21 34
c40 65 45 106 20 156 -42 89 -130 118 -204 69 -20 -15 -38 -25 -39 -23 -1 2
-11 24 -23 50 -12 25 -38 58 -58 73 -88 68 -215 -16 -202 -133 4 -41 3 -43
-17 -37 -61 18 -91 17 -126 -7 -75 -50 -99 -154 -50 -220 23 -31 22 -35 -11
-52 -39 -20 -64 -64 -63 -111 2 -105 108 -181 217 -156 33 8 44 6 74 -15 20
-13 44 -24 54 -24 9 0 71 -46 137 -102 65 -57 191 -165 279 -240 l160 -137 7
-318 c12 -512 40 -797 90 -917 l15 -36 -82 -42 c-177 -88 -191 -91 -467 -92
-231 -1 -247 -3 -286 -23 -50 -27 -65 -44 -73 -86 l-7 -32 -82 -7 c-153 -13
-227 -74 -226 -187 0 -59 16 -99 57 -142 18 -20 22 -31 14 -44 -17 -32 -3
-121 29 -172 23 -38 42 -55 95 -81 37 -19 85 -36 108 -39 23 -3 41 -11 41 -18
0 -21 66 -73 107 -85 178 -51 533 12 789 141 122 62 212 127 318 231 44 43 81
76 82 75 1 -1 4 -178 7 -393 3 -261 9 -399 16 -413 39 -72 295 -111 607 -91
131 8 210 29 229 61 12 19 9 147 -4 196 -17 62 -68 123 -128 153 l-52 25 0
337 -1 336 158 4 c86 2 158 3 158 3 2 0 14 -772 14 -896 0 -112 1 -117 26
-143 31 -30 121 -60 214 -71 36 -4 153 -7 260 -7 206 1 289 14 340 51 23 17
25 24 25 102 0 72 -5 93 -28 141 -31 63 -91 121 -143 138 l-34 12 0 372 0 373
61 17 c85 23 171 69 218 115 74 72 136 229 162 406 7 49 13 289 16 614 l4 534
192 201 c106 111 257 273 337 359 80 86 154 160 165 163 11 4 31 17 45 29 19
17 40 24 86 27 119 8 188 74 181 174 -4 60 -29 99 -74 116 -25 9 -30 15 -22
25 6 7 15 29 20 50 12 55 -6 110 -52 156 -37 37 -41 39 -91 35 -29 -2 -61 -8
-70 -12 -16 -7 -18 -2 -18 34 0 60 -30 105 -85 125 -36 14 -50 15 -79 5 -41
-13 -105 -82 -113 -122 -6 -32 -10 -33 -37 -13 -28 21 -105 19 -142 -4 -32
-20 -74 -92 -74 -128 0 -31 26 -86 53 -113 l25 -25 -137 -147 -136 -146 -2 51
c-15 314 -84 793 -144 987 -14 47 -28 164 -49 420 -69 821 -102 1144 -121
1191 -9 24 -57 60 -76 58 -4 0 -22 -5 -38 -10z m67 -56 c9 -11 20 -54 27 -103
11 -92 58 -596 91 -995 11 -137 25 -267 29 -287 5 -21 7 -38 5 -38 -2 0 -16
19 -30 43 -14 23 -46 62 -69 87 l-43 45 -12 125 c-7 69 -16 188 -20 265 -13
203 -29 365 -41 403 -7 20 -17 32 -28 32 -18 0 -57 -37 -85 -81 l-16 -26 -58
28 c-32 15 -74 30 -93 34 -75 14 -83 -3 133 306 119 172 168 209 210 162z
m-1239 -55 c19 -15 27 -69 55 -376 l18 -193 -20 6 c-12 3 -40 9 -62 12 -41 5
-42 6 -47 50 -3 25 -12 52 -21 61 -14 14 -17 14 -37 -4 -12 -10 -39 -42 -60
-70 -29 -40 -46 -53 -73 -58 -68 -13 -190 -83 -245 -141 -63 -67 -92 -128 -99
-210 -5 -73 10 -127 44 -154 22 -17 23 -22 12 -45 -6 -15 -23 -29 -37 -32 -82
-19 -273 -142 -331 -212 -17 -20 -30 -31 -30 -25 0 34 223 441 324 593 13 19
71 109 128 200 281 444 368 566 425 595 34 18 35 18 56 3z m1161 -436 c3 -20
8 -68 11 -107 l7 -70 -30 41 c-16 22 -42 50 -57 62 -17 13 -24 26 -19 34 21
36 67 87 74 83 5 -3 11 -22 14 -43z m-328 -7 c192 -37 327 -150 341 -287 4
-44 2 -58 -16 -80 -23 -29 -74 -48 -129 -48 -20 0 -72 21 -136 54 -108 57
-178 76 -273 76 -110 0 -159 43 -151 134 12 139 143 193 364 151z m-916 -24
c0 -10 3 -33 7 -51 5 -28 3 -32 -9 -27 -9 3 -32 2 -52 -3 -42 -9 -43 -10 4 52
38 51 50 58 50 29z m147 -154 c17 -11 39 -35 49 -51 22 -38 24 -116 4 -141
-20 -24 -78 -49 -175 -75 -84 -22 -138 -50 -215 -108 -88 -67 -188 -91 -237
-57 -51 36 -54 149 -5 238 29 54 106 129 162 157 107 55 261 85 345 67 22 -4
54 -18 72 -30z m721 -174 c24 -8 42 -20 40 -27 -2 -6 -25 -53 -53 -103 l-50
-93 -132 3 c-73 1 -133 4 -133 5 0 4 100 178 127 220 13 22 19 23 86 17 40 -3
91 -13 115 -22z m210 -98 c61 -10 124 2 166 30 l36 24 0 -27 c1 -15 7 -90 14
-167 8 -77 12 -142 11 -144 -2 -1 -19 8 -37 22 -73 56 -295 127 -395 127 -24
0 -43 3 -43 6 0 3 23 47 50 99 l51 93 52 -28 c28 -15 71 -31 95 -35z m-886
-67 c3 -40 4 -74 4 -74 -1 -1 -28 -4 -61 -5 l-60 -4 -3 62 -3 62 48 14 c72 22
70 24 75 -55z m-140 -28 c1 -33 0 -60 -4 -60 -38 0 -248 -34 -303 -49 -38 -11
-73 -17 -78 -14 -5 3 -12 1 -16 -4 -3 -6 -25 -13 -48 -17 -35 -5 -41 -4 -37 9
4 10 20 15 46 15 21 0 37 4 34 8 -2 4 12 7 32 6 49 -1 94 18 172 76 63 47 147
88 182 89 13 1 17 -11 20 -59z m603 -92 c-14 -48 -27 -729 -16 -847 7 -63 14
-117 16 -121 2 -4 44 -10 92 -13 142 -11 579 -81 596 -97 4 -4 -37 -10 -92
-14 -231 -16 -350 -79 -337 -180 7 -59 59 -153 131 -238 136 -158 251 -190
349 -95 24 23 48 51 54 62 20 37 21 9 2 -45 -10 -30 -35 -108 -55 -172 -42
-133 -89 -238 -130 -286 -31 -37 -93 -72 -175 -97 -84 -26 -317 -32 -411 -11
-139 31 -236 92 -280 178 -10 21 -19 40 -19 43 0 3 18 5 41 5 33 0 40 3 37 18
-3 14 -13 17 -54 16 -68 -2 -146 -43 -180 -94 -28 -41 -46 -104 -37 -126 8
-23 33 -16 33 9 0 31 11 67 20 67 4 0 10 -12 13 -27 3 -16 19 -48 36 -74 93
-140 309 -211 536 -177 55 8 108 18 118 22 26 12 21 -17 -8 -47 -44 -44 -236
-77 -445 -77 -241 0 -365 45 -499 179 -118 119 -170 245 -156 377 7 70 49 166
88 202 21 20 27 21 86 11 133 -21 335 40 427 130 160 157 191 377 109 786 -39
195 -107 333 -204 414 -39 33 -49 49 -59 92 -7 28 -29 88 -50 133 -21 44 -40
85 -43 90 -2 6 33 12 81 14 47 2 87 6 89 8 2 2 72 4 154 4 l149 0 -7 -22z
m212 12 c259 -33 458 -138 550 -291 106 -177 199 -679 222 -1199 5 -107 6
-198 2 -202 -6 -7 -179 -27 -185 -21 -1 2 12 60 30 131 67 265 65 421 -7 472
-16 12 -48 27 -71 34 -24 7 -42 18 -41 24 14 64 24 226 19 303 -18 288 -115
501 -267 583 -62 34 -171 46 -235 26 -94 -29 -194 -132 -210 -216 -7 -40 -25
-46 -19 -6 2 15 7 88 10 162 3 74 8 152 11 173 l7 37 51 0 c28 0 88 -5 133
-10z m-678 -70 c31 -57 84 -200 78 -206 -2 -2 -23 7 -48 19 -36 18 -61 22
-140 22 -90 0 -99 -2 -170 -37 -160 -80 -292 -251 -351 -455 -30 -104 -32
-326 -4 -448 45 -195 181 -388 311 -441 50 -21 54 -28 26 -44 -28 -14 -80
-126 -87 -185 l-6 -50 -65 -28 c-76 -33 -189 -63 -254 -68 -46 -4 -47 -4 -190
116 -215 181 -211 177 -214 216 -13 156 -27 669 -22 814 6 202 18 263 77 391
43 94 85 144 180 214 155 115 330 167 735 219 117 14 109 17 144 -49z m898
-132 c68 -34 145 -123 181 -210 53 -127 67 -219 67 -435 0 -105 -3 -194 -6
-198 -4 -3 -33 1 -65 9 -33 8 -111 22 -174 32 -63 10 -116 19 -118 20 -2 1 8
13 22 27 32 32 42 112 27 213 -18 121 -47 163 -114 164 -77 0 -112 -75 -105
-227 3 -77 8 -98 27 -124 12 -17 21 -32 19 -34 -2 -2 -33 0 -68 5 -35 5 -67 7
-71 5 -22 -14 -43 247 -31 391 16 184 67 297 159 351 84 49 167 52 250 11z
m-932 -83 c97 -16 208 -112 268 -231 91 -181 146 -596 101 -767 -47 -182 -162
-287 -357 -325 -103 -20 -201 -8 -292 37 -53 26 -76 46 -127 111 -124 155
-158 253 -165 485 -5 156 -4 162 24 250 74 227 245 411 413 444 45 9 57 9 135
-4z m-1017 -94 c-13 -14 -26 -30 -31 -36 -5 -5 -3 2 4 18 7 15 16 27 21 27 5
0 7 4 4 8 -3 5 2 9 10 9 11 0 9 -7 -8 -26z m1783 -241 c6 0 7 5 4 10 -3 6 -1
10 4 10 6 0 11 -6 11 -13 0 -7 8 -17 19 -24 10 -6 22 -29 26 -50 12 -63 9
-243 -5 -243 -4 0 -12 -11 -18 -25 -10 -21 -19 -25 -52 -25 -22 0 -39 3 -39 8
4 25 -2 42 -13 36 -7 -4 -10 -4 -6 1 4 4 1 20 -7 36 -18 35 -21 219 -4 219 6
0 9 9 6 20 -3 13 -1 18 6 13 7 -4 8 0 4 11 -4 10 -3 15 3 11 6 -3 10 -1 10 5
0 6 4 9 9 5 5 -3 13 0 17 7 6 9 9 9 12 0 2 -7 8 -12 13 -12z m1398 -250 c21
-10 41 -26 45 -35 10 -28 6 -89 -8 -114 -8 -14 -12 -31 -9 -38 7 -18 38 -16
54 4 18 21 71 43 105 43 16 0 39 -13 60 -34 28 -28 34 -42 34 -76 0 -25 -9
-58 -21 -80 -24 -43 -20 -70 10 -70 112 0 122 -154 13 -202 -33 -15 -59 -19
-98 -16 -48 4 -56 2 -70 -20 -8 -13 -30 -30 -48 -37 -17 -7 -70 -56 -116 -108
-47 -53 -87 -96 -90 -96 -3 -1 -39 32 -81 72 -42 41 -119 111 -172 156 -54 46
-97 86 -97 89 0 4 41 51 90 105 50 53 90 101 90 106 0 5 -18 27 -40 49 -32 32
-40 47 -40 76 0 98 75 142 160 95 48 -27 66 -20 79 28 14 49 36 80 75 104 38
23 29 23 75 -1z m-934 -230 c3 -6 -1 -7 -9 -4 -18 7 -21 14 -7 14 6 0 13 -4
16 -10z m45 -15 c11 -13 10 -14 -4 -9 -9 3 -16 10 -16 15 0 13 6 11 20 -6z
m26 -59 c32 -32 34 -38 34 -105 0 -116 -54 -246 -130 -315 -50 -45 -92 -47
-163 -8 -90 48 -222 223 -242 320 -6 28 -2 36 23 60 52 49 182 79 346 81 l98
1 34 -34z m-2878 -32 c25 -18 62 -84 62 -112 0 -11 7 -25 15 -32 13 -11 23 -8
59 18 58 42 89 48 124 27 79 -50 83 -140 10 -193 -30 -22 -21 -38 50 -98 37
-31 84 -72 105 -91 l38 -34 -93 -102 c-52 -56 -120 -133 -153 -172 -32 -38
-62 -70 -66 -70 -5 0 -51 37 -104 83 -54 47 -108 85 -124 88 -16 4 -43 19 -59
35 -26 25 -33 28 -57 19 -36 -14 -115 -12 -145 3 -14 6 -35 33 -48 59 -22 44
-22 48 -8 77 18 34 48 54 86 55 40 2 37 33 -6 77 -33 34 -38 46 -38 80 2 45
27 87 66 106 30 15 87 2 130 -30 25 -19 30 -19 43 -6 13 13 13 21 -7 66 -19
45 -20 57 -10 90 19 62 83 90 130 57z m-141 -180 c2 -13 1 -15 -4 -4 -3 8 -11
19 -17 23 -7 6 -6 7 4 4 8 -2 16 -12 17 -23z m3418 -102 c22 -20 58 -52 80
-71 22 -18 82 -74 132 -124 l93 -91 -68 -70 c-37 -39 -107 -114 -157 -167
-188 -199 -228 -240 -230 -237 -2 2 -6 154 -9 338 l-7 335 58 63 c32 34 60 62
63 62 3 0 23 -17 45 -38z m-378 6 c-3 -8 -6 -5 -6 6 -1 11 2 17 5 13 3 -3 4
-12 1 -19z m179 -475 c4 -131 8 -490 8 -798 1 -570 -5 -684 -40 -823 -15 -58
-52 -161 -63 -174 -3 -4 -6 93 -7 215 -1 272 -15 403 -50 474 -54 111 -186
194 -365 229 -113 22 -599 31 -752 14 -163 -18 -278 -44 -354 -82 -131 -64
-233 -201 -269 -363 -24 -109 -30 -469 -10 -619 8 -66 14 -121 13 -122 -1 -1
-56 9 -122 23 -270 54 -397 166 -469 415 -13 46 -30 127 -37 180 l-12 97 42
46 c100 108 135 280 97 478 -20 101 -50 162 -113 225 -29 29 -53 62 -53 73 0
22 15 25 27 6 7 -12 174 -157 209 -182 9 -6 17 -6 25 2 16 16 5 28 -96 114
-44 37 -163 139 -265 226 -102 87 -201 170 -219 186 l-33 27 38 48 c56 69 267
302 273 302 5 0 124 -100 505 -423 116 -99 156 -121 156 -88 0 9 -154 146
-232 207 -16 12 -28 24 -28 27 0 2 29 7 64 11 68 7 167 36 228 67 48 25 48 25
48 -14 0 -151 153 -359 325 -442 119 -58 180 -69 360 -69 166 0 305 18 421 54
54 16 61 22 83 65 20 41 21 51 10 71 -14 28 -24 29 -61 10 -38 -20 -43 -5 -10
25 19 18 52 30 117 43 105 20 176 50 228 96 43 38 112 174 146 288 16 52 26
72 39 72 35 1 137 13 141 16 2 2 14 4 27 4 22 0 22 -1 30 -237z m-1296 -28
c16 -48 88 -126 147 -157 101 -54 343 -97 379 -67 11 9 10 0 -7 -33 l-22 -46
-82 -7 c-136 -12 -278 20 -367 81 -48 33 -103 107 -123 165 l-16 44 33 27 c18
15 36 28 40 28 3 0 12 -16 18 -35z m-1151 -702 c43 -118 49 -268 16 -388 -17
-59 -84 -170 -96 -158 -4 4 -10 125 -13 268 -4 143 -9 298 -11 345 l-5 85 43
-47 c26 -28 53 -70 66 -105z m1780 -153 c146 -11 232 -31 321 -73 82 -39 159
-115 183 -182 25 -70 39 -272 35 -514 l-3 -203 -35 -30 c-109 -92 -319 -143
-705 -169 -201 -14 -759 -18 -896 -6 l-97 9 -13 101 c-9 61 -14 189 -13 317 0
179 4 231 21 313 46 213 178 351 383 400 64 15 202 34 290 40 108 8 415 6 529
-3z m-1769 -936 c68 -108 193 -197 321 -226 l49 -11 0 -100 0 -99 -77 -80
c-149 -153 -317 -261 -512 -329 l-94 -33 -29 34 c-40 49 -86 167 -109 279 -21
105 -39 481 -23 481 5 0 20 -26 33 -56 34 -79 88 -118 153 -111 98 9 155 84
145 192 l-6 60 52 27 c29 15 54 27 57 27 3 1 21 -24 40 -55z m-180 -83 c0 -49
-4 -65 -26 -90 -57 -68 -141 -57 -194 25 -28 45 -40 81 -22 70 11 -7 143 21
184 39 54 24 58 21 58 -44z m-382 -1 l62 0 0 -153 c0 -283 39 -469 125 -597
38 -56 45 -49 -80 -76 -50 -11 -125 -18 -200 -18 -112 -1 -124 1 -177 27 -32
16 -58 32 -58 37 0 5 28 10 62 12 49 2 63 7 66 19 3 15 -12 17 -115 20 -105 4
-124 7 -176 32 -74 37 -109 86 -115 164 -5 55 -4 56 19 49 84 -26 111 -30 119
-16 13 20 5 27 -39 33 -89 12 -165 96 -163 182 0 54 20 85 74 116 40 22 53 24
186 24 100 0 142 3 142 11 0 14 -23 24 -53 24 -39 0 -52 15 -39 44 25 55 93
77 217 71 44 -3 108 -5 143 -5z m2552 -384 l0 -234 -27 -6 c-51 -11 -386 -17
-473 -9 l-85 8 -3 211 -3 211 183 12 c101 7 221 19 268 26 47 7 97 13 113 14
l27 1 0 -234z m-1301 185 c74 -6 173 -11 220 -11 l86 0 3 -209 c3 -187 1 -209
-14 -215 -29 -11 -336 -19 -456 -11 l-118 7 0 237 0 237 73 -12 c39 -7 133
-17 206 -23z m1301 -574 l0 -133 34 -12 c101 -37 163 -123 173 -242 6 -67 5
-68 -23 -83 -17 -8 -46 -18 -65 -22 l-36 -7 -6 69 c-11 113 -60 224 -87 197
-9 -9 -5 -25 15 -62 23 -45 55 -196 44 -207 -2 -1 -59 -5 -127 -6 l-122 -4 0
77 c0 42 -5 89 -11 105 -15 41 -52 93 -66 93 -24 0 -24 -21 1 -51 32 -37 46
-88 46 -163 l0 -59 -92 6 c-100 7 -173 24 -225 51 l-33 17 -1 257 c0 141 -2
266 -4 277 -4 20 -1 21 213 17 178 -3 275 2 365 17 4 0 7 -59 7 -132z m-991
-8 l-1 -131 42 -19 c70 -32 102 -60 127 -115 20 -43 23 -66 21 -126 l-3 -73
-50 -17 -50 -16 -11 86 c-16 122 -52 200 -86 187 -15 -6 -14 -12 12 -58 24
-45 60 -201 48 -212 -2 -1 -58 -5 -125 -7 l-123 -4 0 78 c0 84 -16 136 -52
175 -23 25 -48 30 -48 11 0 -6 12 -27 26 -45 20 -26 29 -54 36 -113 6 -44 8
-85 5 -93 -10 -27 -265 11 -322 49 l-25 16 -1 242 c0 132 -2 255 -4 271 l-4
31 227 -4 c125 -2 254 1 287 6 33 5 64 10 68 11 4 0 7 -58 6 -130z"/>
<path d="M1786 6033 c-6 -14 -5 -15 5 -6 7 7 10 15 7 18 -3 3 -9 -2 -12 -12z"/>
<path d="M1525 5400 c-3 -6 1 -7 9 -4 18 7 21 14 7 14 -6 0 -13 -4 -16 -10z"/>
<path d="M2716 6037 c3 -10 9 -15 12 -12 3 3 0 11 -7 18 -10 9 -11 8 -5 -6z"/>
<path d="M2290 3520 c-9 -6 -10 -10 -3 -10 6 0 15 5 18 10 8 12 4 12 -15 0z"/>
<path d="M3395 5240 c10 -11 20 -20 23 -20 3 0 -3 9 -13 20 -10 11 -20 20 -23
20 -3 0 3 -9 13 -20z"/>
<path d="M2088 5273 c7 -3 16 -2 19 1 4 3 -2 6 -13 5 -11 0 -14 -3 -6 -6z"/>
<path d="M1849 5173 c-13 -16 -12 -17 4 -4 16 13 21 21 13 21 -2 0 -10 -8 -17
-17z"/>
<path d="M1705 4029 c-4 -6 -5 -12 -2 -15 2 -3 7 2 10 11 7 17 1 20 -8 4z"/>
<path d="M1765 3929 c-4 -6 -5 -12 -2 -15 2 -3 7 2 10 11 7 17 1 20 -8 4z"/>
<path d="M1510 3526 c0 -2 7 -7 16 -10 8 -3 12 -2 9 4 -6 10 -25 14 -25 6z"/>
<path d="M2105 4787 c-49 -49 -69 -128 -61 -235 9 -121 40 -183 110 -219 55
-29 128 9 155 80 24 62 8 242 -26 312 -48 97 -119 121 -178 62z m109 -10 c4 5
6 4 4 -2 -1 -5 7 -20 19 -32 12 -12 27 -39 33 -60 14 -46 25 -213 16 -246 -14
-59 -97 -107 -126 -72 -7 8 -17 12 -24 8 -6 -4 -4 2 4 12 8 10 9 16 3 11 -12
-7 -47 24 -49 44 -1 6 -2 11 -4 13 -6 7 -12 51 -15 112 -4 89 11 152 41 171
13 9 20 22 17 30 -8 21 38 35 58 18 9 -8 19 -11 23 -7z"/>
<path d="M2484 4050 c0 -13 4 -16 10 -10 7 7 7 13 0 20 -6 6 -10 3 -10 -10z"/>
<path d="M4358 4230 c-5 -54 -25 -83 -70 -106 -31 -16 -38 -44 -11 -44 24 0
79 40 96 70 30 52 31 130 2 130 -8 0 -14 -19 -17 -50z"/>
<path d="M4326 3907 c3 -10 9 -15 12 -12 3 3 0 11 -7 18 -10 9 -11 8 -5 -6z"/>
<path d="M3259 4300 c-108 -18 -132 -76 -49 -117 99 -50 184 -46 270 11 52 35
60 63 26 93 -24 20 -37 23 -114 22 -48 -1 -108 -5 -133 -9z m229 -26 c12 -8
22 -19 22 -25 0 -17 -92 -68 -136 -75 -84 -12 -220 43 -187 77 34 34 260 52
301 23z"/>
<path d="M814 4108 l-19 -23 23 19 c21 18 27 26 19 26 -2 0 -12 -10 -23 -22z"/>
<path d="M614 3926 c-8 -22 4 -84 23 -112 31 -48 123 -85 123 -50 0 7 -13 19
-29 26 -44 18 -74 56 -80 102 -6 43 -26 62 -37 34z"/>
<path d="M780 3800 c-9 -6 -10 -10 -3 -10 6 0 15 5 18 10 8 12 4 12 -15 0z"/>
<path d="M966 3802 c-3 -5 1 -9 9 -9 8 0 12 4 9 9 -3 4 -7 8 -9 8 -2 0 -6 -4
-9 -8z"/>
<path d="M1052 3755 c4 -4 3 -16 -3 -26 -5 -11 -7 -19 -5 -19 3 0 10 9 16 19
7 15 7 22 -2 27 -7 4 -10 4 -6 -1z"/>
<path d="M1193 3625 c0 -8 4 -12 9 -9 5 3 6 10 3 15 -9 13 -12 11 -12 -6z"/>
<path d="M1025 3560 c-4 -6 -12 -7 -18 -3 -7 4 -6 -1 2 -10 15 -19 24 -16 27
8 3 17 -2 19 -11 5z"/>
<path d="M1526 3352 c-3 -5 1 -9 9 -9 8 0 12 4 9 9 -3 4 -7 8 -9 8 -2 0 -6 -4
-9 -8z"/>
<path d="M1573 3305 c0 -8 3 -13 5 -10 3 3 12 -1 21 -7 10 -8 9 -4 -3 10 -23
26 -23 26 -23 7z"/>
<path d="M1344 3029 c-3 -6 -2 -15 3 -20 5 -5 9 -1 9 11 0 23 -2 24 -12 9z"/>
<path d="M1486 2837 c3 -10 9 -15 12 -12 3 3 0 11 -7 18 -10 9 -11 8 -5 -6z"/>
<path d="M2436 3362 c-3 -5 1 -9 9 -9 8 0 12 4 9 9 -3 4 -7 8 -9 8 -2 0 -6 -4
-9 -8z"/>
<path d="M2485 3351 c-3 -5 -2 -12 3 -15 5 -3 9 1 9 9 0 17 -3 19 -12 6z"/>
<path d="M3475 2430 c-3 -6 1 -7 9 -4 18 7 21 14 7 14 -6 0 -13 -4 -16 -10z"/>
<path d="M1044 1560 c0 -13 4 -16 10 -10 7 7 7 13 0 20 -6 6 -10 3 -10 -10z"/>
<path d="M3039 633 c-13 -16 -12 -17 4 -4 16 13 21 21 13 21 -2 0 -10 -8 -17
-17z"/>
<path d="M2963 625 c0 -8 4 -12 9 -9 5 3 6 10 3 15 -9 13 -12 11 -12 -6z"/>
<path d="M3398 603 c7 -3 16 -2 19 1 4 3 -2 6 -13 5 -11 0 -14 -3 -6 -6z"/>
<path d="M2966 542 c-3 -5 1 -9 9 -9 8 0 12 4 9 9 -3 4 -7 8 -9 8 -2 0 -6 -4
-9 -8z"/>
<path d="M4566 6427 c3 -10 9 -15 12 -12 3 3 0 11 -7 18 -10 9 -11 8 -5 -6z"/>
<path d="M4397 6363 c4 -73 25 -146 54 -184 19 -26 21 -8 2 26 -17 31 -33 99
-37 156 -2 28 -8 55 -14 61 -6 6 -8 -15 -5 -59z"/>
<path d="M4845 6344 c-9 -14 -15 -15 -32 -6 -20 11 -33 7 -33 -10 0 -4 46 -8
102 -8 109 0 132 8 31 11 -47 2 -60 5 -56 15 7 19 0 17 -12 -2z"/>
<path d="M4137 6327 c-3 -8 1 -14 8 -14 7 0 11 6 8 14 -3 7 -6 13 -8 13 -2 0
-5 -6 -8 -13z"/>
<path d="M5205 6330 c-42 -11 85 -11 145 -1 40 8 36 9 -35 9 -44 0 -93 -4
-110 -8z"/>
<path d="M4675 6319 c-4 -6 -5 -12 -2 -15 2 -3 7 2 10 11 7 17 1 20 -8 4z"/>
<path d="M5190 6222 c0 -10 21 -12 93 -8 50 3 95 6 100 6 4 0 7 3 7 8 0 4 -45
7 -100 7 -75 0 -100 -3 -100 -13z"/>
<path d="M4780 6210 c-10 -7 22 -10 93 -10 59 0 107 4 107 9 0 12 -181 13
-200 1z"/>
<path d="M4518 6203 c7 -3 16 -2 19 1 4 3 -2 6 -13 5 -11 0 -14 -3 -6 -6z"/>
<path d="M4665 6191 c-3 -5 -2 -12 3 -15 5 -3 9 1 9 9 0 17 -3 19 -12 6z"/>
<path d="M5000 6150 c0 -16 5 -30 10 -30 6 0 10 14 10 30 0 17 -4 30 -10 30
-5 0 -10 -13 -10 -30z"/>
<path d="M4555 6111 c-3 -5 -2 -12 3 -15 5 -3 9 1 9 9 0 17 -3 19 -12 6z"/>
<path d="M5340 6076 c0 -2 7 -7 16 -10 8 -3 12 -2 9 4 -6 10 -25 14 -25 6z"/>
<path d="M5400 6060 c0 -5 5 -10 10 -10 6 0 10 -13 10 -29 0 -17 5 -33 12 -37
8 -5 9 2 5 26 -4 18 -7 39 -7 46 0 8 -7 14 -15 14 -8 0 -15 -4 -15 -10z"/>
<path d="M4943 6015 c0 -7 6 -11 14 -8 7 3 13 6 13 8 0 2 -6 5 -13 8 -8 3 -14
-1 -14 -8z"/>
<path d="M2606 5778 c3 -5 10 -6 15 -3 13 9 11 12 -6 12 -8 0 -12 -4 -9 -9z"/>
<path d="M3926 4477 c3 -10 9 -15 12 -12 3 3 0 11 -7 18 -10 9 -11 8 -5 -6z"/>
<path d="M4770 4245 c0 -2 6 -8 13 -14 10 -8 14 -7 14 2 0 8 -6 14 -14 14 -7
0 -13 -1 -13 -2z"/>
<path d="M3789 4033 c-13 -16 -12 -17 4 -4 16 13 21 21 13 21 -2 0 -10 -8 -17
-17z"/>
<path d="M4540 3880 c-9 -6 -10 -10 -3 -10 6 0 15 5 18 10 8 12 4 12 -15 0z"/>
<path d="M4346 3712 c-3 -5 1 -9 9 -9 8 0 12 4 9 9 -3 4 -7 8 -9 8 -2 0 -6 -4
-9 -8z"/>
<path d="M4216 3538 c3 -5 10 -6 15 -3 13 9 11 12 -6 12 -8 0 -12 -4 -9 -9z"/>
<path d="M734 3349 c-3 -6 -2 -15 3 -20 5 -5 9 -1 9 11 0 23 -2 24 -12 9z"/>
<path d="M3821 1994 c0 -11 3 -14 6 -6 3 7 2 16 -1 19 -3 4 -6 -2 -5 -13z"/>
<path d="M1026 752 c-3 -5 1 -9 9 -9 8 0 12 4 9 9 -3 4 -7 8 -9 8 -2 0 -6 -4
-9 -8z"/>
<path d="M335 740 c-3 -6 1 -7 9 -4 18 7 21 14 7 14 -6 0 -13 -4 -16 -10z"/>
<path d="M2456 712 c-3 -5 1 -9 9 -9 8 0 12 4 9 9 -3 4 -7 8 -9 8 -2 0 -6 -4
-9 -8z"/>
</g>
</svg>
